<svg xmlns="http://www.w3.org/2000/svg" xmlns:xlink="http://www.w3.org/1999/xlink" viewBox="0 0 1600 1600" width="1600" height="1600" preserveAspectRatio="xMidYMid meet" style="width: 100%; height: 100%; transform: translate3d(0px, 0px, 0px); content-visibility: visible;"><defs><clipPath id="__lottie_element_2"><rect width="1600" height="1600" x="0" y="0"></rect></clipPath><clipPath id="__lottie_element_4"><path d="M0,0 L2500,0 L2500,2500 L0,2500z"></path></clipPath></defs><g clip-path="url(#__lottie_element_2)"><g clip-path="url(#__lottie_element_4)" transform="matrix(0.6399999856948853,0,0,0.6399999856948853,0,0)" opacity="1" style="display: block;"><g transform="matrix(1,0,0,1,0,0)" opacity="1" style="display: block;"><g opacity="1" transform="matrix(1,0,0,1,1787.3740234375,1821.31396484375)"><path stroke-linecap="round" stroke-linejoin="round" fill-opacity="0" stroke="rgb(0,19,50)" stroke-opacity="1" stroke-width="3" d=" M-344.56298828125,0 C-344.56298828125,0 344.56298828125,0 344.56298828125,0"></path></g><g opacity="1" transform="matrix(1,0,0,1,1787.5579833984375,1784.7060546875)"><path stroke-linecap="round" stroke-linejoin="round" fill-opacity="0" stroke="rgb(0,19,50)" stroke-opacity="1" stroke-width="3" d=" M356.9880065917969,241.18899536132812 C356.9880065917969,241.18899536132812 328.1239929199219,-241.18899536132812 328.1239929199219,-241.18899536132812 C328.1239929199219,-241.18899536132812 -328.1239929199219,-241.18899536132812 -328.1239929199219,-241.18899536132812 C-328.1239929199219,-241.18899536132812 -356.9880065917969,241.18899536132812 -356.9880065917969,241.18899536132812"></path></g><g opacity="1" transform="matrix(1,0,0,1,0,0)"><g opacity="1" transform="matrix(1,0,0,1,0,0)"><g opacity="1" transform="matrix(1,0,0,1,1870.7049560546875,1089.8189697265625)"><path stroke-linecap="round" stroke-linejoin="round" fill-opacity="0" stroke="rgb(0,19,50)" stroke-opacity="1" stroke-width="3" d=" M-138.54600524902344,-147.23599243164062 C-138.54600524902344,-147.23599243164062 -138.54600524902344,-188.7050018310547 -138.54600524902344,-188.7050018310547 C-138.54600524902344,-188.7050018310547 -111.76000213623047,-188.2429962158203 -91.83899688720703,-187.48800659179688 C-71.64900207519531,-186.72300720214844 -51.354000091552734,-183.0469970703125 -31.624000549316406,-176.81199645996094 C70.12699890136719,-144.65499877929688 138.54600524902344,-49.21900177001953 138.54600524902344,57.492000579833984 C138.54600524902344,57.492000579833984 138.54600524902344,188.7050018310547 138.54600524902344,188.7050018310547"></path></g></g><g opacity="1" transform="matrix(1,0,0,1,1787.2230224609375,1446.0179443359375)"><path fill="rgb(240,239,216)" fill-opacity="1" d=" M-334.177001953125,170.4980010986328 C-334.177001953125,170.4980010986328 334.177001953125,170.4980010986328 334.177001953125,170.4980010986328 C334.177001953125,170.4980010986328 386.4630126953125,-170.4980010986328 386.4630126953125,-170.4980010986328 C386.4630126953125,-170.4980010986328 -386.4630126953125,-170.4980010986328 -386.4630126953125,-170.4980010986328 C-386.4630126953125,-170.4980010986328 -334.177001953125,170.4980010986328 -334.177001953125,170.4980010986328z"></path></g><g opacity="1" transform="matrix(1,0,0,1,1787.739013671875,1294.06298828125)"><path fill="rgb(204,204,184)" fill-opacity="1" d=" M-396.0069885253906,24.224000930786133 C-396.0069885253906,24.224000930786133 396.0069885253906,24.224000930786133 396.0069885253906,24.224000930786133 C396.0069885253906,24.224000930786133 396.0069885253906,-24.224000930786133 396.0069885253906,-24.224000930786133 C396.0069885253906,-24.224000930786133 -396.0069885253906,-24.224000930786133 -396.0069885253906,-24.224000930786133 C-396.0069885253906,-24.224000930786133 -396.0069885253906,24.224000930786133 -396.0069885253906,24.224000930786133z"></path></g><g opacity="1" transform="matrix(1,0,0,1,1787.56298828125,1657.4930419921875)"><path fill="rgb(204,204,184)" fill-opacity="1" d=" M339.6659851074219,53.617000579833984 C339.6659851074219,53.617000579833984 -339.6659851074219,53.617000579833984 -339.6659851074219,53.617000579833984 C-339.6659851074219,53.617000579833984 -336.4549865722656,-53.617000579833984 -336.4549865722656,-53.617000579833984 C-336.4549865722656,-53.617000579833984 335.7749938964844,-53.617000579833984 335.7749938964844,-53.617000579833984 C335.7749938964844,-53.617000579833984 339.6659851074219,53.617000579833984 339.6659851074219,53.617000579833984z"></path></g></g></g><g transform="matrix(1,0,0,1,1663.511962890625,964.2000122070312)" opacity="1" style="display: block;"><g opacity="1" transform="matrix(1,0,0,1,0,0)"><path stroke-linecap="round" stroke-linejoin="round" fill-opacity="0" stroke="rgb(0,19,50)" stroke-opacity="1" stroke-width="3" d=" M0.2070000022649765,123.0009994506836 C0.2070000022649765,123.0009994506836 0.2070000022649765,0 0.2070000022649765,0"></path></g><g opacity="1" transform="matrix(1,0,0,1,0,0)"><path fill="rgb(204,204,184)" fill-opacity="1" d=" M0.4880000054836273,78.55899810791016 C0.4880000054836273,78.55899810791016 0.4880000054836273,102.72000122070312 0.4880000054836273,102.72000122070312 C0.4880000054836273,102.72000122070312 0.4880000054836273,106.59500122070312 0.4880000054836273,106.59500122070312 C0.4880000054836273,106.59500122070312 0.4880000054836273,125.4020004272461 0.4880000054836273,125.4020004272461 C0.4880000054836273,125.4020004272461 0.4880000054836273,151.95799255371094 0.4880000054836273,151.95799255371094 C0.4880000054836273,151.95799255371094 0.4880000054836273,139.4199981689453 0.4880000054836273,139.4199981689453 C0.4880000054836273,139.4199981689453 0.4880000054836273,151.95799255371094 0.4880000054836273,151.95799255371094 C0.4880000054836273,151.95799255371094 0.4880000054836273,125.4020004272461 0.4880000054836273,125.4020004272461 C0.4880000054836273,125.4020004272461 0.4880000054836273,106.59500122070312 0.4880000054836273,106.59500122070312 C0.4880000054836273,106.59500122070312 0.4880000054836273,102.72000122070312 0.4880000054836273,102.72000122070312 C0.4880000054836273,102.72000122070312 0.4880000054836273,78.55899810791016 0.4880000054836273,78.55899810791016z"></path><path stroke-linecap="butt" stroke-linejoin="round" fill-opacity="0" stroke="rgb(204,204,184)" stroke-opacity="1" stroke-width="3" d=" M0.4880000054836273,78.55899810791016 C0.4880000054836273,78.55899810791016 0.4880000054836273,102.72000122070312 0.4880000054836273,102.72000122070312 C0.4880000054836273,102.72000122070312 0.4880000054836273,106.59500122070312 0.4880000054836273,106.59500122070312 C0.4880000054836273,106.59500122070312 0.4880000054836273,125.4020004272461 0.4880000054836273,125.4020004272461 C0.4880000054836273,125.4020004272461 0.4880000054836273,151.95799255371094 0.4880000054836273,151.95799255371094 C0.4880000054836273,151.95799255371094 0.4880000054836273,139.4199981689453 0.4880000054836273,139.4199981689453 C0.4880000054836273,139.4199981689453 0.4880000054836273,151.95799255371094 0.4880000054836273,151.95799255371094 C0.4880000054836273,151.95799255371094 0.4880000054836273,125.4020004272461 0.4880000054836273,125.4020004272461 C0.4880000054836273,125.4020004272461 0.4880000054836273,106.59500122070312 0.4880000054836273,106.59500122070312 C0.4880000054836273,106.59500122070312 0.4880000054836273,102.72000122070312 0.4880000054836273,102.72000122070312 C0.4880000054836273,102.72000122070312 0.4880000054836273,78.55899810791016 0.4880000054836273,78.55899810791016z"></path></g></g><g transform="matrix(1,0,0,1,-40.07172775268555,0.17900390923023224)" opacity="1" style="display: block;"><g opacity="1" transform="matrix(1,0,0,1,1799.4119873046875,1079.4580078125)"><path stroke-linecap="round" stroke-linejoin="round" fill-opacity="0" stroke="rgb(0,19,50)" stroke-opacity="1" stroke-width="3" d=" M0,109.93699645996094 C0,109.93699645996094 0,-115.43699645996094 0,-115.43699645996094"></path></g><g opacity="1" transform="matrix(1,0,0,1,1803.8370361328125,1189.39501953125)"><path fill="rgb(142,181,45)" fill-opacity="1" d=" M28.706256866455078,-15.651000022888184 C26.968353271484375,-15.651000022888184 25.27957534790039,-15.428999900817871 23.656604766845703,-15.020000457763672 C19.65618324279785,-25.10300064086914 10.382731437683105,-32.167999267578125 -0.42100203037261963,-32.167999267578125 C-11.208051681518555,-32.167999267578125 -20.467599868774414,-25.125 -24.479145050048828,-15.067999839782715 C-26.041868209838867,-15.446000099182129 -27.66576385498047,-15.651000022888184 -29.334152221679688,-15.651000022888184 C-41.565284729003906,-15.651000022888184 -51.48106384277344,-4.947000026702881 -51.48106384277344,8.258000373840332 C-51.48106384277344,20.649999618530273 -42.74983596801758,30.839000701904297 -31.566082000732422,32.047000885009766 C-31.566082000732422,32.047000885009766 -31.566082000732422,32.167999267578125 -31.566082000732422,32.167999267578125 C-31.566082000732422,32.167999267578125 28.706256866455078,32.167999267578125 28.706256866455078,32.167999267578125 C40.9373893737793,32.167999267578125 50.85224151611328,21.46299934387207 50.85224151611328,8.258000373840332 C50.85224151611328,-4.947000026702881 40.9373893737793,-15.651000022888184 28.706256866455078,-15.651000022888184z"></path><path stroke-linecap="butt" stroke-linejoin="miter" fill-opacity="0" stroke-miterlimit="4" stroke="rgb(142,181,45)" stroke-opacity="1" stroke-width="3" d=" M28.706256866455078,-15.651000022888184 C26.968353271484375,-15.651000022888184 25.27957534790039,-15.428999900817871 23.656604766845703,-15.020000457763672 C19.65618324279785,-25.10300064086914 10.382731437683105,-32.167999267578125 -0.42100203037261963,-32.167999267578125 C-11.208051681518555,-32.167999267578125 -20.467599868774414,-25.125 -24.479145050048828,-15.067999839782715 C-26.041868209838867,-15.446000099182129 -27.66576385498047,-15.651000022888184 -29.334152221679688,-15.651000022888184 C-41.565284729003906,-15.651000022888184 -51.48106384277344,-4.947000026702881 -51.48106384277344,8.258000373840332 C-51.48106384277344,20.649999618530273 -42.74983596801758,30.839000701904297 -31.566082000732422,32.047000885009766 C-31.566082000732422,32.047000885009766 -31.566082000732422,32.167999267578125 -31.566082000732422,32.167999267578125 C-31.566082000732422,32.167999267578125 28.706256866455078,32.167999267578125 28.706256866455078,32.167999267578125 C40.9373893737793,32.167999267578125 50.85224151611328,21.46299934387207 50.85224151611328,8.258000373840332 C50.85224151611328,-4.947000026702881 40.9373893737793,-15.651000022888184 28.706256866455078,-15.651000022888184z"></path></g></g><g style="display: none;"><g><path stroke-linecap="round" stroke-linejoin="round" fill-opacity="0"></path></g><g><path></path><path stroke-linecap="butt" stroke-linejoin="miter" fill-opacity="0" stroke-miterlimit="4"></path></g></g><g transform="matrix(1,0,0,1,101.0527572631836,-0.00001220703143189894)" opacity="1" style="display: block;"><g opacity="1" transform="matrix(1,0,0,1,1705.8509521484375,1057.22998046875)"><path stroke-linecap="round" stroke-linejoin="round" fill-opacity="0" stroke="rgb(0,19,50)" stroke-opacity="1" stroke-width="3" d=" M-29.260000228881836,-93.03099822998047 C-29.260000228881836,-93.03099822998047 -29.260000228881836,93.03099822998047 -29.260000228881836,93.03099822998047"></path></g><g opacity="1" transform="matrix(1,0,0,1,1676.384033203125,1168.8709716796875)"><path fill="rgb(76,0,254)" fill-opacity="1" d=" M-13.627418518066406,-32.42100143432617 C-13.627418518066406,-32.42100143432617 -13.627418518066406,-32.41999816894531 -13.627418518066406,-32.41999816894531 C-6.259992599487305,-32.41999816894531 -2.2359743118286133,-27.70599937438965 0.11481091380119324,-22.51300048828125 C2.4663610458374023,-27.70599937438965 6.489614486694336,-32.41999816894531 13.857805252075195,-32.41999816894531 C20.127840042114258,-32.41999816894531 28.173582077026367,-23.947999954223633 28.173582077026367,-12.878999710083008 C28.173582077026367,4.133999824523926 10.774406433105469,18.482999801635742 0.11481091380119324,32.42100143432617 C-10.54401969909668,18.482999801635742 -27.943960189819336,4.132999897003174 -27.943960189819336,-12.880000114440918 C-27.943960189819336,-23.948999404907227 -19.898218154907227,-32.42100143432617 -13.627418518066406,-32.42100143432617z"></path><path stroke-linecap="butt" stroke-linejoin="miter" fill-opacity="0" stroke-miterlimit="4" stroke="rgb(76,0,254)" stroke-opacity="1" stroke-width="3" d=" M-13.627418518066406,-32.42100143432617 C-13.627418518066406,-32.42100143432617 -13.627418518066406,-32.41999816894531 -13.627418518066406,-32.41999816894531 C-6.259992599487305,-32.41999816894531 -2.2359743118286133,-27.70599937438965 0.11481091380119324,-22.51300048828125 C2.4663610458374023,-27.70599937438965 6.489614486694336,-32.41999816894531 13.857805252075195,-32.41999816894531 C20.127840042114258,-32.41999816894531 28.173582077026367,-23.947999954223633 28.173582077026367,-12.878999710083008 C28.173582077026367,4.133999824523926 10.774406433105469,18.482999801635742 0.11481091380119324,32.42100143432617 C-10.54401969909668,18.482999801635742 -27.943960189819336,4.132999897003174 -27.943960189819336,-12.880000114440918 C-27.943960189819336,-23.948999404907227 -19.898218154907227,-32.42100143432617 -13.627418518066406,-32.42100143432617z"></path></g></g><g style="display: none;"><g><path stroke-linecap="round" stroke-linejoin="round" fill-opacity="0"></path></g><g><path></path><path stroke-linecap="butt" stroke-linejoin="miter" fill-opacity="0" stroke-miterlimit="4"></path></g></g><g style="display: none;"><g><path stroke-linecap="round" stroke-linejoin="round" fill-opacity="0"></path></g><g><path></path><path stroke-linecap="butt" stroke-linejoin="round" fill-opacity="0"></path></g></g><g transform="matrix(1,0,0,1,0,0)" opacity="1" style="display: block;"><g opacity="1" transform="matrix(1,0,0,1,0,0)"><g opacity="1" transform="matrix(1,0,0,1,0,0)"><g opacity="1" transform="matrix(1,0,0,1,1734.904052734375,959.6580200195312)"><path fill="rgb(244,127,254)" fill-opacity="1" d=" M-129.66400146484375,22.70199966430664 C-129.66400146484375,22.70199966430664 129.66400146484375,22.70199966430664 129.66400146484375,22.70199966430664 C129.66400146484375,22.70199966430664 129.66400146484375,22.70199966430664 129.66400146484375,22.70199966430664 C129.66400146484375,-2.374000072479248 109.33499908447266,-22.70199966430664 84.25900268554688,-22.70199966430664 C84.25900268554688,-22.70199966430664 -84.25900268554688,-22.70199966430664 -84.25900268554688,-22.70199966430664 C-109.33499908447266,-22.70199966430664 -129.66400146484375,-2.374000072479248 -129.66400146484375,22.70199966430664 C-129.66400146484375,22.70199966430664 -129.66400146484375,22.70199966430664 -129.66400146484375,22.70199966430664z"></path></g></g></g></g><g transform="matrix(0.9986295104026794,-0.0523359552025795,0.0523359552025795,0.9986295104026794,-104.69915771484375,45.209716796875)" opacity="1" style="display: block;"><g opacity="1" transform="matrix(1,0,0,1,557.6849975585938,1756.281005859375)"><path stroke-linecap="round" stroke-linejoin="round" fill-opacity="0" stroke="rgb(0,19,50)" stroke-opacity="1" stroke-width="3" d=" M29.749753952026367,-185.89981079101562 C29.53978729248047,-185.12440490722656 -27.87203025817871,177.34828186035156 -27.87203025817871,177.34828186035156"></path></g><g opacity="1" transform="matrix(1,0,0,1,1114.5870361328125,1737.5340576171875)"><path stroke-linecap="round" stroke-linejoin="round" fill-opacity="0" stroke="rgb(0,19,50)" stroke-opacity="1" stroke-width="3" d=" M-62.6602783203125,-192.4105224609375 C-62.30356979370117,-191.67840576171875 62.65510177612305,192.44529724121094 62.65510177612305,192.44529724121094"></path></g><g opacity="1" transform="matrix(1,0,0,1,858.8779907226562,1966.470947265625)"><path fill="rgb(244,127,254)" fill-opacity="1" d=" M374.34100341796875,-56.481998443603516 C264.718994140625,-13.871000289916992 146.10699462890625,11.140000343322754 21.854999542236328,14.982999801635742 C-117.6969985961914,19.299999237060547 -251.7989959716797,-3.4730000495910645 -375.3999938964844,-48.58599853515625 C-377.0899963378906,-49.202999114990234 -380.4630126953125,-50.448001861572266 -380.4630126953125,-50.448001861572266 C-380.4630126953125,-50.448001861572266 -391.58599853515625,-14.149999618530273 -391.58599853515625,-14.149999618530273 C-263.19500732421875,35.29499816894531 -123.0250015258789,60.48400115966797 23.121999740600586,55.9630012512207 C153.43499755859375,51.93199920654297 277.5450134277344,24.618999481201172 391.58599853515625,-21.86199951171875 C391.58599853515625,-21.86199951171875 374.34100341796875,-56.481998443603516 374.34100341796875,-56.481998443603516z"></path></g></g><g transform="matrix(0.9986295104026794,-0.0523359552025795,0.0523359552025795,0.9986295104026794,-104.69058990478516,45.2786979675293)" opacity="1" style="display: block;"><g opacity="1" transform="matrix(1,0,0,1,0,0)"><g opacity="1" transform="matrix(1,0,0,1,663.1290283203125,1238.2540283203125)"><path fill="rgb(244,127,254)" fill-opacity="1" d=" M-90.16799926757812,-290.62200927734375 C-90.16799926757812,-290.62200927734375 -120.53199768066406,-288.4880065917969 -120.53199768066406,-288.4880065917969 C-120.53199768066406,-288.4880065917969 57.85499954223633,298.9330139160156 57.85499954223633,298.9330139160156 C57.85499954223633,298.9330139160156 88.052001953125,296.1180114746094 88.052001953125,296.1180114746094 C88.052001953125,296.1180114746094 -90.16799926757812,-290.62200927734375 -90.16799926757812,-290.62200927734375z"></path></g><g opacity="1" transform="matrix(1,0,0,1,772.8590087890625,1226.9539794921875)"><path fill="rgb(244,127,254)" fill-opacity="1" d=" M-90.16799926757812,-290.62200927734375 C-90.16799926757812,-290.62200927734375 -120.53199768066406,-288.4880065917969 -120.53199768066406,-288.4880065917969 C-120.53199768066406,-288.4880065917969 57.85499954223633,298.9330139160156 57.85499954223633,298.9330139160156 C57.85499954223633,298.9330139160156 88.052001953125,296.1180114746094 88.052001953125,296.1180114746094 C88.052001953125,296.1180114746094 -90.16799926757812,-290.62200927734375 -90.16799926757812,-290.62200927734375z"></path></g><g opacity="1" transform="matrix(1,0,0,1,698.9249877929688,1232.2769775390625)"><path stroke-linecap="round" stroke-linejoin="round" fill-opacity="0" stroke="rgb(0,19,50)" stroke-opacity="1" stroke-width="3" d=" M140.25599670410156,-305.9159851074219 C140.25599670410156,-305.9159851074219 -351.0830078125,-273.0320129394531 -351.0830078125,-273.0320129394531 C-351.0830078125,-273.0320129394531 -172.73599243164062,314.2279968261719 -172.73599243164062,314.2279968261719 C-172.73599243164062,314.2279968261719 318.6029968261719,281.3429870605469 318.6029968261719,281.3429870605469 C318.6029968261719,281.3429870605469 140.25599670410156,-305.9159851074219 140.25599670410156,-305.9159851074219z"></path></g><g opacity="1" transform="matrix(1,0,0,1,813.9130249023438,1545.1209716796875)"><path fill="rgb(244,127,254)" fill-opacity="1" d=" M327.33099365234375,-3.9230000972747803 C327.33099365234375,-3.9230000972747803 239.25999450683594,2.2909998893737793 239.25999450683594,2.2909998893737793 C239.25999450683594,2.2909998893737793 -227.51100158691406,33.80400085449219 -227.51100158691406,33.80400085449219 C-227.51100158691406,33.80400085449219 -285.6969909667969,37.731998443603516 -285.6969909667969,37.731998443603516 C-285.6969909667969,37.731998443603516 -288.2460021972656,-0.3230000138282776 -288.2460021972656,-0.3230000138282776 C-288.2460021972656,-0.3230000138282776 316.81500244140625,-41.10300064086914 316.81500244140625,-41.10300064086914 C316.81500244140625,-41.10300064086914 327.33099365234375,-3.9230000972747803 327.33099365234375,-3.9230000972747803z"></path></g></g></g><g transform="matrix(0.9941326975822449,-0.10816740989685059,0.10816740989685059,0.9941326975822449,1600.7130126953125,1579.68408203125)" opacity="1" style="display: block;"><g opacity="1" transform="matrix(1,0,0,1,0,0)"><path fill="rgb(0,19,50)" fill-opacity="1" d=" M-146.22999572753906,-10.062999725341797 C-146.22999572753906,-10.062999725341797 -45.67300033569336,104.47200012207031 -23.676000595092773,121.91899871826172 C-19.898000717163086,124.91500091552734 -13.630000114440918,126.177001953125 -10.416999816894531,123.58999633789062 C-6.85099983215332,120.71900177001953 -4.168000221252441,116.36399841308594 -4.986000061035156,109.33599853515625 C-7.13700008392334,90.84100341796875 -42.125999450683594,15.371999740600586 -42.125999450683594,15.371999740600586 C-42.125999450683594,15.371999740600586 68.56600189208984,30.148000717163086 93.00299835205078,29.072999954223633 C115.3489990234375,28.09000015258789 136.7989959716797,20.46299934387207 143.7209930419922,3.2899999618530273 C149.24200439453125,-10.406000137329102 147.2270050048828,-29.79400062561035 121.45899963378906,-49.39799880981445 C90.75599670410156,-72.75700378417969 -12.11299991607666,-124.98799896240234 -12.11299991607666,-124.98799896240234 C-12.11299991607666,-124.98799896240234 -146.22999572753906,-10.062999725341797 -146.22999572753906,-10.062999725341797z"></path></g></g><g transform="matrix(0.9947443604469299,-0.10238958895206451,0.10238958895206451,0.9947443604469299,-164.70474243164062,109.41104888916016)" opacity="1" style="display: block;"></g><g transform="matrix(0.9945847392082214,-0.10392855852842331,0.10392855852842331,0.9945847392082214,-166.5099639892578,111.4153823852539)" opacity="1" style="display: block;"><g opacity="1" transform="matrix(1,0,0,1,1358.0849609375,1455.1219482421875)"><path fill="rgb(76,0,254)" fill-opacity="1" d=" M-110.3759994506836,-255.98899841308594 C-110.3759994506836,-255.98899841308594 276.8609924316406,51.071998596191406 276.8609924316406,51.071998596191406 C276.8609924316406,51.071998596191406 82.30599975585938,255.98899841308594 82.30599975585938,255.98899841308594 C82.30599975585938,255.98899841308594 -276.8609924316406,-72.86699676513672 -276.8609924316406,-72.86699676513672 C-276.8609924316406,-72.86699676513672 -110.3759994506836,-255.98899841308594 -110.3759994506836,-255.98899841308594z"></path></g><g opacity="1" transform="matrix(1,0,0,1,1168.1669921875,1294.06298828125)"><path fill="rgb(76,0,254)" fill-opacity="1" d=" M-123.84700012207031,0 C-123.84700012207031,-68.39900207519531 -68.39900207519531,-123.84700012207031 0,-123.84700012207031 C68.39900207519531,-123.84700012207031 123.84700012207031,-68.39900207519531 123.84700012207031,0 C123.84700012207031,68.39900207519531 68.39900207519531,123.84700012207031 0,123.84700012207031 C-68.39900207519531,123.84700012207031 -123.84700012207031,68.39900207519531 -123.84700012207031,0z"></path></g><g opacity="1" transform="matrix(1,0,0,1,1162.6209716796875,1294.1650390625)"><path fill="rgb(76,0,254)" fill-opacity="1" d=" M5.546000003814697,-14.37600040435791 C5.546000003814697,-14.37600040435791 5.546000003814697,14.37600040435791 5.546000003814697,14.37600040435791 C5.546000003814697,14.37600040435791 23.28700065612793,0 23.28700065612793,0 C23.28700065612793,0 -23.28700065612793,0 -23.28700065612793,0"></path></g></g><g transform="matrix(0.9987075328826904,-0.050825320184230804,0.050825320184230804,0.9987075328826904,884.9688720703125,1343.3056640625)" opacity="1" style="display: block;"><g opacity="1" transform="matrix(1,0,0,1,0,0)"><path fill="rgb(76,0,254)" fill-opacity="1" d=" M283.1520080566406,65.0469970703125 C283.1520080566406,65.0469970703125 -134.98899841308594,168.4739990234375 -134.98899841308594,168.4739990234375 C-192.4969940185547,184.20899963378906 -261.2430114746094,156.02099609375 -279.0090026855469,99.10800170898438 C-279.0090026855469,99.10800170898438 -279.0090026855469,99.10800170898438 -279.0090026855469,99.10800170898438 C-296.7749938964844,42.19499969482422 -255.05099487304688,-27.246999740600586 -198.8040008544922,-47.020999908447266 C-198.8040008544922,-47.020999908447266 213.78599548339844,-172.79400634765625 213.78599548339844,-172.79400634765625 C213.78599548339844,-172.79400634765625 283.1520080566406,65.0469970703125 283.1520080566406,65.0469970703125z"></path></g></g><g transform="matrix(0.9930360317230225,-0.11781097948551178,0.11781097948551178,0.9930360317230225,-191.00108337402344,105.14057159423828)" opacity="1" style="display: block;"><g opacity="1" transform="matrix(1,0,0,1,1063.1319580078125,1078.27294921875)"><path fill="rgb(252,178,146)" fill-opacity="1" d=" M74.43299865722656,87.69999694824219 C1.6670000553131104,103.49800109863281 -50.97200012207031,77.09400177001953 -92.3949966430664,35.952999114990234 C-92.3949966430664,35.952999114990234 -62.21099853515625,-92.33399963378906 -62.21099853515625,-92.33399963378906 C-62.21099853515625,-92.33399963378906 92.3949966430664,-60.01599884033203 92.3949966430664,-60.01599884033203 C92.3949966430664,-60.01599884033203 74.43299865722656,87.69999694824219 74.43299865722656,87.69999694824219z"></path></g><g opacity="1" transform="matrix(1,0,0,1,0,0)"><g opacity="1" transform="matrix(1,0,0,1,983.2789916992188,1049.4849853515625)"><path fill="rgb(252,178,146)" fill-opacity="1" d=" M-65.93299865722656,0 C-65.93299865722656,-36.41400146484375 -36.41400146484375,-65.93299865722656 0,-65.93299865722656 C36.41400146484375,-65.93299865722656 65.93299865722656,-36.41400146484375 65.93299865722656,0 C65.93299865722656,36.41400146484375 36.41400146484375,65.93299865722656 0,65.93299865722656 C-36.41400146484375,65.93299865722656 -65.93299865722656,36.41400146484375 -65.93299865722656,0z"></path></g><g opacity="1" transform="matrix(1,0,0,1,984.0059814453125,1050.2659912109375)"><path fill="rgb(252,178,146)" fill-opacity="1" d=" M-0.7269999980926514,-7.659999847412109 C-0.7269999980926514,-7.659999847412109 -0.7269999980926514,7.659999847412109 -0.7269999980926514,7.659999847412109 C-0.7269999980926514,7.659999847412109 9.088000297546387,-0.781000018119812 9.088000297546387,-0.781000018119812 C9.088000297546387,-0.781000018119812 -9.088000297546387,-0.781000018119812 -9.088000297546387,-0.781000018119812"></path></g></g></g><g transform="matrix(0.9905913472175598,-0.13685302436351776,0.13685302436351776,0.9905913472175598,-215.68017578125,119.58271026611328)" opacity="1" style="display: block;"><g opacity="1" transform="matrix(1,0,0,1,0,0)"><g opacity="1" transform="matrix(1,0,0,1,883.4739990234375,999.0159912109375)"><path fill="rgb(252,178,146)" fill-opacity="1" d=" M131.9980010986328,-7.084000110626221 C131.9980010986328,-7.084000110626221 -38.874000549316406,-99.96499633789062 -38.874000549316406,-99.96499633789062 C-68.74199676513672,-116.41300201416016 -106.27799987792969,-106.02899932861328 -123.44599914550781,-76.56900024414062 C-123.44599914550781,-76.56900024414062 -123.44599914550781,-76.56900024414062 -123.44599914550781,-76.56900024414062 C-140.61399841308594,-47.10900115966797 -131.14500427246094,-9.333000183105469 -102.11000061035156,8.545000076293945 C-102.11000061035156,8.545000076293945 67.16300201416016,107.76699829101562 67.16300201416016,107.76699829101562 C67.16300201416016,107.76699829101562 131.9980010986328,-7.084000110626221 131.9980010986328,-7.084000110626221z"></path></g><g opacity="1" transform="matrix(1,0,0,1,873.2000122070312,987.6240234375)"><path fill="rgb(0,49,87)" fill-opacity="1" d=" M118.18199920654297,-13.687000274658203 C118.18199920654297,-13.687000274658203 40.85100173950195,106.08399963378906 40.85100173950195,106.08399963378906 C40.85100173950195,106.08399963378906 -118.18199920654297,17.06599998474121 -118.18199920654297,17.06599998474121 C-118.18199920654297,17.06599998474121 -46.106998443603516,-106.08399963378906 -46.106998443603516,-106.08399963378906 C-46.106998443603516,-106.08399963378906 118.18199920654297,-13.687000274658203 118.18199920654297,-13.687000274658203z"></path></g></g><g opacity="1" transform="matrix(1,0,0,1,793.6370239257812,944.6300048828125)"><path fill="rgb(0,49,87)" fill-opacity="1" d=" M-71.39700317382812,0 C-71.39700317382812,-39.43199920654297 -39.43199920654297,-71.39700317382812 0,-71.39700317382812 C39.43199920654297,-71.39700317382812 71.39700317382812,-39.43199920654297 71.39700317382812,0 C71.39700317382812,39.43199920654297 39.43199920654297,71.39700317382812 0,71.39700317382812 C-39.43199920654297,71.39700317382812 -71.39700317382812,39.43199920654297 -71.39700317382812,0z"></path></g><g opacity="1" transform="matrix(1,0,0,1,794.4249877929688,945.4760131835938)"><path fill="rgb(0,49,87)" fill-opacity="1" d=" M-0.7870000004768372,-8.295000076293945 C-0.7870000004768372,-8.295000076293945 -0.7870000004768372,8.295000076293945 -0.7870000004768372,8.295000076293945 C-0.7870000004768372,8.295000076293945 9.840999603271484,-0.8460000157356262 9.840999603271484,-0.8460000157356262 C9.840999603271484,-0.8460000157356262 -9.840999603271484,-0.8460000157356262 -9.840999603271484,-0.8460000157356262"></path></g></g><g transform="matrix(0.8271573185920715,-0.5619704723358154,0.5619704723358154,0.8271573185920715,-418.3251037597656,527.8359375)" opacity="1" style="display: block;"><g opacity="1" transform="matrix(1,0,0,1,517.7659912109375,640.3200073242188)"><path fill="rgb(240,239,216)" fill-opacity="1" d=" M183.82200622558594,-95.10700225830078 C158.02200317382812,-144.81900024414062 73.35600280761719,-173.75100708007812 9.439000129699707,-148.4409942626953 C-60.64899826049805,-120.68800354003906 -97.00499725341797,-47.974998474121094 -86.16500091552734,10.02299976348877 C-77.70600128173828,55.279998779296875 -66.7969970703125,77.88500213623047 -78.85900115966797,99.94100189208984 C-92.63600158691406,125.13200378417969 -126.08300018310547,122.34300231933594 -146.28199768066406,141.58200073242188 C-180.52200317382812,174.19500732421875 -137.4550018310547,220.92999267578125 -137.4550018310547,220.92999267578125 C-141.69700622558594,192.01600646972656 -137.39999389648438,177.68600463867188 -126.8270034790039,171.2949981689453 C-105.04399871826172,158.1269989013672 -56.62099838256836,178.6540069580078 -1.3480000495910645,174.7530059814453 C84.78700256347656,168.67300415039062 106.36000061035156,136.36900329589844 145.36300659179688,103.66899871826172 C200.6320037841797,57.332000732421875 224.4980010986328,-16.731000900268555 183.82200622558594,-95.10700225830078z"></path></g></g><g transform="matrix(0.9905913472175598,-0.13685302436351776,0.13685302436351776,0.9905913472175598,-215.68017578125,119.58271026611328)" opacity="1" style="display: block;"><g opacity="1" transform="matrix(1,0,0,1,711.739013671875,1083.9599609375)"><path fill="rgb(0,49,87)" fill-opacity="1" d=" M78.44400024414062,-210.56199645996094 C78.44400024414062,-210.56199645996094 142.6840057373047,-5.685999870300293 142.6840057373047,-5.685999870300293 C153.79100036621094,27.795000076293945 144.10400390625,53.06700134277344 119.93199920654297,77.03500366210938 C119.31500244140625,77.64700317382812 107.51599884033203,210.56199645996094 107.51599884033203,210.56199645996094 C107.51599884033203,210.56199645996094 -38.22600173950195,207.23500061035156 -38.22600173950195,207.23500061035156 C-38.22600173950195,207.23500061035156 -56.58700180053711,104.37699890136719 -57.50899887084961,104.26699829101562 C-84.4020004272461,101.05799865722656 -84.1969985961914,78.31700134277344 -94.2509994506836,48.0099983215332 C-94.2509994506836,48.0099983215332 -147.26199340820312,-163.89500427246094 -147.26199340820312,-163.89500427246094 C-147.26199340820312,-163.89500427246094 38.167999267578125,-205.81700134277344 38.167999267578125,-205.81700134277344 C50.09000015258789,-209.16000366210938 78.44400024414062,-210.56199645996094 78.44400024414062,-210.56199645996094z"></path></g><g opacity="1" transform="matrix(1,0,0,1,828.6240234375,994.4669799804688)"><path stroke-linecap="round" stroke-linejoin="round" fill-opacity="0" stroke="rgb(0,19,50)" stroke-opacity="1" stroke-width="3" d=" M-8.472000122070312,-27.03499984741211 C-8.472000122070312,-27.03499984741211 8.472000122070312,27.03499984741211 8.472000122070312,27.03499984741211"></path></g><g opacity="1" transform="matrix(1,0,0,1,743.6630249023438,1248.9730224609375)"><path fill="rgb(76,0,254)" fill-opacity="1" d=" M-84.96099853515625,-38.98400115966797 C-84.96099853515625,-38.98400115966797 -67.45700073242188,56.479000091552734 -67.45700073242188,56.479000091552734 C-67.45700073242188,56.479000091552734 75.59200286865234,52.439998626708984 75.59200286865234,52.439998626708984 C75.59200286865234,52.439998626708984 84.96099853515625,-56.152000427246094 84.96099853515625,-56.152000427246094 C84.96099853515625,-56.152000427246094 23.37700080871582,-57.553001403808594 -10.369999885559082,-54.55799865722656 C-54.17900085449219,-50.66899871826172 -84.96099853515625,-38.98400115966797 -84.96099853515625,-38.98400115966797z"></path></g></g><g transform="matrix(0.9805236458778381,-0.19640110433101654,0.19640110433101654,0.9805236458778381,1418.074462890625,1819.2969970703125)" opacity="1" style="display: block;"><g opacity="1" transform="matrix(1,0,0,1,0,0)"><path fill="rgb(0,19,50)" fill-opacity="1" d=" M-130.76699829101562,-72.26300048828125 C-130.76699829101562,-72.26300048828125 -96.51300048828125,76.2509994506836 -85.41400146484375,102.04000091552734 C-83.50800323486328,106.46900177001953 -78.58699798583984,110.5510025024414 -74.53099822998047,109.7959976196289 C-70.02999877929688,108.95800018310547 -65.60299682617188,106.39700317382812 -62.992000579833984,99.82099914550781 C-56.119998931884766,82.51599884033203 -51.15700149536133,-0.5220000147819519 -51.15700149536133,-0.5220000147819519 C-51.15700149536133,-0.5220000147819519 39.30699920654297,64.95700073242188 61.33399963378906,75.59300231933594 C81.47599792480469,85.31999969482422 103.97799682617188,88.76899719238281 118.21299743652344,76.92900085449219 C129.5659942626953,67.48600006103516 136.98199462890625,49.459999084472656 123.58499908447266,19.983999252319336 C107.62200164794922,-15.137999534606934 41.79899978637695,-109.88700103759766 41.79899978637695,-109.88700103759766 C41.79899978637695,-109.88700103759766 -130.76699829101562,-72.26300048828125 -130.76699829101562,-72.26300048828125z"></path></g></g><g transform="matrix(0.9827972650527954,-0.18468761444091797,0.18468761444091797,0.9827972650527954,-268.63677978515625,222.28955078125)" opacity="1" style="display: block;"><g opacity="1" transform="matrix(1,0,0,1,1267.8790283203125,1599.7559814453125)"><path stroke-linecap="butt" stroke-linejoin="miter" fill-opacity="0" stroke-miterlimit="4" stroke="rgb(0,19,50)" stroke-opacity="1" stroke-width="6" d=" M18.235000610351562,-271.302001953125 C18.235000610351562,-271.302001953125 72.99099731445312,-144.15199279785156 72.99099731445312,-144.15199279785156"></path></g><g opacity="1" transform="matrix(1,0,0,1,1172.2159423828125,1378.9639892578125)"><path stroke-linecap="butt" stroke-linejoin="miter" fill-opacity="0" stroke-miterlimit="4" stroke="rgb(0,19,50)" stroke-opacity="1" stroke-width="6" d=" M-124.56400299072266,0 C-124.56400299072266,68.79499816894531 -68.79499816894531,124.56400299072266 0,124.56400299072266 C68.79499816894531,124.56400299072266 124.56400299072266,68.79499816894531 124.56400299072266,0 C124.56400299072266,-68.79499816894531 68.79499816894531,-124.56400299072266 0,-124.56400299072266 C-68.79499816894531,-124.56400299072266 -124.56400299072266,-68.79499816894531 -124.56400299072266,0z"></path></g></g><g transform="matrix(0.9986295104026794,-0.0523359552025795,0.0523359552025795,0.9986295104026794,-104.69058990478516,45.2786979675293)" opacity="1" style="display: block;"><g opacity="1" transform="matrix(1,0,0,1,960.5549926757812,1393.6009521484375)"><path stroke-linecap="butt" stroke-linejoin="miter" fill-opacity="0" stroke-miterlimit="4" stroke="rgb(0,19,50)" stroke-opacity="1" stroke-width="6" d=" M45.71099853515625,-121.46299743652344 C45.71099853515625,-121.46299743652344 198.11399841308594,-138.47300720214844 198.11399841308594,-138.47300720214844"></path></g><g opacity="1" transform="matrix(1,0,0,1,984.239990234375,1273.0870361328125)"><path stroke-linecap="round" stroke-linejoin="round" fill-opacity="0" stroke="rgb(0,19,50)" stroke-opacity="1" stroke-width="3" d="M0 0"></path></g><g opacity="1" transform="matrix(1,0,0,1,0,0)"><g opacity="1" transform="matrix(1,0,0,1,751.1810302734375,1416.780029296875)"><path fill="rgb(76,0,254)" fill-opacity="1" d=" M-115.44499969482422,0 C-115.44499969482422,63.75899887084961 -63.75899887084961,115.44499969482422 0,115.44499969482422 C63.75899887084961,115.44499969482422 115.44499969482422,63.75899887084961 115.44499969482422,0 C115.44499969482422,-63.75899887084961 63.75899887084961,-115.44499969482422 0,-115.44499969482422 C-63.75899887084961,-115.44499969482422 -115.44499969482422,-63.75899887084961 -115.44499969482422,0z"></path></g><g opacity="1" transform="matrix(1,0,0,1,746.780029296875,1416.541015625)"><path fill="rgb(76,0,254)" fill-opacity="1" d=" M4.401000022888184,-9.62399959564209 C4.401000022888184,-9.62399959564209 4.401000022888184,9.62399959564209 4.401000022888184,9.62399959564209 C4.401000022888184,9.62399959564209 18.297000885009766,0 18.297000885009766,0 C18.297000885009766,0 -18.297000885009766,0 -18.297000885009766,0"></path></g></g></g><g transform="matrix(0.990909218788147,-0.13453219830989838,0.13453219830989838,0.990909218788147,-208.9845428466797,152.29750061035156)" opacity="1" style="display: block;"></g><g transform="matrix(0.9827972650527954,-0.18468761444091797,0.18468761444091797,0.9827972650527954,-268.63677978515625,222.28955078125)" opacity="1" style="display: block;"><g opacity="1" transform="matrix(1,0,0,1,1267.8790283203125,1599.7559814453125)"><path fill="rgb(76,0,254)" fill-opacity="1" d=" M18.235000610351562,-271.302001953125 C18.235000610351562,-271.302001953125 213.91099548339844,183.0850067138672 213.91099548339844,183.0850067138672 C213.91099548339844,183.0850067138672 -54.52899932861328,271.302001953125 -54.52899932861328,271.302001953125 C-54.52899932861328,271.302001953125 -213.91099548339844,-181.5260009765625 -213.91099548339844,-181.5260009765625 C-213.91099548339844,-181.5260009765625 18.235000610351562,-271.302001953125 18.235000610351562,-271.302001953125z"></path></g><g opacity="1" transform="matrix(1,0,0,1,1172.2159423828125,1378.9639892578125)"><path fill="rgb(76,0,254)" fill-opacity="1" d=" M-124.56400299072266,0 C-124.56400299072266,68.79499816894531 -68.79499816894531,124.56400299072266 0,124.56400299072266 C68.79499816894531,124.56400299072266 124.56400299072266,68.79499816894531 124.56400299072266,0 C124.56400299072266,-68.79499816894531 68.79499816894531,-124.56400299072266 0,-124.56400299072266 C-68.79499816894531,-124.56400299072266 -124.56400299072266,-68.79499816894531 -124.56400299072266,0z"></path></g><g opacity="1" transform="matrix(1,0,0,1,1168.4029541015625,1380.6199951171875)"><path fill="rgb(76,0,254)" fill-opacity="1" d=" M10.61400032043457,-1.656999945640564 C10.61400032043457,-1.656999945640564 -10.61400032043457,-1.656999945640564 -10.61400032043457,-1.656999945640564 C-10.61400032043457,-1.656999945640564 3.812999963760376,-13.70300006866455 3.812999963760376,-13.70300006866455 C3.812999963760376,-13.70300006866455 3.812999963760376,13.70300006866455 3.812999963760376,13.70300006866455"></path></g><g opacity="1" transform="matrix(1,0,0,1,1387.1419677734375,1559.281982421875)"><path stroke-linecap="round" stroke-linejoin="round" fill-opacity="0" stroke="rgb(0,19,50)" stroke-opacity="1" stroke-width="3" d=" M-61.5629997253418,-142.96400451660156 C-17.413999557495117,-40.5629997253418 61.5629997253418,142.96400451660156 61.5629997253418,142.96400451660156"></path></g></g><g transform="matrix(0.9986295104026794,-0.0523359552025795,0.0523359552025795,0.9986295104026794,-104.69058990478516,45.2786979675293)" opacity="1" style="display: block;"><g opacity="1" transform="matrix(1,0,0,1,960.5549926757812,1393.6009521484375)"><path fill="rgb(76,0,254)" fill-opacity="1" d=" M221.8249969482422,109.51599884033203 C221.8249969482422,109.51599884033203 -203.42300415039062,138.47300720214844 -203.42300415039062,138.47300720214844 C-203.42300415039062,138.47300720214844 -221.8249969482422,-91.60199737548828 -221.8249969482422,-91.60199737548828 C-221.8249969482422,-91.60199737548828 198.11399841308594,-138.47300720214844 198.11399841308594,-138.47300720214844 C198.11399841308594,-138.47300720214844 221.8249969482422,109.51599884033203 221.8249969482422,109.51599884033203z"></path></g><g opacity="1" transform="matrix(1,0,0,1,984.239990234375,1273.0870361328125)"><path stroke-linecap="round" stroke-linejoin="round" fill-opacity="0" stroke="rgb(0,19,50)" stroke-opacity="1" stroke-width="3" d=" M-66.99500274658203,7.4770002365112305 C-66.99500274658203,7.4770002365112305 66.99500274658203,-7.4770002365112305 66.99500274658203,-7.4770002365112305"></path></g><g opacity="1" transform="matrix(1,0,0,1,0,0)"><g opacity="1" transform="matrix(1,0,0,1,751.1810302734375,1416.780029296875)"><path fill="rgb(76,0,254)" fill-opacity="1" d=" M-115.44499969482422,0 C-115.44499969482422,63.75899887084961 -63.75899887084961,115.44499969482422 0,115.44499969482422 C63.75899887084961,115.44499969482422 115.44499969482422,63.75899887084961 115.44499969482422,0 C115.44499969482422,-63.75899887084961 63.75899887084961,-115.44499969482422 0,-115.44499969482422 C-63.75899887084961,-115.44499969482422 -115.44499969482422,-63.75899887084961 -115.44499969482422,0z"></path></g><g opacity="1" transform="matrix(1,0,0,1,746.780029296875,1416.541015625)"><path fill="rgb(76,0,254)" fill-opacity="1" d=" M4.401000022888184,-9.62399959564209 C4.401000022888184,-9.62399959564209 4.401000022888184,9.62399959564209 4.401000022888184,9.62399959564209 C4.401000022888184,9.62399959564209 18.297000885009766,0 18.297000885009766,0 C18.297000885009766,0 -18.297000885009766,0 -18.297000885009766,0"></path></g></g></g><g transform="matrix(0.9986295104026794,-0.0523359552025795,0.0523359552025795,0.9986295104026794,714.2007446289062,1388.9647216796875)" opacity="1" style="display: block;"><g opacity="1" transform="matrix(1,0,0,1,0,0)"><path fill="rgb(76,0,254)" fill-opacity="1" d=" M-144.20399475097656,-30.118000030517578 C-160.83799743652344,49.52399826049805 -109.76000213623047,127.56999969482422 -30.118000030517578,144.20399475097656 C49.52399826049805,160.83799743652344 127.56999969482422,109.76000213623047 144.20399475097656,30.118000030517578 C160.83799743652344,-49.52399826049805 109.76000213623047,-127.56999969482422 30.118000030517578,-144.20399475097656 C-49.52399826049805,-160.83799743652344 -127.56999969482422,-109.76000213623047 -144.20399475097656,-30.118000030517578z"></path></g></g><g transform="matrix(0.9905913472175598,-0.13685302436351776,0.13685302436351776,0.9905913472175598,-212.41493225097656,117.9424057006836)" opacity="1" style="display: block;"><g opacity="1" transform="matrix(1,0,0,1,947.0369873046875,1091.550048828125)"><path fill="rgb(142,181,45)" fill-opacity="1" d=" M-116.63400268554688,230.8280029296875 C-136.35899353027344,223.40699768066406 -204.18699645996094,191.2429962158203 -167.44200134277344,98.56999969482422 C-167.44200134277344,98.56999969482422 -86.5270004272461,-132.23699951171875 -86.5270004272461,-132.23699951171875 C-60.91699981689453,-214.13999938964844 -5.9770002365112305,-253.72500610351562 70.0999984741211,-237.67799377441406 C143.49099731445312,-222.19700622558594 205.59100341796875,-146.72999572753906 170.4759979248047,-71.37899780273438 C170.4759979248047,-71.37899780273438 95.22100067138672,123.58799743652344 95.22100067138672,123.58799743652344 C69.38600158691406,199.5970001220703 -32.80799865722656,262.3659973144531 -116.63400268554688,230.8280029296875z"></path></g><g opacity="1" transform="matrix(1,0,0,1,0,0)"><g opacity="1" transform="matrix(1,0,0,1,965.68701171875,927.8939819335938)"><path fill="rgb(161,71,54)" fill-opacity="1" d=" M25.709999084472656,49.452999114990234 C-9.630000114440918,67.822998046875 -49.779998779296875,60.573001861572266 -63.97999954223633,33.26300048828125 C-76.12999725341797,9.892999649047852 -65.33999633789062,-20.57699966430664 -39.849998474121094,-40.39699935913086 C-35.540000915527344,-43.75699996948242 -30.809999465942383,-46.797000885009766 -25.700000762939453,-49.457000732421875 C-9.09000015258789,-58.08700180053711 8.579999923706055,-61.05699920654297 24.1200008392334,-58.957000732421875 C41.650001525878906,-56.57699966430664 56.459999084472656,-47.73699951171875 63.97999954223633,-33.25699996948242 C78.18000030517578,-5.947000026702881 61.04999923706055,31.08300018310547 25.709999084472656,49.452999114990234z"></path></g><g opacity="1" transform="matrix(1,0,0,1,933.468994140625,945.572021484375)"><path stroke-linecap="round" stroke-linejoin="round" fill-opacity="0" stroke="rgb(0,19,50)" stroke-opacity="1" stroke-width="3" d=" M-12.833000183105469,-6.578000068664551 C-12.062999725341797,2.003000020980835 2.3310000896453857,8.592000007629395 12.833000183105469,5.97599983215332 C2.1459999084472656,8.76099967956543 -12.097000122070312,2.25 -12.833000183105469,-6.578000068664551z"></path></g><g opacity="1" transform="matrix(1,0,0,1,0,0)"><g opacity="1" transform="matrix(1,0,0,1,1007.3519897460938,893.7919921875)"><path fill="rgb(0,28,51)" fill-opacity="1" d=" M27.155000686645508,25.5049991607666 C5.534999847412109,25.44499969482422 -13.454999923706055,16.21500015258789 -22.315000534057617,-0.8450000286102295 C-26.295000076293945,-8.505000114440918 -27.815000534057617,-16.934999465942383 -27.155000686645508,-25.5049991607666 C-5.534999847412109,-25.454999923706055 13.454999923706055,-16.21500015258789 22.315000534057617,0.8450000286102295 C26.295000076293945,8.505000114440918 27.815000534057617,16.934999465942383 27.155000686645508,25.5049991607666z"></path></g><g opacity="1" transform="matrix(1,0,0,1,957.822021484375,878.218994140625)"><path fill="rgb(0,28,51)" fill-opacity="1" d=" M31.985000610351562,-9.281999588012695 C27.674999237060547,-5.932000160217285 22.94499969482422,-2.881999969482422 17.834999084472656,-0.22200000286102295 C1.225000023841858,8.418000221252441 -16.44499969482422,11.387999534606934 -31.985000610351562,9.277999877929688 C-27.674999237060547,5.918000221252441 -22.94499969482422,2.878000020980835 -17.834999084472656,0.21799999475479126 C-1.225000023841858,-8.411999702453613 16.44499969482422,-11.381999969482422 31.985000610351562,-9.281999588012695z"></path></g></g></g><g opacity="1" transform="matrix(1,0,0,1,892.0880126953125,1046.89794921875)"><path stroke-linecap="round" stroke-linejoin="round" fill-opacity="0" stroke="rgb(0,19,50)" stroke-opacity="1" stroke-width="3" d=" M-84.51200103759766,63.40800094604492 C-84.51200103759766,63.40800094604492 -31.37299919128418,-37.165000915527344 84.51200103759766,-63.40800094604492"></path></g></g><g transform="matrix(0.9883700013160706,-0.15206792950630188,0.15206792950630188,0.9883700013160706,-229.38851928710938,130.5900115966797)" opacity="1" style="display: block;"><g opacity="1" transform="matrix(1,0,0,1,564.7680053710938,1084.3060302734375)"><path fill="rgb(252,178,146)" fill-opacity="1" d=" M63.88399887084961,131.4429931640625 C63.88399887084961,131.4429931640625 68.76599884033203,-66.96099853515625 68.76599884033203,-66.96099853515625 C69.6709976196289,-101.0459976196289 43.21799850463867,-129.62899780273438 9.164999961853027,-131.36099243164062 C9.164999961853027,-131.36099243164062 9.163999557495117,-131.36099243164062 9.163999557495117,-131.36099243164062 C-24.888999938964844,-133.09300231933594 -54.10499954223633,-107.34100341796875 -56.66299819946289,-73.33999633789062 C-56.66299819946289,-73.33999633789062 -68.78900146484375,126.06900024414062 -68.78900146484375,126.06900024414062 C-68.78900146484375,126.06900024414062 63.88399887084961,131.4429931640625 63.88399887084961,131.4429931640625z"></path></g><g opacity="1" transform="matrix(1,0,0,1,0,0)"><g opacity="1" transform="matrix(1,0,0,1,579.2160034179688,985.489990234375)"><path fill="rgb(0,49,87)" fill-opacity="1" d=" M-67.05000305175781,0 C-67.05000305175781,-37.03099822998047 -37.03099822998047,-67.05000305175781 0,-67.05000305175781 C37.03099822998047,-67.05000305175781 67.05000305175781,-37.03099822998047 67.05000305175781,0 C67.05000305175781,37.03099822998047 37.03099822998047,67.05000305175781 0,67.05000305175781 C-37.03099822998047,67.05000305175781 -67.05000305175781,37.03099822998047 -67.05000305175781,0z"></path></g><g opacity="1" transform="matrix(1,0,0,1,579.9550170898438,986.2839965820312)"><path fill="rgb(0,49,87)" fill-opacity="1" d=" M-0.7390000224113464,-7.789999961853027 C-0.7390000224113464,-7.789999961853027 -0.7390000224113464,7.789999961853027 -0.7390000224113464,7.789999961853027 C-0.7390000224113464,7.789999961853027 9.241999626159668,-0.7950000166893005 9.241999626159668,-0.7950000166893005 C9.241999626159668,-0.7950000166893005 -9.241999626159668,-0.7950000166893005 -9.241999626159668,-0.7950000166893005"></path></g></g><g opacity="1" transform="matrix(1,0,0,1,0,0)"><g opacity="1" transform="matrix(1,0,0,1,567.9650268554688,1057.4659423828125)"><path fill="rgb(0,49,87)" fill-opacity="1" d=" M-78.09400177001953,84.7229995727539 C-78.09400177001953,84.7229995727539 68.43900299072266,89.74500274658203 68.43900299072266,89.74500274658203 C68.43900299072266,89.74500274658203 78.09400177001953,-66.68399810791016 78.09400177001953,-66.68399810791016 C78.09400177001953,-66.68399810791016 -53.85499954223633,-89.74500274658203 -53.85499954223633,-89.74500274658203 C-53.85499954223633,-89.74500274658203 -56.89400100708008,-77.64099884033203 -60.46799850463867,-50.20600128173828 C-65.61399841308594,-10.701000213623047 -78.09400177001953,84.7229995727539 -78.09400177001953,84.7229995727539z"></path></g><g opacity="1" transform="matrix(1,0,0,1,636.7880249023438,1099.5030517578125)"><path stroke-linecap="round" stroke-linejoin="round" fill-opacity="0" stroke="rgb(0,19,50)" stroke-opacity="1" stroke-width="3" d=" M-5.315999984741211,47.70899963378906 C-5.315999984741211,47.70899963378906 -0.3840000033378601,47.70899963378906 -0.3840000033378601,47.70899963378906 C-0.3840000033378601,47.70899963378906 5.315999984741211,-47.70899963378906 5.315999984741211,-47.70899963378906"></path></g></g></g><g transform="matrix(0.9930360317230225,-0.11781097948551178,0.11781097948551178,0.9930360317230225,-191.00108337402344,105.14057159423828)" opacity="1" style="display: block;"><g opacity="1" transform="matrix(1,0,0,1,1136.2469482421875,1067.9840087890625)"><path fill="rgb(252,178,146)" fill-opacity="1" d=" M-16.60099983215332,-84.83799743652344 C-16.60099983215332,-84.83799743652344 16.80500030517578,-97.45800018310547 30.68000030517578,-84.21900177001953 C43.85300064086914,-71.6500015258789 65.53099822998047,-76.93499755859375 67.27799987792969,-49.965999603271484 C69.0250015258789,-22.996999740600586 71.29199981689453,1.6449999809265137 64.12999725341797,25.70199966430664 C43.60200119018555,94.65699768066406 -0.9269999861717224,98.46399688720703 -0.9269999861717224,98.46399688720703 C-0.9269999861717224,98.46399688720703 -40.10200119018555,88.77400207519531 -56.83100128173828,58.2599983215332 C-67.66999816894531,38.4900016784668 -66.98999786376953,15.107999801635742 -66.98999786376953,15.107999801635742 C-66.98999786376953,15.107999801635742 -16.60099983215332,-84.83799743652344 -16.60099983215332,-84.83799743652344z"></path></g><g opacity="1" transform="matrix(0.9961947202682495,-0.08715574443340302,0.08715574443340302,0.9961947202682495,1167.4212646484375,994.650146484375)"><path fill="rgb(252,178,146)" fill-opacity="1" d=" M32.380001068115234,23.667999267578125 C32.380001068115234,23.667999267578125 27.783000946044922,-13.449000358581543 27.783000946044922,-13.449000358581543 C27.024999618530273,-19.18899917602539 26.0049991607666,-23.03499984741211 24.54800033569336,-26.54599952697754 C19.275999069213867,-39.255001068115234 6.775000095367432,-63.150001525878906 3.6480000019073486,-68.78800201416016 C0.8299999833106995,-73.86799621582031 -9.024999618530273,-77.25299835205078 -15.949000358581543,-74.625 C-25.1560001373291,-71.12999725341797 -28.94099998474121,-60.034000396728516 -28.374000549316406,-54.98500061035156 C-26.98699951171875,-42.643001556396484 -22.034000396728516,-28.179000854492188 -18.319000244140625,-18.638999938964844 C-15.715999603271484,-11.954000473022461 -16.643999099731445,-4.4629998207092285 -20.6560001373291,1.4839999675750732 C-34.75400161743164,22.382999420166016 -37.409000396728516,55.512001037597656 -21.579999923706055,68.94999694824219 C-5.750999927520752,82.38800048828125 16.952999114990234,73.1520004272461 25.325000762939453,60.138999938964844 C32.25299835205078,49.37099838256836 32.380001068115234,23.667999267578125 32.380001068115234,23.667999267578125z"></path></g><g opacity="1" transform="matrix(0.9969452619552612,-0.07810308039188385,0.07810308039188385,0.9969452619552612,1107.9173583984375,977.2046508789062)"><path fill="rgb(252,178,146)" fill-opacity="1" d=" M52.45800018310547,4.790999889373779 C37.11800003051758,-12.517000198364258 19.756999969482422,-27.207000732421875 0.3930000066757202,-38.03300094604492 C-26.81800079345703,-53.244998931884766 -65.23600006103516,-66.66400146484375 -65.68900299072266,-34.92499923706055 C-60.36399841308594,-9.85200023651123 -36.763999938964844,-9.741000175476074 -12.175999641418457,7.025000095367432 C0,15.32699966430664 9.27299976348877,25.53700065612793 23.031999588012695,42.361000061035156 C40.834999084472656,64.13099670410156 84.59300231933594,41.04999923706055 52.45800018310547,4.790999889373779z"></path></g><g opacity="1" transform="matrix(0.9999897480010986,-0.004526635631918907,0.004526635631918907,0.9999897480010986,1058.52197265625,1009.5092163085938)"><path fill="rgb(252,178,146)" fill-opacity="1" d=" M59.56399917602539,-12.60099983215332 C39.358001708984375,-30.548999786376953 8.824999809265137,-36.64400100708008 -7.199999809265137,-36.65999984741211 C-7.210000038146973,-36.65999984741211 -7.21999979019165,-36.65800094604492 -7.230000019073486,-36.65800094604492 C-30.804000854492188,-37.558998107910156 -48.74599838256836,-30.757999420166016 -57.99800109863281,-25.538999557495117 C-65.81500244140625,-21.1299991607666 -65.68499755859375,-10.732999801635742 -61.87200164794922,-4.1570000648498535 C-56.803001403808594,4.585999965667725 -44.12699890136719,6.5970001220703125 -38.48899841308594,6.85099983215332 C4.554999828338623,8.786999702453613 20.152000427246094,21.06800079345703 35.53900146484375,33.380001068115234 C48.784000396728516,43.97800064086914 65.052001953125,39.92100143432617 73.16799926757812,27.80900001525879 C85.70999908447266,9.09000015258789 62.57099914550781,-9.930000305175781 59.56399917602539,-12.60099983215332z"></path></g><g opacity="1" transform="matrix(0.9999539256095886,-0.009597438387572765,0.009597438387572765,0.9999539256095886,-10.0936279296875,10.6112060546875)"><g opacity="1" transform="matrix(1,0,0,1,1053.9859619140625,1044.7239990234375)"><path fill="rgb(252,178,146)" fill-opacity="1" d=" M57.95000076293945,-6.947999954223633 C18.458999633789062,-39.64699935913086 -30.900999069213867,-41.678001403808594 -58.577999114990234,-26.687000274658203 C-66.13899993896484,-22.666000366210938 -66.26100158691406,-12.744000434875488 -62.77799987792969,-6.380000114440918 C-58.14799880981445,2.0810000896453857 -46.1150016784668,4.728000164031982 -40.729000091552734,4.672999858856201 C-16.6200008392334,6.046000003814697 8.008999824523926,14.73900032043457 37.47999954223633,33.02899932861328 C67.34500122070312,51.5629997253418 78.41500091552734,9.996999740600586 57.95000076293945,-6.947999954223633z"></path></g><g opacity="1" transform="matrix(1,0,0,1,1056.0860595703125,1023.2739868164062)"><path stroke-linecap="round" stroke-linejoin="round" fill-opacity="0" stroke="rgb(0,19,50)" stroke-opacity="1" stroke-width="3" d=" M54.97999954223633,14.458999633789062 C54.97999954223633,14.458999633789062 4.208000183105469,-31.014999389648438 -54.97999954223633,-7.914000034332275"></path></g></g><g opacity="1" transform="matrix(0.9998964667320251,-0.014389490708708763,0.014389490708708763,0.9998964667320251,-15.6473388671875,15.8564453125)"><g opacity="1" transform="matrix(1,0,0,1,1053.343994140625,1082.26904296875)"><path fill="rgb(252,178,146)" fill-opacity="1" d=" M47.60200119018555,-8.760000228881836 C15.574999809265137,-36.229000091552734 -26.277000427246094,-40.35300064086914 -52.11199951171875,-28.222000122070312 C-59.165000915527344,-24.975000381469727 -59.79199981689453,-16.000999450683594 -56.970001220703125,-10.059000015258789 C-47.12099838256836,9.517000198364258 -19.506999969482422,-11.109000205993652 23.881999969482422,23.816999435424805 C47.30099868774414,42.667999267578125 68.6969985961914,9.331999778747559 47.60200119018555,-8.760000228881836z"></path></g><g opacity="1" transform="matrix(1,0,0,1,1057.759033203125,1060.3360595703125)"><path stroke-linecap="round" stroke-linejoin="round" fill-opacity="0" stroke="rgb(0,19,50)" stroke-opacity="1" stroke-width="3" d=" M43.1870002746582,13.17199993133545 C30.195999145507812,2.127000093460083 -1.7730000019073486,-19.785999298095703 -43.1870002746582,-11.23900032043457"></path></g></g><g opacity="1" transform="matrix(1,0,0,1,1168.1669921875,992.1619873046875)"><path stroke-linecap="round" stroke-linejoin="round" fill-opacity="0" stroke="rgb(0,19,50)" stroke-opacity="1" stroke-width="3" d=" M-20.21500015258789,-27.700000762939453 C4.775000095367432,-11.227999687194824 20.21500015258789,27.700000762939453 20.21500015258789,27.700000762939453"></path></g></g><g transform="matrix(0.9898066520690918,-0.14241792261600494,0.14241792261600494,0.9898066520690918,-218.51478576660156,123.42491912841797)" opacity="1" style="display: block;"><g opacity="1" transform="matrix(1,0,0,1,562.3150024414062,1210.375)"><path fill="rgb(252,178,146)" fill-opacity="1" d=" M-66.33699798583984,0 C-66.33699798583984,-36.215999603271484 -36.637001037597656,-65.57499694824219 0,-65.57499694824219 C36.637001037597656,-65.57499694824219 66.33699798583984,-36.215999603271484 66.33699798583984,0 C66.33699798583984,36.215999603271484 36.637001037597656,65.57499694824219 0,65.57499694824219 C-36.637001037597656,65.57499694824219 -66.33699798583984,36.215999603271484 -66.33699798583984,0z"></path></g><g opacity="1" transform="matrix(1,0,0,1,563.0469970703125,1211.1519775390625)"><path fill="rgb(252,178,146)" fill-opacity="1" d=" M-0.7310000061988831,-7.61899995803833 C-0.7310000061988831,-7.61899995803833 -0.7310000061988831,7.61899995803833 -0.7310000061988831,7.61899995803833 C-0.7310000061988831,7.61899995803833 9.142999649047852,-0.7770000100135803 9.142999649047852,-0.7770000100135803 C9.142999649047852,-0.7770000100135803 -9.142999649047852,-0.7770000100135803 -9.142999649047852,-0.7770000100135803"></path></g><g opacity="1" transform="matrix(1,0,0,1,686.3870239257812,1211.5150146484375)"><path fill="rgb(252,178,146)" fill-opacity="1" d=" M123.0479965209961,-75.8550033569336 C123.0479965209961,-75.8550033569336 -126.53099822998047,-66.66999816894531 -126.53099822998047,-66.66999816894531 C-126.53099822998047,-66.66999816894531 -126.70600128173828,64.38500213623047 -126.70600128173828,64.38500213623047 C-126.70600128173828,64.38500213623047 126.70600128173828,75.8550033569336 126.70600128173828,75.8550033569336 C126.70600128173828,75.8550033569336 123.0479965209961,-75.8550033569336 123.0479965209961,-75.8550033569336z"></path></g></g><g transform="matrix(1,0.00005611991582554765,-0.00005611991582554765,1,-54.2782096862793,-4.91357421875)" opacity="1" style="display: block;"><g opacity="1" transform="matrix(1,0,0,1,0,0)"><g opacity="1" transform="matrix(1,0,0,1,858.0830078125,1201.5369873046875)"><path fill="rgb(252,178,146)" fill-opacity="1" d=" M56.59000015258789,-87.35700225830078 C56.59000015258789,-87.35700225830078 30.545000076293945,-82.23899841308594 12.336000442504883,-76.22000122070312 C-4.951000213623047,-70.50599670410156 -25.10700035095215,-58.654998779296875 -25.10700035095215,-58.654998779296875 C-25.10700035095215,-58.654998779296875 -56.66299819946289,84.19499969482422 -56.66299819946289,84.19499969482422 C-56.66299819946289,84.19499969482422 4.754000186920166,94.697998046875 33.55400085449219,75.16600036621094 C49.202999114990234,64.5530014038086 56.10200119018555,52.37300109863281 57.89899826049805,42.95500183105469 C59.69599914550781,33.5369987487793 56.59000015258789,-87.35700225830078 56.59000015258789,-87.35700225830078z"></path></g><g opacity="1" transform="matrix(1,0,0,1,862.3729858398438,1136.1710205078125)"><path fill="rgb(252,178,146)" fill-opacity="1" d=" M-42.2760009765625,-5.14900016784668 C-36.70199966430664,-11.312000274658203 -16.979000091552734,-36.66699981689453 -7.6519999504089355,-42.349998474121094 C4.098999977111816,-49.50899887084961 27.579999923706055,-62.70899963378906 33.33000183105469,-65.6259994506836 C52.097999572753906,-71.46099853515625 62.060001373291016,-48.94599914550781 52.117000579833984,-36.249000549316406 C44.053001403808594,-26.804000854492188 31.844999313354492,-17.600000381469727 23.422000885009766,-11.779999732971191 C16.93199920654297,-7.36299991607666 12.609999656677246,0.39500001072883606 14.100000381469727,8.03499984741211 C17.55699920654297,25.756999969482422 6.821000099182129,59.09600067138672 -18.405000686645508,65.36599731445312 C-38.55500030517578,70.3740005493164 -53.709999084472656,59.4630012512207 -55.832000732421875,38.80799865722656 C-57.56399917602539,21.954999923706055 -47.849998474121094,1.0140000581741333 -42.2760009765625,-5.14900016784668z"></path></g><g opacity="1" transform="matrix(0.9999770522117615,-0.006775406189262867,0.006775406189262867,0.9999770522117615,948.8323974609375,1138.01318359375)"><path fill="rgb(252,178,146)" fill-opacity="1" d=" M64.64099884033203,-3.697000026702881 C56.96900177001953,-11.357999801635742 35.73899841308594,-25.018999099731445 10.781999588012695,-27.114999771118164 C-1.215000033378601,-27.858999252319336 -29.808000564575195,-29.7549991607666 -49.1349983215332,-19.38599967956543 C-59.74599838256836,-13.692999839782715 -67.48799896240234,-8.086999893188477 -68.23400115966797,7.21999979019165 C-68.12100219726562,19.113000869750977 -58.64500045776367,26.781999588012695 -46.051998138427734,24.625 C-27.469999313354492,21.441999435424805 -16.030000686645508,17.733999252319336 -0.36899998784065247,16.58300018310547 C15.050000190734863,15.449000358581543 31.058000564575195,19.474000930786133 39.0890007019043,21.780000686645508 C44.26599884033203,23.267000198364258 56.569000244140625,23.917999267578125 63.284000396728516,16.9950008392334 C68.33499908447266,11.788000106811523 70.85900115966797,2.193000078201294 64.64099884033203,-3.697000026702881z"></path></g><g opacity="1" transform="matrix(0.9999770522117615,-0.006775406189262867,0.006775406189262867,0.9999770522117615,-7.92547607421875,6.1641845703125)"><g opacity="1" transform="matrix(1,0,0,1,955.5780029296875,1175.2989501953125)"><path fill="rgb(252,178,146)" fill-opacity="1" d=" M68.33399963378906,6.429999828338623 C60.167999267578125,-13.27299976348877 12.920000076293945,-34.17399978637695 -31.400999069213867,-29.35700035095215 C-83.72899627685547,-23.66900062561035 -75.28199768066406,24.43600082397461 -41.42599868774414,19.600000381469727 C-21.91699981689453,16.812999725341797 -1.6699999570846558,11.342000007629395 36.83000183105469,27.34000015258789 C42.04199981689453,29.506000518798828 54.3489990234375,33.138999938964844 62.67499923706055,27.40999984741211 C68.93800354003906,23.10099983215332 72.1520004272461,17.194000244140625 68.33399963378906,6.429999828338623z"></path></g><g opacity="1" transform="matrix(1,0,0,1,958.1950073242188,1152.85400390625)"><path stroke-linecap="round" stroke-linejoin="round" fill-opacity="0" stroke="rgb(0,19,50)" stroke-opacity="1" stroke-width="3" d=" M-45.02799987792969,-3.625 C-45.02799987792969,-3.625 2.2279999256134033,-17.246999740600586 45.02799987792969,7.381999969482422"></path></g></g><g opacity="1" transform="matrix(0.9999770522117615,-0.006775406189262867,0.006775406189262867,0.9999770522117615,-8.156494140625,6.1202392578125)"><g opacity="1" transform="matrix(1,0,0,1,948.0700073242188,1208.5799560546875)"><path fill="rgb(252,178,146)" fill-opacity="1" d=" M65.83000183105469,6.335000038146973 C59.59299850463867,-2.5339999198913574 41.03499984741211,-19.649999618530273 16.812999725341797,-26.016000747680664 C-1.2929999828338623,-30.354999542236328 -67.2040023803711,-34.65399932861328 -70.46199798583984,-6.817999839782715 C-72.43599700927734,10.04699993133545 -61.56800079345703,19.643999099731445 -47.46099853515625,17.195999145507812 C-28.92799949645996,13.979000091552734 -13.345999717712402,11.880000114440918 -4.6529998779296875,14.173999786376953 C12.270000457763672,18.57699966430664 28.7549991607666,23.3700008392334 36.26900100708008,27.025999069213867 C41.11199951171875,29.382999420166016 53.11899948120117,32.145999908447266 60.926998138427734,26.483999252319336 C66.80000305175781,22.22599983215332 70.94000244140625,13.208999633789062 65.83000183105469,6.335000038146973z"></path></g><g opacity="1" transform="matrix(1,0,0,1,955.427001953125,1194.60400390625)"><path stroke-linecap="round" stroke-linejoin="round" fill-opacity="0" stroke="rgb(0,19,50)" stroke-opacity="1" stroke-width="3" d=" M-54.47200012207031,-11.437999725341797 C-54.47200012207031,-11.437999725341797 10.88599967956543,-30.777999877929688 54.47200012207031,15.451000213623047"></path></g></g><g opacity="1" transform="matrix(0.9999770522117615,-0.006775406189262867,0.006775406189262867,0.9999770522117615,-8.395263671875,6.061279296875)"><g opacity="1" transform="matrix(1,0,0,1,933.2949829101562,1242.2459716796875)"><path fill="rgb(252,178,146)" fill-opacity="1" d=" M59.91699981689453,2.7119998931884766 C35.82099914550781,-23.604999542236328 1.843000054359436,-27.523000717163086 -38.44300079345703,-22.559999465942383 C-66.95600128173828,-19.047000885009766 -70.39700317382812,19.582000732421875 -42.071998596191406,18.43899917602539 C-25.03700065612793,17.75200080871582 -18.54800033569336,13.029000282287598 -3.4860000610351562,13.472999572753906 C24.344999313354492,14.293000221252441 37.44300079345703,33.858001708984375 56.8120002746582,23.36400032043457 C62.597999572753906,20.229000091552734 65.98799896240234,9.734000205993652 59.91699981689453,2.7119998931884766z"></path></g><g opacity="1" transform="matrix(1,0,0,1,939.0269775390625,1225.303955078125)"><path stroke-linecap="round" stroke-linejoin="round" fill-opacity="0" stroke="rgb(0,19,50)" stroke-opacity="1" stroke-width="3" d=" M-44.25199890136719,-5.474999904632568 C-27.7810001373291,-9.890000343322754 10.491999626159668,-15.996000289916992 44.25199890136719,9.468999862670898"></path></g></g><g opacity="1" transform="matrix(1,0,0,1,0,0)"><g opacity="1" transform="matrix(1,0,0,1,814.406005859375,1211.1689453125)"><path fill="rgb(252,178,146)" fill-opacity="1" d=" M-75.6760025024414,0 C-75.6760025024414,-41.79499816894531 -41.79499816894531,-75.6760025024414 0,-75.6760025024414 C41.79499816894531,-75.6760025024414 75.6760025024414,-41.79499816894531 75.6760025024414,0 C75.6760025024414,41.79499816894531 41.79499816894531,75.6760025024414 0,75.6760025024414 C-41.79499816894531,75.6760025024414 -75.6760025024414,41.79499816894531 -75.6760025024414,0z"></path></g><g opacity="1" transform="matrix(1,0,0,1,815.239990234375,1212.0660400390625)"><path fill="rgb(252,178,146)" fill-opacity="1" d=" M-0.8339999914169312,-8.791999816894531 C-0.8339999914169312,-8.791999816894531 -0.8339999914169312,8.791999816894531 -0.8339999914169312,8.791999816894531 C-0.8339999914169312,8.791999816894531 10.430999755859375,-0.8970000147819519 10.430999755859375,-0.8970000147819519 C10.430999755859375,-0.8970000147819519 -10.430999755859375,-0.8970000147819519 -10.430999755859375,-0.8970000147819519"></path></g></g></g></g><g transform="matrix(0.9271897077560425,-0.37459200620651245,0.37459200620651245,0.9271897077560425,-377.5202331542969,340.4064025878906)" opacity="1" style="display: block;"><g opacity="1" transform="matrix(1,0,0,1,688.8619995117188,734.8569946289062)"><path fill="rgb(252,178,146)" fill-opacity="1" d=" M108.78900146484375,-22.400999069213867 C121.47100067138672,39.1870002746582 83.04399871826172,99.14199829101562 22.961999893188477,111.51399993896484 C-37.119998931884766,123.88600158691406 -82.88500213623047,82.71399688720703 -102.66200256347656,23.024999618530273 C-122.43900299072266,-36.66400146484375 -83.04399871826172,-99.14199829101562 -22.961999893188477,-111.51399993896484 C37.119998931884766,-123.88600158691406 96.10700225830078,-83.98899841308594 108.78900146484375,-22.400999069213867z"></path></g><g opacity="1" transform="matrix(1,0,0,1,0,0)"><g opacity="1" transform="matrix(1,0,0,1,717.322021484375,788.9140014648438)"><path fill="rgb(240,65,254)" fill-opacity="1" d=" M6.513599872589111,-13.217276573181152 C6.513599872589111,-13.217276573181152 -13.515000343322754,-25.617000579833984 -24.746999740600586,-23.292999267578125 C-29.60700035095215,-22.288000106811523 -34.22200012207031,-18.19700050354004 -34.849998474121094,-14.003000259399414 C-37.74100112915039,5.302999973297119 0.9640004634857178,19.85272216796875 0.9640004634857178,19.85272216796875 C0.9640004634857178,19.85272216796875 34.89400100708008,4.5929999351501465 35.0099983215332,-9.848999977111816 C35.04399871826172,-14.105999946594238 30.322999954223633,-18.34600067138672 25.854999542236328,-19.292999267578125 C17.922000885009766,-20.974000930786133 6.513599872589111,-13.217276573181152 6.513599872589111,-13.217276573181152z"></path></g><g opacity="1" transform="matrix(1,0,0,1,717.2030029296875,786.8289794921875)"><path stroke-linecap="round" stroke-linejoin="round" fill-opacity="0" stroke="rgb(0,19,50)" stroke-opacity="1" stroke-width="3" d=" M-21.98900032043457,-7.998000144958496 C-21.98900032043457,-7.998000144958496 1.5765998363494873,4.328722953796387 1.5765998363494873,4.328722953796387 C1.5765998363494873,4.328722953796387 21.98900032043457,-4.886000156402588 21.98900032043457,-4.886000156402588"></path></g></g><g opacity="1" transform="matrix(1,0,0,1,682.06201171875,732.4929809570312)"><path fill="rgb(240,239,216)" fill-opacity="1" d=" M-27.59000015258789,-142.21600341796875 C-99.70099639892578,-127.36699676513672 -144.40447998046875,-56.216548919677734 -130.30580139160156,17.564157485961914 C-119.82361602783203,72.41741943359375 -78.01959228515625,126.4124526977539 -27.68393898010254,144.85916137695312 C-46.470611572265625,119.2671890258789 -58.524192810058594,78.42317199707031 -64.3998031616211,43.28162384033203 C-68.8342056274414,16.19294548034668 -67.07774353027344,-24.82891845703125 -63.632999420166016,-44.624000549316406 C-60.21070861816406,-64.08150482177734 -44.17900085449219,-78.73699951171875 -24.433000564575195,-77.65599822998047 C-24.433000564575195,-77.65599822998047 58.2239990234375,-73.13099670410156 58.2239990234375,-73.13099670410156 C76.45999908447266,-72.13200378417969 91.35099792480469,-58.11600112915039 93.34700012207031,-39.96200180053711 C95.34400177001953,-21.792999267578125 100.3030014038086,-104.23799896240234 70.5780029296875,-123.50199890136719 C42.347999572753906,-141.7969970703125 7.534999847412109,-149.44900512695312 -27.59000015258789,-142.21600341796875z"></path></g><g opacity="1" transform="matrix(1,0,0,1,682.06201171875,732.4929809570312)"><path fill="rgb(240,239,216)" fill-opacity="1" d=" M93.34700012207031,-39.96200180053711 C96.90132141113281,-21.900779724121094 100.08512115478516,12.991072654724121 99.70630645751953,33.6129150390625 C98.0572509765625,94.26830291748047 89.69082641601562,118.1669921875 81.35848236083984,130.78427124023438 C125.45701599121094,93.19881439208984 142.52200317382812,22.93899917602539 130.53700256347656,-35.26300048828125 C121.2249984741211,-80.48400115966797 91.11299896240234,-115.96099853515625 52.625,-133.29200744628906 C37.422000885009766,-140.13800048828125 60.84299850463867,-109.56500244140625 77.63300323486328,-80.95099639892578 C87.81600189208984,-63.59700012207031 92.02384948730469,-46.70832061767578 93.34700012207031,-39.96200180053711z"></path></g><g opacity="1" transform="matrix(1,0,0,1,682.06201171875,732.4929809570312)"><path stroke-linecap="round" stroke-linejoin="round" fill-opacity="0" stroke="rgb(0,19,50)" stroke-opacity="1" stroke-width="3" d=" M51.29499816894531,-133.88299560546875 C27.19499969482422,-144.42100524902344 -0.10199999809265137,-147.87600708007812 -27.59000015258789,-142.21600341796875 C-27.59000015258789,-142.21600341796875 -27.59000015258789,-142.21600341796875 -27.59000015258789,-142.21600341796875 C-99.70099639892578,-127.36699676513672 -144.40447998046875,-56.216548919677734 -130.30580139160156,17.564157485961914 C-124.36699676513672,48.641998291015625 -108.3740005493164,79.44499969482422 -86.47100067138672,103.66300201416016"></path></g></g></g></g></svg>