<svg xmlns="http://www.w3.org/2000/svg" xmlns:xlink="http://www.w3.org/1999/xlink" viewBox="0 0 1600 1600" width="1600" height="1600" preserveAspectRatio="xMidYMid meet" style="width: 100%; height: 100%; transform: translate3d(0px, 0px, 0px); content-visibility: visible;"><defs><clipPath id="__lottie_element_2"><rect width="1600" height="1600" x="0" y="0"></rect></clipPath><clipPath id="__lottie_element_4"><path d="M0,0 L1600,0 L1600,1600 L0,1600z"></path></clipPath><g id="__lottie_element_46"><g transform="matrix(0.9975640773773193,-0.06975647062063217,0.06975647062063217,0.9975640773773193,-50.94843673706055,23.72943878173828)" opacity="1" style="display: block;"><g opacity="1" transform="matrix(1,0,0,1,581.301025390625,844.1209716796875)"><path fill="rgb(32,40,112)" fill-opacity="1" d=" M148.38299560546875,-19.240999221801758 C148.38299560546875,-48.361000061035156 124.7760009765625,-71.96800231933594 95.65599822998047,-71.96800231933594 C93.75299835205078,-71.96800231933594 91.8759994506836,-71.86299896240234 90.0250015258789,-71.66600036621094 C70.00700378417969,-85.56099700927734 44.09600067138672,-93.9469985961914 15.788000106811523,-93.9469985961914 C-38.415000915527344,-93.9469985961914 -83.83999633789062,-63.21699905395508 -95.89600372314453,-21.889999389648438 C-125.22200012207031,-15.336999893188477 -148.38299560546875,9.244000434875488 -148.38299560546875,32.28099822998047 C-148.38299560546875,59.15399932861328 -119.1520004272461,80.94000244140625 -83.09400177001953,80.94000244140625 C-72.14399719238281,80.94000244140625 -61.83100128173828,78.9209976196289 -52.768001556396484,75.37000274658203 C-33.6349983215332,87.03900146484375 -9.90999984741211,93.9469985961914 15.788000106811523,93.9469985961914 C69.4739990234375,93.9469985961914 114.54900360107422,63.80099868774414 127.11900329589844,23.070999145507812 C140.0229949951172,13.460000038146973 148.38299560546875,-1.9140000343322754 148.38299560546875,-19.240999221801758z"></path></g><g opacity="1" transform="matrix(1,0,0,1,514.3410034179688,828.4539794921875)"><path stroke-linecap="round" stroke-linejoin="round" fill-opacity="0" stroke="rgb(255,255,255)" stroke-opacity="1" stroke-width="2" d=" M-28.93600082397461,-6.242000102996826 C-24.054000854492188,-7.331999778747559 -19.000999450683594,-7.922999858856201 -13.855999946594238,-7.922999858856201 C3.007999897003174,-7.922999858856201 17.881000518798828,-1.5789999961853027 28.93600082397461,7.922999858856201"></path></g><g opacity="1" transform="matrix(1,0,0,1,692.6900024414062,872.4000244140625)"><path stroke-linecap="round" stroke-linejoin="round" fill-opacity="0" stroke="rgb(255,255,255)" stroke-opacity="1" stroke-width="2" d=" M15.732999801635742,-5.206999778747559 C11.348999977111816,-1.940999984741211 6.440000057220459,0.6589999794960022 1.1549999713897705,2.444999933242798 C-4.146999835968018,4.236999988555908 -9.826000213623047,5.206999778747559 -15.732999801635742,5.206999778747559"></path></g><g opacity="1" transform="matrix(1,0,0,1,655.6680297851562,779.8569946289062)"><path stroke-linecap="round" stroke-linejoin="round" fill-opacity="0" stroke="rgb(255,255,255)" stroke-opacity="1" stroke-width="2" d=" M-15.66100025177002,7.4079999923706055 C-7.4039998054504395,-0.7039999961853027 3.513000011444092,-6.11899995803833 15.66100025177002,-7.4079999923706055"></path></g></g></g><mask id="__lottie_element_46_1" mask-type="alpha"><use xlink:href="#__lottie_element_46"></use></mask><clipPath id="__lottie_element_62"><path d="M0,0 L1600,0 L1600,1600 L0,1600z"></path></clipPath><g id="__lottie_element_98"><g transform="matrix(1,0,0,1,740.9539794921875,1364.06298828125)" opacity="1" style="display: block;"><g opacity="1" transform="matrix(1,0,0,1,0,0)"><path stroke-linecap="round" stroke-linejoin="round" fill-opacity="0" stroke="rgb(32,40,112)" stroke-opacity="1" stroke-width="2" d=" M623.3159790039062,-1094.9210205078125 C623.3159790039062,-1094.9210205078125 -577.6119995117188,-1094.9210205078125 -577.6119995117188,-1094.9210205078125 C-577.6119995117188,-1094.9210205078125 -576.8569946289062,-0.20600000023841858 -576.8569946289062,-0.20600000023841858 C-576.8569946289062,-0.20600000023841858 626.9719848632812,-0.20600000023841858 626.9719848632812,-0.20600000023841858 C626.9719848632812,-0.20600000023841858 623.3159790039062,-1094.9210205078125 623.3159790039062,-1094.9210205078125z"></path><path fill="rgb(32,40,112)" fill-opacity="1" d=" M623.3159790039062,-1094.9210205078125 C623.3159790039062,-1094.9210205078125 -577.6119995117188,-1094.9210205078125 -577.6119995117188,-1094.9210205078125 C-577.6119995117188,-1094.9210205078125 -576.8569946289062,-0.20600000023841858 -576.8569946289062,-0.20600000023841858 C-576.8569946289062,-0.20600000023841858 626.9719848632812,-0.20600000023841858 626.9719848632812,-0.20600000023841858 C626.9719848632812,-0.20600000023841858 623.3159790039062,-1094.9210205078125 623.3159790039062,-1094.9210205078125z"></path></g></g></g><mask id="__lottie_element_98_1" mask-type="alpha"><use xlink:href="#__lottie_element_98"></use></mask><clipPath id="__lottie_element_108"><path d="M0,0 L1600,0 L1600,1600 L0,1600z"></path></clipPath></defs><g clip-path="url(#__lottie_element_2)"><g clip-path="url(#__lottie_element_108)" transform="matrix(1,0,0,1,0,0)" opacity="1" style="display: block;"><g transform="matrix(1,0,0,1,243.1929931640625,410.864990234375)" opacity="1" style="display: block;"><g opacity="1" transform="matrix(1,0,0,1,0,0)"><path fill="rgb(132,132,250)" fill-opacity="1" d=" M58.59400177001953,0 C58.59400177001953,32.361000061035156 32.361000061035156,58.59400177001953 0,58.59400177001953 C-32.361000061035156,58.59400177001953 -58.59400177001953,32.361000061035156 -58.59400177001953,0 C-58.59400177001953,-32.361000061035156 -32.361000061035156,-58.59400177001953 0,-58.59400177001953 C32.361000061035156,-58.59400177001953 58.59400177001953,-32.361000061035156 58.59400177001953,0z"></path></g></g><g transform="matrix(0.9999996423721313,0.0008377574849873781,-0.0008377574849873781,0.9999996423721313,242.754150390625,393.2469787597656)" opacity="1" style="display: block;"><g opacity="1" transform="matrix(1,0,0,1,0,0)"><path fill="rgb(255,255,255)" fill-opacity="1" d=" M9.064000129699707,1.7209999561309814 C9.064000129699707,13.545999526977539 0,23.131000518798828 0,23.131000518798828 C0,23.131000518798828 -9.064000129699707,13.545999526977539 -9.064000129699707,1.7209999561309814 C-9.064000129699707,-10.104000091552734 0,-23.131000518798828 0,-23.131000518798828 C0,-23.131000518798828 9.064000129699707,-10.104000091552734 9.064000129699707,1.7209999561309814z"></path><path stroke-linecap="round" stroke-linejoin="round" fill-opacity="0" stroke="rgb(32,40,112)" stroke-opacity="1" stroke-width="2" d=" M9.064000129699707,1.7209999561309814 C9.064000129699707,13.545999526977539 0,23.131000518798828 0,23.131000518798828 C0,23.131000518798828 -9.064000129699707,13.545999526977539 -9.064000129699707,1.7209999561309814 C-9.064000129699707,-10.104000091552734 0,-23.131000518798828 0,-23.131000518798828 C0,-23.131000518798828 9.064000129699707,-10.104000091552734 9.064000129699707,1.7209999561309814z"></path></g></g><g transform="matrix(0.9999995231628418,-0.001012291293591261,0.001012291293591261,0.9999995231628418,-0.6112060546875,0.247467041015625)" opacity="1" style="display: block;"><g opacity="1" transform="matrix(1,0,0,1,259.54901123046875,422.40301513671875)"><path fill="rgb(255,255,255)" fill-opacity="1" d=" M-7.625999927520752,-5.191999912261963 C-15.987000465393066,3.1689999103546143 -16.356000900268555,16.356000900268555 -16.356000900268555,16.356000900268555 C-16.356000900268555,16.356000900268555 -3.1689999103546143,15.987000465393066 5.191999912261963,7.625999927520752 C13.553000450134277,-0.7350000143051147 16.356000900268555,-16.356000900268555 16.356000900268555,-16.356000900268555 C16.356000900268555,-16.356000900268555 0.7350000143051147,-13.553000450134277 -7.625999927520752,-5.191999912261963z"></path><path stroke-linecap="round" stroke-linejoin="round" fill-opacity="0" stroke="rgb(32,40,112)" stroke-opacity="1" stroke-width="2" d=" M-7.625999927520752,-5.191999912261963 C-15.987000465393066,3.1689999103546143 -16.356000900268555,16.356000900268555 -16.356000900268555,16.356000900268555 C-16.356000900268555,16.356000900268555 -3.1689999103546143,15.987000465393066 5.191999912261963,7.625999927520752 C13.553000450134277,-0.7350000143051147 16.356000900268555,-16.356000900268555 16.356000900268555,-16.356000900268555 C16.356000900268555,-16.356000900268555 0.7350000143051147,-13.553000450134277 -7.625999927520752,-5.191999912261963z"></path></g><g opacity="1" transform="matrix(1,0,0,1,250.77499389648438,431.1780090332031)"><path fill="rgb(255,255,255)" fill-opacity="1" d=" M7.580999851226807,-7.580999851226807 C7.580999851226807,-7.580999851226807 -7.580999851226807,7.580999851226807 -7.580999851226807,7.580999851226807"></path><path stroke-linecap="round" stroke-linejoin="round" fill-opacity="0" stroke="rgb(32,40,112)" stroke-opacity="1" stroke-width="2" d=" M7.580999851226807,-7.580999851226807 C7.580999851226807,-7.580999851226807 -7.580999851226807,7.580999851226807 -7.580999851226807,7.580999851226807"></path></g></g><g transform="matrix(0.999994695186615,-0.0032637598924338818,0.0032637598924338818,0.999994695186615,-1.5978851318359375,0.797119140625)" opacity="1" style="display: block;"><g opacity="1" transform="matrix(1,0,0,1,226.83700561523438,422.40301513671875)"><path fill="rgb(255,255,255)" fill-opacity="1" d=" M7.625999927520752,-5.191999912261963 C15.987000465393066,3.1689999103546143 16.356000900268555,16.356000900268555 16.356000900268555,16.356000900268555 C16.356000900268555,16.356000900268555 3.1689999103546143,15.987000465393066 -5.191999912261963,7.625999927520752 C-13.553000450134277,-0.7350000143051147 -16.356000900268555,-16.356000900268555 -16.356000900268555,-16.356000900268555 C-16.356000900268555,-16.356000900268555 -0.7350000143051147,-13.553000450134277 7.625999927520752,-5.191999912261963z"></path><path stroke-linecap="round" stroke-linejoin="round" fill-opacity="0" stroke="rgb(32,40,112)" stroke-opacity="1" stroke-width="2" d=" M7.625999927520752,-5.191999912261963 C15.987000465393066,3.1689999103546143 16.356000900268555,16.356000900268555 16.356000900268555,16.356000900268555 C16.356000900268555,16.356000900268555 3.1689999103546143,15.987000465393066 -5.191999912261963,7.625999927520752 C-13.553000450134277,-0.7350000143051147 -16.356000900268555,-16.356000900268555 -16.356000900268555,-16.356000900268555 C-16.356000900268555,-16.356000900268555 -0.7350000143051147,-13.553000450134277 7.625999927520752,-5.191999912261963z"></path></g><g opacity="1" transform="matrix(1,0,0,1,235.61199951171875,431.1780090332031)"><path fill="rgb(255,255,255)" fill-opacity="1" d=" M-7.580999851226807,-7.580999851226807 C-7.580999851226807,-7.580999851226807 7.580999851226807,7.580999851226807 7.580999851226807,7.580999851226807"></path><path stroke-linecap="round" stroke-linejoin="round" fill-opacity="0" stroke="rgb(32,40,112)" stroke-opacity="1" stroke-width="2" d=" M-7.580999851226807,-7.580999851226807 C-7.580999851226807,-7.580999851226807 7.580999851226807,7.580999851226807 7.580999851226807,7.580999851226807"></path></g></g><g transform="matrix(0.9999154806137085,-0.013002336956560612,0.013002336956560612,0.9999154806137085,242.82447814941406,423.2763977050781)" opacity="1" style="display: block;"><g opacity="1" transform="matrix(1,0,0,1,0,0)"><path fill="rgb(255,255,255)" fill-opacity="1" d=" M0,-28.341999053955078 C0,-28.341999053955078 0,28.341999053955078 0,28.341999053955078"></path><path stroke-linecap="round" stroke-linejoin="round" fill-opacity="0" stroke="rgb(32,40,112)" stroke-opacity="1" stroke-width="2" d=" M0,-28.341999053955078 C0,-28.341999053955078 0,28.341999053955078 0,28.341999053955078"></path></g></g><g transform="matrix(1,0,0,1,893.9569702148438,358.1199951171875)" opacity="1" style="display: block;"><g opacity="1" transform="matrix(1,0,0,1,0,0)"><path fill="rgb(132,132,250)" fill-opacity="1" d=" M122.18299865722656,0 C122.18299865722656,67.4800033569336 67.4800033569336,122.18299865722656 0,122.18299865722656 C-67.4800033569336,122.18299865722656 -122.18299865722656,67.4800033569336 -122.18299865722656,0 C-122.18299865722656,-67.4800033569336 -67.4800033569336,-122.18299865722656 0,-122.18299865722656 C67.4800033569336,-122.18299865722656 122.18299865722656,-67.4800033569336 122.18299865722656,0z"></path></g></g><g transform="matrix(0.9999637007713318,-0.008517102338373661,0.008517102338373661,0.9999637007713318,895.06201171875,321.3953857421875)" opacity="1" style="display: block;"><g opacity="1" transform="matrix(1,0,0,1,0,0)"><path fill="rgb(255,255,255)" fill-opacity="1" d=" M18.899999618530273,3.5880000591278076 C18.899999618530273,28.2450008392334 0,48.23400115966797 0,48.23400115966797 C0,48.23400115966797 -18.899999618530273,28.2450008392334 -18.899999618530273,3.5880000591278076 C-18.899999618530273,-21.069000244140625 0,-48.23400115966797 0,-48.23400115966797 C0,-48.23400115966797 18.899999618530273,-21.069000244140625 18.899999618530273,3.5880000591278076z"></path><path stroke-linecap="round" stroke-linejoin="round" fill-opacity="0" stroke="rgb(32,40,112)" stroke-opacity="1" stroke-width="2" d=" M18.899999618530273,3.5880000591278076 C18.899999618530273,28.2450008392334 0,48.23400115966797 0,48.23400115966797 C0,48.23400115966797 -18.899999618530273,28.2450008392334 -18.899999618530273,3.5880000591278076 C-18.899999618530273,-21.069000244140625 0,-48.23400115966797 0,-48.23400115966797 C0,-48.23400115966797 18.899999618530273,-21.069000244140625 18.899999618530273,3.5880000591278076z"></path></g></g><g transform="matrix(0.9978532195091248,0.06549020856618881,-0.06549020856618881,0.9978532195091248,29.73480224609375,-57.645050048828125)" opacity="1" style="display: block;"><g opacity="1" transform="matrix(1,0,0,1,928.06298828125,382.1789855957031)"><path fill="rgb(255,255,255)" fill-opacity="1" d=" M-15.902000427246094,-10.82699966430664 C-33.33700180053711,6.607999801635742 -34.10599899291992,34.10599899291992 -34.10599899291992,34.10599899291992 C-34.10599899291992,34.10599899291992 -6.607999801635742,33.33700180053711 10.82699966430664,15.902000427246094 C28.261999130249023,-1.5329999923706055 34.10599899291992,-34.10599899291992 34.10599899291992,-34.10599899291992 C34.10599899291992,-34.10599899291992 1.5329999923706055,-28.261999130249023 -15.902000427246094,-10.82699966430664z"></path><path stroke-linecap="round" stroke-linejoin="round" fill-opacity="0" stroke="rgb(32,40,112)" stroke-opacity="1" stroke-width="2" d=" M-15.902000427246094,-10.82699966430664 C-33.33700180053711,6.607999801635742 -34.10599899291992,34.10599899291992 -34.10599899291992,34.10599899291992 C-34.10599899291992,34.10599899291992 -6.607999801635742,33.33700180053711 10.82699966430664,15.902000427246094 C28.261999130249023,-1.5329999923706055 34.10599899291992,-34.10599899291992 34.10599899291992,-34.10599899291992 C34.10599899291992,-34.10599899291992 1.5329999923706055,-28.261999130249023 -15.902000427246094,-10.82699966430664z"></path></g><g opacity="1" transform="matrix(1,0,0,1,909.7659912109375,400.47601318359375)"><path fill="rgb(255,255,255)" fill-opacity="1" d=" M15.809000015258789,-15.809000015258789 C15.809000015258789,-15.809000015258789 -15.809000015258789,15.809000015258789 -15.809000015258789,15.809000015258789"></path><path stroke-linecap="round" stroke-linejoin="round" fill-opacity="0" stroke="rgb(32,40,112)" stroke-opacity="1" stroke-width="2" d=" M15.809000015258789,-15.809000015258789 C15.809000015258789,-15.809000015258789 -15.809000015258789,15.809000015258789 -15.809000015258789,15.809000015258789"></path></g></g><g transform="matrix(0.9986075162887573,0.05275426059961319,-0.05275426059961319,0.9986075162887573,23.7586669921875,-46.57366943359375)" opacity="1" style="display: block;"><g opacity="1" transform="matrix(1,0,0,1,859.8510131835938,382.1789855957031)"><path fill="rgb(255,255,255)" fill-opacity="1" d=" M15.902000427246094,-10.82699966430664 C33.33700180053711,6.607999801635742 34.10599899291992,34.10599899291992 34.10599899291992,34.10599899291992 C34.10599899291992,34.10599899291992 6.607999801635742,33.33700180053711 -10.82699966430664,15.902000427246094 C-28.261999130249023,-1.5329999923706055 -34.10599899291992,-34.10599899291992 -34.10599899291992,-34.10599899291992 C-34.10599899291992,-34.10599899291992 -1.5329999923706055,-28.261999130249023 15.902000427246094,-10.82699966430664z"></path><path stroke-linecap="round" stroke-linejoin="round" fill-opacity="0" stroke="rgb(32,40,112)" stroke-opacity="1" stroke-width="2" d=" M15.902000427246094,-10.82699966430664 C33.33700180053711,6.607999801635742 34.10599899291992,34.10599899291992 34.10599899291992,34.10599899291992 C34.10599899291992,34.10599899291992 6.607999801635742,33.33700180053711 -10.82699966430664,15.902000427246094 C-28.261999130249023,-1.5329999923706055 -34.10599899291992,-34.10599899291992 -34.10599899291992,-34.10599899291992 C-34.10599899291992,-34.10599899291992 -1.5329999923706055,-28.261999130249023 15.902000427246094,-10.82699966430664z"></path></g><g opacity="1" transform="matrix(1,0,0,1,878.1480102539062,400.47601318359375)"><path fill="rgb(255,255,255)" fill-opacity="1" d=" M-15.809000015258789,-15.809000015258789 C-15.809000015258789,-15.809000015258789 15.809000015258789,15.809000015258789 15.809000015258789,15.809000015258789"></path><path stroke-linecap="round" stroke-linejoin="round" fill-opacity="0" stroke="rgb(32,40,112)" stroke-opacity="1" stroke-width="2" d=" M-15.809000015258789,-15.809000015258789 C-15.809000015258789,-15.809000015258789 15.809000015258789,15.809000015258789 15.809000015258789,15.809000015258789"></path></g></g><g transform="matrix(0.9997872114181519,0.02062832936644554,-0.02062832936644554,0.9997872114181519,895.1760864257812,384.00958251953125)" opacity="1" style="display: block;"><g opacity="1" transform="matrix(1,0,0,1,0,0)"><path fill="rgb(255,255,255)" fill-opacity="1" d=" M0,-59.0989990234375 C0,-59.0989990234375 0,59.0989990234375 0,59.0989990234375"></path><path stroke-linecap="round" stroke-linejoin="round" fill-opacity="0" stroke="rgb(32,40,112)" stroke-opacity="1" stroke-width="2" d=" M0,-59.0989990234375 C0,-59.0989990234375 0,59.0989990234375 0,59.0989990234375"></path></g></g><g transform="matrix(1,0,0,1,1281.5760498046875,1077.615966796875)" opacity="1" style="display: block;"><g opacity="1" transform="matrix(1,0,0,1,0,0)"><path fill="rgb(132,132,250)" fill-opacity="1" d=" M64.9229965209961,0 C64.9229965209961,35.85599899291992 35.85599899291992,64.9229965209961 0,64.9229965209961 C-35.85599899291992,64.9229965209961 -64.9229965209961,35.85599899291992 -64.9229965209961,0 C-64.9229965209961,-35.85599899291992 -35.85599899291992,-64.9229965209961 0,-64.9229965209961 C35.85599899291992,-64.9229965209961 64.9229965209961,-35.85599899291992 64.9229965209961,0z"></path></g></g><g transform="matrix(0.9971773028373718,0.07508315145969391,-0.07508315145969391,0.9971773028373718,1286.216064453125,1058.2589111328125)" opacity="1" style="display: block;"><g opacity="1" transform="matrix(1,0,0,1,0,0)"><path fill="rgb(255,255,255)" fill-opacity="1" d=" M10.043000221252441,1.906999945640564 C10.043000221252441,15.008999824523926 0,25.6299991607666 0,25.6299991607666 C0,25.6299991607666 -10.043000221252441,15.008999824523926 -10.043000221252441,1.906999945640564 C-10.043000221252441,-11.194999694824219 0,-25.6299991607666 0,-25.6299991607666 C0,-25.6299991607666 10.043000221252441,-11.194999694824219 10.043000221252441,1.906999945640564z"></path><path stroke-linecap="round" stroke-linejoin="round" fill-opacity="0" stroke="rgb(32,40,112)" stroke-opacity="1" stroke-width="2" d=" M10.043000221252441,1.906999945640564 C10.043000221252441,15.008999824523926 0,25.6299991607666 0,25.6299991607666 C0,25.6299991607666 -10.043000221252441,15.008999824523926 -10.043000221252441,1.906999945640564 C-10.043000221252441,-11.194999694824219 0,-25.6299991607666 0,-25.6299991607666 C0,-25.6299991607666 10.043000221252441,-11.194999694824219 10.043000221252441,1.906999945640564z"></path></g></g><g transform="matrix(0.9981368780136108,0.06101369485259056,-0.06101369485259056,0.9981368780136108,71.0135498046875,-76.0938720703125)" opacity="1" style="display: block;"><g opacity="1" transform="matrix(1,0,0,1,1299.698974609375,1090.4010009765625)"><path fill="rgb(255,255,255)" fill-opacity="1" d=" M-8.449999809265137,-5.752999782562256 C-17.714000701904297,3.510999917984009 -18.12299919128418,18.12299919128418 -18.12299919128418,18.12299919128418 C-18.12299919128418,18.12299919128418 -3.510999917984009,17.714000701904297 5.752999782562256,8.449999809265137 C15.017000198364258,-0.8140000104904175 18.12299919128418,-18.12299919128418 18.12299919128418,-18.12299919128418 C18.12299919128418,-18.12299919128418 0.8140000104904175,-15.017000198364258 -8.449999809265137,-5.752999782562256z"></path><path stroke-linecap="round" stroke-linejoin="round" fill-opacity="0" stroke="rgb(32,40,112)" stroke-opacity="1" stroke-width="2" d=" M-8.449999809265137,-5.752999782562256 C-17.714000701904297,3.510999917984009 -18.12299919128418,18.12299919128418 -18.12299919128418,18.12299919128418 C-18.12299919128418,18.12299919128418 -3.510999917984009,17.714000701904297 5.752999782562256,8.449999809265137 C15.017000198364258,-0.8140000104904175 18.12299919128418,-18.12299919128418 18.12299919128418,-18.12299919128418 C18.12299919128418,-18.12299919128418 0.8140000104904175,-15.017000198364258 -8.449999809265137,-5.752999782562256z"></path></g><g opacity="1" transform="matrix(1,0,0,1,1289.97705078125,1100.123046875)"><path fill="rgb(255,255,255)" fill-opacity="1" d=" M8.399999618530273,-8.399999618530273 C8.399999618530273,-8.399999618530273 -8.399999618530273,8.399999618530273 -8.399999618530273,8.399999618530273"></path><path stroke-linecap="round" stroke-linejoin="round" fill-opacity="0" stroke="rgb(32,40,112)" stroke-opacity="1" stroke-width="2" d=" M8.399999618530273,-8.399999618530273 C8.399999618530273,-8.399999618530273 -8.399999618530273,8.399999618530273 -8.399999618530273,8.399999618530273"></path></g></g><g transform="matrix(0.9952969551086426,0.09687070548534393,-0.09687070548534393,0.9952969551086426,114.4014892578125,-118.8992919921875)" opacity="1" style="display: block;"><g opacity="1" transform="matrix(1,0,0,1,1263.4530029296875,1090.4010009765625)"><path fill="rgb(255,255,255)" fill-opacity="1" d=" M8.449999809265137,-5.752999782562256 C17.714000701904297,3.510999917984009 18.12299919128418,18.12299919128418 18.12299919128418,18.12299919128418 C18.12299919128418,18.12299919128418 3.510999917984009,17.714000701904297 -5.752999782562256,8.449999809265137 C-15.017000198364258,-0.8140000104904175 -18.12299919128418,-18.12299919128418 -18.12299919128418,-18.12299919128418 C-18.12299919128418,-18.12299919128418 -0.8140000104904175,-15.017000198364258 8.449999809265137,-5.752999782562256z"></path><path stroke-linecap="round" stroke-linejoin="round" fill-opacity="0" stroke="rgb(32,40,112)" stroke-opacity="1" stroke-width="2" d=" M8.449999809265137,-5.752999782562256 C17.714000701904297,3.510999917984009 18.12299919128418,18.12299919128418 18.12299919128418,18.12299919128418 C18.12299919128418,18.12299919128418 3.510999917984009,17.714000701904297 -5.752999782562256,8.449999809265137 C-15.017000198364258,-0.8140000104904175 -18.12299919128418,-18.12299919128418 -18.12299919128418,-18.12299919128418 C-18.12299919128418,-18.12299919128418 -0.8140000104904175,-15.017000198364258 8.449999809265137,-5.752999782562256z"></path></g><g opacity="1" transform="matrix(1,0,0,1,1273.176025390625,1100.123046875)"><path fill="rgb(255,255,255)" fill-opacity="1" d=" M-8.399999618530273,-8.399999618530273 C-8.399999618530273,-8.399999618530273 8.399999618530273,8.399999618530273 8.399999618530273,8.399999618530273"></path><path stroke-linecap="round" stroke-linejoin="round" fill-opacity="0" stroke="rgb(32,40,112)" stroke-opacity="1" stroke-width="2" d=" M-8.399999618530273,-8.399999618530273 C-8.399999618530273,-8.399999618530273 8.399999618530273,8.399999618530273 8.399999618530273,8.399999618530273"></path></g></g><g transform="matrix(0.9975786209106445,0.06954754143953323,-0.06954754143953323,0.9975786209106445,1283.760009765625,1091.4420166015625)" opacity="1" style="display: block;"><g opacity="1" transform="matrix(1,0,0,1,0,0)"><path fill="rgb(255,255,255)" fill-opacity="1" d=" M0,-31.402999877929688 C0,-31.402999877929688 0,31.402999877929688 0,31.402999877929688"></path><path stroke-linecap="round" stroke-linejoin="round" fill-opacity="0" stroke="rgb(32,40,112)" stroke-opacity="1" stroke-width="2" d=" M0,-31.402999877929688 C0,-31.402999877929688 0,31.402999877929688 0,31.402999877929688"></path></g></g><g transform="matrix(1,0,0,1,341.97100830078125,1150.3909912109375)" opacity="1" style="display: block;"><g opacity="1" transform="matrix(1,0,0,1,0,0)"><path fill="rgb(132,132,250)" fill-opacity="1" d=" M70.65799713134766,0 C70.65799713134766,39.02299880981445 39.02299880981445,70.65799713134766 0,70.65799713134766 C-39.02299880981445,70.65799713134766 -70.65799713134766,39.02299880981445 -70.65799713134766,0 C-70.65799713134766,-39.02299880981445 -39.02299880981445,-70.65799713134766 0,-70.65799713134766 C39.02299880981445,-70.65799713134766 70.65799713134766,-39.02299880981445 70.65799713134766,0z"></path></g></g><g transform="matrix(0.9991525411605835,-0.04116068780422211,0.04116068780422211,0.9991525411605835,339.0700378417969,1129.2027587890625)" opacity="1" style="display: block;"><g opacity="1" transform="matrix(1,0,0,1,0,0)"><path fill="rgb(255,255,255)" fill-opacity="1" d=" M10.930000305175781,2.075000047683716 C10.930000305175781,16.333999633789062 0,27.89299964904785 0,27.89299964904785 C0,27.89299964904785 -10.930000305175781,16.333999633789062 -10.930000305175781,2.075000047683716 C-10.930000305175781,-12.184000015258789 0,-27.89299964904785 0,-27.89299964904785 C0,-27.89299964904785 10.930000305175781,-12.184000015258789 10.930000305175781,2.075000047683716z"></path><path stroke-linecap="round" stroke-linejoin="round" fill-opacity="0" stroke="rgb(32,40,112)" stroke-opacity="1" stroke-width="2" d=" M10.930000305175781,2.075000047683716 C10.930000305175781,16.333999633789062 0,27.89299964904785 0,27.89299964904785 C0,27.89299964904785 -10.930000305175781,16.333999633789062 -10.930000305175781,2.075000047683716 C-10.930000305175781,-12.184000015258789 0,-27.89299964904785 0,-27.89299964904785 C0,-27.89299964904785 10.930000305175781,-12.184000015258789 10.930000305175781,2.075000047683716z"></path></g></g><g transform="matrix(0.9981656074523926,-0.06054333224892616,0.06054333224892616,0.9981656074523926,-71.65939331054688,23.6505126953125)" opacity="1" style="display: block;"><g opacity="1" transform="matrix(1,0,0,1,361.69500732421875,1164.303955078125)"><path fill="rgb(255,255,255)" fill-opacity="1" d=" M-9.196000099182129,-6.261000156402588 C-19.27899932861328,3.822000026702881 -19.724000930786133,19.724000930786133 -19.724000930786133,19.724000930786133 C-19.724000930786133,19.724000930786133 -3.822000026702881,19.27899932861328 6.261000156402588,9.196000099182129 C16.3439998626709,-0.8870000243186951 19.724000930786133,-19.724000930786133 19.724000930786133,-19.724000930786133 C19.724000930786133,-19.724000930786133 0.8870000243186951,-16.3439998626709 -9.196000099182129,-6.261000156402588z"></path><path stroke-linecap="round" stroke-linejoin="round" fill-opacity="0" stroke="rgb(32,40,112)" stroke-opacity="1" stroke-width="2" d=" M-9.196000099182129,-6.261000156402588 C-19.27899932861328,3.822000026702881 -19.724000930786133,19.724000930786133 -19.724000930786133,19.724000930786133 C-19.724000930786133,19.724000930786133 -3.822000026702881,19.27899932861328 6.261000156402588,9.196000099182129 C16.3439998626709,-0.8870000243186951 19.724000930786133,-19.724000930786133 19.724000930786133,-19.724000930786133 C19.724000930786133,-19.724000930786133 0.8870000243186951,-16.3439998626709 -9.196000099182129,-6.261000156402588z"></path></g><g opacity="1" transform="matrix(1,0,0,1,351.114013671875,1174.885986328125)"><path fill="rgb(255,255,255)" fill-opacity="1" d=" M9.142000198364258,-9.142000198364258 C9.142000198364258,-9.142000198364258 -9.142000198364258,9.142000198364258 -9.142000198364258,9.142000198364258"></path><path stroke-linecap="round" stroke-linejoin="round" fill-opacity="0" stroke="rgb(32,40,112)" stroke-opacity="1" stroke-width="2" d=" M9.142000198364258,-9.142000198364258 C9.142000198364258,-9.142000198364258 -9.142000198364258,9.142000198364258 -9.142000198364258,9.142000198364258"></path></g></g><g transform="matrix(0.9976173639297485,-0.06899037957191467,0.06899037957191467,0.9976173639297485,-81.5716552734375,25.332763671875)" opacity="1" style="display: block;"><g opacity="1" transform="matrix(1,0,0,1,322.24798583984375,1164.303955078125)"><path fill="rgb(255,255,255)" fill-opacity="1" d=" M9.196000099182129,-6.261000156402588 C19.27899932861328,3.822000026702881 19.724000930786133,19.724000930786133 19.724000930786133,19.724000930786133 C19.724000930786133,19.724000930786133 3.822000026702881,19.27899932861328 -6.261000156402588,9.196000099182129 C-16.3439998626709,-0.8870000243186951 -19.724000930786133,-19.724000930786133 -19.724000930786133,-19.724000930786133 C-19.724000930786133,-19.724000930786133 -0.8870000243186951,-16.3439998626709 9.196000099182129,-6.261000156402588z"></path><path stroke-linecap="round" stroke-linejoin="round" fill-opacity="0" stroke="rgb(32,40,112)" stroke-opacity="1" stroke-width="2" d=" M9.196000099182129,-6.261000156402588 C19.27899932861328,3.822000026702881 19.724000930786133,19.724000930786133 19.724000930786133,19.724000930786133 C19.724000930786133,19.724000930786133 3.822000026702881,19.27899932861328 -6.261000156402588,9.196000099182129 C-16.3439998626709,-0.8870000243186951 -19.724000930786133,-19.724000930786133 -19.724000930786133,-19.724000930786133 C-19.724000930786133,-19.724000930786133 -0.8870000243186951,-16.3439998626709 9.196000099182129,-6.261000156402588z"></path></g><g opacity="1" transform="matrix(1,0,0,1,332.8290100097656,1174.885986328125)"><path fill="rgb(255,255,255)" fill-opacity="1" d=" M-9.142000198364258,-9.142000198364258 C-9.142000198364258,-9.142000198364258 9.142000198364258,9.142000198364258 9.142000198364258,9.142000198364258"></path><path stroke-linecap="round" stroke-linejoin="round" fill-opacity="0" stroke="rgb(32,40,112)" stroke-opacity="1" stroke-width="2" d=" M-9.142000198364258,-9.142000198364258 C-9.142000198364258,-9.142000198364258 9.142000198364258,9.142000198364258 9.142000198364258,9.142000198364258"></path></g></g><g transform="matrix(0.999148964881897,-0.04124787822365761,0.04124787822365761,0.999148964881897,340.561279296875,1165.384033203125)" opacity="1" style="display: block;"><g opacity="1" transform="matrix(1,0,0,1,0,0)"><path fill="rgb(255,255,255)" fill-opacity="1" d=" M0,-34.176998138427734 C0,-34.176998138427734 0,34.176998138427734 0,34.176998138427734"></path><path stroke-linecap="round" stroke-linejoin="round" fill-opacity="0" stroke="rgb(32,40,112)" stroke-opacity="1" stroke-width="2" d=" M0,-34.176998138427734 C0,-34.176998138427734 0,34.176998138427734 0,34.176998138427734"></path></g></g></g><g clip-path="url(#__lottie_element_62)" transform="matrix(1,0,0,1,0,0)" opacity="1" style="display: block;"><g transform="matrix(1,0,0,1,1231.864013671875,662.9459838867188)" opacity="1" style="display: block;"><g opacity="1" transform="matrix(1,0,0,1,0,0)"><path fill="rgb(132,132,250)" fill-opacity="1" d=" M43.77299880981445,-70.19499969482422 C95.47899627685547,-23.44099998474121 108.18499755859375,79.87200164794922 108.18499755859375,79.87200164794922 C108.18499755859375,79.87200164794922 72.18900299072266,134.13699340820312 -1.2580000162124634,75.7979965209961 C-55.84299850463867,32.441001892089844 -108.18499755859375,-99.72799682617188 -108.18499755859375,-99.72799682617188 C-108.18499755859375,-99.72799682617188 -7.933000087738037,-116.9489974975586 43.77299880981445,-70.19499969482422z"></path><path stroke-linecap="round" stroke-linejoin="round" fill-opacity="0" stroke="rgb(32,40,112)" stroke-opacity="1" stroke-width="2" d=" M43.77299880981445,-70.19499969482422 C95.47899627685547,-23.44099998474121 108.18499755859375,79.87200164794922 108.18499755859375,79.87200164794922 C108.18499755859375,79.87200164794922 72.18900299072266,134.13699340820312 -1.2580000162124634,75.7979965209961 C-55.84299850463867,32.441001892089844 -108.18499755859375,-99.72799682617188 -108.18499755859375,-99.72799682617188 C-108.18499755859375,-99.72799682617188 -7.933000087738037,-116.9489974975586 43.77299880981445,-70.19499969482422z"></path></g></g><g transform="matrix(1,0,0,1,1215.8719482421875,681.6290283203125)" opacity="1" style="display: block;"><g opacity="1" transform="matrix(1,0,0,1,0,0)"><path fill="rgb(255,255,255)" fill-opacity="1" d=" M143.53500366210938,-82.69599914550781 C82.61900329589844,18.839000701904297 71.30000305175781,102.0250015258789 71.30000305175781,102.0250015258789 C71.30000305175781,102.0250015258789 -87.9530029296875,134.03500366210938 -87.9530029296875,134.03500366210938 C-87.9530029296875,134.03500366210938 -143.53500366210938,80.87899780273438 -143.53500366210938,80.87899780273438 C-143.53500366210938,80.87899780273438 -24.033000946044922,-134.03500366210938 -24.033000946044922,-134.03500366210938"></path><path stroke-linecap="round" stroke-linejoin="round" fill-opacity="0" stroke="rgb(32,40,112)" stroke-opacity="1" stroke-width="2" d=" M143.53500366210938,-82.69599914550781 C82.61900329589844,18.839000701904297 71.30000305175781,102.0250015258789 71.30000305175781,102.0250015258789 C71.30000305175781,102.0250015258789 -87.9530029296875,134.03500366210938 -87.9530029296875,134.03500366210938 C-87.9530029296875,134.03500366210938 -143.53500366210938,80.87899780273438 -143.53500366210938,80.87899780273438 C-143.53500366210938,80.87899780273438 -24.033000946044922,-134.03500366210938 -24.033000946044922,-134.03500366210938"></path></g></g><g mask="url(#__lottie_element_98_1)" style="display: block;"><g transform="matrix(1,0,0,1,0,0)" opacity="1"><g opacity="1" transform="matrix(1,0,0,1,1065.5419921875,831.7490234375)"><path fill="rgb(132,132,250)" fill-opacity="1" d=" M-116.6729965209961,180.7729949951172 C-116.6729965209961,180.7729949951172 -161.0540008544922,142.40899658203125 -161.0540008544922,142.40899658203125 C-161.0540008544922,142.40899658203125 109.53099822998047,-170.6219940185547 109.53099822998047,-170.6219940185547 C120.125,-182.8780059814453 138.6479949951172,-184.22500610351562 150.9029998779297,-173.63099670410156 C150.9029998779297,-173.63099670410156 150.9040069580078,-173.63099670410156 150.9040069580078,-173.63099670410156 C163.15899658203125,-163.03700256347656 164.50599670410156,-144.51499938964844 153.91200256347656,-132.25900268554688 C153.91200256347656,-132.25900268554688 -116.6729965209961,180.7729949951172 -116.6729965209961,180.7729949951172z"></path><path stroke-linecap="round" stroke-linejoin="round" fill-opacity="0" stroke="rgb(32,40,112)" stroke-opacity="1" stroke-width="2" d=" M-116.6729965209961,180.7729949951172 C-116.6729965209961,180.7729949951172 -161.0540008544922,142.40899658203125 -161.0540008544922,142.40899658203125 C-161.0540008544922,142.40899658203125 109.53099822998047,-170.6219940185547 109.53099822998047,-170.6219940185547 C120.125,-182.8780059814453 138.6479949951172,-184.22500610351562 150.9029998779297,-173.63099670410156 C150.9029998779297,-173.63099670410156 150.9040069580078,-173.63099670410156 150.9040069580078,-173.63099670410156 C163.15899658203125,-163.03700256347656 164.50599670410156,-144.51499938964844 153.91200256347656,-132.25900268554688 C153.91200256347656,-132.25900268554688 -116.6729965209961,180.7729949951172 -116.6729965209961,180.7729949951172z"></path></g><g opacity="1" transform="matrix(1,0,0,1,0,0)"><g opacity="1" transform="matrix(1,0,0,1,854.9400024414062,1112.175048828125)"><path fill="rgb(132,132,250)" fill-opacity="1" d=" M-148.36900329589844,169.2989959716797 C-148.36900329589844,169.2989959716797 -148.36900329589844,169.2989959716797 -148.36900329589844,169.2989959716797 C-218.2220001220703,137.9810028076172 -174.03199768066406,6.714000225067139 -132.53700256347656,-48.665000915527344 C-106.95099639892578,-82.81099700927734 -18.99799919128418,-176.0959930419922 -18.99799919128418,-176.0959930419922 C-18.99799919128418,-176.0959930419922 185.00399780273438,-84.55699920654297 185.00399780273438,-84.55699920654297 C185.00399780273438,-84.55699920654297 131.49899291992188,-10.369000434875488 78.24800109863281,48.3849983215332 C-12.288999557495117,148.27699279785156 -92.03600311279297,194.57699584960938 -148.36900329589844,169.2989959716797z"></path><path stroke-linecap="round" stroke-linejoin="round" fill-opacity="0" stroke="rgb(32,40,112)" stroke-opacity="1" stroke-width="2" d=" M-148.36900329589844,169.2989959716797 C-148.36900329589844,169.2989959716797 -148.36900329589844,169.2989959716797 -148.36900329589844,169.2989959716797 C-218.2220001220703,137.9810028076172 -174.03199768066406,6.714000225067139 -132.53700256347656,-48.665000915527344 C-106.95099639892578,-82.81099700927734 -18.99799919128418,-176.0959930419922 -18.99799919128418,-176.0959930419922 C-18.99799919128418,-176.0959930419922 185.00399780273438,-84.55699920654297 185.00399780273438,-84.55699920654297 C185.00399780273438,-84.55699920654297 131.49899291992188,-10.369000434875488 78.24800109863281,48.3849983215332 C-12.288999557495117,148.27699279785156 -92.03600311279297,194.57699584960938 -148.36900329589844,169.2989959716797z"></path></g><g opacity="1" transform="matrix(1,0,0,1,871.85400390625,1025.0479736328125)"><path fill="rgb(32,40,112)" fill-opacity="1" d=" M-1.8020000457763672,54.900001525878906 C-1.8020000457763672,54.900001525878906 -34.132999420166016,80.26100158691406 -38.249000549316406,58.882999420166016 C-42.3650016784668,37.505001068115234 12.041000366210938,-67.45099639892578 12.041000366210938,-67.45099639892578 C12.041000366210938,-67.45099639892578 38.47100067138672,-54.209999084472656 38.47100067138672,-54.209999084472656"></path><path stroke-linecap="round" stroke-linejoin="round" fill-opacity="0" stroke="rgb(32,40,112)" stroke-opacity="1" stroke-width="2" d=" M-1.8020000457763672,54.900001525878906 C-1.8020000457763672,54.900001525878906 -34.132999420166016,80.26100158691406 -38.249000549316406,58.882999420166016 C-42.3650016784668,37.505001068115234 12.041000366210938,-67.45099639892578 12.041000366210938,-67.45099639892578 C12.041000366210938,-67.45099639892578 38.47100067138672,-54.209999084472656 38.47100067138672,-54.209999084472656"></path></g><g opacity="1" transform="matrix(1,0,0,1,900.0150146484375,1030.8399658203125)"><path fill="rgb(132,132,250)" fill-opacity="1" d=" M-17.746999740600586,38.91400146484375 C-38.10599899291992,56.58599853515625 -53.61600112915039,67.87200164794922 -63.667999267578125,59.63999938964844 C-76.302001953125,49.29399871826172 -42.08000183105469,1.149999976158142 -29.493999481201172,-15.218000411987305 C-18.711999893188477,-29.239999771118164 8.340999603271484,-62.38199996948242 8.340999603271484,-62.38199996948242 C8.340999603271484,-62.38199996948242 66.4219970703125,-36.31999969482422 66.4219970703125,-36.31999969482422 C66.4219970703125,-36.31999969482422 56.88100051879883,-26.738000869750977 42.91400146484375,-13.581999778747559"></path><path stroke-linecap="round" stroke-linejoin="round" fill-opacity="0" stroke="rgb(32,40,112)" stroke-opacity="1" stroke-width="2" d=" M-17.746999740600586,38.91400146484375 C-38.10599899291992,56.58599853515625 -53.61600112915039,67.87200164794922 -63.667999267578125,59.63999938964844 C-76.302001953125,49.29399871826172 -42.08000183105469,1.149999976158142 -29.493999481201172,-15.218000411987305 C-18.711999893188477,-29.239999771118164 8.340999603271484,-62.38199996948242 8.340999603271484,-62.38199996948242 C8.340999603271484,-62.38199996948242 66.4219970703125,-36.31999969482422 66.4219970703125,-36.31999969482422 C66.4219970703125,-36.31999969482422 56.88100051879883,-26.738000869750977 42.91400146484375,-13.581999778747559"></path></g></g></g></g><g transform="matrix(1,0,0,1,-0.0001220703125,-0.0009765625)" opacity="1" style="display: block;"><g opacity="1" transform="matrix(1,0,0,1,1072.9219970703125,764.302001953125)"><path fill="rgb(255,255,255)" fill-opacity="1" d=" M-22.195999145507812,23.700000762939453 C-35.28499984741211,11.440999984741211 -35.95899963378906,-9.107000350952148 -23.700000762939453,-22.195999145507812 C-11.440999984741211,-35.28499984741211 9.107000350952148,-35.95899963378906 22.195999145507812,-23.700000762939453 C35.28499984741211,-11.440999984741211 35.95899963378906,9.107000350952148 23.700000762939453,22.195999145507812 C11.440999984741211,35.28499984741211 -9.107000350952148,35.95899963378906 -22.195999145507812,23.700000762939453z"></path><path stroke-linecap="round" stroke-linejoin="round" fill-opacity="0" stroke="rgb(32,40,112)" stroke-opacity="1" stroke-width="2" d=" M-22.195999145507812,23.700000762939453 C-35.28499984741211,11.440999984741211 -35.95899963378906,-9.107000350952148 -23.700000762939453,-22.195999145507812 C-11.440999984741211,-35.28499984741211 9.107000350952148,-35.95899963378906 22.195999145507812,-23.700000762939453 C35.28499984741211,-11.440999984741211 35.95899963378906,9.107000350952148 23.700000762939453,22.195999145507812 C11.440999984741211,35.28499984741211 -9.107000350952148,35.95899963378906 -22.195999145507812,23.700000762939453z"></path></g><g opacity="1" transform="matrix(1,0,0,1,1073.532958984375,795.6259765625)"><path fill="rgb(255,255,255)" fill-opacity="1" d=" M32.52000045776367,-29.881999969482422 C26.10700035095215,-2.568000078201294 22.775999069213867,18.993000030517578 16.645999908447266,24.969999313354492 C1.902999997138977,39.34400177001953 -22.534000396728516,20.299999237060547 -29.41200065612793,-7.918000221252441 C-30.513999938964844,-12.4399995803833 -31.552000045776367,-17.577999114990234 -32.52000045776367,-23.017000198364258"></path><path stroke-linecap="round" stroke-linejoin="round" fill-opacity="0" stroke="rgb(32,40,112)" stroke-opacity="1" stroke-width="2" d=" M32.52000045776367,-29.881999969482422 C26.10700035095215,-2.568000078201294 22.775999069213867,18.993000030517578 16.645999908447266,24.969999313354492 C1.902999997138977,39.34400177001953 -22.534000396728516,20.299999237060547 -29.41200065612793,-7.918000221252441 C-30.513999938964844,-12.4399995803833 -31.552000045776367,-17.577999114990234 -32.52000045776367,-23.017000198364258"></path></g></g><g transform="matrix(1,0,0,1,-0.0001220703125,-0.0009765625)" opacity="1" style="display: block;"><g opacity="1" transform="matrix(1,0,0,1,1079.509033203125,690.4429931640625)"><path fill="rgb(255,255,255)" fill-opacity="1" d=" M-29.51099967956543,31.510000228881836 C-46.91400146484375,15.211000442504883 -47.808998107910156,-12.107999801635742 -31.510000228881836,-29.51099967956543 C-15.211000442504883,-46.91400146484375 12.107999801635742,-47.808998107910156 29.51099967956543,-31.510000228881836 C46.91400146484375,-15.211000442504883 47.808998107910156,12.107999801635742 31.510000228881836,29.51099967956543 C15.211000442504883,46.91400146484375 -12.107999801635742,47.808998107910156 -29.51099967956543,31.510000228881836z"></path><path stroke-linecap="round" stroke-linejoin="round" fill-opacity="0" stroke="rgb(32,40,112)" stroke-opacity="1" stroke-width="2" d=" M-29.51099967956543,31.510000228881836 C-46.91400146484375,15.211000442504883 -47.808998107910156,-12.107999801635742 -31.510000228881836,-29.51099967956543 C-15.211000442504883,-46.91400146484375 12.107999801635742,-47.808998107910156 29.51099967956543,-31.510000228881836 C46.91400146484375,-15.211000442504883 47.808998107910156,12.107999801635742 31.510000228881836,29.51099967956543 C15.211000442504883,46.91400146484375 -12.107999801635742,47.808998107910156 -29.51099967956543,31.510000228881836z"></path></g><g opacity="1" transform="matrix(1,0,0,1,1078.467041015625,730.344970703125)"><path fill="rgb(255,255,255)" fill-opacity="1" d=" M42.04199981689453,-26.367000579833984 C35.56999969482422,-8.28600025177002 29.381999969482422,27.285999298095703 25.898000717163086,42.750999450683594 C25.898000717163086,42.750999450683594 -37.45399856567383,42.263999938964844 -37.45399856567383,42.263999938964844 C-42.402000427246094,10.449000358581543 -42.0359992980957,-42.750999450683594 -42.0359992980957,-42.750999450683594"></path></g><g opacity="1" transform="matrix(1,0,0,1,0,0)"><g opacity="1" transform="matrix(1,0,0,1,1038.7120361328125,730.1019897460938)"><path stroke-linecap="round" stroke-linejoin="round" fill-opacity="0" stroke="rgb(32,40,112)" stroke-opacity="1" stroke-width="2" d=" M2.3010001182556152,42.507999420166016 C-2.864000082015991,12.789999961853027 -2.2809998989105225,-42.507999420166016 -2.2809998989105225,-42.507999420166016"></path></g><g opacity="1" transform="matrix(1,0,0,1,1112.43701171875,738.5380249023438)"><path stroke-linecap="round" stroke-linejoin="round" fill-opacity="0" stroke="rgb(32,40,112)" stroke-opacity="1" stroke-width="2" d=" M8.071999549865723,-34.558998107910156 C1.600000023841858,-16.47800064086914 -4.5879998207092285,19.0939998626709 -8.071999549865723,34.558998107910156"></path></g></g></g><g transform="matrix(1,0,0,1,-0.0001220703125,-0.0009765625)" opacity="1" style="display: block;"><g opacity="1" transform="matrix(1,0,0,1,1167.7540283203125,603.2360229492188)"><path fill="rgb(255,255,255)" fill-opacity="1" d=" M-41.28200149536133,41.18899917602539 C-64.02999877929688,18.388999938964844 -63.98899841308594,-18.534000396728516 -41.18899917602539,-41.28200149536133 C-18.388999938964844,-64.02999877929688 18.534000396728516,-63.98899841308594 41.28200149536133,-41.18899917602539 C64.02999877929688,-18.388999938964844 63.98899841308594,18.534000396728516 41.18899917602539,41.28200149536133 C18.388999938964844,64.02999877929688 -18.534000396728516,63.98899841308594 -41.28200149536133,41.18899917602539z"></path></g><g opacity="1" transform="matrix(1,0,0,1,0,0)"><g opacity="1" transform="matrix(1,0,0,1,1122.123046875,639.2780151367188)"><path fill="rgb(255,255,255)" fill-opacity="1" d=" M-11.359999656677246,79.62799835205078 C-11.359999656677246,79.62799835205078 26.41699981689453,60.22999954223633 49.2140007019043,42.22999954223633 C61.08300018310547,32.858001708984375 80.84400177001953,12.258999824523926 80.84400177001953,12.258999824523926 C80.84400177001953,12.258999824523926 6.888999938964844,-79.62799835205078 6.888999938964844,-79.62799835205078 C6.888999938964844,-79.62799835205078 -16.35300064086914,-60.612998962402344 -39.167999267578125,-31.71500015258789 C-62.96099853515625,-1.5779999494552612 -80.84400177001953,31.107999801635742 -80.84400177001953,31.107999801635742 C-80.84400177001953,31.107999801635742 -11.359999656677246,79.62799835205078 -11.359999656677246,79.62799835205078z"></path></g><g opacity="1" transform="matrix(1,0,0,1,1085.14501953125,615.0189819335938)"><path stroke-linecap="round" stroke-linejoin="round" fill-opacity="0" stroke="rgb(32,40,112)" stroke-opacity="1" stroke-width="2" d=" M-43.867000579833984,55.36800003051758 C-43.867000579833984,55.36800003051758 -17.694000244140625,7.808000087738037 11.390000343322754,-23.31999969482422 C33.051998138427734,-46.505001068115234 43.867000579833984,-55.36800003051758 43.867000579833984,-55.36800003051758"></path></g><g opacity="1" transform="matrix(1,0,0,1,1158.9830322265625,683.0889892578125)"><path stroke-linecap="round" stroke-linejoin="round" fill-opacity="0" stroke="rgb(32,40,112)" stroke-opacity="1" stroke-width="2" d=" M-48.220001220703125,35.81800079345703 C-48.220001220703125,35.81800079345703 -10.442999839782715,16.420000076293945 12.354000091552734,-1.5800000429153442 C24.222999572753906,-10.95199966430664 48.220001220703125,-35.81800079345703 48.220001220703125,-35.81800079345703"></path></g></g></g><g transform="matrix(1,0,0,1,-0.0001220703125,0)" opacity="1" style="display: block;"><g opacity="1" transform="matrix(1,0,0,1,1256.0400390625,775.1060180664062)"><path fill="rgb(255,255,255)" fill-opacity="1" d=" M-22.777999877929688,-22.884000778198242 C-35.41699981689453,-10.303999900817871 -35.4640007019043,10.138999938964844 -22.884000778198242,22.777999877929688 C-10.303999900817871,35.41699981689453 10.138999938964844,35.4640007019043 22.777999877929688,22.884000778198242 C35.41699981689453,10.303999900817871 35.4640007019043,-10.138999938964844 22.884000778198242,-22.777999877929688 C10.303999900817871,-35.41699981689453 -10.138999938964844,-35.4640007019043 -22.777999877929688,-22.884000778198242z"></path><path stroke-linecap="round" stroke-linejoin="round" fill-opacity="0" stroke="rgb(32,40,112)" stroke-opacity="1" stroke-width="2" d=" M-22.777999877929688,-22.884000778198242 C-35.41699981689453,-10.303999900817871 -35.4640007019043,10.138999938964844 -22.884000778198242,22.777999877929688 C-10.303999900817871,35.41699981689453 10.138999938964844,35.4640007019043 22.777999877929688,22.884000778198242 C35.41699981689453,10.303999900817871 35.4640007019043,-10.138999938964844 22.884000778198242,-22.777999877929688 C10.303999900817871,-35.41699981689453 -10.138999938964844,-35.4640007019043 -22.777999877929688,-22.884000778198242z"></path></g><g opacity="1" transform="matrix(1,0,0,1,1256.0570068359375,738.7449951171875)"><path fill="rgb(255,255,255)" fill-opacity="1" d=" M32.279998779296875,37.17300033569336 C32.279998779296875,37.17300033569336 30.867000579833984,7.127999782562256 19.923999786376953,-21.263999938964844 C10.833000183105469,-44.85100173950195 -10.522000312805176,-48.077999114990234 -21.601999282836914,-13.579000473022461 C-29.97100067138672,12.479000091552734 -32.279998779296875,39.236000061035156 -32.279998779296875,39.236000061035156"></path><path stroke-linecap="round" stroke-linejoin="round" fill-opacity="0" stroke="rgb(32,40,112)" stroke-opacity="1" stroke-width="2" d=" M32.279998779296875,37.17300033569336 C32.279998779296875,37.17300033569336 30.867000579833984,7.127999782562256 19.923999786376953,-21.263999938964844 C10.833000183105469,-44.85100173950195 -10.522000312805176,-48.077999114990234 -21.601999282836914,-13.579000473022461 C-29.97100067138672,12.479000091552734 -32.279998779296875,39.236000061035156 -32.279998779296875,39.236000061035156"></path></g></g><g transform="matrix(1,0,0,1,0,0)" opacity="1" style="display: block;"><g opacity="1" transform="matrix(1,0,0,1,1217.6519775390625,802.1060180664062)"><path fill="rgb(255,255,255)" fill-opacity="1" d=" M-22.47599983215332,-23.180999755859375 C-35.27799987792969,-10.767999649047852 -35.59400177001953,9.673999786376953 -23.180999755859375,22.47599983215332 C-10.767999649047852,35.27799987792969 9.673999786376953,35.59400177001953 22.47599983215332,23.180999755859375 C35.27799987792969,10.767999649047852 35.59400177001953,-9.673999786376953 23.180999755859375,-22.47599983215332 C10.767999649047852,-35.27799987792969 -9.673999786376953,-35.59400177001953 -22.47599983215332,-23.180999755859375z"></path><path stroke-linecap="round" stroke-linejoin="round" fill-opacity="0" stroke="rgb(32,40,112)" stroke-opacity="1" stroke-width="2" d=" M-22.47599983215332,-23.180999755859375 C-35.27799987792969,-10.767999649047852 -35.59400177001953,9.673999786376953 -23.180999755859375,22.47599983215332 C-10.767999649047852,35.27799987792969 9.673999786376953,35.59400177001953 22.47599983215332,23.180999755859375 C35.27799987792969,10.767999649047852 35.59400177001953,-9.673999786376953 23.180999755859375,-22.47599983215332 C10.767999649047852,-35.27799987792969 -9.673999786376953,-35.59400177001953 -22.47599983215332,-23.180999755859375z"></path></g><g opacity="1" transform="matrix(1,0,0,1,1218.052001953125,754.2849731445312)"><path fill="rgb(255,255,255)" fill-opacity="1" d=" M31.882999420166016,49.055999755859375 C31.882999420166016,49.055999755859375 35.305999755859375,4.841000080108643 28.13599967956543,-24.729999542236328 C21.979999542236328,-50.11899948120117 -6.908999919891357,-64.23300170898438 -18.440000534057617,-29.881999969482422 C-27.149999618530273,-3.936000108718872 -32.70000076293945,50.27199935913086 -32.70000076293945,50.27199935913086"></path><path stroke-linecap="round" stroke-linejoin="round" fill-opacity="0" stroke="rgb(32,40,112)" stroke-opacity="1" stroke-width="2" d=" M31.882999420166016,49.055999755859375 C31.882999420166016,49.055999755859375 35.305999755859375,4.841000080108643 28.13599967956543,-24.729999542236328 C21.979999542236328,-50.11899948120117 -6.908999919891357,-64.23300170898438 -18.440000534057617,-29.881999969482422 C-27.149999618530273,-3.936000108718872 -32.70000076293945,50.27199935913086 -32.70000076293945,50.27199935913086"></path></g></g><g transform="matrix(1,0,0,1,-0.0009765625,-0.0009765625)" opacity="1" style="display: block;"><g opacity="1" transform="matrix(1,0,0,1,1179.9019775390625,832.3140258789062)"><path fill="rgb(255,255,255)" fill-opacity="1" d=" M-24.094999313354492,-24.312999725341797 C-37.52299880981445,-11.005000114440918 -37.62099838256836,10.666999816894531 -24.312999725341797,24.094999313354492 C-11.005000114440918,37.52299880981445 10.666999816894531,37.62099838256836 24.094999313354492,24.312999725341797 C37.52299880981445,11.005000114440918 37.62099838256836,-10.666999816894531 24.312999725341797,-24.094999313354492 C11.005000114440918,-37.52299880981445 -10.666999816894531,-37.62099838256836 -24.094999313354492,-24.312999725341797z"></path><path stroke-linecap="round" stroke-linejoin="round" fill-opacity="0" stroke="rgb(32,40,112)" stroke-opacity="1" stroke-width="2" d=" M-24.094999313354492,-24.312999725341797 C-37.52299880981445,-11.005000114440918 -37.62099838256836,10.666999816894531 -24.312999725341797,24.094999313354492 C-11.005000114440918,37.52299880981445 10.666999816894531,37.62099838256836 24.094999313354492,24.312999725341797 C37.52299880981445,11.005000114440918 37.62099838256836,-10.666999816894531 24.312999725341797,-24.094999313354492 C11.005000114440918,-37.52299880981445 -10.666999816894531,-37.62099838256836 -24.094999313354492,-24.312999725341797z"></path></g><g opacity="1" transform="matrix(1,0,0,1,1180.220947265625,780.8400268554688)"><path fill="rgb(255,255,255)" fill-opacity="1" d=" M33.917999267578125,52.40800094604492 C33.917999267578125,52.40800094604492 37.060001373291016,3.5999999046325684 29.115999221801758,-27.665000915527344 C22.295000076293945,-54.507999420166016 -8.491999626159668,-69.13400268554688 -20.31800079345703,-32.58599853515625 C-29.250999450683594,-4.980000019073486 -34.53099822998047,54.44599914550781 -34.53099822998047,54.44599914550781"></path><path stroke-linecap="round" stroke-linejoin="round" fill-opacity="0" stroke="rgb(32,40,112)" stroke-opacity="1" stroke-width="2" d=" M33.917999267578125,52.40800094604492 C33.917999267578125,52.40800094604492 37.060001373291016,3.5999999046325684 29.115999221801758,-27.665000915527344 C22.295000076293945,-54.507999420166016 -8.491999626159668,-69.13400268554688 -20.31800079345703,-32.58599853515625 C-29.250999450683594,-4.980000019073486 -34.53099822998047,54.44599914550781 -34.53099822998047,54.44599914550781"></path></g></g><g transform="matrix(1,0,0,1,-0.0001220703125,0)" opacity="1" style="display: block;"><g opacity="1" transform="matrix(1,0,0,1,1131.9830322265625,836.1630249023438)"><path fill="rgb(255,255,255)" fill-opacity="1" d=" M-22.257999420166016,-26.006000518798828 C-36.62099838256836,-13.71399974822998 -38.29800033569336,7.894999980926514 -26.006000518798828,22.257999420166016 C-13.71399974822998,36.62099838256836 7.894999980926514,38.29800033569336 22.257999420166016,26.006000518798828 C36.62099838256836,13.71399974822998 38.29800033569336,-7.894999980926514 26.006000518798828,-22.257999420166016 C13.71399974822998,-36.62099838256836 -7.894999980926514,-38.29800033569336 -22.257999420166016,-26.006000518798828z"></path><path stroke-linecap="round" stroke-linejoin="round" fill-opacity="0" stroke="rgb(32,40,112)" stroke-opacity="1" stroke-width="2" d=" M-22.257999420166016,-26.006000518798828 C-36.62099838256836,-13.71399974822998 -38.29800033569336,7.894999980926514 -26.006000518798828,22.257999420166016 C-13.71399974822998,36.62099838256836 7.894999980926514,38.29800033569336 22.257999420166016,26.006000518798828 C36.62099838256836,13.71399974822998 38.29800033569336,-7.894999980926514 26.006000518798828,-22.257999420166016 C13.71399974822998,-36.62099838256836 -7.894999980926514,-38.29800033569336 -22.257999420166016,-26.006000518798828z"></path></g><g opacity="1" transform="matrix(1,0,0,1,1132.0799560546875,797.0830078125)"><path fill="rgb(255,255,255)" fill-opacity="1" d=" M33.981998443603516,42.5099983215332 C33.981998443603516,42.5099983215332 35.159000396728516,-0.027000000700354576 28.91699981689453,-21.51799964904785 C21.632999420166016,-46.595001220703125 -4.75,-53.55500030517578 -19.211000442504883,-17.966999053955078 C-30.134000778198242,8.913999557495117 -34.06999969482422,34.902000427246094 -34.06999969482422,34.902000427246094"></path><path stroke-linecap="round" stroke-linejoin="round" fill-opacity="0" stroke="rgb(32,40,112)" stroke-opacity="1" stroke-width="2" d=" M33.981998443603516,42.5099983215332 C33.981998443603516,42.5099983215332 35.159000396728516,-0.027000000700354576 28.91699981689453,-21.51799964904785 C21.632999420166016,-46.595001220703125 -4.75,-53.55500030517578 -19.211000442504883,-17.966999053955078 C-30.134000778198242,8.913999557495117 -34.06999969482422,34.902000427246094 -34.06999969482422,34.902000427246094"></path></g></g><g transform="matrix(1,0,0,1,740.9539794921875,1364.06298828125)" opacity="1" style="display: block;"><g opacity="1" transform="matrix(1,0,0,1,0,0)"><path stroke-linecap="round" stroke-linejoin="round" fill-opacity="0" stroke="rgb(32,40,112)" stroke-opacity="1" stroke-width="2" d=" M-398.6669921875,0 C-398.6669921875,0 398.6669921875,0 398.6669921875,0"></path></g></g><g transform="matrix(1,0,0,1,0,0)" opacity="1" style="display: block;"><g opacity="1" transform="matrix(1,0,0,1,737.260009765625,1290.4429931640625)"><path fill="rgb(32,40,112)" fill-opacity="1" d=" M251.77999877929688,73.62000274658203 C251.77999877929688,73.62000274658203 -251.77999877929688,73.62000274658203 -251.77999877929688,73.62000274658203 C-239.36000061035156,7.28000020980835 -174.8000030517578,-43.27000045776367 -97.0199966430664,-43.27000045776367 C-83.18000030517578,-43.27000045776367 -69.76000213623047,-41.65999984741211 -56.970001220703125,-38.65999984741211 C-24.459999084472656,-60.599998474121094 16.020000457763672,-73.62000274658203 59.900001525878906,-73.62000274658203 C157.13999938964844,-73.62000274658203 237.67999267578125,-9.729999542236328 251.77999877929688,73.62000274658203z"></path><path stroke-linecap="round" stroke-linejoin="round" fill-opacity="0" stroke="rgb(32,40,112)" stroke-opacity="1" stroke-width="2" d=" M251.77999877929688,73.62000274658203 C251.77999877929688,73.62000274658203 -251.77999877929688,73.62000274658203 -251.77999877929688,73.62000274658203 C-239.36000061035156,7.28000020980835 -174.8000030517578,-43.27000045776367 -97.0199966430664,-43.27000045776367 C-83.18000030517578,-43.27000045776367 -69.76000213623047,-41.65999984741211 -56.970001220703125,-38.65999984741211 C-24.459999084472656,-60.599998474121094 16.020000457763672,-73.62000274658203 59.900001525878906,-73.62000274658203 C157.13999938964844,-73.62000274658203 237.67999267578125,-9.729999542236328 251.77999877929688,73.62000274658203z"></path></g><g opacity="1" transform="matrix(1,0,0,1,727.5040283203125,1283.9610595703125)"><path stroke-linecap="round" stroke-linejoin="round" fill-opacity="0" stroke="rgb(255,255,255)" stroke-opacity="1" stroke-width="2" d=" M-48.0629997253418,-32.38199996948242 C-7.21999979019165,-22.999000549316406 27.190000534057617,0.7059999704360962 48.0629997253418,32.38199996948242"></path></g></g><g transform="matrix(1,0,0,1,0,0)" opacity="1" style="display: block;"><g opacity="1" transform="matrix(1,0,0,1,1291.508056640625,588.2449951171875)"><path fill="rgb(255,255,255)" fill-opacity="1" d=" M167.82899475097656,-4.214000225067139 C167.82899475097656,-4.214000225067139 48.54100036621094,154.572998046875 48.54100036621094,154.572998046875 C48.54100036621094,154.572998046875 35.00299835205078,65.7770004272461 -29.30900001525879,16.719999313354492 C-105.9729995727539,-41.75899887084961 -167.82899475097656,-25.027000427246094 -167.82899475097656,-25.027000427246094 C-167.82899475097656,-25.027000427246094 -56.10499954223633,-154.572998046875 -56.10499954223633,-154.572998046875"></path><path stroke-linecap="round" stroke-linejoin="round" fill-opacity="0" stroke="rgb(32,40,112)" stroke-opacity="1" stroke-width="2" d=" M167.82899475097656,-4.214000225067139 C167.82899475097656,-4.214000225067139 48.54100036621094,154.572998046875 48.54100036621094,154.572998046875 C48.54100036621094,154.572998046875 35.00299835205078,65.7770004272461 -29.30900001525879,16.719999313354492 C-105.9729995727539,-41.75899887084961 -167.82899475097656,-25.027000427246094 -167.82899475097656,-25.027000427246094 C-167.82899475097656,-25.027000427246094 -56.10499954223633,-154.572998046875 -56.10499954223633,-154.572998046875"></path></g><g opacity="1" transform="matrix(1,0,0,1,1363.1650390625,486.5690002441406)"></g></g></g><g clip-path="url(#__lottie_element_4)" transform="matrix(1,0,0,1,0,0)" opacity="1" style="display: block;"><g transform="matrix(0.9993908405303955,-0.03489949554204941,0.03489949554204941,0.9993908405303955,364.91845703125,776.1010131835938)" opacity="1" style="display: block;"><g opacity="1" transform="matrix(1,0,0,1,0,0)"><path fill="rgb(132,132,250)" fill-opacity="1" d=" M77.86900329589844,-124.94000244140625 C77.86900329589844,-124.94000244140625 87.37699890136719,-114.2959976196289 87.375,-85.12699890136719 C87.37200164794922,-50.10300064086914 70.21499633789062,17.110000610351562 23.35700035095215,83.10800170898438 C-20.66699981689453,145.11500549316406 -53.130001068115234,120.39199829101562 -53.130001068115234,120.39199829101562 C-53.130001068115234,120.39199829101562 -110.55899810791016,19.356000900268555 -76.6760025024414,-48.724998474121094 C-33.98699951171875,-134.50100708007812 77.86900329589844,-124.94000244140625 77.86900329589844,-124.94000244140625z"></path><path stroke-linecap="round" stroke-linejoin="round" fill-opacity="0" stroke="rgb(32,40,112)" stroke-opacity="1" stroke-width="2" d=" M77.86900329589844,-124.94000244140625 C77.86900329589844,-124.94000244140625 87.37699890136719,-114.2959976196289 87.375,-85.12699890136719 C87.37200164794922,-50.10300064086914 70.21499633789062,17.110000610351562 23.35700035095215,83.10800170898438 C-20.66699981689453,145.11500549316406 -53.130001068115234,120.39199829101562 -53.130001068115234,120.39199829101562 C-53.130001068115234,120.39199829101562 -110.55899810791016,19.356000900268555 -76.6760025024414,-48.724998474121094 C-33.98699951171875,-134.50100708007812 77.86900329589844,-124.94000244140625 77.86900329589844,-124.94000244140625z"></path></g></g><g transform="matrix(0.9975640773773193,-0.06975647062063217,0.06975647062063217,0.9975640773773193,469.11346435546875,807.3987426757812)" opacity="1" style="display: block;"><g opacity="1" transform="matrix(1,0,0,1,0,0)"><path fill="rgb(255,255,255)" fill-opacity="1" d=" M-233.7989959716797,-4.757999897003174 C-233.7989959716797,-4.757999897003174 -173.16200256347656,23.32699966430664 -134.45399475097656,54.36199951171875 C-89.18000030517578,90.66200256347656 -13.093000411987305,153.72999572753906 36.48500061035156,164.56300354003906 C57.1879997253418,169.08700561523438 233.7989959716797,55.573001861572266 233.7989959716797,55.573001861572266 C233.7989959716797,55.573001861572266 131.60499572753906,-103.64800262451172 113.16000366210938,-105.6780014038086 C88.03600311279297,-108.44300079345703 33.167999267578125,-129.83200073242188 -19.450000762939453,-141.81100463867188 C-44.78300094604492,-147.5780029296875 -103.06300354003906,-164.69500732421875 -103.06300354003906,-164.69500732421875"></path><path stroke-linecap="round" stroke-linejoin="round" fill-opacity="0" stroke="rgb(32,40,112)" stroke-opacity="1" stroke-width="2" d=" M-233.7989959716797,-4.757999897003174 C-233.7989959716797,-4.757999897003174 -173.16200256347656,23.32699966430664 -134.45399475097656,54.36199951171875 C-89.18000030517578,90.66200256347656 -13.093000411987305,153.72999572753906 36.48500061035156,164.56300354003906 C57.1879997253418,169.08700561523438 233.7989959716797,55.573001861572266 233.7989959716797,55.573001861572266 C233.7989959716797,55.573001861572266 131.60499572753906,-103.64800262451172 113.16000366210938,-105.6780014038086 C88.03600311279297,-108.44300079345703 33.167999267578125,-129.83200073242188 -19.450000762939453,-141.81100463867188 C-44.78300094604492,-147.5780029296875 -103.06300354003906,-164.69500732421875 -103.06300354003906,-164.69500732421875"></path></g></g><g transform="matrix(0.9993908405303955,-0.03489949554204941,0.03489949554204941,0.9993908405303955,-25.6846923828125,10.9837646484375)" opacity="1" style="display: block;"><g opacity="1" transform="matrix(1,0,0,1,301.7869873046875,741.22900390625)"></g><g opacity="1" transform="matrix(1,0,0,1,290.656005859375,742.6630249023438)"><path fill="rgb(255,255,255)" fill-opacity="1" d=" M-149.9929962158203,75.375 C-149.9929962158203,75.375 20.66900062561035,155.3159942626953 20.66900062561035,155.3159942626953 C20.66900062561035,155.3159942626953 -6.245999813079834,74.86000061035156 34.17300033569336,4.796000003814697 C82.3550033569336,-78.7239990234375 149.9929962158203,-89.31999969482422 149.9929962158203,-89.31999969482422 C149.9929962158203,-89.31999969482422 8.944999694824219,-155.3159942626953 8.944999694824219,-155.3159942626953"></path><path stroke-linecap="round" stroke-linejoin="round" fill-opacity="0" stroke="rgb(32,40,112)" stroke-opacity="1" stroke-width="2" d=" M-149.9929962158203,75.375 C-149.9929962158203,75.375 20.66900062561035,155.3159942626953 20.66900062561035,155.3159942626953 C20.66900062561035,155.3159942626953 -6.245999813079834,74.86000061035156 34.17300033569336,4.796000003814697 C82.3550033569336,-78.7239990234375 149.9929962158203,-89.31999969482422 149.9929962158203,-89.31999969482422 C149.9929962158203,-89.31999969482422 8.944999694824219,-155.3159942626953 8.944999694824219,-155.3159942626953"></path></g></g><g transform="matrix(0.9848077893257141,-0.1736481785774231,0.1736481785774231,0.9848077893257141,-119.75464630126953,91.98983764648438)" opacity="1" style="display: block;"><g opacity="1" transform="matrix(1,0,0,1,656.2520141601562,720.7030029296875)"><path fill="rgb(255,255,255)" fill-opacity="1" d=" M30.115999221801758,12.140999794006348 C23.40999984741211,28.77400016784668 4.492000102996826,36.821998596191406 -12.140999794006348,30.115999221801758 C-28.77400016784668,23.40999984741211 -36.821998596191406,4.492000102996826 -30.115999221801758,-12.140999794006348 C-23.40999984741211,-28.77400016784668 -4.492000102996826,-36.821998596191406 12.140999794006348,-30.115999221801758 C28.77400016784668,-23.40999984741211 36.821998596191406,-4.492000102996826 30.115999221801758,12.140999794006348z"></path><path stroke-linecap="round" stroke-linejoin="round" fill-opacity="0" stroke="rgb(32,40,112)" stroke-opacity="1" stroke-width="2" d=" M30.115999221801758,12.140999794006348 C23.40999984741211,28.77400016784668 4.492000102996826,36.821998596191406 -12.140999794006348,30.115999221801758 C-28.77400016784668,23.40999984741211 -36.821998596191406,4.492000102996826 -30.115999221801758,-12.140999794006348 C-23.40999984741211,-28.77400016784668 -4.492000102996826,-36.821998596191406 12.140999794006348,-30.115999221801758 C28.77400016784668,-23.40999984741211 36.821998596191406,-4.492000102996826 30.115999221801758,12.140999794006348z"></path></g><g opacity="1" transform="matrix(1,0,0,1,679.1119995117188,715.2379760742188)"><path fill="rgb(255,255,255)" fill-opacity="1" d=" M-33.479000091552734,-25.952999114990234 C-5.691999912261963,-29.834999084472656 15.618000030517578,-34.51499938964844 23.405000686645508,-30.95599937438965 C42.132999420166016,-22.398000717163086 33.198001861572266,7.267000198364258 9.366999626159668,23.8700008392334 C5.547999858856201,26.5310001373291 1.1319999694824219,29.354999542236328 -3.5910000801086426,32.22100067138672"></path><path stroke-linecap="round" stroke-linejoin="round" fill-opacity="0" stroke="rgb(32,40,112)" stroke-opacity="1" stroke-width="2" d=" M-33.479000091552734,-25.952999114990234 C-5.691999912261963,-29.834999084472656 15.618000030517578,-34.51499938964844 23.405000686645508,-30.95599937438965 C42.132999420166016,-22.398000717163086 33.198001861572266,7.267000198364258 9.366999626159668,23.8700008392334 C5.547999858856201,26.5310001373291 1.1319999694824219,29.354999542236328 -3.5910000801086426,32.22100067138672"></path></g></g><g transform="matrix(0.9902681112289429,-0.13917310535907745,0.13917310535907745,0.9902681112289429,-98.4917221069336,65.43018341064453)" opacity="1" style="display: block;"><g opacity="1" transform="matrix(1,0,0,1,584.9970092773438,741.22900390625)"><path fill="rgb(255,255,255)" fill-opacity="1" d=" M40.040000915527344,16.14299964904785 C31.125,38.25699996948242 5.9710001945495605,48.95500183105469 -16.14299964904785,40.040000915527344 C-38.25699996948242,31.125 -48.95500183105469,5.9710001945495605 -40.040000915527344,-16.14299964904785 C-31.125,-38.25699996948242 -5.9710001945495605,-48.95500183105469 16.14299964904785,-40.040000915527344 C38.25699996948242,-31.125 48.95500183105469,-5.9710001945495605 40.040000915527344,16.14299964904785z"></path></g><g opacity="1" transform="matrix(1,0,0,1,629.1680297851562,735.3170166015625)"><path fill="rgb(255,255,255)" fill-opacity="1" d=" M-46.35300064086914,-37.209999084472656 C-27.155000686645508,-37.702999114990234 8.25100040435791,-44.777000427246094 23.930999755859375,-47.11199951171875 C23.930999755859375,-47.11199951171875 46.35300064086914,12.142000198364258 46.35300064086914,12.142000198364258 C18.47100067138672,28.243999481201172 -31.273000717163086,47.11199951171875 -31.273000717163086,47.11199951171875"></path></g><g opacity="1" transform="matrix(1,0,0,1,617.9569702148438,693.156005859375)"><path stroke-linecap="round" stroke-linejoin="round" fill-opacity="0" stroke="rgb(32,40,112)" stroke-opacity="1" stroke-width="2" d=" M-35.141998291015625,4.951000213623047 C-15.944000244140625,4.458000183105469 19.461999893188477,-2.615999937057495 35.141998291015625,-4.951000213623047"></path></g></g><g transform="matrix(0.9945219159126282,-0.10452846437692642,0.10452846437692642,0.9945219159126282,-75.30058288574219,42.01016616821289)" opacity="1" style="display: block;"><g opacity="1" transform="matrix(1,0,0,1,460.9330139160156,740.635986328125)"><path fill="rgb(255,255,255)" fill-opacity="1" d=" M58.316001892089844,0 C58.316001892089844,32.207000732421875 32.207000732421875,58.316001892089844 0,58.316001892089844 C-32.207000732421875,58.316001892089844 -58.316001892089844,32.207000732421875 -58.316001892089844,0 C-58.316001892089844,-32.207000732421875 -32.207000732421875,-58.316001892089844 0,-58.316001892089844 C32.207000732421875,-58.316001892089844 58.316001892089844,-32.207000732421875 58.316001892089844,0z"></path></g><g opacity="1" transform="matrix(1,0,0,1,0,0)"><g opacity="1" transform="matrix(1,0,0,1,527.7340087890625,741.426025390625)"><path fill="rgb(255,255,255)" fill-opacity="1" d=" M55.24100112915039,-42.422000885009766 C55.24100112915039,-42.422000885009766 20.85099983215332,-45.63199996948242 0.13099999725818634,-49.025001525878906 C-14.793000221252441,-51.46900177001953 -57.76900100708008,-58.40999984741211 -57.76900100708008,-58.40999984741211 C-57.76900100708008,-58.40999984741211 -70.16000366210938,57.428001403808594 -70.16000366210938,57.428001403808594 C-70.16000366210938,57.428001403808594 -40.27799987792969,60.382999420166016 -3.7160000801086426,56.040000915527344 C34.41299819946289,51.51100158691406 70.16000366210938,41.00299835205078 70.16000366210938,41.00299835205078 C70.16000366210938,41.00299835205078 55.24100112915039,-42.422000885009766 55.24100112915039,-42.422000885009766z"></path></g><g opacity="1" transform="matrix(1,0,0,1,527.7340087890625,790.9849853515625)"><path stroke-linecap="round" stroke-linejoin="round" fill-opacity="0" stroke="rgb(32,40,112)" stroke-opacity="1" stroke-width="2" d=" M70.16000366210938,-8.555999755859375 C70.16000366210938,-8.555999755859375 18.041000366210938,6.625 -24.534000396728516,8.119000434875488 C-56.24399948120117,9.232000350952148 -70.16000366210938,7.868000030517578 -70.16000366210938,7.868000030517578"></path></g><g opacity="1" transform="matrix(1,0,0,1,529.6320190429688,750.9180297851562)"><path stroke-linecap="round" stroke-linejoin="round" fill-opacity="0" stroke="rgb(32,40,112)" stroke-opacity="1" stroke-width="2" d=" M53.38199996948242,-52.428001403808594 C53.38199996948242,-52.428001403808594 38.41600036621094,-52.57699966430664 -1.625,-58.459999084472656 C-32.91999816894531,-63.05799865722656 -59.50400161743164,-68.1500015258789 -59.50400161743164,-68.1500015258789"></path></g></g></g><g transform="matrix(0.9975640773773193,-0.06975647062063217,0.06975647062063217,0.9975640773773193,-50.94843673706055,23.72943878173828)" opacity="1" style="display: block;"><g opacity="1" transform="matrix(1,0,0,1,581.301025390625,844.1209716796875)"><path fill="rgb(32,40,112)" fill-opacity="1" d=" M148.38299560546875,-19.240999221801758 C148.38299560546875,-48.361000061035156 124.7760009765625,-71.96800231933594 95.65599822998047,-71.96800231933594 C93.75299835205078,-71.96800231933594 91.8759994506836,-71.86299896240234 90.0250015258789,-71.66600036621094 C70.00700378417969,-85.56099700927734 44.09600067138672,-93.9469985961914 15.788000106811523,-93.9469985961914 C-38.415000915527344,-93.9469985961914 -83.83999633789062,-63.21699905395508 -95.89600372314453,-21.889999389648438 C-125.22200012207031,-15.336999893188477 -148.38299560546875,9.244000434875488 -148.38299560546875,32.28099822998047 C-148.38299560546875,59.15399932861328 -119.1520004272461,80.94000244140625 -83.09400177001953,80.94000244140625 C-72.14399719238281,80.94000244140625 -61.83100128173828,78.9209976196289 -52.768001556396484,75.37000274658203 C-33.6349983215332,87.03900146484375 -9.90999984741211,93.9469985961914 15.788000106811523,93.9469985961914 C69.4739990234375,93.9469985961914 114.54900360107422,63.80099868774414 127.11900329589844,23.070999145507812 C140.0229949951172,13.460000038146973 148.38299560546875,-1.9140000343322754 148.38299560546875,-19.240999221801758z"></path></g><g opacity="1" transform="matrix(1,0,0,1,514.3410034179688,828.4539794921875)"><path stroke-linecap="round" stroke-linejoin="round" fill-opacity="0" stroke="rgb(255,255,255)" stroke-opacity="1" stroke-width="2" d=" M-28.93600082397461,-6.242000102996826 C-24.054000854492188,-7.331999778747559 -19.000999450683594,-7.922999858856201 -13.855999946594238,-7.922999858856201 C3.007999897003174,-7.922999858856201 17.881000518798828,-1.5789999961853027 28.93600082397461,7.922999858856201"></path></g><g opacity="1" transform="matrix(1,0,0,1,692.6900024414062,872.4000244140625)"><path stroke-linecap="round" stroke-linejoin="round" fill-opacity="0" stroke="rgb(255,255,255)" stroke-opacity="1" stroke-width="2" d=" M15.732999801635742,-5.206999778747559 C11.348999977111816,-1.940999984741211 6.440000057220459,0.6589999794960022 1.1549999713897705,2.444999933242798 C-4.146999835968018,4.236999988555908 -9.826000213623047,5.206999778747559 -15.732999801635742,5.206999778747559"></path></g><g opacity="1" transform="matrix(1,0,0,1,655.6680297851562,779.8569946289062)"><path stroke-linecap="round" stroke-linejoin="round" fill-opacity="0" stroke="rgb(255,255,255)" stroke-opacity="1" stroke-width="2" d=" M-15.66100025177002,7.4079999923706055 C-7.4039998054504395,-0.7039999961853027 3.513000011444092,-6.11899995803833 15.66100025177002,-7.4079999923706055"></path></g></g><g transform="matrix(0.9990558624267578,-0.04344502091407776,0.04344502091407776,0.9990558624267578,577.1239624023438,614.1279296875)" opacity="1" style="display: block;"><g opacity="1" transform="matrix(1,0,0,1,0,0)"><path fill="rgb(255,255,255)" fill-opacity="1" d=" M0,-153.968994140625 C0,-153.968994140625 0,153.968994140625 0,153.968994140625"></path><path stroke-linecap="round" stroke-linejoin="round" fill-opacity="0" stroke="rgb(32,40,112)" stroke-opacity="1" stroke-width="2" d=" M0,-153.968994140625 C0,-153.968994140625 0,153.968994140625 0,153.968994140625"></path></g></g><g mask="url(#__lottie_element_46_1)" style="display: block;"><g transform="matrix(0.9990558624267578,-0.04344502091407776,0.04344502091407776,0.9990558624267578,577.1239624023438,614.1279296875)" opacity="1"><g opacity="1" transform="matrix(1,0,0,1,0,0)"><path fill="rgb(255,255,255)" fill-opacity="1" d=" M0,-153.968994140625 C0,-153.968994140625 0,153.968994140625 0,153.968994140625"></path><path stroke-linecap="round" stroke-linejoin="round" fill-opacity="0" stroke="rgb(255,255,255)" stroke-opacity="1" stroke-width="2" d=" M0,-153.968994140625 C0,-153.968994140625 0,153.968994140625 0,153.968994140625"></path></g></g></g><g transform="matrix(0.9982922673225403,-0.058417800813913345,0.058417800813913345,0.9982922673225403,-40.45459747314453,16.47303581237793)" opacity="1" style="display: block;"><g opacity="1" transform="matrix(1,0,0,1,523.541015625,608.1740112304688)"><path fill="rgb(249,74,130)" fill-opacity="1" d=" M58.393001556396484,45.16899871826172 C58.393001556396484,45.16899871826172 46.34199905395508,-34.3489990234375 -11.237000465393066,-44.13399887084961 C-58.055999755859375,-52.09000015258789 -69.30899810791016,-12.137999534606934 -48.11800003051758,6.671000003814697 C-34.03200149536133,19.173999786376953 0.6079999804496765,16.85099983215332 23.08300018310547,22.77899932861328 C46.737998962402344,29.01799964904785 58.393001556396484,45.16899871826172 58.393001556396484,45.16899871826172z"></path><path stroke-linecap="round" stroke-linejoin="round" fill-opacity="0" stroke="rgb(32,40,112)" stroke-opacity="1" stroke-width="2" d=" M58.393001556396484,45.16899871826172 C58.393001556396484,45.16899871826172 46.34199905395508,-34.3489990234375 -11.237000465393066,-44.13399887084961 C-58.055999755859375,-52.09000015258789 -69.30899810791016,-12.137999534606934 -48.11800003051758,6.671000003814697 C-34.03200149536133,19.173999786376953 0.6079999804496765,16.85099983215332 23.08300018310547,22.77899932861328 C46.737998962402344,29.01799964904785 58.393001556396484,45.16899871826172 58.393001556396484,45.16899871826172z"></path></g><g opacity="1" transform="matrix(1,0,0,1,544.5830078125,620.344970703125)"><path stroke-linecap="round" stroke-linejoin="round" fill-opacity="0" stroke="rgb(32,40,112)" stroke-opacity="1" stroke-width="2" d=" M37.349998474121094,32.99800109863281 C37.349998474121094,32.99800109863281 24.900999069213867,4.504000186920166 -3.3610000610351562,-16.094999313354492 C-20.281999588012695,-28.42799949645996 -37.349998474121094,-32.99800109863281 -37.349998474121094,-32.99800109863281"></path></g></g><g transform="matrix(0.9993700385093689,-0.03549254313111305,0.03549254313111305,0.9993700385093689,-26.466739654541016,2.4435248374938965)" opacity="1" style="display: block;"><g opacity="1" transform="matrix(1,0,0,1,628.094970703125,549.7990112304688)"><path fill="rgb(249,74,130)" fill-opacity="1" d=" M-46.31100082397461,57.902000427246094 C-46.31100082397461,57.902000427246094 -47.75199890136719,-29.406999588012695 -4.355000019073486,-51.750999450683594 C37.86800003051758,-73.48999786376953 56.46900177001953,-32.448001861572266 40.81999969482422,-8.82699966430664 C30.417999267578125,6.874000072479248 2.260999917984009,15.692999839782715 -17.937000274658203,27.19499969482422 C-39.19599914550781,39.30099868774414 -46.31100082397461,57.902000427246094 -46.31100082397461,57.902000427246094z"></path><path stroke-linecap="round" stroke-linejoin="round" fill-opacity="0" stroke="rgb(32,40,112)" stroke-opacity="1" stroke-width="2" d=" M-46.31100082397461,57.902000427246094 C-46.31100082397461,57.902000427246094 -47.75199890136719,-29.406999588012695 -4.355000019073486,-51.750999450683594 C37.86800003051758,-73.48999786376953 56.46900177001953,-32.448001861572266 40.81999969482422,-8.82699966430664 C30.417999267578125,6.874000072479248 2.260999917984009,15.692999839782715 -17.937000274658203,27.19499969482422 C-39.19599914550781,39.30099868774414 -46.31100082397461,57.902000427246094 -46.31100082397461,57.902000427246094z"></path></g><g opacity="1" transform="matrix(1,0,0,1,609.405029296875,566.2160034179688)"><path stroke-linecap="round" stroke-linejoin="round" fill-opacity="0" stroke="rgb(32,40,112)" stroke-opacity="1" stroke-width="2" d=" M-27.621999740600586,41.48500061035156 C-27.621999740600586,41.48500061035156 -22.909000396728516,10.74899959564209 -0.8859999775886536,-16.417999267578125 C12.300000190734863,-32.683998107910156 27.621999740600586,-41.48500061035156 27.621999740600586,-41.48500061035156"></path></g></g><g transform="matrix(0.9995712041854858,0.02928244136273861,-0.02928244136273861,0.9995712041854858,3.402054786682129,-35.263301849365234)" opacity="1" style="display: block;"><g opacity="1" transform="matrix(1,0,0,1,558.9119873046875,426.9939880371094)"><path fill="rgb(249,74,130)" fill-opacity="1" d=" M22.08799934387207,52.952999114990234 C22.08799934387207,52.952999114990234 20.04400062561035,14.3149995803833 -9.777000427246094,6.993000030517578 C-44.8390007019043,-1.6150000095367432 -56.60900115966797,-35.81800079345703 -25.90999984741211,-49.49599838256836 C9.027000427246094,-65.06199645996094 46.04399871826172,-24.70199966430664 43.46500015258789,4.546999931335449 C40.98500061035156,32.676998138427734 22.08799934387207,52.952999114990234 22.08799934387207,52.952999114990234z"></path><path stroke-linecap="round" stroke-linejoin="round" fill-opacity="0" stroke="rgb(32,40,112)" stroke-opacity="1" stroke-width="2" d=" M22.08799934387207,52.952999114990234 C22.08799934387207,52.952999114990234 20.04400062561035,14.3149995803833 -9.777000427246094,6.993000030517578 C-44.8390007019043,-1.6150000095367432 -56.60900115966797,-35.81800079345703 -25.90999984741211,-49.49599838256836 C9.027000427246094,-65.06199645996094 46.04399871826172,-24.70199966430664 43.46500015258789,4.546999931335449 C40.98500061035156,32.676998138427734 22.08799934387207,52.952999114990234 22.08799934387207,52.952999114990234z"></path></g><g opacity="1" transform="matrix(1,0,0,1,572.0700073242188,443.36700439453125)"><path stroke-linecap="round" stroke-linejoin="round" fill-opacity="0" stroke="rgb(32,40,112)" stroke-opacity="1" stroke-width="2" d=" M-13.581000328063965,-36.58000183105469 C-13.581000328063965,-36.58000183105469 7.176000118255615,-28.36400032043457 12.015999794006348,-8.196999549865723 C16.856000900268555,11.970000267028809 8.928999900817871,36.58000183105469 8.928999900817871,36.58000183105469"></path></g></g><g transform="matrix(0.9975640773773193,-0.06975647062063217,0.06975647062063217,0.9975640773773193,-50.94940948486328,23.729507446289062)" opacity="1" style="display: block;"><g opacity="1" transform="matrix(1,0,0,1,671.43798828125,904.3079833984375)"><path fill="rgb(255,255,255)" fill-opacity="1" d=" M32.00899887084961,-12.130000114440918 C38.70800018310547,5.547999858856201 29.808000564575195,25.309999465942383 12.130000114440918,32.00899887084961 C-5.547999858856201,38.70800018310547 -25.309999465942383,29.808000564575195 -32.00899887084961,12.130000114440918 C-38.70800018310547,-5.547999858856201 -29.808000564575195,-25.309999465942383 -12.130000114440918,-32.00899887084961 C5.547999858856201,-38.70800018310547 25.309999465942383,-29.808000564575195 32.00899887084961,-12.130000114440918z"></path><path stroke-linecap="round" stroke-linejoin="round" fill-opacity="0" stroke="rgb(32,40,112)" stroke-opacity="1" stroke-width="2" d=" M32.00899887084961,-12.130000114440918 C38.70800018310547,5.547999858856201 29.808000564575195,25.309999465942383 12.130000114440918,32.00899887084961 C-5.547999858856201,38.70800018310547 -25.309999465942383,29.808000564575195 -32.00899887084961,12.130000114440918 C-38.70800018310547,-5.547999858856201 -29.808000564575195,-25.309999465942383 -12.130000114440918,-32.00899887084961 C5.547999858856201,-38.70800018310547 25.309999465942383,-29.808000564575195 32.00899887084961,-12.130000114440918z"></path></g><g opacity="1" transform="matrix(1,0,0,1,680.3099975585938,861.3909912109375)"><path fill="rgb(255,255,255)" fill-opacity="1" d=" M-40.41400146484375,29.56800079345703 C-40.41400146484375,29.56800079345703 -16.378000259399414,-29.763999938964844 -0.5860000252723694,-45.62099838256836 C17.840999603271484,-64.1240005493164 44.32699966430664,-57.56700134277344 39.93000030517578,-19.405000686645508 C36.60900115966797,9.418999671936035 22.937000274658203,55.560001373291016 22.937000274658203,55.560001373291016"></path><path stroke-linecap="round" stroke-linejoin="round" fill-opacity="0" stroke="rgb(32,40,112)" stroke-opacity="1" stroke-width="2" d=" M-40.41400146484375,29.56800079345703 C-40.41400146484375,29.56800079345703 -16.378000259399414,-29.763999938964844 -0.5860000252723694,-45.62099838256836 C17.840999603271484,-64.1240005493164 44.32699966430664,-57.56700134277344 39.93000030517578,-19.405000686645508 C36.60900115966797,9.418999671936035 22.937000274658203,55.560001373291016 22.937000274658203,55.560001373291016"></path></g></g><g transform="matrix(0.999836266040802,0.01809808239340782,-0.01809808239340782,0.999836266040802,29.557701110839844,-32.257568359375)" opacity="1" style="display: block;"><g opacity="1" transform="matrix(1,0,0,1,613.1589965820312,932.2150268554688)"><path fill="rgb(255,255,255)" fill-opacity="1" d=" M29.302000045776367,-17.695999145507812 C39.07500076293945,-1.5130000114440918 33.87900161743164,19.52899932861328 17.695999145507812,29.302000045776367 C1.5130000114440918,39.07500076293945 -19.52899932861328,33.87900161743164 -29.302000045776367,17.695999145507812 C-39.07500076293945,1.5130000114440918 -33.87900161743164,-19.52899932861328 -17.695999145507812,-29.302000045776367 C-1.5130000114440918,-39.07500076293945 19.52899932861328,-33.87900161743164 29.302000045776367,-17.695999145507812z"></path><path stroke-linecap="round" stroke-linejoin="round" fill-opacity="0" stroke="rgb(32,40,112)" stroke-opacity="1" stroke-width="2" d=" M29.302000045776367,-17.695999145507812 C39.07500076293945,-1.5130000114440918 33.87900161743164,19.52899932861328 17.695999145507812,29.302000045776367 C1.5130000114440918,39.07500076293945 -19.52899932861328,33.87900161743164 -29.302000045776367,17.695999145507812 C-39.07500076293945,1.5130000114440918 -33.87900161743164,-19.52899932861328 -17.695999145507812,-29.302000045776367 C-1.5130000114440918,-39.07500076293945 19.52899932861328,-33.87900161743164 29.302000045776367,-17.695999145507812z"></path></g><g opacity="1" transform="matrix(1,0,0,1,615.0189819335938,886.6190185546875)"><path fill="rgb(255,255,255)" fill-opacity="1" d=" M-35.290000915527344,38.14500045776367 C-35.290000915527344,38.14500045776367 -22.329999923706055,-24.54599952697754 -9.652000427246094,-42.98699951171875 C5.142000198364258,-64.50499725341797 32.375,-62.82500076293945 34.922000885009766,-24.4950008392334 C36.84600067138672,4.455999851226807 30.590999603271484,56.83000183105469 30.590999603271484,56.83000183105469"></path><path stroke-linecap="round" stroke-linejoin="round" fill-opacity="0" stroke="rgb(32,40,112)" stroke-opacity="1" stroke-width="2" d=" M-35.290000915527344,38.14500045776367 C-35.290000915527344,38.14500045776367 -22.329999923706055,-24.54599952697754 -9.652000427246094,-42.98699951171875 C5.142000198364258,-64.50499725341797 32.375,-62.82500076293945 34.922000885009766,-24.4950008392334 C36.84600067138672,4.455999851226807 30.590999603271484,56.83000183105469 30.590999603271484,56.83000183105469"></path></g></g><g transform="matrix(0.9807614684104919,0.19521015882492065,-0.19521015882492065,0.9807614684104919,207.37057495117188,-109.8509750366211)" opacity="1" style="display: block;"><g opacity="1" transform="matrix(1,0,0,1,563.697021484375,939.1690063476562)"><path fill="rgb(255,255,255)" fill-opacity="1" d=" M24.523000717163086,-25.073999404907227 C38.37099838256836,-11.529999732971191 38.61800003051758,10.675000190734863 25.073999404907227,24.523000717163086 C11.529999732971191,38.37099838256836 -10.675000190734863,38.61800003051758 -24.523000717163086,25.073999404907227 C-38.37099838256836,11.529999732971191 -38.61800003051758,-10.675000190734863 -25.073999404907227,-24.523000717163086 C-11.529999732971191,-38.37099838256836 10.675000190734863,-38.61800003051758 24.523000717163086,-25.073999404907227z"></path><path stroke-linecap="round" stroke-linejoin="round" fill-opacity="0" stroke="rgb(32,40,112)" stroke-opacity="1" stroke-width="2" d=" M24.523000717163086,-25.073999404907227 C38.37099838256836,-11.529999732971191 38.61800003051758,10.675000190734863 25.073999404907227,24.523000717163086 C11.529999732971191,38.37099838256836 -10.675000190734863,38.61800003051758 -24.523000717163086,25.073999404907227 C-38.37099838256836,11.529999732971191 -38.61800003051758,-10.675000190734863 -25.073999404907227,-24.523000717163086 C-11.529999732971191,-38.37099838256836 10.675000190734863,-38.61800003051758 24.523000717163086,-25.073999404907227z"></path></g><g opacity="1" transform="matrix(1,0,0,1,563.0360107421875,898.2570190429688)"><path fill="rgb(255,255,255)" fill-opacity="1" d=" M-34.4119987487793,42.10100173950195 C-34.4119987487793,42.10100173950195 -40.08100128173828,-9.958000183105469 -27.93899917602539,-29.409000396728516 C-15.79699993133545,-48.86000061035156 8.708999633789062,-51.60100173950195 22.95599937438965,-17.91200065612793 C34.53499984741211,9.468999862670898 35.73400115966797,43.724998474121094 35.73400115966797,43.724998474121094"></path><path stroke-linecap="round" stroke-linejoin="round" fill-opacity="0" stroke="rgb(32,40,112)" stroke-opacity="1" stroke-width="2" d=" M-34.4119987487793,42.10100173950195 C-34.4119987487793,42.10100173950195 -40.08100128173828,-9.958000183105469 -27.93899917602539,-29.409000396728516 C-15.79699993133545,-48.86000061035156 8.708999633789062,-51.60100173950195 22.95599937438965,-17.91200065612793 C34.53499984741211,9.468999862670898 35.73400115966797,43.724998474121094 35.73400115966797,43.724998474121094"></path></g></g><g transform="matrix(0.986937403678894,0.16110432147979736,-0.16110432147979736,0.986937403678894,173.81704711914062,-83.26931762695312)" opacity="1" style="display: block;"><g opacity="1" transform="matrix(1,0,0,1,507.2179870605469,950.2540283203125)"><path fill="rgb(255,255,255)" fill-opacity="1" d=" M23.086999893188477,-23.60700035095215 C36.125,-10.855999946594238 36.358001708984375,10.048999786376953 23.60700035095215,23.086999893188477 C10.855999946594238,36.125 -10.048999786376953,36.358001708984375 -23.086999893188477,23.60700035095215 C-36.125,10.855999946594238 -36.358001708984375,-10.048999786376953 -23.60700035095215,-23.086999893188477 C-10.855999946594238,-36.125 10.048999786376953,-36.358001708984375 23.086999893188477,-23.60700035095215z"></path><path stroke-linecap="round" stroke-linejoin="round" fill-opacity="0" stroke="rgb(32,40,112)" stroke-opacity="1" stroke-width="2" d=" M23.086999893188477,-23.60700035095215 C36.125,-10.855999946594238 36.358001708984375,10.048999786376953 23.60700035095215,23.086999893188477 C10.855999946594238,36.125 -10.048999786376953,36.358001708984375 -23.086999893188477,23.60700035095215 C-36.125,10.855999946594238 -36.358001708984375,-10.048999786376953 -23.60700035095215,-23.086999893188477 C-10.855999946594238,-36.125 10.048999786376953,-36.358001708984375 23.086999893188477,-23.60700035095215z"></path></g><g opacity="1" transform="matrix(1,0,0,1,507.22198486328125,913.2570190429688)"><path fill="rgb(255,255,255)" fill-opacity="1" d=" M-33.02399826049805,38.117000579833984 C-33.02399826049805,38.117000579833984 -33.29100036621094,-10.58899974822998 -21.860000610351562,-28.902000427246094 C-10.428999900817871,-47.21500015258789 9.345000267028809,-41.07600021362305 20.986000061035156,-18.381999969482422 C33.7599983215332,6.521999835968018 33.01599884033203,39.645999908447266 33.01599884033203,39.645999908447266"></path><path stroke-linecap="round" stroke-linejoin="round" fill-opacity="0" stroke="rgb(32,40,112)" stroke-opacity="1" stroke-width="2" d=" M-33.02399826049805,38.117000579833984 C-33.02399826049805,38.117000579833984 -33.29100036621094,-10.58899974822998 -21.860000610351562,-28.902000427246094 C-10.428999900817871,-47.21500015258789 9.345000267028809,-41.07600021362305 20.986000061035156,-18.381999969482422 C33.7599983215332,6.521999835968018 33.01599884033203,39.645999908447266 33.01599884033203,39.645999908447266"></path></g></g><g transform="matrix(0.9902681112289429,-0.13917310535907745,0.13917310535907745,0.9902681112289429,638.4795532226562,734.3171997070312)" opacity="1" style="display: block;"><g opacity="1" transform="matrix(1,0,0,1,0,0)"><path stroke-linecap="round" stroke-linejoin="round" fill-opacity="0" stroke="rgb(32,40,112)" stroke-opacity="1" stroke-width="2" d=" M38.8129997253418,-17.485000610351562 C12.96500015258789,-1.937999963760376 -38.8129997253418,17.485000610351562 -38.8129997253418,17.485000610351562"></path></g></g></g></g></svg>