<svg xmlns="http://www.w3.org/2000/svg" xmlns:xlink="http://www.w3.org/1999/xlink" viewBox="0 0 1600 1600" width="1600" height="1600" preserveAspectRatio="xMidYMid meet" style="width: 100%; height: 100%; transform: translate3d(0px, 0px, 0px); content-visibility: visible;"><defs><clipPath id="__lottie_element_2"><rect width="1600" height="1600" x="0" y="0"></rect></clipPath><clipPath id="__lottie_element_4"><path d="M0,0 L1600,0 L1600,1600 L0,1600z"></path></clipPath><clipPath id="__lottie_element_14"><path d="M0,0 L1600,0 L1600,1600 L0,1600z"></path></clipPath><g id="__lottie_element_23"><g transform="matrix(1,0,0,1,0,0)" opacity="1" style="display: block;"><g opacity="1" transform="matrix(1,0,0,1,939.4039916992188,585.7310180664062)"><path fill="rgb(2,139,52)" fill-opacity="1" d=" M-60.36800003051758,40.266998291015625 C-20.062999725341797,37.49700164794922 20.479999542236328,39.597999572753906 60.36800003051758,46.56800079345703 C60.2239990234375,17.832000732421875 60.07899856567383,-10.904000282287598 59.933998107910156,-39.63999938964844 C20.243000030517578,-46.33100128173828 -20.101999282836914,-48.17499923706055 -60.209999084472656,-45.17300033569336 C-60.262001037597656,-16.69300079345703 -60.314998626708984,11.786999702453613 -60.36800003051758,40.266998291015625z"></path></g></g></g><mask id="__lottie_element_23_1" mask-type="alpha"><use xlink:href="#__lottie_element_23"></use></mask><g id="__lottie_element_35"><g transform="matrix(1,0,0,1,0,0)" opacity="1" style="display: block;"><g opacity="1" transform="matrix(1,0,0,1,584.3729858398438,771.6110229492188)"><path fill="rgb(239,228,181)" fill-opacity="1" d=" M38.10900115966797,63.04600143432617 C12.585000038146973,63.180999755859375 -12.914999961853027,65.26000213623047 -38.16899871826172,69.28299713134766 C-37.957000732421875,25.393999099731445 -37.74399948120117,-18.493999481201172 -37.53200149536133,-62.38199996948242 C-12.468999862670898,-66.61100006103516 12.83899974822998,-68.91200256347656 38.16899871826172,-69.28299713134766 C38.14899826049805,-25.17300033569336 38.12799835205078,18.93600082397461 38.10900115966797,63.04600143432617z"></path></g></g></g><mask id="__lottie_element_35_1" mask-type="alpha"><use xlink:href="#__lottie_element_35"></use></mask><clipPath id="__lottie_element_72"><path d="M0,0 L1600,0 L1600,1600 L0,1600z"></path></clipPath></defs><g clip-path="url(#__lottie_element_2)"><g clip-path="url(#__lottie_element_72)" transform="matrix(1,0,0,1,0,0)" opacity="1" style="display: block;"><g transform="matrix(1,0,0,1,0,0)" opacity="1" style="display: block;"><g opacity="1" transform="matrix(1,0,0,1,0,0)"><g opacity="1" transform="matrix(1,0,0,1,770.1119995117188,972.7239990234375)"><path fill="rgb(239,228,181)" fill-opacity="1" d=" M384.7640075683594,65.25199890136719 C384.7640075683594,65.25199890136719 -384.7640075683594,65.25199890136719 -384.7640075683594,65.25199890136719 C-384.7640075683594,65.25199890136719 -300.385986328125,-65.25199890136719 -300.385986328125,-65.25199890136719 C-300.385986328125,-65.25199890136719 300.385986328125,-65.25199890136719 300.385986328125,-65.25199890136719 C300.385986328125,-65.25199890136719 384.7640075683594,65.25199890136719 384.7640075683594,65.25199890136719z"></path></g><g opacity="1" transform="matrix(1,0,0,1,770.1119995117188,1047.35205078125)"><path fill="rgb(2,2,2)" fill-opacity="1" d=" M384.7640075683594,9.375 C384.7640075683594,9.375 -384.7640075683594,9.375 -384.7640075683594,9.375 C-384.7640075683594,9.375 -384.7640075683594,-9.375 -384.7640075683594,-9.375 C-384.7640075683594,-9.375 384.7640075683594,-9.375 384.7640075683594,-9.375 C384.7640075683594,-9.375 384.7640075683594,9.375 384.7640075683594,9.375z"></path></g></g><g opacity="1" transform="matrix(1,0,0,1,0,0)"><g opacity="1" transform="matrix(1,0,0,1,0,0)"><g opacity="1" transform="matrix(1,0,0,1,770.1119995117188,716.4819946289062)"><path fill="rgb(2,2,2)" fill-opacity="1" d=" M-300.385986328125,190.99000549316406 C-300.385986328125,190.99000549316406 300.385986328125,190.99000549316406 300.385986328125,190.99000549316406 C300.385986328125,190.99000549316406 300.385986328125,-190.99000549316406 300.385986328125,-190.99000549316406 C300.385986328125,-190.99000549316406 -300.385986328125,-190.99000549316406 -300.385986328125,-190.99000549316406 C-300.385986328125,-190.99000549316406 -300.385986328125,190.99000549316406 -300.385986328125,190.99000549316406z"></path></g><g opacity="1" transform="matrix(1,0,0,1,770.1119995117188,503.81201171875)"><path fill="rgb(239,228,181)" fill-opacity="1" d=" M275.0220031738281,-26.106000900268555 C275.0220031738281,-26.106000900268555 -275.0220031738281,-26.106000900268555 -275.0220031738281,-26.106000900268555 C-289.0299987792969,-26.106000900268555 -300.385986328125,-14.75 -300.385986328125,-0.7419999837875366 C-300.385986328125,-0.7419999837875366 -300.385986328125,26.106000900268555 -300.385986328125,26.106000900268555 C-300.385986328125,26.106000900268555 300.385986328125,26.106000900268555 300.385986328125,26.106000900268555 C300.385986328125,26.106000900268555 300.385986328125,-0.7409999966621399 300.385986328125,-0.7409999966621399 C300.385986328125,-14.74899959564209 289.0299987792969,-26.106000900268555 275.0220031738281,-26.106000900268555z"></path></g></g></g><g opacity="1" transform="matrix(1,0,0,1,0,0)"><g opacity="1" transform="matrix(1,0,0,1,770.1119995117188,944.2230224609375)"><path stroke-linecap="round" stroke-linejoin="round" fill-opacity="0" stroke="rgb(2,2,2)" stroke-opacity="1" stroke-width="1.7" d=" M-324.14801025390625,0 C-324.14801025390625,0 324.14801025390625,0 324.14801025390625,0"></path></g><g opacity="1" transform="matrix(1,0,0,1,770.1119995117188,988.4749755859375)"><path stroke-linecap="round" stroke-linejoin="round" fill-opacity="0" stroke="rgb(2,2,2)" stroke-opacity="1" stroke-width="1.7" d=" M-352.7590026855469,0 C-352.7590026855469,0 352.7590026855469,0 352.7590026855469,0"></path></g></g><g opacity="1" transform="matrix(1,0,0,1,0,0)"><g opacity="1" transform="matrix(1,0,0,1,853.64697265625,972.7239990234375)"><path stroke-linecap="round" stroke-linejoin="round" fill-opacity="0" stroke="rgb(2,2,2)" stroke-opacity="1" stroke-width="1.7" d=" M-8.437999725341797,-65.25199890136719 C-8.437999725341797,-65.25199890136719 8.437999725341797,65.25199890136719 8.437999725341797,65.25199890136719"></path></g><g opacity="1" transform="matrix(1,0,0,1,937.1810302734375,972.7239990234375)"><path stroke-linecap="round" stroke-linejoin="round" fill-opacity="0" stroke="rgb(2,2,2)" stroke-opacity="1" stroke-width="1.7" d=" M-16.875999450683594,-65.25199890136719 C-16.875999450683594,-65.25199890136719 16.875999450683594,65.25199890136719 16.875999450683594,65.25199890136719"></path></g><g opacity="1" transform="matrix(1,0,0,1,1024.9339599609375,972.7239990234375)"><path stroke-linecap="round" stroke-linejoin="round" fill-opacity="0" stroke="rgb(2,2,2)" stroke-opacity="1" stroke-width="1.7" d=" M-29.531999588012695,-65.25199890136719 C-29.531999588012695,-65.25199890136719 29.531999588012695,65.25199890136719 29.531999588012695,65.25199890136719"></path></g><g opacity="1" transform="matrix(1,0,0,1,770.1119995117188,972.7239990234375)"><path stroke-linecap="round" stroke-linejoin="round" fill-opacity="0" stroke="rgb(2,2,2)" stroke-opacity="1" stroke-width="1.7" d=" M0,-65.25199890136719 C0,-65.25199890136719 0,65.25199890136719 0,65.25199890136719"></path></g><g opacity="1" transform="matrix(1,0,0,1,686.5780029296875,972.7239990234375)"><path stroke-linecap="round" stroke-linejoin="round" fill-opacity="0" stroke="rgb(2,2,2)" stroke-opacity="1" stroke-width="1.7" d=" M8.437999725341797,-65.25199890136719 C8.437999725341797,-65.25199890136719 -8.437999725341797,65.25199890136719 -8.437999725341797,65.25199890136719"></path></g><g opacity="1" transform="matrix(1,0,0,1,603.0440063476562,972.7239990234375)"><path stroke-linecap="round" stroke-linejoin="round" fill-opacity="0" stroke="rgb(2,2,2)" stroke-opacity="1" stroke-width="1.7" d=" M16.875999450683594,-65.25199890136719 C16.875999450683594,-65.25199890136719 -16.875999450683594,65.25199890136719 -16.875999450683594,65.25199890136719"></path></g><g opacity="1" transform="matrix(1,0,0,1,515.2899780273438,972.7239990234375)"><path stroke-linecap="round" stroke-linejoin="round" fill-opacity="0" stroke="rgb(2,2,2)" stroke-opacity="1" stroke-width="1.7" d=" M29.531999588012695,-65.25199890136719 C29.531999588012695,-65.25199890136719 -29.531999588012695,65.25199890136719 -29.531999588012695,65.25199890136719"></path></g></g></g><g style="display: none;"><g><path></path></g></g><g style="display: none;"><g><path></path></g></g><g style="display: none;"><g><path></path></g></g><g style="display: none;"><g><path></path></g></g><g style="display: none;"><g><path></path></g></g><g style="display: none;"><g><path></path></g></g><g style="display: none;"><g><path></path></g></g><g style="display: none;"><g><path></path></g></g></g><g transform="matrix(1,0,0,1,0,0)" opacity="1" style="display: block;"><g opacity="1" transform="matrix(1,0,0,1,370.84600830078125,859.7869873046875)"><path fill="rgb(255,192,68)" fill-opacity="1" d=" M47.303001403808594,-183.802001953125 C47.303001403808594,-183.802001953125 0.4779999852180481,145.1719970703125 0.4779999852180481,145.1719970703125 C0.4779999852180481,145.1719970703125 -5.860000133514404,189.7010040283203 -5.860000133514404,189.7010040283203 C-5.860000133514404,189.7010040283203 -47.303001403808594,183.802001953125 -47.303001403808594,183.802001953125 C-47.303001403808594,183.802001953125 5.860000133514404,-189.7010040283203 5.860000133514404,-189.7010040283203 C5.860000133514404,-189.7010040283203 47.303001403808594,-183.802001953125 47.303001403808594,-183.802001953125z"></path></g><g opacity="1" transform="matrix(1,0,0,1,381.0010070800781,936.9710083007812)"><path stroke-linecap="round" stroke-linejoin="round" fill-opacity="0" stroke="rgb(2,2,2)" stroke-opacity="1" stroke-width="1.7" d=" M16.014999389648438,-112.51699829101562 C16.014999389648438,-112.51699829101562 -9.677000045776367,67.98799896240234 -9.677000045776367,67.98799896240234 C-9.677000045776367,67.98799896240234 -16.014999389648438,112.51699829101562 -16.014999389648438,112.51699829101562"></path></g><g opacity="1" transform="matrix(1,0,0,1,330.8169860839844,1044.6240234375)"><path stroke-linecap="round" stroke-linejoin="round" fill-opacity="0" stroke="rgb(2,2,2)" stroke-opacity="1" stroke-width="1.7" d=" M6.802000045776367,0.9679999947547913 C6.802000045776367,0.9679999947547913 -6.802000045776367,-0.9679999947547913 -6.802000045776367,-0.9679999947547913"></path></g><g opacity="1" transform="matrix(1,0,0,1,333.9440002441406,1022.6539916992188)"><path stroke-linecap="round" stroke-linejoin="round" fill-opacity="0" stroke="rgb(2,2,2)" stroke-opacity="1" stroke-width="1.7" d=" M6.802000045776367,0.9679999947547913 C6.802000045776367,0.9679999947547913 -6.802000045776367,-0.9679999947547913 -6.802000045776367,-0.9679999947547913"></path></g><g opacity="1" transform="matrix(1,0,0,1,337.0710144042969,1000.6829833984375)"><path stroke-linecap="round" stroke-linejoin="round" fill-opacity="0" stroke="rgb(2,2,2)" stroke-opacity="1" stroke-width="1.7" d=" M6.802000045776367,0.9679999947547913 C6.802000045776367,0.9679999947547913 -6.802000045776367,-0.9679999947547913 -6.802000045776367,-0.9679999947547913"></path></g><g opacity="1" transform="matrix(1,0,0,1,340.197998046875,978.7119750976562)"><path stroke-linecap="round" stroke-linejoin="round" fill-opacity="0" stroke="rgb(2,2,2)" stroke-opacity="1" stroke-width="1.7" d=" M6.802000045776367,0.9679999947547913 C6.802000045776367,0.9679999947547913 -6.802000045776367,-0.9679999947547913 -6.802000045776367,-0.9679999947547913"></path></g><g opacity="1" transform="matrix(1,0,0,1,343.32598876953125,956.7410278320312)"><path stroke-linecap="round" stroke-linejoin="round" fill-opacity="0" stroke="rgb(2,2,2)" stroke-opacity="1" stroke-width="1.7" d=" M6.802000045776367,0.9679999947547913 C6.802000045776367,0.9679999947547913 -6.802000045776367,-0.9679999947547913 -6.802000045776367,-0.9679999947547913"></path></g><g opacity="1" transform="matrix(1,0,0,1,346.4530029296875,934.77001953125)"><path stroke-linecap="round" stroke-linejoin="round" fill-opacity="0" stroke="rgb(2,2,2)" stroke-opacity="1" stroke-width="1.7" d=" M6.802000045776367,0.9679999947547913 C6.802000045776367,0.9679999947547913 -6.802000045776367,-0.9679999947547913 -6.802000045776367,-0.9679999947547913"></path></g><g opacity="1" transform="matrix(1,0,0,1,349.5799865722656,912.7999877929688)"><path stroke-linecap="round" stroke-linejoin="round" fill-opacity="0" stroke="rgb(2,2,2)" stroke-opacity="1" stroke-width="1.7" d=" M6.802000045776367,0.9679999947547913 C6.802000045776367,0.9679999947547913 -6.802000045776367,-0.9679999947547913 -6.802000045776367,-0.9679999947547913"></path></g><g opacity="1" transform="matrix(1,0,0,1,352.7070007324219,890.8289794921875)"><path stroke-linecap="round" stroke-linejoin="round" fill-opacity="0" stroke="rgb(2,2,2)" stroke-opacity="1" stroke-width="1.7" d=" M6.802000045776367,0.9679999947547913 C6.802000045776367,0.9679999947547913 -6.802000045776367,-0.9679999947547913 -6.802000045776367,-0.9679999947547913"></path></g><g opacity="1" transform="matrix(1,0,0,1,355.8349914550781,868.8579711914062)"><path stroke-linecap="round" stroke-linejoin="round" fill-opacity="0" stroke="rgb(2,2,2)" stroke-opacity="1" stroke-width="1.7" d=" M6.802000045776367,0.9679999947547913 C6.802000045776367,0.9679999947547913 -6.802000045776367,-0.9679999947547913 -6.802000045776367,-0.9679999947547913"></path></g><g opacity="1" transform="matrix(1,0,0,1,358.9620056152344,846.8870239257812)"><path stroke-linecap="round" stroke-linejoin="round" fill-opacity="0" stroke="rgb(2,2,2)" stroke-opacity="1" stroke-width="1.7" d=" M6.802000045776367,0.9679999947547913 C6.802000045776367,0.9679999947547913 -6.802000045776367,-0.9679999947547913 -6.802000045776367,-0.9679999947547913"></path></g><g opacity="1" transform="matrix(1,0,0,1,362.0889892578125,824.916015625)"><path stroke-linecap="round" stroke-linejoin="round" fill-opacity="0" stroke="rgb(2,2,2)" stroke-opacity="1" stroke-width="1.7" d=" M6.802000045776367,0.9679999947547913 C6.802000045776367,0.9679999947547913 -6.802000045776367,-0.9679999947547913 -6.802000045776367,-0.9679999947547913"></path></g><g opacity="1" transform="matrix(1,0,0,1,365.21600341796875,802.9459838867188)"><path stroke-linecap="round" stroke-linejoin="round" fill-opacity="0" stroke="rgb(2,2,2)" stroke-opacity="1" stroke-width="1.7" d=" M6.802000045776367,0.9679999947547913 C6.802000045776367,0.9679999947547913 -6.802000045776367,-0.9679999947547913 -6.802000045776367,-0.9679999947547913"></path></g><g opacity="1" transform="matrix(1,0,0,1,368.343994140625,780.9749755859375)"><path stroke-linecap="round" stroke-linejoin="round" fill-opacity="0" stroke="rgb(2,2,2)" stroke-opacity="1" stroke-width="1.7" d=" M6.802000045776367,0.9679999947547913 C6.802000045776367,0.9679999947547913 -6.802000045776367,-0.9679999947547913 -6.802000045776367,-0.9679999947547913"></path></g><g opacity="1" transform="matrix(1,0,0,1,371.47100830078125,759.0040283203125)"><path stroke-linecap="round" stroke-linejoin="round" fill-opacity="0" stroke="rgb(2,2,2)" stroke-opacity="1" stroke-width="1.7" d=" M6.802000045776367,0.9679999947547913 C6.802000045776367,0.9679999947547913 -6.802000045776367,-0.9679999947547913 -6.802000045776367,-0.9679999947547913"></path></g><g opacity="1" transform="matrix(1,0,0,1,374.5979919433594,737.0330200195312)"><path stroke-linecap="round" stroke-linejoin="round" fill-opacity="0" stroke="rgb(2,2,2)" stroke-opacity="1" stroke-width="1.7" d=" M6.802000045776367,0.9679999947547913 C6.802000045776367,0.9679999947547913 -6.802000045776367,-0.9679999947547913 -6.802000045776367,-0.9679999947547913"></path></g><g opacity="1" transform="matrix(1,0,0,1,377.72601318359375,715.06201171875)"><path stroke-linecap="round" stroke-linejoin="round" fill-opacity="0" stroke="rgb(2,2,2)" stroke-opacity="1" stroke-width="1.7" d=" M6.802000045776367,0.9679999947547913 C6.802000045776367,0.9679999947547913 -6.802000045776367,-0.9679999947547913 -6.802000045776367,-0.9679999947547913"></path></g><g opacity="1" transform="matrix(1,0,0,1,380.8529968261719,693.0919799804688)"><path stroke-linecap="round" stroke-linejoin="round" fill-opacity="0" stroke="rgb(2,2,2)" stroke-opacity="1" stroke-width="1.7" d=" M6.802000045776367,0.9679999947547913 C6.802000045776367,0.9679999947547913 -6.802000045776367,-0.9679999947547913 -6.802000045776367,-0.9679999947547913"></path></g><g opacity="1" transform="matrix(1,0,0,1,383.9800109863281,671.1209716796875)"><path stroke-linecap="round" stroke-linejoin="round" fill-opacity="0" stroke="rgb(2,2,2)" stroke-opacity="1" stroke-width="1.7" d=" M6.802000045776367,0.9679999947547913 C6.802000045776367,0.9679999947547913 -6.802000045776367,-0.9679999947547913 -6.802000045776367,-0.9679999947547913"></path></g></g><g transform="matrix(1,0,0,1,0,0)" opacity="1" style="display: block;"><g opacity="1" transform="matrix(1,0,0,1,323.75201416015625,897.1380004882812)"><path fill="rgb(2,139,52)" fill-opacity="1" d=" M1.3049999475479126,134.18899536132812 C1.3049999475479126,134.18899536132812 -17.406999588012695,132.9459991455078 -17.406999588012695,132.9459991455078 C-17.406999588012695,132.9459991455078 -1.3049999475479126,-109.3740005493164 -1.3049999475479126,-109.3740005493164 C-1.3049999475479126,-109.3740005493164 9.741000175476074,-134.18899536132812 9.741000175476074,-134.18899536132812 C9.741000175476074,-134.18899536132812 17.406999588012695,-108.13099670410156 17.406999588012695,-108.13099670410156 C17.406999588012695,-108.13099670410156 1.3049999475479126,134.18899536132812 1.3049999475479126,134.18899536132812z"></path></g><g opacity="1" transform="matrix(1,0,0,1,331.8009948730469,772.6079711914062)"><path fill="rgb(239,228,181)" fill-opacity="1" d=" M9.354000091552734,16.44300079345703 C9.354000091552734,16.44300079345703 9.357000350952148,16.39900016784668 9.357000350952148,16.39900016784668 C9.357000350952148,16.39900016784668 2.1429998874664307,-16.44300079345703 2.1429998874664307,-16.44300079345703 C2.1429998874664307,-16.44300079345703 -9.354000091552734,15.154999732971191 -9.354000091552734,15.154999732971191 C-9.354000091552734,15.154999732971191 -9.357000350952148,15.199000358581543 -9.357000350952148,15.199000358581543 C-9.357000350952148,15.199000358581543 9.354000091552734,16.44300079345703 9.354000091552734,16.44300079345703z"></path></g><g opacity="1" transform="matrix(1,0,0,1,333.1520080566406,762.2379760742188)"><path fill="rgb(2,139,52)" fill-opacity="1" d=" M3.4600000381469727,6.072000026702881 C3.4600000381469727,6.072000026702881 0.7919999957084656,-6.072000026702881 0.7919999957084656,-6.072000026702881 C0.7919999957084656,-6.072000026702881 -3.4600000381469727,5.611999988555908 -3.4600000381469727,5.611999988555908 C-3.4600000381469727,5.611999988555908 3.4600000381469727,6.072000026702881 3.4600000381469727,6.072000026702881z"></path></g></g><g transform="matrix(1,0,0,1,0,0)" opacity="1" style="display: block;"><g opacity="1" transform="matrix(1,0,0,1,301.7149963378906,890.051025390625)"><path fill="rgb(254,52,86)" fill-opacity="1" d=" M20.64900016784668,132.2790069580078 C20.64900016784668,132.2790069580078 1.9769999980926514,134.02699279785156 1.9769999980926514,134.02699279785156 C1.9769999980926514,134.02699279785156 -20.64900016784668,-107.77100372314453 -20.64900016784668,-107.77100372314453 C-20.64900016784668,-107.77100372314453 -13.687999725341797,-134.02699279785156 -13.687999725341797,-134.02699279785156 C-13.687999725341797,-134.02699279785156 -1.9769999980926514,-109.51799774169922 -1.9769999980926514,-109.51799774169922 C-1.9769999980926514,-109.51799774169922 20.64900016784668,132.2790069580078 20.64900016784668,132.2790069580078z"></path></g><g opacity="1" transform="matrix(1,0,0,1,290.40399169921875,765.7890014648438)"><path fill="rgb(239,228,181)" fill-opacity="1" d=" M9.338000297546387,14.786999702453613 C9.338000297546387,14.786999702453613 9.333999633789062,14.743000030517578 9.333999633789062,14.743000030517578 C9.333999633789062,14.743000030517578 -3.009999990463257,-16.534000396728516 -3.009999990463257,-16.534000396728516 C-3.009999990463257,-16.534000396728516 -9.338000297546387,16.489999771118164 -9.338000297546387,16.489999771118164 C-9.338000297546387,16.489999771118164 -9.333999633789062,16.534000396728516 -9.333999633789062,16.534000396728516 C-9.333999633789062,16.534000396728516 9.338000297546387,14.786999702453613 9.338000297546387,14.786999702453613z"></path></g><g opacity="1" transform="matrix(1,0,0,1,288.5060119628906,755.3610229492188)"><path fill="rgb(254,52,86)" fill-opacity="1" d=" M3.4519999027252197,5.460000038146973 C3.4519999027252197,5.460000038146973 -1.1119999885559082,-6.105999946594238 -1.1119999885559082,-6.105999946594238 C-1.1119999885559082,-6.105999946594238 -3.4519999027252197,6.105999946594238 -3.4519999027252197,6.105999946594238 C-3.4519999027252197,6.105999946594238 3.4519999027252197,5.460000038146973 3.4519999027252197,5.460000038146973z"></path></g></g><g transform="matrix(1,0,0,1,0,0)" opacity="1" style="display: block;"><g opacity="1" transform="matrix(1,0,0,1,289.29400634765625,921.864013671875)"><path fill="rgb(255,192,68)" fill-opacity="1" d=" M35.75899887084961,127.83000183105469 C35.75899887084961,127.83000183105469 17.461000442504883,131.93899536132812 17.461000442504883,131.93899536132812 C17.461000442504883,131.93899536132812 -35.75899887084961,-105.01200103759766 -35.75899887084961,-105.01200103759766 C-35.75899887084961,-105.01200103759766 -32.196998596191406,-131.93899536132812 -32.196998596191406,-131.93899536132812 C-32.196998596191406,-131.93899536132812 -17.461000442504883,-109.12100219726562 -17.461000442504883,-109.12100219726562 C-17.461000442504883,-109.12100219726562 35.75899887084961,127.83000183105469 35.75899887084961,127.83000183105469z"></path></g><g opacity="1" transform="matrix(1,0,0,1,262.68798828125,800.093017578125)"><path fill="rgb(239,228,181)" fill-opacity="1" d=" M9.152999877929688,12.692000389099121 C9.152999877929688,12.692000389099121 9.144000053405762,12.64900016784668 9.144000053405762,12.64900016784668 C9.144000053405762,12.64900016784668 -7.080999851226807,-16.802000045776367 -7.080999851226807,-16.802000045776367 C-7.080999851226807,-16.802000045776367 -9.152999877929688,16.759000778198242 -9.152999877929688,16.759000778198242 C-9.152999877929688,16.759000778198242 -9.144000053405762,16.802000045776367 -9.144000053405762,16.802000045776367 C-9.144000053405762,16.802000045776367 9.152999877929688,12.692000389099121 9.152999877929688,12.692000389099121z"></path></g><g opacity="1" transform="matrix(1,0,0,1,258.2239990234375,789.4959716796875)"><path fill="rgb(255,192,68)" fill-opacity="1" d=" M3.382999897003174,4.684999942779541 C3.382999897003174,4.684999942779541 -2.615999937057495,-6.204999923706055 -2.615999937057495,-6.204999923706055 C-2.615999937057495,-6.204999923706055 -3.382999897003174,6.204999923706055 -3.382999897003174,6.204999923706055 C-3.382999897003174,6.204999923706055 3.382999897003174,4.684999942779541 3.382999897003174,4.684999942779541z"></path></g></g><g transform="matrix(1,0,0,1,0,0)" opacity="1" style="display: block;"><g opacity="1" transform="matrix(1,0,0,1,327.8789978027344,974.447021484375)"><path fill="rgb(70,131,236)" fill-opacity="1" d=" M26.211999893188477,85.56199645996094 C26.211999893188477,85.56199645996094 -26.211999893188477,85.56199645996094 -26.211999893188477,85.56199645996094 C-50.3489990234375,85.56199645996094 -69.91500091552734,65.99600219726562 -69.91500091552734,41.85900115966797 C-69.91500091552734,41.85900115966797 -69.91500091552734,-85.56199645996094 -69.91500091552734,-85.56199645996094 C-69.91500091552734,-85.56199645996094 69.91500091552734,-85.56199645996094 69.91500091552734,-85.56199645996094 C69.91500091552734,-85.56199645996094 69.91500091552734,41.85900115966797 69.91500091552734,41.85900115966797 C69.91500091552734,65.99600219726562 50.3489990234375,85.56199645996094 26.211999893188477,85.56199645996094z"></path></g><g opacity="1" transform="matrix(1,0,0,1,327.9440002441406,925.2039794921875)"><path fill="rgb(255,255,255)" fill-opacity="1" d=" M-70.35399627685547,0 C-70.35399627685547,0 70.35399627685547,0 70.35399627685547,0"></path><path stroke-linecap="round" stroke-linejoin="round" fill-opacity="0" stroke="rgb(2,2,2)" stroke-opacity="1" stroke-width="1.7" d=" M-70.35399627685547,0 C-70.35399627685547,0 70.35399627685547,0 70.35399627685547,0"></path></g><g opacity="1" transform="matrix(1,0,0,1,327.9440002441406,890.051025390625)"><path fill="rgb(255,255,255)" fill-opacity="1" d=" M-70.35399627685547,0 C-70.35399627685547,0 70.35399627685547,0 70.35399627685547,0"></path><path stroke-linecap="round" stroke-linejoin="round" fill-opacity="0" stroke="rgb(2,2,2)" stroke-opacity="1" stroke-width="1.7" d=" M-70.35399627685547,0 C-70.35399627685547,0 70.35399627685547,0 70.35399627685547,0"></path></g></g><g transform="matrix(1,0,0,1,0,0)" opacity="1" style="display: block;"><g opacity="1" transform="matrix(1,0,0,1,294.74700927734375,1047.0350341796875)"><path fill="rgb(2,139,52)" fill-opacity="1" d=" M88.5009994506836,0.5139999985694885 C88.53500366210938,-6.24399995803833 83.14099884033203,-11.692000389099121 76.38400268554688,-11.72599983215332 C76.38400268554688,-11.72599983215332 -88.37999725341797,-12.553000450134277 -88.37999725341797,-12.553000450134277 C-88.37999725341797,-12.553000450134277 -88.5009994506836,11.72599983215332 -88.5009994506836,11.72599983215332 C-88.5009994506836,11.72599983215332 76.26300048828125,12.553000450134277 76.26300048828125,12.553000450134277 C83.0199966430664,12.586999893188477 88.46700286865234,7.192999839782715 88.5009994506836,0.5139999985694885z"></path></g><g opacity="1" transform="matrix(1,0,0,1,372.33599853515625,1047.425048828125)"><path fill="rgb(2,2,2)" fill-opacity="1" d=" M10.911999702453613,0.12399999797344208 C10.946000099182129,-6.633999824523926 5.552000045776367,-12.081999778747559 -1.2050000429153442,-12.116000175476074 C-1.2050000429153442,-12.116000175476074 -10.789999961853027,-12.163999557495117 -10.789999961853027,-12.163999557495117 C-10.789999961853027,-12.163999557495117 -10.911999702453613,12.114999771118164 -10.911999702453613,12.114999771118164 C-10.911999702453613,12.114999771118164 -1.3270000219345093,12.163999557495117 -1.3270000219345093,12.163999557495117 C5.429999828338623,12.197999954223633 10.878000259399414,6.802999973297119 10.911999702453613,0.12399999797344208z"></path></g><g opacity="1" transform="matrix(1,0,0,1,186.0260009765625,1046.6219482421875)"><path fill="rgb(2,2,2)" fill-opacity="1" d=" M20.219999313354492,12.140000343322754 C20.219999313354492,12.140000343322754 20.26300048828125,3.510999917984009 20.26300048828125,3.510999917984009 C20.26300048828125,3.510999917984009 20.340999603271484,-12.140000343322754 20.340999603271484,-12.140000343322754 C20.340999603271484,-12.140000343322754 -2.0850000381469727,-5.572999954223633 -2.0850000381469727,-5.572999954223633 C-2.0850000381469727,-5.572999954223633 -20.340999603271484,-0.16500000655651093 -20.340999603271484,-0.16500000655651093 C-20.340999603271484,-0.16500000655651093 -2.140000104904175,5.3480000495910645 -2.140000104904175,5.3480000495910645 C-2.140000104904175,5.3480000495910645 20.219999313354492,12.140000343322754 20.219999313354492,12.140000343322754z"></path></g><g opacity="1" transform="matrix(1,0,0,1,174.81300354003906,1046.509033203125)"><path fill="rgb(2,139,52)" fill-opacity="1" d=" M9.074000358581543,5.460000038146973 C9.074000358581543,5.460000038146973 9.128000259399414,-5.460000038146973 9.128000259399414,-5.460000038146973 C9.128000259399414,-5.460000038146973 -9.128000259399414,-0.052000001072883606 -9.128000259399414,-0.052000001072883606 C-9.128000259399414,-0.052000001072883606 9.074000358581543,5.460000038146973 9.074000358581543,5.460000038146973z"></path></g><g opacity="1" transform="matrix(1,0,0,1,345.10198974609375,1043.47802734375)"><path stroke-linecap="round" stroke-linejoin="round" fill-opacity="0" stroke="rgb(2,2,2)" stroke-opacity="1" stroke-width="1.7" d=" M0.041999999433755875,-8.317999839782715 C0.041999999433755875,-8.317999839782715 -0.041999999433755875,8.317999839782715 -0.041999999433755875,8.317999839782715"></path></g></g><g clip-path="url(#__lottie_element_14)" transform="matrix(1,0,0,1,0,0)" opacity="1" style="display: block;"><g transform="matrix(1,0,0,1,769.447998046875,709.6190185546875)" opacity="1" style="display: block;"><g opacity="1" transform="matrix(1,0,0,1,0,0)"><path fill="rgb(70,131,236)" fill-opacity="1" d=" M293.96600341796875,197.51199340820312 C293.96600341796875,197.51199340820312 -293.96600341796875,197.51199340820312 -293.96600341796875,197.51199340820312 C-297.32598876953125,197.51199340820312 -300.04998779296875,194.78799438476562 -300.04998779296875,191.42799377441406 C-300.04998779296875,191.42799377441406 -300.04998779296875,-191.42799377441406 -300.04998779296875,-191.42799377441406 C-300.04998779296875,-194.78799438476562 -297.32598876953125,-197.51199340820312 -293.96600341796875,-197.51199340820312 C-293.96600341796875,-197.51199340820312 293.96600341796875,-197.51199340820312 293.96600341796875,-197.51199340820312 C297.32598876953125,-197.51199340820312 300.04998779296875,-194.78799438476562 300.04998779296875,-191.42799377441406 C300.04998779296875,-191.42799377441406 300.04998779296875,191.42799377441406 300.04998779296875,191.42799377441406 C300.04998779296875,194.78799438476562 297.32598876953125,197.51199340820312 293.96600341796875,197.51199340820312z"></path></g></g><g transform="matrix(1,0,0,1,0,0)" opacity="1" style="display: block;"><g opacity="1" transform="matrix(1,0,0,1,771.4819946289062,711.2919921875)"><path fill="rgb(2,2,2)" fill-opacity="1" d=" M281.614013671875,176.4010009765625 C281.614013671875,176.4010009765625 -0.6520000100135803,172.92999267578125 -0.6520000100135803,172.92999267578125 C-0.6520000100135803,172.92999267578125 -281.614013671875,169.4409942626953 -281.614013671875,169.4409942626953 C-281.614013671875,169.4409942626953 -278.8479919433594,-172.8179931640625 -278.8479919433594,-172.8179931640625 C-278.8479919433594,-172.8179931640625 -194.84800720214844,-176.4010009765625 -194.84800720214844,-176.4010009765625 C-194.84800720214844,-176.4010009765625 278.8190002441406,-176.4010009765625 278.8190002441406,-176.4010009765625 C278.8190002441406,-176.4010009765625 281.614013671875,176.4010009765625 281.614013671875,176.4010009765625z"></path></g><g opacity="1" transform="matrix(1,0,0,1,769.447998046875,712.8410034179688)"><path fill="rgb(2,2,2)" fill-opacity="1" d=" M1.9570000171661377,200.73399353027344 C1.9570000171661377,200.73399353027344 -1.9570000171661377,200.73399353027344 -1.9570000171661377,200.73399353027344 C-9.694999694824219,200.73399353027344 -15.968999862670898,194.4600067138672 -15.968999862670898,186.7220001220703 C-15.968999862670898,186.7220001220703 -15.968999862670898,-200.73399353027344 -15.968999862670898,-200.73399353027344 C-15.968999862670898,-200.73399353027344 15.968999862670898,-200.73399353027344 15.968999862670898,-200.73399353027344 C15.968999862670898,-200.73399353027344 15.968999862670898,186.7220001220703 15.968999862670898,186.7220001220703 C15.968999862670898,194.4600067138672 9.694999694824219,200.73399353027344 1.9570000171661377,200.73399353027344z"></path></g></g><g transform="matrix(1,0,0,1,0,0)" opacity="1" style="display: block;"><g opacity="1" transform="matrix(1,0,0,1,0,0)"><g opacity="1" transform="matrix(1,0,0,1,506.1340026855469,705.5900268554688)"><path fill="rgb(239,228,181)" fill-opacity="1" d=" M14.097999572753906,167.72000122070312 C3.9179999828338623,169.87399291992188 -6.206999778747559,172.34800720214844 -16.266000747680664,175.14300537109375 C-15.345000267028809,61.05699920654297 -14.420999526977539,-53.029998779296875 -13.5,-167.11599731445312 C-3.640000104904175,-170.1060028076172 6.285999774932861,-172.781005859375 16.266000747680664,-175.14300537109375 C15.543999671936035,-60.85499954223633 14.819999694824219,53.43199920654297 14.097999572753906,167.72000122070312z"></path></g><g opacity="1" transform="matrix(1,0,0,1,500.3210144042969,707.3389892578125)"><path stroke-linecap="round" stroke-linejoin="round" fill-opacity="0" stroke="rgb(2,2,2)" stroke-opacity="1" stroke-width="1.7" d=" M1.2929999828338623,-171.218994140625 C0.4309999942779541,-57.073001861572266 -0.4320000112056732,57.073001861572266 -1.2929999828338623,171.218994140625"></path></g><g opacity="1" transform="matrix(1,0,0,1,511.6889953613281,704.135009765625)"><path stroke-linecap="round" stroke-linejoin="round" fill-opacity="0" stroke="rgb(2,2,2)" stroke-opacity="1" stroke-width="1.7" d=" M1.1790000200271606,-171.33299255371094 C0.3930000066757202,-57.111000061035156 -0.3930000066757202,57.111000061035156 -1.1790000200271606,171.33299255371094"></path></g></g><g opacity="1" transform="matrix(1,0,0,1,0,0)"><g opacity="1" transform="matrix(1,0,0,1,645.531005859375,701.010986328125)"><path fill="rgb(255,255,255)" fill-opacity="1" d=" M125.29900360107422,183.2100067138672 C43.5989990234375,158.43899536132812 -42.611000061035156,154.80099487304688 -125.29900360107422,172.29800415039062 C-124.5770034790039,58.0099983215332 -123.85299682617188,-56.277000427246094 -123.13099670410156,-170.56500244140625 C-42.07099914550781,-189.74899291992188 43.82699966430664,-186.64199829101562 123.91699981689453,-164.38999938964844 C124.83799743652344,-47.999000549316406 124.37799835205078,66.81900024414062 125.29900360107422,183.2100067138672z"></path></g><g opacity="1" transform="matrix(1,0,0,1,0,0)"><g opacity="1" transform="matrix(1,0,0,1,0,0)"><g opacity="1" transform="matrix(1,0,0,1,0,0)"><g opacity="1" transform="matrix(1,0,0,1,645.3909912109375,550.89501953125)"><path stroke-linecap="round" stroke-linejoin="round" fill-opacity="0" stroke="rgb(2,2,2)" stroke-opacity="1" stroke-width="1.7" d=" M-97.79499816894531,1.902999997138977 C-32.948001861572266,-9.781000137329102 33.55799865722656,-8.430999755859375 97.79499816894531,5.952000141143799"></path></g><g opacity="1" transform="matrix(1,0,0,1,645.4149780273438,577.7470092773438)"><path stroke-linecap="round" stroke-linejoin="round" fill-opacity="0" stroke="rgb(2,2,2)" stroke-opacity="1" stroke-width="1.7" d=" M-97.94599914550781,1.63100004196167 C-32.99800109863281,-9.944000244140625 33.611000061035156,-8.465999603271484 97.94599914550781,6.066999912261963"></path></g><g opacity="1" transform="matrix(1,0,0,1,645.43798828125,604.5980224609375)"><path stroke-linecap="round" stroke-linejoin="round" fill-opacity="0" stroke="rgb(2,2,2)" stroke-opacity="1" stroke-width="1.7" d=" M-98.0979995727539,1.3589999675750732 C-33.04999923706055,-10.107000350952148 33.66299819946289,-8.49899959564209 98.0979995727539,6.183000087738037"></path></g></g><g opacity="1" transform="matrix(1,0,0,1,0,0)"><g opacity="1" transform="matrix(1,0,0,1,645.4600219726562,630.2030029296875)"><path stroke-linecap="round" stroke-linejoin="round" fill-opacity="0" stroke="rgb(2,2,2)" stroke-opacity="1" stroke-width="1.7" d=" M-98.24299621582031,1.1009999513626099 C-33.09700012207031,-10.26099967956543 33.7130012512207,-8.529999732971191 98.24299621582031,6.294000148773193"></path></g><g opacity="1" transform="matrix(1,0,0,1,645.4840087890625,657.052001953125)"><path stroke-linecap="round" stroke-linejoin="round" fill-opacity="0" stroke="rgb(2,2,2)" stroke-opacity="1" stroke-width="1.7" d=" M-98.3949966430664,0.8309999704360962 C-33.150001525878906,-10.42199993133545 33.76499938964844,-8.562000274658203 98.3949966430664,6.410999774932861"></path></g><g opacity="1" transform="matrix(1,0,0,1,645.5070190429688,683.9010009765625)"><path stroke-linecap="round" stroke-linejoin="round" fill-opacity="0" stroke="rgb(2,2,2)" stroke-opacity="1" stroke-width="1.7" d=" M-98.5469970703125,0.5630000233650208 C-33.20100021362305,-10.581999778747559 33.81700134277344,-8.593000411987305 98.5469970703125,6.53000020980835"></path></g></g></g><g opacity="1" transform="matrix(1,0,0,1,0,0)"><g opacity="1" transform="matrix(1,0,0,1,0,0)"><g opacity="1" transform="matrix(1,0,0,1,697.5369873046875,709.135986328125)"><path stroke-linecap="round" stroke-linejoin="round" fill-opacity="0" stroke="rgb(2,2,2)" stroke-opacity="1" stroke-width="1.7" d=" M-46.68000030517578,-6.420000076293945 C-15.326000213623047,-5.098999977111816 15.9350004196167,-0.8180000185966492 46.68000030517578,6.420000076293945"></path></g><g opacity="1" transform="matrix(1,0,0,1,697.6400146484375,736.0040283203125)"><path stroke-linecap="round" stroke-linejoin="round" fill-opacity="0" stroke="rgb(2,2,2)" stroke-opacity="1" stroke-width="1.7" d=" M-46.75199890136719,-6.519000053405762 C-15.350000381469727,-5.136000156402588 15.958999633789062,-0.7900000214576721 46.75199890136719,6.519000053405762"></path></g><g opacity="1" transform="matrix(1,0,0,1,697.7440185546875,762.8709716796875)"><path stroke-linecap="round" stroke-linejoin="round" fill-opacity="0" stroke="rgb(2,2,2)" stroke-opacity="1" stroke-width="1.7" d=" M-46.823001861572266,-6.61899995803833 C-15.373000144958496,-5.175000190734863 15.982000350952148,-0.7609999775886536 46.823001861572266,6.61899995803833"></path></g></g><g opacity="1" transform="matrix(1,0,0,1,0,0)"><g opacity="1" transform="matrix(1,0,0,1,697.8419799804688,788.4929809570312)"><path stroke-linecap="round" stroke-linejoin="round" fill-opacity="0" stroke="rgb(2,2,2)" stroke-opacity="1" stroke-width="1.7" d=" M-46.891998291015625,-6.7129998207092285 C-15.397000312805176,-5.210000038146973 16.006999969482422,-0.7350000143051147 46.891998291015625,6.7129998207092285"></path></g><g opacity="1" transform="matrix(1,0,0,1,697.9450073242188,815.3599853515625)"><path stroke-linecap="round" stroke-linejoin="round" fill-opacity="0" stroke="rgb(2,2,2)" stroke-opacity="1" stroke-width="1.7" d=" M-46.9640007019043,-6.813000202178955 C-15.420999526977539,-5.248000144958496 16.0310001373291,-0.7059999704360962 46.9640007019043,6.813000202178955"></path></g><g opacity="1" transform="matrix(1,0,0,1,698.0490112304688,842.2269897460938)"><path stroke-linecap="round" stroke-linejoin="round" fill-opacity="0" stroke="rgb(2,2,2)" stroke-opacity="1" stroke-width="1.7" d=" M-47.03499984741211,-6.9120001792907715 C-15.442999839782715,-5.284999847412109 16.05500030517578,-0.6769999861717224 47.03499984741211,6.9120001792907715"></path></g></g></g></g></g></g><g transform="matrix(1,0,0,1,0,0)" opacity="1" style="display: block;"><g opacity="1" transform="matrix(1,0,0,1,584.3729858398438,771.6110229492188)"><path fill="rgb(239,228,181)" fill-opacity="1" d=" M38.10900115966797,63.04600143432617 C12.585000038146973,63.180999755859375 -12.914999961853027,65.26000213623047 -38.16899871826172,69.28299713134766 C-37.957000732421875,25.393999099731445 -37.74399948120117,-18.493999481201172 -37.53200149536133,-62.38199996948242 C-12.468999862670898,-66.61100006103516 12.83899974822998,-68.91200256347656 38.16899871826172,-69.28299713134766 C38.14899826049805,-25.17300033569336 38.12799835205078,18.93600082397461 38.10900115966797,63.04600143432617z"></path></g></g><g mask="url(#__lottie_element_35_1)" style="display: block;"><g transform="matrix(1,0,0,1,0,0)" opacity="1"><g opacity="1" transform="matrix(1,0,0,1,584.3469848632812,792.301025390625)"><path fill="rgb(255,192,68)" fill-opacity="1" d=" M37.29600143432617,27.849000930786133 C24.55900001525879,25.94499969482422 9.446999549865723,21.32900047302246 2.4709999561309814,9.470000267028809 C-3.9570000171661377,-1.4559999704360962 3.140000104904175,-15.071999549865723 -3.428999900817871,-25.996999740600586 C-9.237000465393066,-35.65599822998047 -21.577999114990234,-39.73500061035156 -31.04400062561035,-44.71799850463867 C-33.33599853515625,-45.92399978637695 -35.553001403808594,-47.209999084472656 -37.67300033569336,-48.59299850463867 C-37.83000183105469,-16.197999954223633 -37.98500061035156,16.19700050354004 -38.141998291015625,48.59299850463867 C-12.887999534606934,44.56999969482422 12.612000465393066,42.49100112915039 38.13600158691406,42.35599899291992 C38.13800048828125,37.560001373291016 38.13999938964844,32.762001037597656 38.141998291015625,27.965999603271484 C37.861000061035156,27.926000595092773 37.57600021362305,27.891000747680664 37.29600143432617,27.849000930786133z"></path></g><g opacity="1" transform="matrix(1,0,0,1,508.84698486328125,715.8629760742188)"><path fill="rgb(255,192,68)" fill-opacity="1" d=" M37.29600143432617,27.849000930786133 C24.55900001525879,25.94499969482422 9.446999549865723,21.32900047302246 2.4709999561309814,9.470000267028809 C-3.9570000171661377,-1.4559999704360962 3.140000104904175,-15.071999549865723 -3.428999900817871,-25.996999740600586 C-9.237000465393066,-35.65599822998047 -21.577999114990234,-39.73500061035156 -31.04400062561035,-44.71799850463867 C-33.33599853515625,-45.92399978637695 -35.553001403808594,-47.209999084472656 -37.67300033569336,-48.59299850463867 C-37.83000183105469,-16.197999954223633 -37.8489990234375,99.1969985961914 -38.00600051879883,131.59300231933594 C-12.751999855041504,127.56999969482422 12.746999740600586,125.49099731445312 38.270999908447266,125.35600280761719 C40.66299819946289,123.3239974975586 41.263999938964844,37.35599899291992 41.26499938964844,34.512001037597656 C41.26599884033203,32.558998107910156 40.21500015258789,29.51099967956543 38.141998291015625,27.965999603271484 C37.861000061035156,27.926000595092773 37.57600021362305,27.891000747680664 37.29600143432617,27.849000930786133z"></path></g><g opacity="1" transform="matrix(1,0,0,1,433.03399658203125,639.301025390625)"><path fill="rgb(255,192,68)" fill-opacity="1" d=" M37.29600143432617,27.849000930786133 C24.55900001525879,25.94499969482422 9.446999549865723,21.32900047302246 2.4709999561309814,9.470999717712402 C-3.9570000171661377,-1.4550000429153442 3.140000104904175,-15.071999549865723 -3.428999900817871,-25.996999740600586 C-9.237000465393066,-35.65599822998047 -21.577999114990234,-39.73500061035156 -31.04400062561035,-44.71799850463867 C-33.33599853515625,-45.92399978637695 -35.553001403808594,-47.209999084472656 -37.67300033569336,-48.59299850463867 C-37.83000183105469,-16.197999954223633 -37.98500061035156,16.19700050354004 -38.141998291015625,48.59299850463867 C-38.534000396728516,102.6989974975586 -46.03499984741211,214.19900512695312 38.40700149536133,208.8560028076172 C41.29899978637695,208.63699340820312 41.15999984741211,203.9600067138672 41.1609992980957,201.26199340820312 C41.1619987487793,199.16400146484375 40.34000015258789,29.51099967956543 38.141998291015625,27.965999603271484 C37.861000061035156,27.926000595092773 37.57600021362305,27.891000747680664 37.29600143432617,27.849000930786133z"></path></g></g></g><g transform="matrix(1,0,0,1,0,0)" opacity="1" style="display: block;"><g opacity="1" transform="matrix(1,0,0,1,895.7830200195312,700.1389770507812)"><path fill="rgb(255,255,255)" fill-opacity="1" d=" M-126.56800079345703,184.0279998779297 C-44.02000045776367,161.0919952392578 43.08700180053711,159.50999450683594 126.63400268554688,179.281005859375 C125.90399932861328,61.98699951171875 125.17500305175781,-55.305999755859375 124.44400024414062,-172.60000610351562 C42.54100036621094,-189.9290008544922 -45.41299819946289,-188.05499267578125 -126.33499908447266,-163.51800537109375 C-127.26699829101562,-48.24599838256836 -125.63600158691406,68.75599670410156 -126.56800079345703,184.0279998779297z"></path></g><g opacity="1" transform="matrix(1,0,0,1,0,0)"><g opacity="1" transform="matrix(1,0,0,1,0,0)"><g opacity="1" transform="matrix(1,0,0,1,0,0)"><g opacity="1" transform="matrix(1,0,0,1,826.7659912109375,554.0250244140625)"><path stroke-linecap="round" stroke-linejoin="round" fill-opacity="0" stroke="rgb(2,2,2)" stroke-opacity="1" stroke-width="1.7" d=" M-29.621000289916992,5.394999980926514 C-10.04699993133545,0.6010000109672546 9.737000465393066,-2.996000051498413 29.621000289916992,-5.394999980926514"></path></g><g opacity="1" transform="matrix(1,0,0,1,826.635009765625,580.8809814453125)"><path stroke-linecap="round" stroke-linejoin="round" fill-opacity="0" stroke="rgb(2,2,2)" stroke-opacity="1" stroke-width="1.7" d=" M-29.66699981689453,5.34499979019165 C-10.062000274658203,0.5820000171661377 9.751999855041504,-2.9820001125335693 29.66699981689453,-5.34499979019165"></path></g><g opacity="1" transform="matrix(1,0,0,1,826.5040283203125,607.7369995117188)"><path stroke-linecap="round" stroke-linejoin="round" fill-opacity="0" stroke="rgb(2,2,2)" stroke-opacity="1" stroke-width="1.7" d=" M-29.71299934387207,5.295000076293945 C-10.07699966430664,0.5630000233650208 9.767999649047852,-2.9660000801086426 29.71299934387207,-5.295000076293945"></path></g></g><g opacity="1" transform="matrix(1,0,0,1,0,0)"><g opacity="1" transform="matrix(1,0,0,1,826.3790283203125,633.3469848632812)"><path stroke-linecap="round" stroke-linejoin="round" fill-opacity="0" stroke="rgb(2,2,2)" stroke-opacity="1" stroke-width="1.7" d=" M-29.756999969482422,5.248000144958496 C-10.093000411987305,0.5460000038146973 9.782999992370605,-2.953000068664551 29.756999969482422,-5.248000144958496"></path></g><g opacity="1" transform="matrix(1,0,0,1,895.8629760742188,658.6129760742188)"><path stroke-linecap="round" stroke-linejoin="round" fill-opacity="0" stroke="rgb(2,2,2)" stroke-opacity="1" stroke-width="1.7" d=" M-99.41799926757812,6.788000106811523 C-34.1150016784668,-8.699000358581543 33.49399948120117,-10.9350004196167 99.41799926757812,0.07800000160932541"></path></g><g opacity="1" transform="matrix(1,0,0,1,895.8400268554688,685.52001953125)"><path stroke-linecap="round" stroke-linejoin="round" fill-opacity="0" stroke="rgb(2,2,2)" stroke-opacity="1" stroke-width="1.7" d=" M-99.5719985961914,6.686999797821045 C-34.167999267578125,-8.696000099182129 33.54600143432617,-10.807999610900879 99.5719985961914,0.3499999940395355"></path></g></g></g><g opacity="1" transform="matrix(1,0,0,1,0,0)"><g opacity="1" transform="matrix(1,0,0,1,0,0)"><g opacity="1" transform="matrix(1,0,0,1,895.8179931640625,710.5889892578125)"><path stroke-linecap="round" stroke-linejoin="round" fill-opacity="0" stroke="rgb(2,2,2)" stroke-opacity="1" stroke-width="1.7" d=" M-99.71399688720703,6.593999862670898 C-34.21799850463867,-8.692000389099121 33.59400177001953,-10.6899995803833 99.71399688720703,0.6029999852180481"></path></g><g opacity="1" transform="matrix(1,0,0,1,895.7940063476562,737.4940185546875)"><path stroke-linecap="round" stroke-linejoin="round" fill-opacity="0" stroke="rgb(2,2,2)" stroke-opacity="1" stroke-width="1.7" d=" M-99.86799621582031,6.494999885559082 C-34.27000045776367,-8.687999725341797 33.64699935913086,-10.560999870300293 99.86799621582031,0.8759999871253967"></path></g><g opacity="1" transform="matrix(1,0,0,1,895.77099609375,764.3980102539062)"><path stroke-linecap="round" stroke-linejoin="round" fill-opacity="0" stroke="rgb(2,2,2)" stroke-opacity="1" stroke-width="1.7" d=" M-100.02100372314453,6.396999835968018 C-34.321998596191406,-8.682000160217285 33.698001861572266,-10.430999755859375 100.02100372314453,1.149999976158142"></path></g></g><g opacity="1" transform="matrix(1,0,0,1,0,0)"><g opacity="1" transform="matrix(1,0,0,1,895.7479858398438,790.0540161132812)"><path stroke-linecap="round" stroke-linejoin="round" fill-opacity="0" stroke="rgb(2,2,2)" stroke-opacity="1" stroke-width="1.7" d=" M-100.16699981689453,6.303999900817871 C-34.37300109863281,-8.675999641418457 33.74700164794922,-10.307000160217285 100.16699981689453,1.4119999408721924"></path></g><g opacity="1" transform="matrix(1,0,0,1,895.7249755859375,816.9569702148438)"><path stroke-linecap="round" stroke-linejoin="round" fill-opacity="0" stroke="rgb(2,2,2)" stroke-opacity="1" stroke-width="1.7" d=" M-100.32099914550781,6.206999778747559 C-34.42599868774414,-8.670000076293945 33.79899978637695,-10.175000190734863 100.32099914550781,1.687999963760376"></path></g><g opacity="1" transform="matrix(1,0,0,1,895.7009887695312,843.8579711914062)"><path stroke-linecap="round" stroke-linejoin="round" fill-opacity="0" stroke="rgb(2,2,2)" stroke-opacity="1" stroke-width="1.7" d=" M-100.4739990234375,6.111999988555908 C-34.47700119018555,-8.661999702453613 33.849998474121094,-10.043999671936035 100.4739990234375,1.9639999866485596"></path></g></g></g></g><g opacity="1" transform="matrix(1,0,0,1,0,0)"><g opacity="1" transform="matrix(1,0,0,1,1036.6610107421875,707.6160278320312)"><path fill="rgb(239,228,181)" fill-opacity="1" d=" M-14.244999885559082,171.8040008544922 C-3.9590001106262207,174.23800659179688 6.2729997634887695,176.99600219726562 16.434999465942383,180.07699584960938 C15.503999710083008,62.47700119018555 14.571999549865723,-55.124000549316406 13.640000343322754,-172.72500610351562 C3.677999973297119,-175.4929962158203 -6.3520002365112305,-177.94400024414062 -16.434999465942383,-180.07699584960938 C-15.704999923706055,-62.784000396728516 -14.97599983215332,54.5099983215332 -14.244999885559082,171.8040008544922z"></path></g><g opacity="1" transform="matrix(1,0,0,1,1042.5350341796875,709.0070190429688)"><path stroke-linecap="round" stroke-linejoin="round" fill-opacity="0" stroke="rgb(2,2,2)" stroke-opacity="1" stroke-width="1.7" d=" M-1.305999994277954,-176.25900268554688 C-0.4350000023841858,-58.75299835205078 0.4350000023841858,58.75299835205078 1.305999994277954,176.25900268554688"></path></g><g opacity="1" transform="matrix(1,0,0,1,1031.0489501953125,705.7620239257812)"><path stroke-linecap="round" stroke-linejoin="round" fill-opacity="0" stroke="rgb(2,2,2)" stroke-opacity="1" stroke-width="1.7" d=" M-1.1920000314712524,-176.0850067138672 C-0.39800000190734863,-58.69499969482422 0.3970000147819519,58.69499969482422 1.1920000314712524,176.0850067138672"></path></g></g></g><g transform="matrix(1,0,0,1,0,0)" opacity="1" style="display: block;"><g opacity="1" transform="matrix(1,0,0,1,939.4039916992188,585.7310180664062)"><path fill="rgb(2,139,52)" fill-opacity="1" d=" M-60.36800003051758,40.266998291015625 C-20.062999725341797,37.49700164794922 20.479999542236328,39.597999572753906 60.36800003051758,46.56800079345703 C60.2239990234375,17.832000732421875 60.07899856567383,-10.904000282287598 59.933998107910156,-39.63999938964844 C20.243000030517578,-46.33100128173828 -20.101999282836914,-48.17499923706055 -60.209999084472656,-45.17300033569336 C-60.262001037597656,-16.69300079345703 -60.314998626708984,11.786999702453613 -60.36800003051758,40.266998291015625z"></path></g></g><g mask="url(#__lottie_element_23_1)" style="display: block;"><g transform="matrix(1,0,0,1,316.875,-12)" opacity="1"><g opacity="1" transform="matrix(1,0,0,1,605.0549926757812,537.5880126953125)"><path fill="rgb(239,228,181)" fill-opacity="1" d=" M-36.14799880981445,26.15999984741211 C-16.78700065612793,19.268999099731445 40.24399948120117,75.67900085449219 56.95500183105469,61.6510009765625 C65.08000183105469,54.83100128173828 71.48699951171875,45.57899856567383 77.38500213623047,36.90800094604492 C77.48999786376953,36.75400161743164 77.5979995727539,36.60300064086914 77.7030029296875,36.44900131225586 C77.7030029296875,36.44900131225586 77.61299896240234,12.71500015258789 77.61299896240234,12.71500015258789 C67.79199981689453,11.413000106811523 59.638999938964844,9.972999572753906 47.944000244140625,8.472999572753906 C18.229000091552734,4.663000106811523 -23.851999282836914,4.913000106811523 -42.75,7.14900016784668 C-42.75,7.14900016784668 -42.827999114990234,29.28499984741211 -42.827999114990234,29.28499984741211 C-40.76100158691406,28.051000595092773 -38.52299880981445,27.0049991607666 -36.14799880981445,26.15999984741211z"></path></g><g opacity="1" transform="matrix(1,0,0,1,725.5549926757812,544.7130126953125)"><path fill="rgb(239,228,181)" fill-opacity="1" d=" M-36.14799880981445,26.15999984741211 C-16.78700065612793,19.268999099731445 40.24399948120117,75.67900085449219 56.95500183105469,61.6510009765625 C65.08000183105469,54.83100128173828 71.48699951171875,45.57899856567383 77.38500213623047,36.90800094604492 C77.48999786376953,36.75400161743164 77.5979995727539,36.60300064086914 77.7030029296875,36.44900131225586 C77.7030029296875,36.44900131225586 77.61299896240234,12.71500015258789 77.61299896240234,12.71500015258789 C67.79199981689453,11.413000106811523 59.638999938964844,9.972999572753906 47.944000244140625,8.472999572753906 C18.229000091552734,4.663000106811523 -24.535999298095703,3.2249999046325684 -43.433998107910156,5.460999965667725 C-43.433998107910156,5.460999965667725 -51.82400131225586,17.4950008392334 -51.82400131225586,17.4950008392334 C-51.82400131225586,17.4950008392334 -43.327999114990234,30.03499984741211 -43.327999114990234,30.03499984741211 C-41.55500030517578,27.350000381469727 -38.52299880981445,27.0049991607666 -36.14799880981445,26.15999984741211z"></path></g><g opacity="1" transform="matrix(1,0,0,1,846.4299926757812,551.9630126953125)"><path fill="rgb(239,228,181)" fill-opacity="1" d=" M-36.14799880981445,26.15999984741211 C-16.78700065612793,19.268999099731445 40.24399948120117,75.67900085449219 56.95500183105469,61.6510009765625 C65.08000183105469,54.83100128173828 71.48699951171875,45.57899856567383 77.38500213623047,36.90800094604492 C77.48999786376953,36.75400161743164 77.5979995727539,36.60300064086914 77.7030029296875,36.44900131225586 C77.7030029296875,36.44900131225586 77.78099822998047,12.71500015258789 77.78099822998047,12.71500015258789 C67.95999908447266,11.413000106811523 59.638999938964844,9.972999572753906 47.944000244140625,8.472999572753906 C18.229000091552734,4.663000106811523 -24.535999298095703,3.2249999046325684 -43.433998107910156,5.460999965667725 C-43.433998107910156,5.460999965667725 -50.06399917602539,18.68400001525879 -50.06399917602539,18.68400001525879 C-50.06399917602539,18.68400001525879 -43.29899978637695,29.53499984741211 -43.29899978637695,29.53499984741211 C-40.974998474121094,27.433000564575195 -38.52299880981445,27.0049991607666 -36.14799880981445,26.15999984741211z"></path></g></g></g><g transform="matrix(1,0,0,1,800,800)" opacity="1" style="display: block;"><g opacity="1" transform="matrix(1,0,0,1,0,0)"><path stroke-linecap="butt" stroke-linejoin="miter" fill-opacity="0" stroke-miterlimit="4" stroke="rgb(2,2,2)" stroke-opacity="1" stroke-width="1.7" d=" M-29.75,86.25 C-29.75,86.25 -29.75,-271.5 -29.75,-271.5"></path></g></g><g transform="matrix(1,0,0,1,669.2050170898438,574.2899780273438)" opacity="1" style="display: block;"><g opacity="1" transform="matrix(1,0,0,1,0,0)"><path fill="rgb(254,52,86)" fill-opacity="1" d=" M22.996000289916992,57.54399871826172 C16.775999069213867,52.83000183105469 7.579999923706055,47.30699920654297 1.3760000467300415,42.36600112915039 C-4.828999996185303,47.59199905395508 -7.525000095367432,53.250999450683594 -13.746000289916992,58.4379997253418 C-16.579999923706055,41.084999084472656 -22.95599937438965,23.209999084472656 -24.448999404907227,5.085999965667725 C-25.434999465942383,-6.874000072479248 -26.83099937438965,-18.790000915527344 -22.95800018310547,-30.916000366210938 C-20.406999588012695,-38.90399932861328 -17.329999923706055,-46.60300064086914 -17.75200080871582,-55.99700164794922 C-5.921999931335449,-59.680999755859375 6.420000076293945,-59.23099899291992 18.250999450683594,-54.8129997253418 C18.277999877929688,-46.59700012207031 16.04599952697754,-38.34000015258789 13.208000183105469,-30.166000366210938 C10.170000076293945,-21.415000915527344 10.451000213623047,-5.763999938964844 12.07699966430664,6.210000038146973 C14.420000076293945,23.459999084472656 19.670000076293945,41.084999084472656 22.996000289916992,57.54399871826172z"></path></g></g></g><g clip-path="url(#__lottie_element_4)" transform="matrix(1,0,0,1,0,0)" opacity="1" style="display: block;"><g transform="matrix(0.9999750256538391,-0.007068524602800608,0.007068524602800608,0.9999750256538391,-7.177734375,0.8817138671875)" opacity="1" style="display: block;"><g opacity="1" transform="matrix(1,0,0,1,0,0)"><g opacity="1" transform="matrix(1,0,0,1,1154.4840087890625,943.9520263671875)"><path fill="rgb(2,139,52)" fill-opacity="1" d=" M152.968994140625,75.30699920654297 C152.968994140625,75.30699920654297 -152.96800231933594,75.30799865722656 -152.96800231933594,75.30799865722656 C-152.96800231933594,75.30799865722656 -152.968994140625,-75.30699920654297 -152.968994140625,-75.30699920654297 C-152.968994140625,-75.30699920654297 152.96800231933594,-75.30799865722656 152.96800231933594,-75.30799865722656 C152.96800231933594,-75.30799865722656 152.968994140625,75.30699920654297 152.968994140625,75.30699920654297z"></path></g><g opacity="1" transform="matrix(1,0,0,1,1080.7449951171875,915.2260131835938)"><path fill="rgb(2,2,2)" fill-opacity="1" d=" M79.2300033569336,46.58100128173828 C79.2300033569336,46.58100128173828 -79.2300033569336,46.58100128173828 -79.2300033569336,46.58100128173828 C-79.2300033569336,46.58100128173828 -79.2300033569336,-46.58100128173828 -79.2300033569336,-46.58100128173828 C-79.2300033569336,-46.58100128173828 79.2300033569336,-46.58100128173828 79.2300033569336,-46.58100128173828 C79.2300033569336,-46.58100128173828 79.2300033569336,46.58100128173828 79.2300033569336,46.58100128173828z"></path></g><g opacity="1" transform="matrix(1,0,0,1,1154.4840087890625,1019.260009765625)"><path fill="rgb(2,139,52)" fill-opacity="1" d=" M152.96800231933594,0 C152.96800231933594,21.683000564575195 84.48200225830078,39.26100158691406 0,39.26100158691406 C-84.48200225830078,39.26100158691406 -152.968994140625,21.683000564575195 -152.968994140625,0 C-152.968994140625,-21.683000564575195 -84.48200225830078,-39.26100158691406 0,-39.26100158691406 C84.48200225830078,-39.26100158691406 152.96800231933594,-21.683000564575195 152.96800231933594,0z"></path></g></g><g opacity="1" transform="matrix(1,0,0,1,0,0)"><g opacity="1" transform="matrix(1,0,0,1,1154.8759765625,862.1729736328125)"><path fill="rgb(2,139,52)" fill-opacity="1" d=" M-11.074999809265137,97.78700256347656 C-11.074999809265137,97.78700256347656 -274.02301025390625,7.584000110626221 -274.02301025390625,7.584000110626221 C-281.2449951171875,5.10699987411499 -281.2449951171875,-5.10699987411499 -274.02301025390625,-7.584000110626221 C-274.02301025390625,-7.584000110626221 -11.076000213623047,-97.78700256347656 -11.076000213623047,-97.78700256347656 C-3.8980000019073486,-100.2490005493164 3.8970000743865967,-100.2490005493164 11.074999809265137,-97.78700256347656 C11.074999809265137,-97.78700256347656 274.02301025390625,-7.584000110626221 274.02301025390625,-7.584000110626221 C281.2449951171875,-5.10699987411499 281.2449951171875,5.10699987411499 274.02301025390625,7.584000110626221 C274.02301025390625,7.584000110626221 11.076000213623047,97.78700256347656 11.076000213623047,97.78700256347656 C3.8980000019073486,100.2490005493164 -3.8970000743865967,100.2490005493164 -11.074999809265137,97.78700256347656z"></path></g><g opacity="1" transform="matrix(1,0,0,1,1161.81494140625,915.781982421875)"><path stroke-linecap="round" stroke-linejoin="round" fill-opacity="0" stroke="rgb(2,2,2)" stroke-opacity="1" stroke-width="1.7" d=" M267.0840148925781,-46.025001525878906 C267.0840148925781,-46.025001525878906 4.13700008392334,44.178001403808594 4.13700008392334,44.178001403808594 C-3.0409998893737793,46.63999938964844 -10.836000442504883,46.63999938964844 -18.013999938964844,44.178001403808594 C-18.013999938964844,44.178001403808594 -267.0840148925781,-41.263999938964844 -267.0840148925781,-41.263999938964844"></path></g></g></g><g transform="matrix(0.9999750256538391,-0.007068524602800608,0.007068524602800608,0.9999750256538391,-7.177734375,0.8817138671875)" opacity="1" style="display: block;"><g opacity="1" transform="matrix(1,0,0,1,1154.8759765625,862.1729736328125)"><path fill="rgb(255,192,68)" fill-opacity="1" d=" M18.82699966430664,0 C18.82699966430664,6.571000099182129 10.39799976348877,11.89799976348877 0,11.89799976348877 C-10.39799976348877,11.89799976348877 -18.82699966430664,6.571000099182129 -18.82699966430664,0 C-18.82699966430664,-6.571000099182129 -10.39799976348877,-11.89799976348877 0,-11.89799976348877 C10.39799976348877,-11.89799976348877 18.82699966430664,-6.571000099182129 18.82699966430664,0z"></path></g><g opacity="1" transform="matrix(1,0,0,1,1248.949951171875,966.635009765625)"><path stroke-linecap="round" stroke-linejoin="round" fill-opacity="0" stroke="rgb(255,192,68)" stroke-opacity="1" stroke-width="1.7" d=" M-94.0739974975586,-104.46199798583984 C-94.0739974975586,-104.46199798583984 94.08799743652344,-68.31099700927734 94.08799743652344,-68.31099700927734 C94.08799743652344,-68.31099700927734 98.7490005493164,104.37899780273438 98.7490005493164,104.37899780273438"></path></g><g opacity="1" transform="matrix(1,0,0,1,0,0)"><g opacity="1" transform="matrix(1,0,0,1,1343.0240478515625,1083.2969970703125)"><path fill="rgb(255,192,68)" fill-opacity="1" d=" M17.756999969482422,-0.4320000112056732 C17.94700050354004,6.611000061035156 12.390999794006348,12.475000381469727 5.3480000495910645,12.664999961853027 C-1.6950000524520874,12.854999542236328 -7.559000015258789,7.298999786376953 -7.749000072479248,0.25600001215934753 C-7.939000129699707,-6.7870001792907715 -2.382999897003174,-12.651000022888184 4.659999847412109,-12.840999603271484 C11.70300006866455,-13.031000137329102 17.566999435424805,-7.474999904632568 17.756999969482422,-0.4320000112056732z"></path></g><g opacity="1" transform="matrix(1,0,0,1,1343.0240478515625,1118.8189697265625)"><path fill="rgb(255,192,68)" fill-opacity="1" d=" M-2.0309998989105225,-27.323999404907227 C-2.0309998989105225,-27.323999404907227 12.47599983215332,-27.71500015258789 12.47599983215332,-27.71500015258789 C12.47599983215332,-27.71500015258789 25.51300048828125,26.809999465942383 25.51300048828125,26.809999465942383 C25.51300048828125,26.809999465942383 -12.107999801635742,27.826000213623047 -12.107999801635742,27.826000213623047 C-12.107999801635742,27.826000213623047 -2.0309998989105225,-27.323999404907227 -2.0309998989105225,-27.323999404907227z"></path></g></g></g></g></g></svg>