<svg xmlns="http://www.w3.org/2000/svg" xmlns:xlink="http://www.w3.org/1999/xlink" viewBox="0 0 1600 1600" width="1600" height="1600" preserveAspectRatio="xMidYMid meet" style="width: 100%; height: 100%; transform: translate3d(0px, 0px, 0px); content-visibility: visible;"><defs><clipPath id="__lottie_element_2"><rect width="1600" height="1600" x="0" y="0"></rect></clipPath><g id="__lottie_element_15"><g style="display: none;"><g><path></path></g><g><path></path></g><g><path></path></g></g></g><mask id="__lottie_element_15_1" mask-type="alpha"><use xlink:href="#__lottie_element_15"></use></mask><g id="__lottie_element_21"><g transform="matrix(1,0,0,1,800,800)" opacity="1" style="display: block;"><g opacity="1" transform="matrix(1,0,0,1,0,0)"><path fill="rgb(2,198,128)" fill-opacity="1" d=" M-253.53700256347656,213.17799377441406 C-253.53700256347656,213.17799377441406 -293.1889953613281,191.0489959716797 -273.3789978027344,151.67999267578125 C-253.56900024414062,112.31099700927734 -222.7310028076172,126.28900146484375 -212.75100708007812,132.125 C-202.77099609375,137.96099853515625 22.465999603271484,242.86900329589844 42.547000885009766,267.84698486328125 C62.62799835205078,292.82501220703125 42.08599853515625,335.0899963378906 -4.872000217437744,336.1289978027344 C-19.606000900268555,336.4549865722656 -75.36900329589844,310.3330078125 -130.8209991455078,281.70098876953125 C-184.56399536132812,253.95199584960938 -238.01499938964844,223.8459930419922 -253.53700256347656,213.17799377441406z"></path></g><g opacity="1" transform="matrix(1,0,0,1,0,0)"><path fill="rgb(2,198,128)" fill-opacity="1" d=" M-293.2229919433594,292.0450134277344 C-293.2229919433594,292.0450134277344 -332.875,269.9159851074219 -313.06500244140625,230.5469970703125 C-293.2550048828125,191.17799377441406 -262.4169921875,205.15699768066406 -252.43699645996094,210.9929962158203 C-242.45700073242188,216.82899475097656 -17.219999313354492,321.7359924316406 2.8610000610351562,346.7139892578125 C22.941999435424805,371.6919860839844 2.4000000953674316,413.9570007324219 -44.55799865722656,414.9960021972656 C-73.5719985961914,415.63800048828125 -261.68499755859375,313.718994140625 -293.2229919433594,292.0450134277344z"></path></g><g opacity="1" transform="matrix(1,0,0,1,0,0)"><path fill="rgb(2,2,2)" fill-opacity="1" d=" M-280.42498779296875,396.8349914550781 C-280.42498779296875,396.8349914550781 -302.1780090332031,383.802001953125 -283.18798828125,346.0639953613281 C-264.197998046875,308.32598876953125 -246.75999450683594,315.625 -241.3280029296875,319.13800048828125 C-235.89599609375,322.6510009765625 -108.98699951171875,378.4289855957031 -100.19000244140625,397.114013671875 C-91.39299774169922,415.79901123046875 -111.31600189208984,456.1969909667969 -141.46499633789062,464.6730041503906 C-160.09300231933594,469.9100036621094 -263.7799987792969,410.7749938964844 -280.42498779296875,396.8349914550781z"></path></g></g></g><mask id="__lottie_element_21_1" mask-type="alpha"><use xlink:href="#__lottie_element_21"></use></mask><g id="__lottie_element_45"><g transform="matrix(1,0,0,1,800,800)" opacity="1" style="display: block;"><g opacity="1" transform="matrix(1,0,0,1,0,0)"><g opacity="1" transform="matrix(1,0,0,1,0,0)"><path stroke-linecap="round" stroke-linejoin="round" fill-opacity="0" stroke="rgb(2,2,2)" stroke-opacity="1" stroke-width="4" d=" M-255.89999389648438,-59.064998626708984 C-288.7900085449219,-90.48999786376953 -339.2149963378906,-143.02499389648438 -365.47698974609375,-169.59800720214844 C-399.6669921875,-204.1929931640625 -469.7590026855469,-261.60101318359375 -504.6669921875,-305.5660095214844"></path></g><g opacity="1" transform="matrix(1,0,0,1,0,0)"><path stroke-linecap="round" stroke-linejoin="round" fill-opacity="0" stroke="rgb(2,2,2)" stroke-opacity="1" stroke-width="4" d=" M-306.27301025390625,-8.880000114440918 C-339.1629943847656,-40.30500030517578 -380.2200012207031,-100.49500274658203 -406.48199462890625,-127.06800079345703 C-440.6719970703125,-161.66299438476562 -511.0119934082031,-223.9320068359375 -545.9199829101562,-267.8970031738281"></path></g><g opacity="1" transform="matrix(1,0,0,1,0,0)"><path stroke-linecap="round" stroke-linejoin="round" fill-opacity="0" stroke="rgb(2,2,2)" stroke-opacity="1" stroke-width="4" d=" M-208.7270050048828,-106.06199645996094 C-241.61700439453125,-137.48699951171875 -292.0419921875,-190.02200317382812 -318.3039855957031,-216.59500122070312 C-352.4939880371094,-251.19000244140625 -422.58599853515625,-308.5989990234375 -457.4939880371094,-352.5639953613281"></path></g><g opacity="1" transform="matrix(1,0,0,1,0,0)"><path stroke-linecap="round" stroke-linejoin="round" fill-opacity="0" stroke="rgb(2,2,2)" stroke-opacity="1" stroke-width="4" d=" M-161.5540008544922,-153.05999755859375 C-194.44400024414062,-184.48500061035156 -244.86900329589844,-237.0189971923828 -271.1310119628906,-263.5920104980469 C-305.3210144042969,-298.18701171875 -375.4129943847656,-355.59600830078125 -410.3210144042969,-399.5610046386719"></path></g><g opacity="1" transform="matrix(1,0,0,1,0,0)"><path stroke-linecap="round" stroke-linejoin="round" fill-opacity="0" stroke="rgb(2,2,2)" stroke-opacity="1" stroke-width="4" d=" M-114.38099670410156,-200.0570068359375 C-147.27099609375,-231.48199462890625 -197.6959991455078,-284.0159912109375 -223.95799255371094,-310.5889892578125 C-258.14801025390625,-345.1839904785156 -328.239990234375,-402.5929870605469 -363.14801025390625,-446.5580139160156"></path></g><g opacity="1" transform="matrix(1,0,0,1,0,0)"><path stroke-linecap="round" stroke-linejoin="round" fill-opacity="0" stroke="rgb(2,2,2)" stroke-opacity="1" stroke-width="4" d=" M-67.20800018310547,-247.0540008544922 C-100.0979995727539,-278.47900390625 -150.5229949951172,-331.01300048828125 -176.78500366210938,-357.58599853515625 C-210.97500610351562,-392.1809997558594 -281.0669860839844,-449.5899963378906 -315.9750061035156,-493.55499267578125"></path></g><g opacity="1" transform="matrix(1,0,0,1,0,0)"><path stroke-linecap="round" stroke-linejoin="round" fill-opacity="0" stroke="rgb(2,2,2)" stroke-opacity="1" stroke-width="4" d=" M-20.03499984741211,-294.0509948730469 C-52.92499923706055,-325.47601318359375 -103.3499984741211,-378.010986328125 -129.61199951171875,-404.5840148925781 C-163.802001953125,-439.1789855957031 -233.8939971923828,-496.5870056152344 -268.802001953125,-540.552001953125"></path></g></g><g opacity="1" transform="matrix(1,0,0,1,0,0)"><g opacity="1" transform="matrix(1,0,0,1,0,0)"><path stroke-linecap="round" stroke-linejoin="round" fill-opacity="0" stroke="rgb(2,2,2)" stroke-opacity="1" stroke-width="4" d=" M-29.240999221801758,-394.09698486328125 C-60.92599868774414,-361.364013671875 -152.71400451660156,-270.49798583984375 -179.50399780273438,-244.35800170898438 C-214.3820037841797,-210.32699584960938 -326.74700927734375,-88.31600189208984 -371.0570068359375,-53.555999755859375"></path></g><g opacity="1" transform="matrix(1,0,0,1,0,0)"><path stroke-linecap="round" stroke-linejoin="round" fill-opacity="0" stroke="rgb(2,2,2)" stroke-opacity="1" stroke-width="4" d=" M-62.86800003051758,-456.5369873046875 C-94.5530014038086,-423.8039855957031 -199.93299865722656,-317.2860107421875 -226.72300720214844,-291.14599609375 C-261.60101318359375,-257.114990234375 -373.48199462890625,-134.62600708007812 -417.7919921875,-99.86599731445312"></path></g><g opacity="1" transform="matrix(1,0,0,1,0,0)"><path stroke-linecap="round" stroke-linejoin="round" fill-opacity="0" stroke="rgb(2,2,2)" stroke-opacity="1" stroke-width="4" d=" M-123.6760025024414,-487.6709899902344 C-155.36099243164062,-454.93798828125 -247.15199279785156,-364.07501220703125 -273.9419860839844,-337.93499755859375 C-308.82000732421875,-303.90399169921875 -412.8840026855469,-193.04100036621094 -457.1940002441406,-158.281005859375"></path></g><g opacity="1" transform="matrix(1,0,0,1,0,0)"><path stroke-linecap="round" stroke-linejoin="round" fill-opacity="0" stroke="rgb(2,2,2)" stroke-opacity="1" stroke-width="4" d=" M-166.77499389648438,-538.5700073242188 C-198.4600067138672,-505.8370056152344 -294.3699951171875,-410.8630065917969 -321.1600036621094,-384.7229919433594 C-356.0379943847656,-350.6919860839844 -453.6570129394531,-243.36700439453125 -497.9670104980469,-208.60699462890625"></path></g></g></g></g><mask id="__lottie_element_45_1" mask-type="alpha"><use xlink:href="#__lottie_element_45"></use></mask></defs><g clip-path="url(#__lottie_element_2)"><g mask="url(#__lottie_element_45_1)" style="display: block;"><g transform="matrix(1,0,0,1,800,800)" opacity="1"><path fill="rgb(2,2,2)" fill-opacity="1" d=" M-79.29199981689453,-439.69000244140625 C-165.218994140625,-524.833984375 -469.22900390625,-371.3070068359375 -506.34100341796875,-329.4700012207031 C-590.823974609375,-234.22999572753906 -508.47900390625,-188.2100067138672 -422.552001953125,-103.06600189208984 C-376.2349853515625,-57.17100143432617 -252.9429931640625,-77.7979965209961 -227.0449981689453,-134.87399291992188 C-204.89700317382812,-183.68499755859375 -164.19200134277344,-204.2530059814453 -164.19200134277344,-204.2530059814453 C-164.19200134277344,-204.2530059814453 -168.4600067138672,-252.1179962158203 -111.25299835205078,-268.0090026855469 C-22.60300064086914,-292.6340026855469 -30.85700035095215,-391.6960144042969 -79.29199981689453,-439.69000244140625z"></path><g opacity="1" transform="matrix(1,0,0,1,0,0)"></g></g></g><g transform="matrix(0.9783394932746887,-0.2070067971944809,0.2070067971944809,0.9783394932746887,1118.2530517578125,955.3560180664062)" opacity="1" style="display: block;"><g opacity="1" transform="matrix(1,0,0,1,0,0)"><path fill="rgb(255,255,255)" fill-opacity="1" d=" M14.302000045776367,-25.608999252319336 C28.459999084472656,-17.770000457763672 35.58100128173828,-4.370999813079834 27.742000579833984,9.786999702453613 C19.902999877929688,23.94499969482422 0.07400000095367432,33.500999450683594 -14.083999633789062,25.66200065612793 C-28.242000579833984,17.822999954223633 -35.632999420166016,4.086999893188477 -27.79400062561035,-10.071000099182129 C-19.954999923706055,-24.229000091552734 0.14399999380111694,-33.448001861572266 14.302000045776367,-25.608999252319336z"></path><path stroke-linecap="round" stroke-linejoin="round" fill-opacity="0" stroke="rgb(2,2,2)" stroke-opacity="1" stroke-width="4" d=" M14.302000045776367,-25.608999252319336 C28.459999084472656,-17.770000457763672 35.58100128173828,-4.370999813079834 27.742000579833984,9.786999702453613 C19.902999877929688,23.94499969482422 0.07400000095367432,33.500999450683594 -14.083999633789062,25.66200065612793 C-28.242000579833984,17.822999954223633 -35.632999420166016,4.086999893188477 -27.79400062561035,-10.071000099182129 C-19.954999923706055,-24.229000091552734 0.14399999380111694,-33.448001861572266 14.302000045776367,-25.608999252319336z"></path></g></g><g transform="matrix(0.980098307132721,0.1985127180814743,-0.1985127180814743,0.980098307132721,465.7799987792969,903.4039916992188)" opacity="1" style="display: block;"><g opacity="1" transform="matrix(1,0,0,1,0,0)"><path fill="rgb(245,32,193)" fill-opacity="1" d=" M38.775001525878906,1.8170000314712524 C24.8799991607666,11.064000129699707 11.76200008392334,25.097000122070312 2.878000020980835,42.733001708984375 C-0.6520000100135803,49.73899841308594 -3.683000087738037,56.25600051879883 -10.156000137329102,56.558998107910156 C-20.3439998626709,57.03499984741211 -32.04899978637695,54.32899856567383 -40.3380012512207,46.595001220703125 C-49.84000015258789,37.72999954223633 -46.21900177001953,22.66200065612793 -41.071998596191406,9.819999694824219 C-27.190000534057617,-24.815000534057617 17.08099937438965,-86.66100311279297 40.30799865722656,-39.59000015258789 C45.69900131225586,-28.663999557495117 51.07099914550781,-6.366000175476074 38.775001525878906,1.8170000314712524z"></path></g></g><g style="display: none;"><g><path></path></g></g><g style="display: none;"><g><path></path></g></g><g style="display: none;"><g><path></path></g></g><g transform="matrix(1,0,0,1,800,800)" opacity="1" style="display: block;"><g opacity="1" transform="matrix(1,0,0,1,0,0)"><path fill="rgb(255,212,0)" fill-opacity="1" d=" M-220.1790008544922,203.11900329589844 C-220.1790008544922,203.11900329589844 -179.7989959716797,167.5709991455078 -221.6230010986328,2.686000108718872 C-260.19500732421875,-149.37899780273438 -232.29800415039062,-271.6809997558594 -110.62100219726562,-362.0920104980469 C11.055999755859375,-452.50299072265625 214.46400451660156,-427.0570068359375 318.68798828125,-266.5050048828125 C422.9119873046875,-105.9530029296875 327.1289978027344,59.88399887084961 236.531005859375,124.5780029296875 C145.93299865722656,189.27200317382812 22.392000198364258,215.6230010986328 -14.322999954223633,291.468994140625 C-38.35200119018555,341.1099853515625 -220.1790008544922,203.11900329589844 -220.1790008544922,203.11900329589844z"></path></g></g><g transform="matrix(1,0,0,1,800,800)" opacity="1" style="display: block;"><g opacity="1" transform="matrix(1,0,0,1,0,0)"><path fill="rgb(2,198,128)" fill-opacity="1" d=" M-253.53700256347656,213.17799377441406 C-253.53700256347656,213.17799377441406 -293.1889953613281,191.0489959716797 -273.3789978027344,151.67999267578125 C-253.56900024414062,112.31099700927734 -222.7310028076172,126.28900146484375 -212.75100708007812,132.125 C-202.77099609375,137.96099853515625 22.465999603271484,242.86900329589844 42.547000885009766,267.84698486328125 C62.62799835205078,292.82501220703125 42.08599853515625,335.0899963378906 -4.872000217437744,336.1289978027344 C-19.606000900268555,336.4549865722656 -75.36900329589844,310.3330078125 -130.8209991455078,281.70098876953125 C-184.56399536132812,253.95199584960938 -238.01499938964844,223.8459930419922 -253.53700256347656,213.17799377441406z"></path></g><g opacity="1" transform="matrix(1,0,0,1,0,0)"><path fill="rgb(2,198,128)" fill-opacity="1" d=" M-293.2229919433594,292.0450134277344 C-293.2229919433594,292.0450134277344 -332.875,269.9159851074219 -313.06500244140625,230.5469970703125 C-293.2550048828125,191.17799377441406 -262.4169921875,205.15699768066406 -252.43699645996094,210.9929962158203 C-242.45700073242188,216.82899475097656 -17.219999313354492,321.7359924316406 2.8610000610351562,346.7139892578125 C22.941999435424805,371.6919860839844 2.4000000953674316,413.9570007324219 -44.55799865722656,414.9960021972656 C-73.5719985961914,415.63800048828125 -261.68499755859375,313.718994140625 -293.2229919433594,292.0450134277344z"></path></g><g opacity="1" transform="matrix(1,0,0,1,0,0)"><path fill="rgb(2,2,2)" fill-opacity="1" d=" M-280.42498779296875,396.8349914550781 C-280.42498779296875,396.8349914550781 -302.1780090332031,383.802001953125 -283.18798828125,346.0639953613281 C-264.197998046875,308.32598876953125 -246.75999450683594,315.625 -241.3280029296875,319.13800048828125 C-235.89599609375,322.6510009765625 -108.98699951171875,378.4289855957031 -100.19000244140625,397.114013671875 C-91.39299774169922,415.79901123046875 -111.31600189208984,456.1969909667969 -141.46499633789062,464.6730041503906 C-160.09300231933594,469.9100036621094 -263.7799987792969,410.7749938964844 -280.42498779296875,396.8349914550781z"></path></g></g><g mask="url(#__lottie_element_21_1)" style="display: block;"><g transform="matrix(1,0,0,1,743.8670043945312,771.3989868164062)" opacity="1"><g opacity="1" transform="matrix(1,0,0,1,0,0)"><path stroke-linecap="round" stroke-linejoin="round" fill-opacity="0" stroke="rgb(2,2,2)" stroke-opacity="1" stroke-width="4" d=" M-12.58899974822998,332.3580017089844 C-43.388999938964844,317.5090026855469 -84.2509994506836,299.8169860839844 -139.7030029296875,271.18499755859375"></path></g></g></g><g mask="url(#__lottie_element_15_1)" style="display: none;"><g><g><path stroke-linecap="round" stroke-linejoin="round" fill-opacity="0"></path></g></g></g><g transform="matrix(1,0,0,1,805.0369873046875,791.2919921875)" opacity="1" style="display: block;"><g opacity="1" transform="matrix(1,0,0,1,0,0)"><path fill="rgb(255,255,255)" fill-opacity="1" d=" M-44.21500015258789,-316.7250061035156 C-44.21500015258789,-316.7250061035156 -59.1510009765625,-347.8680114746094 -4.749000072479248,-367.2019958496094 C54.24300003051758,-388.1679992675781 109.40599822998047,-375.29901123046875 110.6989974975586,-352.2090148925781 C111.99199676513672,-329.1189880371094 98.51499938964844,-323.5429992675781 56.430999755859375,-323.0719909667969 C-12.91100025177002,-322.2959899902344 -23.04800033569336,-295.59100341796875 -44.21500015258789,-316.7250061035156z"></path></g></g><g transform="matrix(1,0,0,1,804.5230102539062,791.7630004882812)" opacity="1" style="display: block;"><g opacity="1" transform="matrix(1,0,0,1,0,0)"><path fill="rgb(255,255,255)" fill-opacity="1" d=" M-138.5800018310547,-263.78900146484375 C-138.5800018310547,-263.78900146484375 -133.1840057373047,-253.11300659179688 -112.02100372314453,-266.8940124511719 C-90.85800170898438,-280.67498779296875 -82.7239990234375,-291.56201171875 -91.30500030517578,-305.6029968261719 C-99.88600158691406,-319.6440124511719 -128.5760040283203,-301.8919982910156 -137.08200073242188,-288.7170104980469 C-145.58799743652344,-275.5419921875 -142.03199768066406,-267.7130126953125 -138.5800018310547,-263.78900146484375z"></path></g></g><g transform="matrix(0.8910065293312073,0.45399048924446106,-0.45399048924446106,0.8910065293312073,812.958984375,810.4550170898438)" opacity="1" style="display: block;"><g opacity="1" transform="matrix(1,0,0,1,0,0)"><path stroke-linecap="round" stroke-linejoin="round" fill-opacity="0" stroke="rgb(2,2,2)" stroke-opacity="1" stroke-width="4" d=" M-63.81399917602539,203.22300720214844 C-63.81399917602539,203.22300720214844 -36.31700134277344,-83.43399810791016 -74.20700073242188,-121.37699890136719 C-112.09600067138672,-159.32000732421875 -149.60000610351562,-98.73999786376953 -105.85399627685547,-63.33599853515625 C-62.108001708984375,-27.93199920654297 34.86800003051758,-40.85100173950195 66.43299865722656,-50.50899887084961 C115.78099822998047,-65.60800170898438 107.12899780273438,-145.2010040283203 56.86600112915039,-117.5719985961914 C-12.711999893188477,-79.3270034790039 31.60700035095215,204.52999877929688 31.60700035095215,204.52999877929688"></path></g></g></g></svg>