<svg xmlns="http://www.w3.org/2000/svg" xmlns:xlink="http://www.w3.org/1999/xlink" viewBox="0 0 1080 1080" width="1080" height="1080" preserveAspectRatio="xMidYMid meet" style="width: 100%; height: 100%; transform: translate3d(0px, 0px, 0px); content-visibility: visible;"><defs><clipPath id="__lottie_element_2"><rect width="1080" height="1080" x="0" y="0"></rect></clipPath></defs><g clip-path="url(#__lottie_element_2)"><g id="232" style="display: none;"><g><path></path><path stroke-linecap="round" stroke-linejoin="miter" fill-opacity="0" stroke-miterlimit="4"></path></g></g><g id="233" style="display: none;"><g><path></path><path stroke-linecap="round" stroke-linejoin="miter" fill-opacity="0" stroke-miterlimit="4"></path></g></g><g id="234" style="display: none;"><g><path></path><path stroke-linecap="round" stroke-linejoin="miter" fill-opacity="0" stroke-miterlimit="4"></path></g></g><g id="235" style="display: none;"><g><path></path><path stroke-linecap="round" stroke-linejoin="miter" fill-opacity="0" stroke-miterlimit="4"></path></g></g><g id="236" style="display: none;"><g><path></path><path stroke-linecap="round" stroke-linejoin="miter" fill-opacity="0" stroke-miterlimit="4"></path></g></g><g id="237" style="display: none;"><g><path></path><path stroke-linecap="round" stroke-linejoin="miter" fill-opacity="0" stroke-miterlimit="4"></path></g></g><g id="238" style="display: none;"><g><path></path><path stroke-linecap="round" stroke-linejoin="miter" fill-opacity="0" stroke-miterlimit="4"></path></g></g><g id="185" transform="matrix(0,0,0,0,475.51263427734375,568.3245849609375)" opacity="1" style="display: block;"><g opacity="1" transform="matrix(1,0,0,1,141.43600463867188,115.5719985961914)"><path fill="rgb(228,101,87)" fill-opacity="1" d=" M129.42300415039062,28.371999740600586 C109.6500015258789,2.631999969482422 91.63500213623047,-24.434999465942383 72.61599731445312,-50.73500061035156 C76.1969985961914,-55.808998107910156 141.18600463867188,-115.3219985961914 125.30799865722656,-113.51899719238281 C96.23300170898438,-108.73899841308594 61.76900100708008,-109.55599975585938 36.8489990234375,-105.3479995727539 C14.769000053405762,-120.55699920654297 -28.68199920654297,-171.7030029296875 -28.68199920654297,-171.7030029296875 C-28.68199920654297,-171.7030029296875 -44.23099899291992,-92.55599975585938 -51.268001556396484,-68.3030014038086 C-57.095001220703125,-67.38300323486328 -141.18600463867188,-65.37699890136719 -129.96299743652344,-54.34000015258789 C-103.77200317382812,-48.189998626708984 -75.41999816894531,-47.89899826049805 -51.457000732421875,-34.499000549316406 C-75.96900177001953,-8.538999557495117 -99.71700286865234,19.082000732421875 -115.45899963378906,51.37900161743164 C-117.64299774169922,55.63600158691406 -124.93299865722656,75.08999633789062 -115.81500244140625,73.83699798583984 C-95.53199768066406,59.85300064086914 -74.22200012207031,47.395999908447266 -53.14899826049805,34.650001525878906 C-40.80799865722656,27.176000595092773 -30.89699935913086,16.106000900268555 -17.916000366210938,9.64799976348877 C0.4580000042915344,31.791000366210938 7.824999809265137,60.500999450683594 21.42099952697754,85.46700286865234 C25.621000289916992,94.31300354003906 29.13800048828125,103.45800018310547 32.25699996948242,112.73699951171875 C33.125999450683594,115.3219985961914 37.21200180053711,115.00800323486328 37.16699981689453,112.0719985961914 C37.06800079345703,105.47899627685547 37.46500015258789,98.875 37.90299987792969,92.30000305175781 C39.757999420166016,63.263999938964844 43.75600051879883,34.41400146484375 45.73400115966797,5.3979997634887695 C62.79600143432617,6.874000072479248 78.10099792480469,15.564000129699707 94.16500091552734,20.777000427246094 C99.49299621582031,21.38800048828125 132.9199981689453,42.08000183105469 129.42300415039062,28.371999740600586z"></path></g></g><g id="186" transform="matrix(0,0,0,0,471.9628601074219,569.3787231445312)" opacity="1" style="display: block;"><g opacity="1" transform="matrix(1,0,0,1,161.5850067138672,124.81199645996094)"><path stroke-linecap="round" stroke-linejoin="round" fill-opacity="0" stroke="rgb(22,22,22)" stroke-opacity="1" stroke-width="8" d=" M-32.2869987487793,-146.4040069580078 C-32.2869987487793,-146.4040069580078 -47.79100036621094,-47.805999755859375 -47.79100036621094,-47.805999755859375 C-47.79100036621094,-47.805999755859375 -118.15799713134766,-41.64699935913086 -125.94100189208984,-36.9640007019043 C-113.52200317382812,-30.90999984741211 -62.54499816894531,-13.097999572753906 -48.77399826049805,-12.199999809265137 C-102.67400360107422,67.3489990234375 -141.58399963378906,101.04299926757812 -61.222999572753906,54.58599853515625 C-45.42499923706055,45.45399856567383 -19.802000045776367,26.06999969482422 -8.475000381469727,23.816999435424805 C8.645999908447266,51.57400131225586 11.491000175476074,79.93099975585938 34.01300048828125,104.81099700927734 C43.83000183105469,89.43299865722656 43.22200012207031,31.76300048828125 48.35599899291992,17.586000442504883 C79.68900299072266,19.124000549316406 111.9229965209961,30.243999481201172 141.5850067138672,37.6879997253418 C134.41200256347656,28.385000228881836 86.6780014038086,-7.914999961853027 77.04100036621094,-24.722999572753906 C73.07499694824219,-31.77400016784668 72.24500274658203,-29.240999221801758 77.03199768066406,-36.24100112915039 C89.71700286865234,-54.79100036621094 109.6709976196289,-87.19200134277344 123.5979995727539,-104.81099700927734 C98.65499877929688,-99.8550033569336 60.0260009765625,-79.93399810791016 41.36600112915039,-74.48200225830078 C41.36600112915039,-74.48200225830078 -32.2869987487793,-146.4040069580078 -32.2869987487793,-146.4040069580078z"></path></g></g><g id="187" transform="matrix(0.9945219159126282,-0.10452846437692642,0.10452846437692642,0.9945219159126282,377.5807189941406,486.5741882324219)" opacity="1" style="display: block;"><g opacity="1" transform="matrix(1,0,0,1,76.91200256347656,61.76599884033203)"><path stroke-linecap="round" stroke-linejoin="round" fill-opacity="0" stroke="rgb(0,0,0)" stroke-opacity="1" stroke-width="8" d=" M49.96099853515625,-41.76599884033203 C56.9119987487793,-28.007999420166016 46.97999954223633,-7.211999893188477 41.25600051879883,-1.7999999523162842 C29.961000442504883,8.881999969482422 16.472000122070312,15.60200023651123 2.5209999084472656,22.663000106811523 C-33.060001373291016,40.67100143432617 -46.84600067138672,38.84600067138672 -56.9119987487793,41.76599884033203"></path></g></g><g id="188" transform="matrix(0.258819043636322,-0.9659258127212524,0.9659258127212524,0.258819043636322,266.8930969238281,632.8060302734375)" opacity="1" style="display: block;"><g opacity="1" transform="matrix(1,0,0,1,70.94599914550781,70.94499969482422)"><path fill="rgb(244,213,179)" fill-opacity="1" d=" M50.60900115966797,-0.6079999804496765 C50.94499969482422,27.343000411987305 28.55900001525879,50.27399826049805 0.6069999933242798,50.60900115966797 C-27.3439998626709,50.94499969482422 -50.27299880981445,28.558000564575195 -50.60900115966797,0.6079999804496765 C-50.94499969482422,-27.343000411987305 -28.55900001525879,-50.27399826049805 -0.6079999804496765,-50.61000061035156 C27.3439998626709,-50.94499969482422 50.27299880981445,-28.55900001525879 50.60900115966797,-0.6079999804496765z"></path><path stroke-linecap="butt" stroke-linejoin="miter" fill-opacity="0" stroke-miterlimit="10" stroke="rgb(0,0,0)" stroke-opacity="1" stroke-width="8" d=" M50.60900115966797,-0.6079999804496765 C50.94499969482422,27.343000411987305 28.55900001525879,50.27399826049805 0.6069999933242798,50.60900115966797 C-27.3439998626709,50.94499969482422 -50.27299880981445,28.558000564575195 -50.60900115966797,0.6079999804496765 C-50.94499969482422,-27.343000411987305 -28.55900001525879,-50.27399826049805 -0.6079999804496765,-50.61000061035156 C27.3439998626709,-50.94499969482422 50.27299880981445,-28.55900001525879 50.60900115966797,-0.6079999804496765z"></path></g><g opacity="1" transform="matrix(1,0,0,1,82.97200012207031,130.0780029296875)"><path fill="rgb(244,213,179)" fill-opacity="1" d=" M-56.23099899291992,-34.67300033569336 C-56.23099899291992,-34.67300033569336 -4.63100004196167,67.43199920654297 25.801000595092773,62.76599884033203 C56.23099899291992,58.10200119018555 52.98099899291992,38.185001373291016 52.98099899291992,38.185001373291016 C52.98099899291992,38.185001373291016 51.606998443603516,17.871999740600586 48.09299850463867,7.372000217437744 C44.577999114990234,-3.127000093460083 38.111000061035156,-67.43199920654297 38.111000061035156,-67.43199920654297"></path><path stroke-linecap="butt" stroke-linejoin="miter" fill-opacity="0" stroke-miterlimit="10" stroke="rgb(0,0,0)" stroke-opacity="1" stroke-width="8" d=" M-56.23099899291992,-34.67300033569336 C-56.23099899291992,-34.67300033569336 -4.63100004196167,67.43199920654297 25.801000595092773,62.76599884033203 C56.23099899291992,58.10200119018555 52.98099899291992,38.185001373291016 52.98099899291992,38.185001373291016 C52.98099899291992,38.185001373291016 51.606998443603516,17.871999740600586 48.09299850463867,7.372000217437744 C44.577999114990234,-3.127000093460083 38.111000061035156,-67.43199920654297 38.111000061035156,-67.43199920654297"></path></g></g><g id="189" transform="matrix(0.9945219159126282,-0.10452846437692642,0.10452846437692642,0.9945219159126282,133.58827209472656,372.2621154785156)" opacity="1" style="display: block;"><g opacity="1" transform="matrix(1,0,0,1,287.9570007324219,126.5770034790039)"><path fill="rgb(244,213,179)" fill-opacity="1" d=" M3.25,-79.81600189208984 C3.25,-79.81600189208984 -50.566001892089844,-100.22899627685547 -66.18499755859375,-97.6780014038086 C-66.18499755859375,-97.6780014038086 -69.39600372314453,-85.75599670410156 -63.13800048828125,-15.39799976348877 C-55.125,74.66999816894531 -43.38399887084961,111.33000183105469 -43.38399887084961,111.33000183105469 C-33.362998962402344,108.26300048828125 -11.61299991607666,111.6050033569336 23.697999954223633,93.0739974975586 C37.542999267578125,85.80799865722656 50.930999755859375,78.88899993896484 62.06700134277344,68.04199981689453 C67.71099853515625,62.54499816894531 14.038999557495117,-77.35199737548828 3.25,-79.81600189208984z"></path></g><g opacity="1" transform="matrix(1,0,0,1,166.7050018310547,145.77200317382812)"><path fill="rgb(244,213,179)" fill-opacity="1" d=" M118.78500366210938,-46.0260009765625 C118.78500366210938,-46.0260009765625 85.34400177001953,-123.35900115966797 56.68899917602539,-120.31900024414062 C46.90999984741211,-119.28099822998047 1.4040000438690186,-115.7770004272461 -11.218999862670898,-114.81800079345703 C-30.18899917602539,-113.375 -81.53299713134766,-102.76300048828125 -92.74700164794922,-98.52100372314453 C-102.5979995727539,-94.79499816894531 -141.08900451660156,-89.06500244140625 -155.48599243164062,-85.43499755859375 C-155.48599243164062,-85.43499755859375 -158.531005859375,-18.886999130249023 -148.00599670410156,21.562999725341797 C-137.47999572753906,62.013999938964844 -118.91000366210938,121.18599700927734 -118.91000366210938,121.18599700927734 C-105.79299926757812,112.38999938964844 -83.04100036621094,111.5989990234375 -67.64199829101562,111.58300018310547 C-26.325000762939453,111.54299926757812 -15.052000045776367,119.9209976196289 -7.671000003814697,126.19499969482422 C-5.6570000648498535,127.90899658203125 7.986999988555908,121.29100036621094 22.972999572753906,119.43199920654297 C56.85100173950195,115.22799682617188 81.7030029296875,93.45600128173828 81.7030029296875,93.45600128173828 C94.87899780273438,79.5270004272461 98.72100067138672,79.98699951171875 134.03199768066406,61.45600128173828 C147.8769989013672,54.189998626708984 158.531005859375,26.20800018310547 118.78500366210938,-46.0260009765625z"></path></g><g opacity="1" transform="matrix(1,0,0,1,109.92900085449219,265.6090087890625)"><path stroke-linecap="round" stroke-linejoin="round" fill-opacity="0" stroke="rgb(0,0,0)" stroke-opacity="1" stroke-width="8" d=" M-56.40700149536133,3.255000114440918 C-43.1619987487793,-5.3460001945495605 -20.361000061035156,-4.4770002365112305 -5.001999855041504,-5.590000152587891 C11.819999694824219,-6.372000217437744 41.040000915527344,-1.1080000400543213 56.40700149536133,6.372000217437744"></path></g><g opacity="1" transform="matrix(1,0,0,1,160.06300354003906,40.862998962402344)"><path stroke-linecap="round" stroke-linejoin="round" fill-opacity="0" stroke="rgb(0,0,0)" stroke-opacity="1" stroke-width="8" d=" M71.3280029296875,-15.45300006866455 C61.60100173950195,-14.012999534606934 17.257999420166016,-7.160999774932861 4.620999813079834,-6.386000156402588 C-14.366999626159668,-5.223999977111816 -65.86299896240234,4.627999782562256 -77.13800048828125,8.704999923706055 C-87.04299926757812,12.284000396728516 -125.61399841308594,17.44499969482422 -140.06300354003906,20.86199951171875"></path></g></g><g id="191" transform="matrix(0.9999619722366333,0.008726533502340317,-0.008726533502340317,0.9999619722366333,492.6753234863281,337.0010681152344)" opacity="1" style="display: block;"><g opacity="1" transform="matrix(1,0,0,1,0,0)"><path fill="rgb(244,213,179)" fill-opacity="1" d=" M-129.25,39.25 C-129.25,39.25 -59.25,16.25 -38.5,68 C-29.878999710083008,89.5 -41,94.5 -125.5,91"></path><path stroke-linecap="round" stroke-linejoin="miter" fill-opacity="0" stroke-miterlimit="4" stroke="rgb(0,0,0)" stroke-opacity="1" stroke-width="7" d=" M-129.25,39.25 C-129.25,39.25 -59.25,16.25 -38.5,68 C-29.878999710083008,89.5 -41,94.5 -125.5,91"></path></g><g opacity="1" transform="matrix(1,0,0,1,-130.39500427246094,66.552001953125)"><path fill="rgb(244,213,179)" fill-opacity="1" d=" M0,-23.24799919128418 C12.830571174621582,-23.24799919128418 23.24799919128418,-12.830571174621582 23.24799919128418,0 C23.24799919128418,12.830571174621582 12.830571174621582,23.24799919128418 0,23.24799919128418 C-12.830571174621582,23.24799919128418 -23.24799919128418,12.830571174621582 -23.24799919128418,0 C-23.24799919128418,-12.830571174621582 -12.830571174621582,-23.24799919128418 0,-23.24799919128418z"></path></g></g><g id="192" transform="matrix(0.9980267286300659,0.06279052048921585,-0.06279052048921585,0.9980267286300659,521.6317138671875,369.9557189941406)" opacity="1" style="display: block;"><g opacity="1" transform="matrix(1,0,0,1,0,0)"><path fill="rgb(244,213,179)" fill-opacity="1" d=" M-129.25,39.25 C-129.25,39.25 -59.25,16.25 -38.5,68 C-29.878999710083008,89.5 -41,94.5 -125.5,91"></path><path stroke-linecap="round" stroke-linejoin="miter" fill-opacity="0" stroke-miterlimit="4" stroke="rgb(0,0,0)" stroke-opacity="1" stroke-width="7" d=" M-129.25,39.25 C-129.25,39.25 -59.25,16.25 -38.5,68 C-29.878999710083008,89.5 -41,94.5 -125.5,91"></path></g><g opacity="1" transform="matrix(1,0,0,1,-139.4340057373047,66.05899810791016)"><path fill="rgb(244,213,179)" fill-opacity="1" d=" M0,-23.24799919128418 C12.830571174621582,-23.24799919128418 23.24799919128418,-12.830571174621582 23.24799919128418,0 C23.24799919128418,12.830571174621582 12.830571174621582,23.24799919128418 0,23.24799919128418 C-12.830571174621582,23.24799919128418 -23.24799919128418,12.830571174621582 -23.24799919128418,0 C-23.24799919128418,-12.830571174621582 -12.830571174621582,-23.24799919128418 0,-23.24799919128418z"></path></g></g><g id="193" transform="matrix(0.9980267882347107,-0.06279052048921585,0.06279052048921585,0.9980267882347107,531.5035400390625,395.6615905761719)" opacity="1" style="display: block;"><g opacity="1" transform="matrix(1,0,0,1,0,0)"><path fill="rgb(244,213,179)" fill-opacity="1" d=" M-129.25,39.25 C-129.25,39.25 -51.60599899291992,13.807000160217285 -38.5,68 C-32.25,93.84400177001953 -36.1609992980957,111.7959976196289 -120.66100311279297,108.2959976196289"></path><path stroke-linecap="round" stroke-linejoin="miter" fill-opacity="0" stroke-miterlimit="4" stroke="rgb(0,0,0)" stroke-opacity="1" stroke-width="7" d=" M-129.25,39.25 C-129.25,39.25 -51.60599899291992,13.807000160217285 -38.5,68 C-32.25,93.84400177001953 -36.1609992980957,111.7959976196289 -120.66100311279297,108.2959976196289"></path></g><g opacity="1" transform="matrix(1,0,0,1,-141.02999877929688,63.319000244140625)"><path fill="rgb(244,213,179)" fill-opacity="1" d=" M0,-23.24799919128418 C12.830571174621582,-23.24799919128418 23.24799919128418,-12.830571174621582 23.24799919128418,0 C23.24799919128418,12.830571174621582 12.830571174621582,23.24799919128418 0,23.24799919128418 C-12.830571174621582,23.24799919128418 -23.24799919128418,12.830571174621582 -23.24799919128418,0 C-23.24799919128418,-12.830571174621582 -12.830571174621582,-23.24799919128418 0,-23.24799919128418z"></path></g></g><g id="194" transform="matrix(0.9205048680305481,-0.3907311260700226,0.3907311260700226,0.9205048680305481,511.51617431640625,421.379150390625)" opacity="1" style="display: block;"><g opacity="1" transform="matrix(1,0,0,1,0,0)"><path fill="rgb(244,213,179)" fill-opacity="1" d=" M-121.14600372314453,28.134000778198242 C-121.14600372314453,28.134000778198242 -46.90800094604492,20.756000518798828 -32.60100173950195,57.255001068115234 C-22.85300064086914,82.12200164794922 -33.45899963378906,117.71900177001953 -117.95899963378906,114.21900177001953"></path><path stroke-linecap="round" stroke-linejoin="miter" fill-opacity="0" stroke-miterlimit="4" stroke="rgb(0,0,0)" stroke-opacity="1" stroke-width="7" d=" M-121.14600372314453,28.134000778198242 C-121.14600372314453,28.134000778198242 -46.90800094604492,20.756000518798828 -32.60100173950195,57.255001068115234 C-22.85300064086914,82.12200164794922 -33.45899963378906,117.71900177001953 -117.95899963378906,114.21900177001953"></path></g><g opacity="1" transform="matrix(1,0,0,1,-130.39500427246094,66.552001953125)"><path fill="rgb(244,213,179)" fill-opacity="1" d=" M0,-36.74800109863281 C20.281221389770508,-36.74800109863281 36.74800109863281,-20.281221389770508 36.74800109863281,0 C36.74800109863281,20.281221389770508 20.281221389770508,36.74800109863281 0,36.74800109863281 C-20.281221389770508,36.74800109863281 -36.74800109863281,20.281221389770508 -36.74800109863281,0 C-36.74800109863281,-20.281221389770508 -20.281221389770508,-36.74800109863281 0,-36.74800109863281z"></path></g></g><g id="195" transform="matrix(0.9945219159126282,-0.10452846437692642,0.10452846437692642,0.9945219159126282,278.1549072265625,487.9405212402344)" opacity="1" style="display: block;"><g opacity="1" transform="matrix(1,0,0,1,88.38200378417969,8.579999923706055)"><path fill="rgb(21,21,21)" fill-opacity="1" d=" M11.593000411987305,-6.890999794006348 C9.866999626159668,-7.894999980926514 8.022000312805176,-8.331000328063965 6.048999786376953,-7.791999816894531 C4.4070000648498535,-7.3420000076293945 2.938999891281128,-6.517000198364258 1.3329999446868896,-5.96999979019165 C1.1469999551773071,-5.906000137329102 0.9710000157356262,-5.817999839782715 0.8080000281333923,-5.708000183105469 C-2.506999969482422,-4.044000148773193 -5.989999771118164,-2.7320001125335693 -9.065999984741211,-0.6169999837875366 C-10.107000350952148,0.10000000149011612 -11.180000305175781,0.9490000009536743 -11.890999794006348,2.003999948501587 C-13.055000305175781,3.7330000400543213 -12.878000259399414,5.948999881744385 -11.17300033569336,7.242000102996826 C-9.736000061035156,8.331000328063965 -7.465000152587891,8.267000198364258 -5.770999908447266,8.081999778747559 C-4.558000087738037,7.952000141143799 -3.3499999046325684,7.554999828338623 -2.2079999446868896,7.140999794006348 C0.5960000157356262,6.125 3.23799991607666,4.625 5.734000205993652,3.009999990463257 C8.088000297546387,1.4880000352859497 10.699999809265137,-0.3580000102519989 12.220999717712402,-2.76200008392334 C13.01099967956543,-4.008999824523926 13.055000305175781,-6.039999961853027 11.593000411987305,-6.890999794006348z"></path></g><g opacity="1" transform="matrix(1,0,0,1,12.894000053405762,12.765999794006348)"><path fill="rgb(21,21,21)" fill-opacity="1" d=" M-12.430000305175781,-5.02400016784668 C-12.177000045776367,-3.0429999828338623 -11.402000427246094,-1.312999963760376 -9.77400016784668,-0.07500000298023224 C-8.418999671936035,0.9559999704360962 -6.869999885559082,1.61899995803833 -5.461999893188477,2.561000108718872 C-5.296000003814697,2.671999931335449 -5.11899995803833,2.75600004196167 -4.934000015258789,2.819000005722046 C-1.5959999561309814,4.439000129699707 1.5640000104904175,6.406000137329102 5.11299991607666,7.560999870300293 C6.315000057220459,7.953000068664551 7.64300012588501,8.288000106811523 8.913000106811523,8.211000442504883 C10.991999626159668,8.083999633789062 12.645000457763672,6.59499979019165 12.633000373840332,4.454999923706055 C12.62399959564209,2.6519999504089355 11.190999984741211,0.8880000114440918 10.015999794006348,-0.3449999988079071 C9.17300033569336,-1.2269999980926514 8.12399959564209,-1.9450000524520874 7.099999904632568,-2.5999999046325684 C4.590000152587891,-4.208000183105469 1.7929999828338623,-5.39300012588501 -1.0069999694824219,-6.39300012588501 C-3.6470000743865967,-7.336999893188477 -6.701000213623047,-8.288000106811523 -9.53499984741211,-8.034000396728516 C-11.005000114440918,-7.9019999504089355 -12.645000457763672,-6.702000141143799 -12.430000305175781,-5.02400016784668z"></path></g><g opacity="1" transform="matrix(1,0,0,1,50.09299850463867,40.09199905395508)"><path stroke-linecap="round" stroke-linejoin="round" fill-opacity="0" stroke="rgb(22,22,22)" stroke-opacity="1" stroke-width="8" d=" M14.779000282287598,-1.2760000228881836 C10.651000022888184,-1.3480000495910645 10.241000175476074,-0.9610000252723694 2.184999942779541,-0.43799999356269836 C-7.289000034332275,0.17800000309944153 -5.800000190734863,-0.05700000002980232 -8.13700008392334,0.18700000643730164"></path></g><g opacity="1" transform="matrix(1,0,0,1,49.26300048828125,16.92300033569336)"><path fill="rgb(21,21,21)" fill-opacity="1" d=" M2.4040000438690186,-1.6180000305175781 C2.4040000438690186,-1.6180000305175781 -1.6349999904632568,-2.553999900817871 -3.128999948501587,-2.1640000343322754 C-4.624000072479248,-1.7740000486373901 -5.734000205993652,1.2660000324249268 -3.3589999675750732,1.909999966621399 C-0.9860000014305115,2.553999900817871 5.734000205993652,1.7280000448226929 5.539000034332275,0.10199999809265137 C5.539000034332275,0.10199999809265137 5.270999908447266,-1.406999945640564 2.4040000438690186,-1.6180000305175781z"></path></g></g><g id="196" transform="matrix(0.9945219159126282,-0.10452846437692642,0.10452846437692642,0.9945219159126282,380.9283752441406,532.8035278320312)" opacity="1" style="display: block;"><g opacity="1" transform="matrix(1,0,0,1,50.22700119018555,38.33100128173828)"><path stroke-linecap="round" stroke-linejoin="round" fill-opacity="0" stroke="rgb(0,0,0)" stroke-opacity="1" stroke-width="8" d=" M-30.226999282836914,18.33099937438965 C-27.26799964904785,10.170999526977539 -21.476999282836914,3.499000072479248 -11.543999671936035,-1.0470000505447388 C-2.5999999046325684,-5.947000026702881 20.479999542236328,-16.238000869750977 30.226999282836914,-18.33099937438965"></path></g></g><g id="220" style="display: none;"><g><path></path><path stroke-linecap="round" stroke-linejoin="miter" fill-opacity="0" stroke-miterlimit="4"></path></g></g><g id="223" style="display: none;"><g><path></path><path stroke-linecap="round" stroke-linejoin="miter" fill-opacity="0" stroke-miterlimit="4"></path></g></g><g id="224" style="display: none;"><g><path></path><path stroke-linecap="round" stroke-linejoin="miter" fill-opacity="0" stroke-miterlimit="4"></path></g></g><g id="225" style="display: none;"><g><path></path><path stroke-linecap="round" stroke-linejoin="miter" fill-opacity="0" stroke-miterlimit="4"></path></g></g><g id="226" style="display: none;"><g><path></path><path stroke-linecap="round" stroke-linejoin="miter" fill-opacity="0" stroke-miterlimit="4"></path></g></g><g id="231" style="display: none;"><g><path></path><path stroke-linecap="round" stroke-linejoin="miter" fill-opacity="0" stroke-miterlimit="4"></path></g></g><g id="227" style="display: none;"><g><path></path><path stroke-linecap="round" stroke-linejoin="miter" fill-opacity="0" stroke-miterlimit="4"></path></g></g><g id="197" transform="matrix(0,0,0,0,600.4442138671875,384.20257568359375)" opacity="1" style="display: block;"><g opacity="1" transform="matrix(1,0,0,1,168.2830047607422,116.76899719238281)"><path fill="rgb(129,213,114)" fill-opacity="1" d=" M44.64099884033203,-80.55599975585938 C32.13600158691406,-56.196998596191406 12.119999885559082,-27.023000717163086 -17.68400001525879,-23.558000564575195 C-43.29600143432617,-20.58099937438965 -62.49300003051758,-41.35200119018555 -81.77999877929688,-56.17100143432617 C-52.52299880981445,-25.80299949645996 -80.5009994506836,43.5989990234375 -119.35600280761719,37.74599838256836 C-98.61399841308594,38.0629997253418 -25.27400016784668,43.520999908447266 -63.233001708984375,116.81400299072266 C-63.233001708984375,116.81400299072266 -6.565000057220459,32.27399826049805 50.9630012512207,108.76300048828125 C57.375,60.16899871826172 42.595001220703125,29.756000518798828 122.87999725341797,11.041999816894531 C77.0780029296875,3.9189999103546143 69.41300201416016,6.415999889373779 57.849998474121094,-0.7429999709129333 C36.400001525878906,-14.024999618530273 43.40800094604492,-55.54499816894531 44.64099884033203,-80.55599975585938z"></path></g></g><g id="198" transform="matrix(0,0,0,0,595.7015991210938,384.1558837890625)" opacity="1" style="display: block;"><g opacity="1" transform="matrix(1,0,0,1,168.2830047607422,116.76899719238281)"><path stroke-linecap="round" stroke-linejoin="round" fill-opacity="0" stroke="rgb(22,22,22)" stroke-opacity="1" stroke-width="8" d=" M63.48099899291992,-70.51000213623047 C46.5880012512207,-48.96099853515625 21.408000946044922,-24.10700035095215 -8.512999534606934,-26.349000930786133 C-34.224998474121094,-28.275999069213867 -49.14099884033203,-52.30699920654297 -65.27100372314453,-70.51000213623047 C-42.29499816894531,-35.150001525878906 -82.91200256347656,27.695999145507812 -119.9540023803711,14.58899974822998 C-99.64900207519531,18.82900047302246 -28.66900062561035,38.07899856567383 -79.8239974975586,102.85700225830078 C-79.8239974975586,102.85700225830078 -8.168999671936035,30.57900047302246 33.83100128173828,116.5790023803711 C49.33100128173828,70.0790023803711 40.577999114990234,37.41699981689453 122.9540023803711,34.24800109863281 C79.33100128173828,18.57900047302246 71.33100128173828,19.57900047302246 61.33300018310547,10.359000205993652 C42.78799819946289,-6.74399995803833 57.53300094604492,-46.185001373291016 63.48099899291992,-70.51000213623047z"></path></g></g><g id="199" transform="matrix(0.24192190170288086,-0.9702957272529602,0.9702957272529602,0.24192190170288086,547.7208251953125,470.88861083984375)" opacity="1" style="display: block;"><g opacity="1" transform="matrix(1,0,0,1,77.7699966430664,155.4770050048828)"><path fill="rgb(205,153,120)" fill-opacity="1" d=" M-45.270999908447266,-22.631999969482422 C-32.77199935913086,-47.63399887084961 -2.371000051498413,-57.77000045776367 22.631999969482422,-45.27199935913086 C47.6349983215332,-32.77399826049805 57.770999908447266,-2.372999906539917 45.270999908447266,22.631000518798828 C32.77299880981445,47.63399887084961 2.371999979019165,57.77000045776367 -22.6299991607666,45.27199935913086 C-47.632999420166016,32.77199935913086 -57.770999908447266,2.371000051498413 -45.270999908447266,-22.631999969482422z"></path><path stroke-linecap="butt" stroke-linejoin="miter" fill-opacity="0" stroke-miterlimit="10" stroke="rgb(0,0,0)" stroke-opacity="1" stroke-width="8" d=" M-45.270999908447266,-22.631999969482422 C-32.77199935913086,-47.63399887084961 -2.371000051498413,-57.77000045776367 22.631999969482422,-45.27199935913086 C47.6349983215332,-32.77399826049805 57.770999908447266,-2.372999906539917 45.270999908447266,22.631000518798828 C32.77299880981445,47.63399887084961 2.371999979019165,57.77000045776367 -22.6299991607666,45.27199935913086 C-47.632999420166016,32.77199935913086 -57.770999908447266,2.371000051498413 -45.270999908447266,-22.631999969482422z"></path></g><g opacity="1" transform="matrix(1,0,0,1,79.2699966430664,86.98500061035156)"><path fill="rgb(205,153,120)" fill-opacity="1" d=" M48.999000549316406,66.98500061035156 C48.999000549316406,66.98500061035156 49.87300109863281,-47.41299819946289 20.683000564575195,-57.19900131225586 C-8.508000373840332,-66.98500061035156 -14.736000061035156,-47.79100036621094 -14.736000061035156,-47.79100036621094 C-14.736000061035156,-47.79100036621094 -22.81599998474121,-29.101999282836914 -24.49799919128418,-18.158000946044922 C-26.180999755859375,-7.214000225067139 -49.87300109863281,52.91400146484375 -49.87300109863281,52.91400146484375"></path><path stroke-linecap="butt" stroke-linejoin="miter" fill-opacity="0" stroke-miterlimit="10" stroke="rgb(0,0,0)" stroke-opacity="1" stroke-width="8" d=" M48.999000549316406,66.98500061035156 C48.999000549316406,66.98500061035156 49.87300109863281,-47.41299819946289 20.683000564575195,-57.19900131225586 C-8.508000373840332,-66.98500061035156 -14.736000061035156,-47.79100036621094 -14.736000061035156,-47.79100036621094 C-14.736000061035156,-47.79100036621094 -22.81599998474121,-29.101999282836914 -24.49799919128418,-18.158000946044922 C-26.180999755859375,-7.214000225067139 -49.87300109863281,52.91400146484375 -49.87300109863281,52.91400146484375"></path></g></g><g id="200" transform="matrix(-0.8910065293312073,-0.45399048924446106,0.45399048924446106,-0.8910065293312073,791.8675537109375,733.16796875)" opacity="1" style="display: block;"><g opacity="1" transform="matrix(1,0,0,1,287.9570007324219,126.5770034790039)"><path fill="rgb(205,153,120)" fill-opacity="1" d=" M3.25,-79.81600189208984 C3.25,-79.81600189208984 -50.566001892089844,-100.22899627685547 -66.18499755859375,-97.6780014038086 C-66.18499755859375,-97.6780014038086 -69.39600372314453,-85.75599670410156 -63.13800048828125,-15.39799976348877 C-55.125,74.66999816894531 -43.38399887084961,111.33000183105469 -43.38399887084961,111.33000183105469 C-33.362998962402344,108.26300048828125 -11.61299991607666,111.6050033569336 23.697999954223633,93.0739974975586 C37.542999267578125,85.80799865722656 50.930999755859375,78.88899993896484 62.06700134277344,68.04199981689453 C67.71099853515625,62.54499816894531 14.038999557495117,-77.35199737548828 3.25,-79.81600189208984z"></path></g><g opacity="1" transform="matrix(1,0,0,1,166.7050018310547,145.77200317382812)"><path fill="rgb(205,153,120)" fill-opacity="1" d=" M118.78500366210938,-46.0260009765625 C118.78500366210938,-46.0260009765625 85.34400177001953,-123.35900115966797 56.68899917602539,-120.31900024414062 C46.90999984741211,-119.28099822998047 1.4040000438690186,-115.7770004272461 -11.218999862670898,-114.81800079345703 C-30.18899917602539,-113.375 -81.53299713134766,-102.76300048828125 -92.74700164794922,-98.52100372314453 C-102.5979995727539,-94.79499816894531 -141.08900451660156,-89.06500244140625 -155.48599243164062,-85.43499755859375 C-155.48599243164062,-85.43499755859375 -158.531005859375,-18.886999130249023 -148.00599670410156,21.562999725341797 C-137.47999572753906,62.013999938964844 -118.91000366210938,121.18599700927734 -118.91000366210938,121.18599700927734 C-105.79299926757812,112.38999938964844 -83.04100036621094,111.5989990234375 -67.64199829101562,111.58300018310547 C-26.325000762939453,111.54299926757812 -15.052000045776367,119.9209976196289 -7.671000003814697,126.19499969482422 C-5.6570000648498535,127.90899658203125 7.986999988555908,121.29100036621094 22.972999572753906,119.43199920654297 C56.85100173950195,115.22799682617188 81.7030029296875,93.45600128173828 81.7030029296875,93.45600128173828 C94.87899780273438,79.5270004272461 98.72100067138672,79.98699951171875 134.03199768066406,61.45600128173828 C147.8769989013672,54.189998626708984 158.531005859375,26.20800018310547 118.78500366210938,-46.0260009765625z"></path></g><g opacity="1" transform="matrix(1,0,0,1,109.92900085449219,265.6090087890625)"><path stroke-linecap="round" stroke-linejoin="round" fill-opacity="0" stroke="rgb(0,0,0)" stroke-opacity="1" stroke-width="8" d=" M-56.40700149536133,3.255000114440918 C-43.1619987487793,-5.3460001945495605 -20.361000061035156,-4.4770002365112305 -5.001999855041504,-5.590000152587891 C11.819999694824219,-6.372000217437744 41.040000915527344,-1.1080000400543213 56.40700149536133,6.372000217437744"></path></g><g opacity="1" transform="matrix(1,0,0,1,160.06300354003906,40.862998962402344)"><path stroke-linecap="round" stroke-linejoin="round" fill-opacity="0" stroke="rgb(0,0,0)" stroke-opacity="1" stroke-width="8" d=" M71.3280029296875,-15.45300006866455 C61.60100173950195,-14.012999534606934 17.257999420166016,-7.160999774932861 4.620999813079834,-6.386000156402588 C-14.366999626159668,-5.223999977111816 -65.86299896240234,4.627999782562256 -77.13800048828125,8.704999923706055 C-87.04299926757812,12.284000396728516 -125.61399841308594,17.44499969482422 -140.06300354003906,20.86199951171875"></path></g></g><g id="201" transform="matrix(-0.8338858485221863,-0.5519369840621948,0.5519369840621948,-0.8338858485221863,471.50726318359375,567.1676025390625)" opacity="1" style="display: block;"><g opacity="1" transform="matrix(1,0,0,1,0,0)"><path fill="rgb(205,153,120)" fill-opacity="1" d=" M-129.25,39.25 C-129.25,39.25 -59.25,16.25 -38.5,68 C-29.878999710083008,89.5 -41,94.5 -125.5,91"></path><path stroke-linecap="round" stroke-linejoin="miter" fill-opacity="0" stroke-miterlimit="4" stroke="rgb(0,0,0)" stroke-opacity="1" stroke-width="7" d=" M-129.25,39.25 C-129.25,39.25 -59.25,16.25 -38.5,68 C-29.878999710083008,89.5 -41,94.5 -125.5,91"></path></g><g opacity="1" transform="matrix(1,0,0,1,-130.39500427246094,66.552001953125)"><path fill="rgb(205,153,120)" fill-opacity="1" d=" M0,-23.24799919128418 C12.830571174621582,-23.24799919128418 23.24799919128418,-12.830571174621582 23.24799919128418,0 C23.24799919128418,12.830571174621582 12.830571174621582,23.24799919128418 0,23.24799919128418 C-12.830571174621582,23.24799919128418 -23.24799919128418,12.830571174621582 -23.24799919128418,0 C-23.24799919128418,-12.830571174621582 -12.830571174621582,-23.24799919128418 0,-23.24799919128418z"></path></g></g><g id="202" transform="matrix(-0.8028174638748169,-0.596224844455719,0.596224844455719,-0.8028174638748169,465.1708068847656,523.7587280273438)" opacity="1" style="display: block;"><g opacity="1" transform="matrix(1,0,0,1,0,0)"><path fill="rgb(205,153,120)" fill-opacity="1" d=" M-129.25,39.25 C-129.25,39.25 -59.25,16.25 -38.5,68 C-29.878999710083008,89.5 -41,94.5 -125.5,91"></path><path stroke-linecap="round" stroke-linejoin="miter" fill-opacity="0" stroke-miterlimit="4" stroke="rgb(0,0,0)" stroke-opacity="1" stroke-width="7" d=" M-129.25,39.25 C-129.25,39.25 -59.25,16.25 -38.5,68 C-29.878999710083008,89.5 -41,94.5 -125.5,91"></path></g><g opacity="1" transform="matrix(1,0,0,1,-139.4340057373047,66.05899810791016)"><path fill="rgb(205,153,120)" fill-opacity="1" d=" M0,-23.24799919128418 C12.830571174621582,-23.24799919128418 23.24799919128418,-12.830571174621582 23.24799919128418,0 C23.24799919128418,12.830571174621582 12.830571174621582,23.24799919128418 0,23.24799919128418 C-12.830571174621582,23.24799919128418 -23.24799919128418,12.830571174621582 -23.24799919128418,0 C-23.24799919128418,-12.830571174621582 -12.830571174621582,-23.24799919128418 0,-23.24799919128418z"></path></g></g><g id="203" transform="matrix(-0.8712138533592224,-0.49090376496315,0.49090376496315,-0.8712138533592224,470.8919982910156,496.8233642578125)" opacity="1" style="display: block;"><g opacity="1" transform="matrix(1,0,0,1,0,0)"><path fill="rgb(205,153,120)" fill-opacity="1" d=" M-129.25,39.25 C-129.25,39.25 -51.60599899291992,13.807000160217285 -38.5,68 C-32.25,93.84400177001953 -36.1609992980957,111.7959976196289 -120.66100311279297,108.2959976196289"></path><path stroke-linecap="round" stroke-linejoin="miter" fill-opacity="0" stroke-miterlimit="4" stroke="rgb(0,0,0)" stroke-opacity="1" stroke-width="7" d=" M-129.25,39.25 C-129.25,39.25 -51.60599899291992,13.807000160217285 -38.5,68 C-32.25,93.84400177001953 -36.1609992980957,111.7959976196289 -120.66100311279297,108.2959976196289"></path></g><g opacity="1" transform="matrix(1,0,0,1,-141.02999877929688,63.319000244140625)"><path fill="rgb(205,153,120)" fill-opacity="1" d=" M0,-23.24799919128418 C12.830571174621582,-23.24799919128418 23.24799919128418,-12.830571174621582 23.24799919128418,0 C23.24799919128418,12.830571174621582 12.830571174621582,23.24799919128418 0,23.24799919128418 C-12.830571174621582,23.24799919128418 -23.24799919128418,12.830571174621582 -23.24799919128418,0 C-23.24799919128418,-12.830571174621582 -12.830571174621582,-23.24799919128418 0,-23.24799919128418z"></path></g></g><g id="204" transform="matrix(-0.9848077297210693,-0.1736481636762619,0.1736481636762619,-0.9848077297210693,501.6615905761719,486.14068603515625)" opacity="1" style="display: block;"><g opacity="1" transform="matrix(1,0,0,1,0,0)"><path fill="rgb(205,153,120)" fill-opacity="1" d=" M-121.14600372314453,28.134000778198242 C-121.14600372314453,28.134000778198242 -46.90800094604492,20.756000518798828 -32.60100173950195,57.255001068115234 C-22.85300064086914,82.12200164794922 -33.45899963378906,117.71900177001953 -117.95899963378906,114.21900177001953"></path><path stroke-linecap="round" stroke-linejoin="miter" fill-opacity="0" stroke-miterlimit="4" stroke="rgb(0,0,0)" stroke-opacity="1" stroke-width="7" d=" M-121.14600372314453,28.134000778198242 C-121.14600372314453,28.134000778198242 -46.90800094604492,20.756000518798828 -32.60100173950195,57.255001068115234 C-22.85300064086914,82.12200164794922 -33.45899963378906,117.71900177001953 -117.95899963378906,114.21900177001953"></path></g><g opacity="1" transform="matrix(1,0,0,1,-130.39500427246094,66.552001953125)"><path fill="rgb(205,153,120)" fill-opacity="1" d=" M0,-36.74800109863281 C20.281221389770508,-36.74800109863281 36.74800109863281,-20.281221389770508 36.74800109863281,0 C36.74800109863281,20.281221389770508 20.281221389770508,36.74800109863281 0,36.74800109863281 C-20.281221389770508,36.74800109863281 -36.74800109863281,20.281221389770508 -36.74800109863281,0 C-36.74800109863281,-20.281221389770508 -20.281221389770508,-36.74800109863281 0,-36.74800109863281z"></path></g></g><g id="205" transform="matrix(1,0,0,1,584.9970092773438,380.30499267578125)" opacity="1" style="display: block;"><g opacity="1" transform="matrix(1,0,0,1,0,0)"><path fill="rgb(205,153,120)" fill-opacity="1" d=" M90.75199890136719,20.034000396728516 C90.75199890136719,20.034000396728516 75.93499755859375,28.624000549316406 67.77899932861328,29.04599952697754 C51.00600051879883,29.913999557495117 20.25200080871582,25.784000396728516 20.25200080871582,25.784000396728516 C20.25200080871582,25.784000396728516 95.75199890136719,46.534000396728516 95.75199890136719,46.534000396728516 C95.75199890136719,46.534000396728516 103.00199890136719,25.784000396728516 103.00199890136719,25.784000396728516 C103.00199890136719,25.784000396728516 90.75199890136719,20.034000396728516 90.75199890136719,20.034000396728516z"></path></g><g opacity="1" transform="matrix(1,0,0,1,55.26599884033203,24.59000015258789)"><path stroke-linecap="round" stroke-linejoin="round" fill-opacity="0" stroke="rgb(0,0,0)" stroke-opacity="1" stroke-width="8" d=" M35.26599884033203,-4.590000152587891 C28.89900016784668,1.309999942779541 20.695999145507812,4.590000152587891 9.784000396728516,4.084000110626221 C-0.41100001335144043,4.343999862670898 -25.642000198364258,2.927000045776367 -35.26599884033203,0.3230000138282776"></path></g></g><g id="206" transform="matrix(1,0,0,1,662.532958984375,492.030029296875)" opacity="1" style="display: block;"><g opacity="1" transform="matrix(1,0,0,1,86.65899658203125,20.32200050354004)"><path fill="rgb(21,21,21)" fill-opacity="1" d=" M12.586999893188477,-4.724999904632568 C11.081999778747559,-6.034999847412109 9.35099983215332,-6.810999870300293 7.311999797821045,-6.6539998054504395 C5.613999843597412,-6.521999835968018 4.017000198364258,-5.986999988555908 2.3380000591278076,-5.752999782562256 C2.1419999599456787,-5.724999904632568 1.9539999961853027,-5.671000003814697 1.7730000019073486,-5.59499979019165 C-1.7960000038146973,-4.584000110626221 -5.465000152587891,-3.9509999752044678 -8.883999824523926,-2.453000068664551 C-10.041999816894531,-1.944000005722046 -11.255999565124512,-1.312999963760376 -12.152000427246094,-0.4099999964237213 C-13.621000289916992,1.069000005722046 -13.86299991607666,3.2799999713897705 -12.430999755859375,4.86899995803833 C-11.225000381469727,6.210000038146973 -8.982999801635742,6.572999954223633 -7.284999847412109,6.711999893188477 C-6.068999767303467,6.810999870300293 -4.808000087738037,6.6479997634887695 -3.6080000400543213,6.456999778747559 C-0.6629999876022339,5.98799991607666 2.2130000591278076,5.01200008392334 4.9679999351501465,3.8959999084472656 C7.566999912261963,2.8440001010894775 10.479999542236328,1.524999976158142 12.428000450134277,-0.5519999861717224 C13.437000274658203,-1.628000020980835 13.86299991607666,-3.61299991607666 12.586999893188477,-4.724999904632568z"></path></g><g opacity="1" transform="matrix(1,0,0,1,11.892999649047852,10.170999526977539)"><path fill="rgb(21,21,21)" fill-opacity="1" d=" M-11.517999649047852,-7.36299991607666 C-11.642999649047852,-5.369999885559082 -11.206999778747559,-3.5250000953674316 -9.840999603271484,-2.003000020980835 C-8.704000473022461,-0.7350000143051147 -7.308000087738037,0.20800000429153442 -6.10099983215332,1.399999976158142 C-5.960000038146973,1.5379999876022339 -5.802000045776367,1.6549999713897705 -5.631999969482422,1.7510000467300415 C-2.6589999198913574,3.9700000286102295 0.07400000095367432,6.497000217437744 3.3420000076293945,8.300999641418457 C4.449999809265137,8.91100025177002 5.690000057220459,9.491000175476074 6.952000141143799,9.652999877929688 C9.019000053405762,9.920999526977539 10.920999526977539,8.767999649047852 11.312999725341797,6.664999961853027 C11.642999649047852,4.892000198364258 10.567999839782715,2.8919999599456787 9.645999908447266,1.4579999446868896 C8.984999656677246,0.4339999854564667 8.08899974822998,-0.4699999988079071 7.206999778747559,-1.305999994277954 C5.045000076293945,-3.3580000400543213 2.5199999809265137,-5.047999858856201 -0.04100000113248825,-6.556000232696533 C-2.4570000171661377,-7.980000019073486 -5.276000022888184,-9.489999771118164 -8.107999801635742,-9.77400016784668 C-9.576000213623047,-9.920999526977539 -11.411999702453613,-9.050999641418457 -11.517999649047852,-7.36299991607666z"></path></g><g opacity="1" transform="matrix(1,0,0,1,46.09299850463867,50.68000030517578)"><path stroke-linecap="round" stroke-linejoin="round" fill-opacity="0" stroke="rgb(22,22,22)" stroke-opacity="1" stroke-width="8" d=" M-10.32800006866455,-7.748000144958496 C-4.84499979019165,-6.679999828338623 -10.53600025177002,-7.599999904632568 -0.07500000298023224,-5.826000213623047 C10.161999702453613,-4.089000225067139 7.0370001792907715,-4.931000232696533 10.258999824523926,-3.943000078201294"></path></g><g opacity="1" transform="matrix(1,0,0,1,46.35900115966797,20.990999221801758)"><path fill="rgb(21,21,21)" fill-opacity="1" d=" M2.880000114440918,-1.1169999837875366 C2.880000114440918,-1.1169999837875366 -0.9110000133514404,-2.796999931335449 -2.4519999027252197,-2.694999933242798 C-3.993000030517578,-2.5929999351501465 -5.656000137329102,0.18299999833106995 -3.444000005722046,1.2630000114440918 C-1.2330000400543213,2.3420000076293945 5.520999908447266,2.796999931335449 5.636000156402588,1.1619999408721924 C5.636000156402588,1.1619999408721924 5.656000137329102,-0.3700000047683716 2.880000114440918,-1.1169999837875366z"></path></g></g></g></svg>