<svg xmlns="http://www.w3.org/2000/svg" xmlns:xlink="http://www.w3.org/1999/xlink" viewBox="0 0 1600 1600" width="1600" height="1600" preserveAspectRatio="xMidYMid meet" style="width: 100%; height: 100%; transform: translate3d(0px, 0px, 0px); content-visibility: visible;"><defs><clipPath id="__lottie_element_2"><rect width="1600" height="1600" x="0" y="0"></rect></clipPath><clipPath id="__lottie_element_62"><path d="M0,0 L1600,0 L1600,1600 L0,1600z"></path></clipPath><clipPath id="__lottie_element_78"><path d="M0,0 L1600,0 L1600,1600 L0,1600z"></path></clipPath></defs><g clip-path="url(#__lottie_element_2)"><g clip-path="url(#__lottie_element_78)" transform="matrix(1,0,0,1,0,0)" opacity="1" style="display: block;"><g transform="matrix(1,0,0,1,-77.47500610351562,29.593017578125)" opacity="1" style="display: block;"><g opacity="1" transform="matrix(1,0,0,1,530.3619995117188,532.3109741210938)"><path fill="rgb(255,255,255)" fill-opacity="1" d=" M3.809000015258789,6.004000186920166 C7.125,3.9000000953674316 8.107999801635742,-0.49300000071525574 6.004000186920166,-3.809000015258789 C3.9000000953674316,-7.125 -0.49300000071525574,-8.107999801635742 -3.809000015258789,-6.004000186920166 C-7.125,-3.9000000953674316 -8.107999801635742,0.49300000071525574 -6.004000186920166,3.809000015258789 C-3.9000000953674316,7.125 0.49300000071525574,8.107999801635742 3.809000015258789,6.004000186920166z"></path><path stroke-linecap="round" stroke-linejoin="round" fill-opacity="0" stroke="rgb(32,40,112)" stroke-opacity="1" stroke-width="2" d=" M3.809000015258789,6.004000186920166 C7.125,3.9000000953674316 8.107999801635742,-0.49300000071525574 6.004000186920166,-3.809000015258789 C3.9000000953674316,-7.125 -0.49300000071525574,-8.107999801635742 -3.809000015258789,-6.004000186920166 C-7.125,-3.9000000953674316 -8.107999801635742,0.49300000071525574 -6.004000186920166,3.809000015258789 C-3.9000000953674316,7.125 0.49300000071525574,8.107999801635742 3.809000015258789,6.004000186920166z"></path></g></g><g transform="matrix(1,0,0,1,13.842987060546875,9.454986572265625)" opacity="1" style="display: block;"><g opacity="1" transform="matrix(1,0,0,1,451.49200439453125,491.4110107421875)"><path fill="rgb(132,132,250)" fill-opacity="1" d=" M7.947000026702881,0 C7.947000026702881,-4.388999938964844 4.388999938964844,-7.947000026702881 0,-7.947000026702881 C-4.388999938964844,-7.947000026702881 -7.947000026702881,-4.388999938964844 -7.947000026702881,0 C-7.947000026702881,4.388999938964844 -4.388999938964844,7.947000026702881 0,7.947000026702881 C4.388999938964844,7.947000026702881 7.947000026702881,4.388999938964844 7.947000026702881,0z"></path><path stroke-linecap="round" stroke-linejoin="round" fill-opacity="0" stroke="rgb(32,40,112)" stroke-opacity="1" stroke-width="2" d=" M7.947000026702881,0 C7.947000026702881,-4.388999938964844 4.388999938964844,-7.947000026702881 0,-7.947000026702881 C-4.388999938964844,-7.947000026702881 -7.947000026702881,-4.388999938964844 -7.947000026702881,0 C-7.947000026702881,4.388999938964844 -4.388999938964844,7.947000026702881 0,7.947000026702881 C4.388999938964844,7.947000026702881 7.947000026702881,4.388999938964844 7.947000026702881,0z"></path></g></g><g transform="matrix(1,0,0,1,48.155029296875,25.944000244140625)" opacity="1" style="display: block;"><g opacity="1" transform="matrix(1,0,0,1,1200.3199462890625,195.14599609375)"><path fill="rgb(255,255,255)" fill-opacity="1" d=" M7.110000133514404,0 C7.110000133514404,-3.927000045776367 3.927000045776367,-7.110000133514404 0,-7.110000133514404 C-3.927000045776367,-7.110000133514404 -7.110000133514404,-3.927000045776367 -7.110000133514404,0 C-7.110000133514404,3.927000045776367 -3.927000045776367,7.110000133514404 0,7.110000133514404 C3.927000045776367,7.110000133514404 7.110000133514404,3.927000045776367 7.110000133514404,0z"></path><path stroke-linecap="round" stroke-linejoin="round" fill-opacity="0" stroke="rgb(32,40,112)" stroke-opacity="1" stroke-width="2" d=" M7.110000133514404,0 C7.110000133514404,-3.927000045776367 3.927000045776367,-7.110000133514404 0,-7.110000133514404 C-3.927000045776367,-7.110000133514404 -7.110000133514404,-3.927000045776367 -7.110000133514404,0 C-7.110000133514404,3.927000045776367 -3.927000045776367,7.110000133514404 0,7.110000133514404 C3.927000045776367,7.110000133514404 7.110000133514404,3.927000045776367 7.110000133514404,0z"></path></g></g><g transform="matrix(1,0,0,1,18.7960205078125,20.858993530273438)" opacity="1" style="display: block;"><g opacity="1" transform="matrix(1,0,0,1,1110.1650390625,155.156005859375)"><path stroke-linecap="round" stroke-linejoin="round" fill-opacity="0" stroke="rgb(32,40,112)" stroke-opacity="1" stroke-width="3" d=" M11.711000442504883,0 C11.711000442504883,-6.4679999351501465 6.4679999351501465,-11.711000442504883 0,-11.711000442504883 C-6.4679999351501465,-11.711000442504883 -11.711000442504883,-6.4679999351501465 -11.711000442504883,0 C-11.711000442504883,6.4679999351501465 -6.4679999351501465,11.711000442504883 0,11.711000442504883 C6.4679999351501465,11.711000442504883 11.711000442504883,6.4679999351501465 11.711000442504883,0z"></path><path fill="rgb(255,255,255)" fill-opacity="1" d=" M11.711000442504883,0 C11.711000442504883,-6.4679999351501465 6.4679999351501465,-11.711000442504883 0,-11.711000442504883 C-6.4679999351501465,-11.711000442504883 -11.711000442504883,-6.4679999351501465 -11.711000442504883,0 C-11.711000442504883,6.4679999351501465 -6.4679999351501465,11.711000442504883 0,11.711000442504883 C6.4679999351501465,11.711000442504883 11.711000442504883,6.4679999351501465 11.711000442504883,0z"></path></g></g><g transform="matrix(1,0,0,1,12.7520751953125,-7.14599609375)" opacity="1" style="display: block;"><g opacity="1" transform="matrix(1,0,0,1,1206.990966796875,107.74299621582031)"><path fill="rgb(132,132,250)" fill-opacity="1" d=" M7.947000026702881,0 C7.947000026702881,-4.388999938964844 4.388999938964844,-7.947000026702881 0,-7.947000026702881 C-4.388999938964844,-7.947000026702881 -7.947000026702881,-4.388999938964844 -7.947000026702881,0 C-7.947000026702881,4.388999938964844 -4.388999938964844,7.947000026702881 0,7.947000026702881 C4.388999938964844,7.947000026702881 7.947000026702881,4.388999938964844 7.947000026702881,0z"></path><path stroke-linecap="round" stroke-linejoin="round" fill-opacity="0" stroke="rgb(32,40,112)" stroke-opacity="1" stroke-width="2" d=" M7.947000026702881,0 C7.947000026702881,-4.388999938964844 4.388999938964844,-7.947000026702881 0,-7.947000026702881 C-4.388999938964844,-7.947000026702881 -7.947000026702881,-4.388999938964844 -7.947000026702881,0 C-7.947000026702881,4.388999938964844 -4.388999938964844,7.947000026702881 0,7.947000026702881 C4.388999938964844,7.947000026702881 7.947000026702881,4.388999938964844 7.947000026702881,0z"></path></g></g></g><g clip-path="url(#__lottie_element_62)" transform="matrix(1,0,0,1,0,0)" opacity="1" style="display: block;"><g transform="matrix(1,0,0,1,828.64697265625,347.2266540527344)" opacity="1" style="display: block;"><g opacity="1" transform="matrix(1,0,0,1,0,0)"><path fill="rgb(255,255,255)" fill-opacity="1" d=" M252.54600524902344,0 C252.54600524902344,-139.47799682617188 139.47799682617188,-252.54600524902344 0,-252.54600524902344 C-139.47799682617188,-252.54600524902344 -252.54600524902344,-139.47799682617188 -252.54600524902344,0 C-252.54600524902344,139.47799682617188 -139.47799682617188,252.54600524902344 0,252.54600524902344 C139.47799682617188,252.54600524902344 252.54600524902344,139.47799682617188 252.54600524902344,0z"></path><path stroke-linecap="round" stroke-linejoin="round" fill-opacity="0" stroke="rgb(32,40,112)" stroke-opacity="1" stroke-width="2" d=" M252.54600524902344,0 C252.54600524902344,-139.47799682617188 139.47799682617188,-252.54600524902344 0,-252.54600524902344 C-139.47799682617188,-252.54600524902344 -252.54600524902344,-139.47799682617188 -252.54600524902344,0 C-252.54600524902344,139.47799682617188 -139.47799682617188,252.54600524902344 0,252.54600524902344 C139.47799682617188,252.54600524902344 252.54600524902344,139.47799682617188 252.54600524902344,0z"></path></g></g><g transform="matrix(0.9999281167984009,0.011990789324045181,-0.011990789324045181,0.9999281167984009,2.96539306640625,-6.0312957763671875)" opacity="1" style="display: block;"><g opacity="1" transform="matrix(1,0,0,1,0,0)"><g opacity="1" transform="matrix(0.9997153878211975,0.02385638654232025,-0.02385638654232025,0.9997153878211975,9.17120361328125,-22.840423583984375)"><g opacity="1" transform="matrix(1,0,0,1,961.9539794921875,393.468994140625)"><path fill="rgb(32,40,112)" fill-opacity="1" d=" M0,-19.381000518798828 C0,-19.381000518798828 -11.854999542236328,19.381000518798828 -11.854999542236328,19.381000518798828 C-11.854999542236328,19.381000518798828 11.854999542236328,19.381000518798828 11.854999542236328,19.381000518798828 C11.854999542236328,19.381000518798828 0,-19.381000518798828 0,-19.381000518798828z"></path></g><g opacity="1" transform="matrix(1,0,0,1,961.9539794921875,382.4590148925781)"><path fill="rgb(32,40,112)" fill-opacity="1" d=" M9.630999565124512,0 C9.630999565124512,-5.318999767303467 5.318999767303467,-9.630999565124512 0,-9.630999565124512 C-5.318999767303467,-9.630999565124512 -9.630999565124512,-5.318999767303467 -9.630999565124512,0 C-9.630999565124512,5.318999767303467 -5.318999767303467,9.630999565124512 0,9.630999565124512 C5.318999767303467,9.630999565124512 9.630999565124512,5.318999767303467 9.630999565124512,0z"></path></g></g><g opacity="1" transform="matrix(1,0,0,1,961.9539794921875,307.1830139160156)"><path stroke-linecap="round" stroke-linejoin="round" fill-opacity="0" stroke="rgb(32,40,112)" stroke-opacity="1" stroke-width="2" d=" M0,65.6449966430664 C0,65.6449966430664 0,-65.6449966430664 0,-65.6449966430664"></path></g></g></g><g transform="matrix(1,0,0,1,0,0.485931396484375)" opacity="1" style="display: block;"><g opacity="1" transform="matrix(1,0,0,1,828.64697265625,312.0199890136719)"><path fill="rgb(132,132,250)" fill-opacity="1" d=" M104.36399841308594,-57.808998107910156 C104.36399841308594,-57.808998107910156 -104.36399841308594,-57.808998107910156 -104.36399841308594,-57.808998107910156 C-104.36399841308594,-57.808998107910156 -104.36644744873047,57.25471878051758 -104.36399841308594,57.2529411315918 C-101.53054809570312,58.89509582519531 101.32339477539062,58.85802459716797 104.36399841308594,57.2529411315918 C104.3631820678711,57.245452880859375 104.36399841308594,-57.808998107910156 104.36399841308594,-57.808998107910156z"></path><path stroke-linecap="round" stroke-linejoin="round" fill-opacity="0" stroke="rgb(32,40,112)" stroke-opacity="1" stroke-width="2" d=" M104.36399841308594,-57.808998107910156 C104.36399841308594,-57.808998107910156 -104.36399841308594,-57.808998107910156 -104.36399841308594,-57.808998107910156 C-104.36399841308594,-57.808998107910156 -104.36644744873047,57.25471878051758 -104.36399841308594,57.2529411315918 C-101.53054809570312,58.89509582519531 101.32339477539062,58.85802459716797 104.36399841308594,57.2529411315918 C104.3631820678711,57.245452880859375 104.36399841308594,-57.808998107910156 104.36399841308594,-57.808998107910156z"></path></g><g opacity="1" transform="matrix(1,0,0,1,829.14697265625,243.88099670410156)"><path fill="rgb(132,132,250)" fill-opacity="1" d=" M155.49200439453125,0.18885323405265808 C155.49200439453125,0.18885323405265808 0,64.5542221069336 0,64.5542221069336 C0,64.5542221069336 -155.49200439453125,0.18885323405265808 -155.49200439453125,0.18885323405265808 C-155.49200439453125,0.18885323405265808 0,-64.176513671875 0,-64.176513671875 C0,-64.176513671875 155.49200439453125,0.18885323405265808 155.49200439453125,0.18885323405265808z"></path><path stroke-linecap="round" stroke-linejoin="round" fill-opacity="0" stroke="rgb(32,40,112)" stroke-opacity="1" stroke-width="2" d=" M155.49200439453125,0.18885323405265808 C155.49200439453125,0.18885323405265808 0,64.5542221069336 0,64.5542221069336 C0,64.5542221069336 -155.49200439453125,0.18885323405265808 -155.49200439453125,0.18885323405265808 C-155.49200439453125,0.18885323405265808 0,-64.176513671875 0,-64.176513671875 C0,-64.176513671875 155.49200439453125,0.18885323405265808 155.49200439453125,0.18885323405265808z"></path></g></g><g transform="matrix(1,0,0,1,0,0.2239990234375)" opacity="1" style="display: block;"><g opacity="1" transform="matrix(1,0,0,1,828.64697265625,459.25299072265625)"><path fill="rgb(255,255,255)" fill-opacity="1" d=" M144.34300231933594,26.21500015258789 C144.34300231933594,26.21500015258789 -144.34300231933594,26.21500015258789 -144.34300231933594,26.21500015258789 C-144.34300231933594,26.21500015258789 -144.34300231933594,-26.21500015258789 -144.34300231933594,-26.21500015258789 C-144.34300231933594,-26.21500015258789 144.34300231933594,-26.21500015258789 144.34300231933594,-26.21500015258789 C144.34300231933594,-26.21500015258789 144.34300231933594,26.21500015258789 144.34300231933594,26.21500015258789z"></path><path stroke-linecap="round" stroke-linejoin="round" fill-opacity="0" stroke="rgb(32,40,112)" stroke-opacity="1" stroke-width="2" d=" M144.34300231933594,26.21500015258789 C144.34300231933594,26.21500015258789 -144.34300231933594,26.21500015258789 -144.34300231933594,26.21500015258789 C-144.34300231933594,26.21500015258789 -144.34300231933594,-26.21500015258789 -144.34300231933594,-26.21500015258789 C-144.34300231933594,-26.21500015258789 144.34300231933594,-26.21500015258789 144.34300231933594,-26.21500015258789 C144.34300231933594,-26.21500015258789 144.34300231933594,26.21500015258789 144.34300231933594,26.21500015258789z"></path></g><g opacity="1" transform="matrix(1,0,0,1,828.64697265625,486.70599365234375)"><path fill="rgb(132,132,250)" fill-opacity="1" d=" M18.468914031982422,53.652992248535156 C18.468914031982422,53.652992248535156 9.35535717010498,43.540340423583984 9.330097198486328,43.517005920410156 C9.316720008850098,43.5062141418457 0.0013143914984539151,33.11803436279297 0.0013143914984539151,33.11803436279297 C0.0013143914984539151,33.11803436279297 -9.662907600402832,43.871665954589844 -9.677260398864746,43.89870071411133 C-9.692529678344727,43.923828125 -18.4072322845459,53.660194396972656 -18.4072322845459,53.660194396972656 C-18.4072322845459,53.660194396972656 -18.425527572631836,42.499229431152344 -18.435136795043945,42.46489715576172 C-18.444660186767578,42.43086624145508 -18.441999435424805,27.966999053955078 -18.441999435424805,27.966999053955078 C-18.441999435424805,27.966999053955078 -18.441999435424805,-53.667999267578125 -18.441999435424805,-53.667999267578125 C-18.441999435424805,-53.667999267578125 18.441999435424805,-53.667999267578125 18.441999435424805,-53.667999267578125 C18.441999435424805,-53.667999267578125 18.441999435424805,27.216999053955078 18.441999435424805,27.216999053955078 C18.441999435424805,27.216999053955078 18.441200256347656,40.44026184082031 18.442890167236328,40.46122360229492 C18.446828842163086,40.495582580566406 18.468914031982422,53.652992248535156 18.468914031982422,53.652992248535156z"></path><path stroke-linecap="round" stroke-linejoin="round" fill-opacity="0" stroke="rgb(32,40,112)" stroke-opacity="1" stroke-width="2" d=" M18.468914031982422,53.652992248535156 C18.468914031982422,53.652992248535156 9.35535717010498,43.540340423583984 9.330097198486328,43.517005920410156 C9.316720008850098,43.5062141418457 0.0013143914984539151,33.11803436279297 0.0013143914984539151,33.11803436279297 C0.0013143914984539151,33.11803436279297 -9.662907600402832,43.871665954589844 -9.677260398864746,43.89870071411133 C-9.692529678344727,43.923828125 -18.4072322845459,53.660194396972656 -18.4072322845459,53.660194396972656 C-18.4072322845459,53.660194396972656 -18.425527572631836,42.499229431152344 -18.435136795043945,42.46489715576172 C-18.444660186767578,42.43086624145508 -18.441999435424805,27.966999053955078 -18.441999435424805,27.966999053955078 C-18.441999435424805,27.966999053955078 -18.441999435424805,-53.667999267578125 -18.441999435424805,-53.667999267578125 C-18.441999435424805,-53.667999267578125 18.441999435424805,-53.667999267578125 18.441999435424805,-53.667999267578125 C18.441999435424805,-53.667999267578125 18.441999435424805,27.216999053955078 18.441999435424805,27.216999053955078 C18.441999435424805,27.216999053955078 18.441200256347656,40.44026184082031 18.442890167236328,40.46122360229492 C18.446828842163086,40.495582580566406 18.468914031982422,53.652992248535156 18.468914031982422,53.652992248535156z"></path></g><g opacity="1" transform="matrix(1,0,0,1,828.64697265625,467.27801513671875)"><g opacity="1" transform="matrix(1,0,0,1,0,0)"><path fill="rgb(32,40,112)" fill-opacity="1" d=" M0,-25.71299934387207 C-14.201000213623047,-25.71299934387207 -25.71299934387207,-14.201000213623047 -25.71299934387207,0 C-25.71299934387207,14.201000213623047 -14.201000213623047,25.71299934387207 0,25.71299934387207 C14.201000213623047,25.71299934387207 25.71299934387207,14.201000213623047 25.71299934387207,0 C25.71299934387207,-14.201000213623047 14.201000213623047,-25.71299934387207 0,-25.71299934387207z M0,16.011999130249023 C-8.843000411987305,16.011999130249023 -16.011999130249023,8.843000411987305 -16.011999130249023,0 C-16.011999130249023,-8.843000411987305 -8.843000411987305,-16.011999130249023 0,-16.011999130249023 C8.843000411987305,-16.011999130249023 16.011999130249023,-8.843000411987305 16.011999130249023,0 C16.011999130249023,8.843000411987305 8.843000411987305,16.011999130249023 0,16.011999130249023z"></path></g></g></g></g><g transform="matrix(0.9993908405303955,-0.03489949554204941,0.03489949554204941,0.9993908405303955,-48.79705810546875,23.6890869140625)" opacity="1" style="display: block;"><g opacity="1" transform="matrix(1,0,0,1,695.3499755859375,1174.3260498046875)"><path fill="rgb(255,255,255)" fill-opacity="1" d=" M-130.8350067138672,0 C-130.8350067138672,72.25800323486328 -72.25800323486328,130.8350067138672 0,130.8350067138672 C72.25800323486328,130.8350067138672 130.8350067138672,72.25800323486328 130.8350067138672,0 C130.8350067138672,-72.25800323486328 72.25800323486328,-130.8350067138672 0,-130.8350067138672 C-72.25800323486328,-130.8350067138672 -130.8350067138672,-72.25800323486328 -130.8350067138672,0z"></path><path stroke-linecap="round" stroke-linejoin="round" fill-opacity="0" stroke="rgb(32,40,112)" stroke-opacity="1" stroke-width="2" d=" M-130.8350067138672,0 C-130.8350067138672,72.25800323486328 -72.25800323486328,130.8350067138672 0,130.8350067138672 C72.25800323486328,130.8350067138672 130.8350067138672,72.25800323486328 130.8350067138672,0 C130.8350067138672,-72.25800323486328 72.25800323486328,-130.8350067138672 0,-130.8350067138672 C-72.25800323486328,-130.8350067138672 -130.8350067138672,-72.25800323486328 -130.8350067138672,0z"></path></g><g opacity="1" transform="matrix(1,0,0,1,658.2069702148438,1255.9739990234375)"><path fill="rgb(255,255,255)" fill-opacity="1" d=" M133.26499938964844,7.164000034332275 C133.26499938964844,7.164000034332275 5.372000217437744,151.27099609375 5.372000217437744,151.27099609375 C5.372000217437744,151.27099609375 -152.76499938964844,-40.99100112915039 -152.76499938964844,-40.99100112915039 C-152.76499938964844,-40.99100112915039 -84.87200164794922,-126.77100372314453 -84.87200164794922,-126.77100372314453"></path><path stroke-linecap="round" stroke-linejoin="round" fill-opacity="0" stroke="rgb(32,40,112)" stroke-opacity="1" stroke-width="2" d=" M133.26499938964844,7.164000034332275 C133.26499938964844,7.164000034332275 5.372000217437744,151.27099609375 5.372000217437744,151.27099609375 C5.372000217437744,151.27099609375 -152.76499938964844,-40.99100112915039 -152.76499938964844,-40.99100112915039 C-152.76499938964844,-40.99100112915039 -84.87200164794922,-126.77100372314453 -84.87200164794922,-126.77100372314453"></path></g></g><g transform="matrix(0.9993908405303955,-0.03489949554204941,0.03489949554204941,0.9993908405303955,-48.79705810546875,23.6890869140625)" opacity="1" style="display: block;"><g opacity="1" transform="matrix(1,0,0,1,0,0)"><g opacity="1" transform="matrix(1,0,0,1,571.2349853515625,1347.675048828125)"><path fill="rgb(132,132,250)" fill-opacity="1" d=" M-46.29399871826172,-157.19200134277344 C-46.29399871826172,-157.19200134277344 141.0240020751953,70.16300201416016 141.0240020751953,70.16300201416016 C141.0240020751953,70.16300201416016 41.034000396728516,157.19200134277344 41.034000396728516,157.19200134277344 C41.034000396728516,157.19200134277344 -18.242000579833984,136.3159942626953 -79.22699737548828,65.9280014038086 C-128.26100158691406,9.333999633789062 -141.0240020751953,-64.10199737548828 -141.0240020751953,-64.10199737548828 C-141.0240020751953,-64.10199737548828 -46.29399871826172,-157.19200134277344 -46.29399871826172,-157.19200134277344z"></path></g><g opacity="1" transform="matrix(1,0,0,1,571.2349853515625,1347.9659423828125)"><path stroke-linecap="round" stroke-linejoin="round" fill-opacity="0" stroke="rgb(32,40,112)" stroke-opacity="1" stroke-width="2" d=" M-46.29399871826172,-157.48300170898438 C-46.29399871826172,-157.48300170898438 141.0240020751953,69.87100219726562 141.0240020751953,69.87100219726562 C141.0240020751953,69.87100219726562 39.92300033569336,157.48300170898438 39.92300033569336,157.48300170898438 C39.92300033569336,157.48300170898438 -16.54800033569336,140.54200744628906 -79.22699737548828,65.63600158691406 C-127.28199768066406,8.208000183105469 -141.0240020751953,-64.39399719238281 -141.0240020751953,-64.39399719238281 C-141.0240020751953,-64.39399719238281 -46.29399871826172,-157.48300170898438 -46.29399871826172,-157.48300170898438z"></path></g></g></g><g transform="matrix(0.9961044788360596,-0.0881815254688263,0.0881815254688263,0.9961044788360596,-101.75067901611328,59.856544494628906)" opacity="1" style="display: block;"><g opacity="1" transform="matrix(1,0,0,1,559.2550048828125,932.4229736328125)"><path fill="rgb(255,255,255)" fill-opacity="1" d=" M-27.132999420166016,0 C-27.132999420166016,14.984999656677246 -14.984999656677246,27.132999420166016 0,27.132999420166016 C14.984999656677246,27.132999420166016 27.132999420166016,14.984999656677246 27.132999420166016,0 C27.132999420166016,-14.984999656677246 14.984999656677246,-27.132999420166016 0,-27.132999420166016 C-14.984999656677246,-27.132999420166016 -27.132999420166016,-14.984999656677246 -27.132999420166016,0z"></path><path stroke-linecap="round" stroke-linejoin="round" fill-opacity="0" stroke="rgb(32,40,112)" stroke-opacity="1" stroke-width="2" d=" M-27.132999420166016,0 C-27.132999420166016,14.984999656677246 -14.984999656677246,27.132999420166016 0,27.132999420166016 C14.984999656677246,27.132999420166016 27.132999420166016,14.984999656677246 27.132999420166016,0 C27.132999420166016,-14.984999656677246 14.984999656677246,-27.132999420166016 0,-27.132999420166016 C-14.984999656677246,-27.132999420166016 -27.132999420166016,-14.984999656677246 -27.132999420166016,0z"></path></g><g opacity="1" transform="matrix(1,0,0,1,545.1699829101562,919.9739990234375)"><path fill="rgb(255,255,255)" fill-opacity="1" d=" M-6.956999778747559,30.16900062561035 C-6.956999778747559,30.16900062561035 -38.52000045776367,-4.99399995803833 -35.4739990234375,-19.11400032043457 C-32.90599822998047,-31.02199935913086 -8.618000030517578,-32.125999450683594 6.610000133514404,-27.972999572753906 C21.83799934387207,-23.81999969482422 35.680999755859375,-4.440000057220459 35.680999755859375,-4.440000057220459"></path><path stroke-linecap="round" stroke-linejoin="round" fill-opacity="0" stroke="rgb(32,40,112)" stroke-opacity="1" stroke-width="2" d=" M-6.956999778747559,30.16900062561035 C-6.956999778747559,30.16900062561035 -38.52000045776367,-4.99399995803833 -35.4739990234375,-19.11400032043457 C-32.90599822998047,-31.02199935913086 -8.618000030517578,-32.125999450683594 6.610000133514404,-27.972999572753906 C21.83799934387207,-23.81999969482422 35.680999755859375,-4.440000057220459 35.680999755859375,-4.440000057220459"></path></g></g><g transform="matrix(0.9961044788360596,-0.0881815254688263,0.0881815254688263,0.9961044788360596,-101.75067901611328,59.856544494628906)" opacity="1" style="display: block;"><g opacity="1" transform="matrix(1,0,0,1,603,1008.8389892578125)"><path fill="rgb(255,255,255)" fill-opacity="1" d=" M-42.08399963378906,0 C-42.08399963378906,23.242000579833984 -23.242000579833984,42.08399963378906 0,42.08399963378906 C23.242000579833984,42.08399963378906 42.08399963378906,23.242000579833984 42.08399963378906,0 C42.08399963378906,-23.242000579833984 23.242000579833984,-42.08399963378906 0,-42.08399963378906 C-23.242000579833984,-42.08399963378906 -42.08399963378906,-23.242000579833984 -42.08399963378906,0z"></path><path stroke-linecap="round" stroke-linejoin="round" fill-opacity="0" stroke="rgb(32,40,112)" stroke-opacity="1" stroke-width="2" d=" M-42.08399963378906,0 C-42.08399963378906,23.242000579833984 -23.242000579833984,42.08399963378906 0,42.08399963378906 C23.242000579833984,42.08399963378906 42.08399963378906,23.242000579833984 42.08399963378906,0 C42.08399963378906,-23.242000579833984 23.242000579833984,-42.08399963378906 0,-42.08399963378906 C-23.242000579833984,-42.08399963378906 -42.08399963378906,-23.242000579833984 -42.08399963378906,0z"></path></g><g opacity="1" transform="matrix(1,0,0,1,587.010986328125,970.35400390625)"><path fill="rgb(255,255,255)" fill-opacity="1" d=" M-49.35200119018555,-21.319000244140625 C-49.35200119018555,-21.319000244140625 -31.909000396728516,10.79800033569336 -23.60300064086914,54.26599884033203 C-23.60300064086914,54.26599884033203 56.85200119018555,24.527999877929688 56.85200119018555,24.527999877929688 C56.85200119018555,24.527999877929688 49.16400146484375,12.1850004196167 49.16400146484375,12.1850004196167 C49.16400146484375,12.1850004196167 -5.882999897003174,-54.26599884033203 -5.882999897003174,-54.26599884033203"></path><path stroke-linecap="round" stroke-linejoin="round" fill-opacity="0" stroke="rgb(32,40,112)" stroke-opacity="1" stroke-width="2" d=" M-49.35200119018555,-21.319000244140625 C-49.35200119018555,-21.319000244140625 -31.909000396728516,10.79800033569336 -23.60300064086914,54.26599884033203 C-23.60300064086914,54.26599884033203 56.85200119018555,24.527999877929688 56.85200119018555,24.527999877929688 C56.85200119018555,24.527999877929688 49.16400146484375,12.1850004196167 49.16400146484375,12.1850004196167 C49.16400146484375,12.1850004196167 -5.882999897003174,-54.26599884033203 -5.882999897003174,-54.26599884033203"></path></g></g><g transform="matrix(0.9999910593032837,0.004223687574267387,-0.004223687574267387,0.9999910593032837,-7.414180755615234,-15.561615943908691)" opacity="1" style="display: block;"><g opacity="1" transform="matrix(1,0,0,1,987.8460083007812,1061.4429931640625)"><path fill="rgb(255,255,255)" fill-opacity="1" d=" M-26.025999069213867,0 C-26.025999069213867,14.37399959564209 -14.37399959564209,26.025999069213867 0,26.025999069213867 C14.37399959564209,26.025999069213867 26.025999069213867,14.37399959564209 26.025999069213867,0 C26.025999069213867,-14.37399959564209 14.37399959564209,-26.025999069213867 0,-26.025999069213867 C-14.37399959564209,-26.025999069213867 -26.025999069213867,-14.37399959564209 -26.025999069213867,0z"></path><path stroke-linecap="round" stroke-linejoin="round" fill-opacity="0" stroke="rgb(32,40,112)" stroke-opacity="1" stroke-width="2" d=" M-26.025999069213867,0 C-26.025999069213867,14.37399959564209 -14.37399959564209,26.025999069213867 0,26.025999069213867 C14.37399959564209,26.025999069213867 26.025999069213867,14.37399959564209 26.025999069213867,0 C26.025999069213867,-14.37399959564209 14.37399959564209,-26.025999069213867 0,-26.025999069213867 C-14.37399959564209,-26.025999069213867 -26.025999069213867,-14.37399959564209 -26.025999069213867,0z"></path></g><g opacity="1" transform="matrix(1,0,0,1,1017.6480102539062,1052.0450439453125)"><path fill="rgb(255,255,255)" fill-opacity="1" d=" M-41.430999755859375,-14.411999702453613 C-41.430999755859375,-14.411999702453613 20.034000396728516,-44.86800003051758 35.53900146484375,-29.363000869750977 C51.04399871826172,-13.857999801635742 32.84400177001953,2.1519999504089355 16.711999893188477,12.720999717712402 C0.6539999842643738,23.242000579833984 -19.834999084472656,33.76300048828125 -19.834999084472656,33.76300048828125"></path><path stroke-linecap="round" stroke-linejoin="round" fill-opacity="0" stroke="rgb(32,40,112)" stroke-opacity="1" stroke-width="2" d=" M-41.430999755859375,-14.411999702453613 C-41.430999755859375,-14.411999702453613 20.034000396728516,-44.86800003051758 35.53900146484375,-29.363000869750977 C51.04399871826172,-13.857999801635742 32.84400177001953,2.1519999504089355 16.711999893188477,12.720999717712402 C0.6539999842643738,23.242000579833984 -19.834999084472656,33.76300048828125 -19.834999084472656,33.76300048828125"></path></g></g><g transform="matrix(0.9996241331100464,-0.0274156853556633,0.0274156853556633,0.9996241331100464,-40.61726379394531,16.069910049438477)" opacity="1" style="display: block;"><g opacity="1" transform="matrix(1,0,0,1,920.5670166015625,1096.052001953125)"><path fill="rgb(255,255,255)" fill-opacity="1" d=" M-30.73200035095215,0 C-30.73200035095215,16.972999572753906 -16.972999572753906,30.73200035095215 0,30.73200035095215 C16.972999572753906,30.73200035095215 30.73200035095215,16.972999572753906 30.73200035095215,0 C30.73200035095215,-16.972999572753906 16.972999572753906,-30.73200035095215 0,-30.73200035095215 C-16.972999572753906,-30.73200035095215 -30.73200035095215,-16.972999572753906 -30.73200035095215,0z"></path><path stroke-linecap="round" stroke-linejoin="round" fill-opacity="0" stroke="rgb(32,40,112)" stroke-opacity="1" stroke-width="2" d=" M-30.73200035095215,0 C-30.73200035095215,16.972999572753906 -16.972999572753906,30.73200035095215 0,30.73200035095215 C16.972999572753906,30.73200035095215 30.73200035095215,16.972999572753906 30.73200035095215,0 C30.73200035095215,-16.972999572753906 16.972999572753906,-30.73200035095215 0,-30.73200035095215 C-16.972999572753906,-30.73200035095215 -30.73200035095215,-16.972999572753906 -30.73200035095215,0z"></path></g><g opacity="1" transform="matrix(1,0,0,1,952.0609741210938,1081.1700439453125)"><path fill="rgb(255,255,255)" fill-opacity="1" d=" M-45.75199890136719,-12.666999816894531 C-45.75199890136719,-12.666999816894531 24.01799964904785,-43.39899826049805 24.01799964904785,-43.39899826049805 C24.01799964904785,-43.39899826049805 45.75199890136719,4.638000011444092 45.75199890136719,4.638000011444092 C45.75199890136719,4.638000011444092 -18.757999420166016,43.39899826049805 -18.757999420166016,43.39899826049805 C-18.757999420166016,43.39899826049805 -45.75199890136719,-12.666999816894531 -45.75199890136719,-12.666999816894531z"></path></g><g opacity="1" transform="matrix(1,0,0,1,941.1939697265625,1053.136962890625)"><path stroke-linecap="round" stroke-linejoin="round" fill-opacity="0" stroke="rgb(32,40,112)" stroke-opacity="1" stroke-width="2" d=" M-34.8849983215332,15.366000175476074 C-34.8849983215332,15.366000175476074 34.8849983215332,-15.366000175476074 34.8849983215332,-15.366000175476074"></path></g><g opacity="1" transform="matrix(1,0,0,1,965.5579833984375,1105.18798828125)"><path stroke-linecap="round" stroke-linejoin="round" fill-opacity="0" stroke="rgb(32,40,112)" stroke-opacity="1" stroke-width="2" d=" M32.255001068115234,-19.381000518798828 C32.255001068115234,-19.381000518798828 -32.255001068115234,19.381000518798828 -32.255001068115234,19.381000518798828"></path></g></g><g transform="matrix(0.9996241331100464,-0.0274156853556633,0.0274156853556633,0.9996241331100464,-40.61726379394531,16.069910049438477)" opacity="1" style="display: block;"><g opacity="1" transform="matrix(1,0,0,1,841.6599731445312,1149.487060546875)"><path fill="rgb(255,255,255)" fill-opacity="1" d=" M-34.332000732421875,0 C-34.332000732421875,18.961000442504883 -18.961000442504883,34.332000732421875 0,34.332000732421875 C18.961000442504883,34.332000732421875 34.332000732421875,18.961000442504883 34.332000732421875,0 C34.332000732421875,-18.961000442504883 18.961000442504883,-34.332000732421875 0,-34.332000732421875 C-18.961000442504883,-34.332000732421875 -34.332000732421875,-18.961000442504883 -34.332000732421875,0z"></path><path stroke-linecap="round" stroke-linejoin="round" fill-opacity="0" stroke="rgb(32,40,112)" stroke-opacity="1" stroke-width="2" d=" M-34.332000732421875,0 C-34.332000732421875,18.961000442504883 -18.961000442504883,34.332000732421875 0,34.332000732421875 C18.961000442504883,34.332000732421875 34.332000732421875,18.961000442504883 34.332000732421875,0 C34.332000732421875,-18.961000442504883 18.961000442504883,-34.332000732421875 0,-34.332000732421875 C-18.961000442504883,-34.332000732421875 -34.332000732421875,-18.961000442504883 -34.332000732421875,0z"></path></g><g opacity="1" transform="matrix(1,0,0,1,876.8569946289062,1124.9840087890625)"><path fill="rgb(255,255,255)" fill-opacity="1" d=" M56.51599884033203,-0.5540000200271606 C56.51599884033203,-0.5540000200271606 -8.340999603271484,46.097999572753906 -16.64699935913086,54.40399932861328 C-16.64699935913086,54.40399932861328 -56.51599884033203,-2.492000102996826 -56.51599884033203,-2.492000102996826 C-56.51599884033203,-2.492000102996826 10.762999534606934,-47.75899887084961 26.128999710083008,-54.40399932861328"></path><path stroke-linecap="round" stroke-linejoin="round" fill-opacity="0" stroke="rgb(32,40,112)" stroke-opacity="1" stroke-width="2" d=" M56.51599884033203,-0.5540000200271606 C56.51599884033203,-0.5540000200271606 -8.340999603271484,46.097999572753906 -16.64699935913086,54.40399932861328 C-16.64699935913086,54.40399932861328 -56.51599884033203,-2.492000102996826 -56.51599884033203,-2.492000102996826 C-56.51599884033203,-2.492000102996826 10.762999534606934,-47.75899887084961 26.128999710083008,-54.40399932861328"></path></g></g><g transform="matrix(0.9998658299446106,-0.016387909650802612,0.016387909650802612,0.9998658299446106,-31.917770385742188,4.263509273529053)" opacity="1" style="display: block;"><g opacity="1" transform="matrix(1,0,0,1,979.6090087890625,966.7550048828125)"><path fill="rgb(255,255,255)" fill-opacity="1" d=" M-31.770999908447266,0 C-31.770999908447266,17.54599952697754 -17.54599952697754,31.770999908447266 0,31.770999908447266 C17.54599952697754,31.770999908447266 31.770999908447266,17.54599952697754 31.770999908447266,0 C31.770999908447266,-17.54599952697754 17.54599952697754,-31.770999908447266 0,-31.770999908447266 C-17.54599952697754,-31.770999908447266 -31.770999908447266,-17.54599952697754 -31.770999908447266,0z"></path><path stroke-linecap="round" stroke-linejoin="round" fill-opacity="0" stroke="rgb(32,40,112)" stroke-opacity="1" stroke-width="2" d=" M-31.770999908447266,0 C-31.770999908447266,17.54599952697754 -17.54599952697754,31.770999908447266 0,31.770999908447266 C17.54599952697754,31.770999908447266 31.770999908447266,17.54599952697754 31.770999908447266,0 C31.770999908447266,-17.54599952697754 17.54599952697754,-31.770999908447266 0,-31.770999908447266 C-17.54599952697754,-31.770999908447266 -31.770999908447266,-17.54599952697754 -31.770999908447266,0z"></path></g><g opacity="1" transform="matrix(1,0,0,1,999.6640014648438,946.9039916992188)"><path fill="rgb(255,255,255)" fill-opacity="1" d=" M-42.68899917602539,-2.990999937057495 C-42.68899917602539,-2.990999937057495 -2.819999933242798,-51.16600036621094 29.158000946044922,-36.21500015258789 C61.13600158691406,-21.263999938964844 26.402000427246094,8.75 26.402000427246094,8.75 C26.402000427246094,8.75 5.209000110626221,39.09299850463867 5.209000110626221,39.09299850463867"></path><path stroke-linecap="round" stroke-linejoin="round" fill-opacity="0" stroke="rgb(32,40,112)" stroke-opacity="1" stroke-width="2" d=" M-42.68899917602539,-2.990999937057495 C-42.68899917602539,-2.990999937057495 -2.819999933242798,-51.16600036621094 29.158000946044922,-36.21500015258789 C61.13600158691406,-21.263999938964844 26.402000427246094,8.75 26.402000427246094,8.75 C26.402000427246094,8.75 5.209000110626221,39.09299850463867 5.209000110626221,39.09299850463867"></path></g></g><g transform="matrix(0.9993908405303955,-0.03489949554204941,0.03489949554204941,0.9993908405303955,-49.31962966918945,22.846500396728516)" opacity="1" style="display: block;"><g opacity="1" transform="matrix(1,0,0,1,919.5980224609375,1038.39404296875)"><path fill="rgb(255,255,255)" fill-opacity="1" d=" M-34.470001220703125,0 C-34.470001220703125,19.03700065612793 -19.03700065612793,34.470001220703125 0,34.470001220703125 C19.03700065612793,34.470001220703125 34.470001220703125,19.03700065612793 34.470001220703125,0 C34.470001220703125,-19.03700065612793 19.03700065612793,-34.470001220703125 0,-34.470001220703125 C-19.03700065612793,-34.470001220703125 -34.470001220703125,-19.03700065612793 -34.470001220703125,0z"></path><path stroke-linecap="round" stroke-linejoin="round" fill-opacity="0" stroke="rgb(32,40,112)" stroke-opacity="1" stroke-width="2" d=" M-34.470001220703125,0 C-34.470001220703125,19.03700065612793 -19.03700065612793,34.470001220703125 0,34.470001220703125 C19.03700065612793,34.470001220703125 34.470001220703125,19.03700065612793 34.470001220703125,0 C34.470001220703125,-19.03700065612793 19.03700065612793,-34.470001220703125 0,-34.470001220703125 C-19.03700065612793,-34.470001220703125 -34.470001220703125,-19.03700065612793 -34.470001220703125,0z"></path></g><g opacity="1" transform="matrix(1,0,0,1,948.2540283203125,1003.405029296875)"><path fill="rgb(255,255,255)" fill-opacity="1" d=" M54.81999969482422,-15.12399959564209 C54.81999969482422,-15.12399959564209 -2.802999973297119,57.83100128173828 -2.802999973297119,57.83100128173828 C-2.802999973297119,57.83100128173828 -54.81999969482422,12.354999542236328 -54.81999969482422,12.354999542236328 C-54.81999969482422,12.354999542236328 7.474999904632568,-57.83100128173828 7.474999904632568,-57.83100128173828 C7.474999904632568,-57.83100128173828 54.81999969482422,-15.12399959564209 54.81999969482422,-15.12399959564209z"></path></g><g opacity="1" transform="matrix(1,0,0,1,924.5819702148438,980.6669921875)"><path stroke-linecap="round" stroke-linejoin="round" fill-opacity="0" stroke="rgb(32,40,112)" stroke-opacity="1" stroke-width="2" d=" M-31.148000717163086,35.09299850463867 C-31.148000717163086,35.09299850463867 31.148000717163086,-35.09299850463867 31.148000717163086,-35.09299850463867"></path></g><g opacity="1" transform="matrix(1,0,0,1,974.2620239257812,1024.758056640625)"><path stroke-linecap="round" stroke-linejoin="round" fill-opacity="0" stroke="rgb(32,40,112)" stroke-opacity="1" stroke-width="2" d=" M28.812000274658203,-36.47700119018555 C28.812000274658203,-36.47700119018555 -28.812000274658203,36.47700119018555 -28.812000274658203,36.47700119018555"></path></g></g><g transform="matrix(0.9993908405303955,-0.03489949554204941,0.03489949554204941,0.9993908405303955,-49.31962966918945,22.846500396728516)" opacity="1" style="display: block;"><g opacity="1" transform="matrix(1,0,0,1,816.60302734375,1108.1650390625)"><path fill="rgb(255,255,255)" fill-opacity="1" d=" M-38.62300109863281,0 C-38.62300109863281,21.33099937438965 -21.33099937438965,38.62300109863281 0,38.62300109863281 C21.33099937438965,38.62300109863281 38.62300109863281,21.33099937438965 38.62300109863281,0 C38.62300109863281,-21.33099937438965 21.33099937438965,-38.62300109863281 0,-38.62300109863281 C-21.33099937438965,-38.62300109863281 -38.62300109863281,-21.33099937438965 -38.62300109863281,0z"></path><path stroke-linecap="round" stroke-linejoin="round" fill-opacity="0" stroke="rgb(32,40,112)" stroke-opacity="1" stroke-width="2" d=" M-38.62300109863281,0 C-38.62300109863281,21.33099937438965 -21.33099937438965,38.62300109863281 0,38.62300109863281 C21.33099937438965,38.62300109863281 38.62300109863281,21.33099937438965 38.62300109863281,0 C38.62300109863281,-21.33099937438965 21.33099937438965,-38.62300109863281 0,-38.62300109863281 C-21.33099937438965,-38.62300109863281 -38.62300109863281,-21.33099937438965 -38.62300109863281,0z"></path></g><g opacity="1" transform="matrix(1,0,0,1,869.969970703125,1079.509033203125)"><path fill="rgb(255,255,255)" fill-opacity="1" d=" M73.3010025024414,-15.98900032043457 C73.3010025024414,-15.98900032043457 46.72100067138672,19.72599983215332 -36.3390007019043,63.33300018310547 C-36.3390007019043,63.33300018310547 -73.3010025024414,-4.361000061035156 -73.3010025024414,-4.361000061035156 C-73.3010025024414,-4.361000061035156 4.776000022888184,-42.983001708984375 23.46500015258789,-63.33300018310547"></path><path stroke-linecap="round" stroke-linejoin="round" fill-opacity="0" stroke="rgb(32,40,112)" stroke-opacity="1" stroke-width="2" d=" M73.3010025024414,-15.98900032043457 C73.3010025024414,-15.98900032043457 46.72100067138672,19.72599983215332 -36.3390007019043,63.33300018310547 C-36.3390007019043,63.33300018310547 -73.3010025024414,-4.361000061035156 -73.3010025024414,-4.361000061035156 C-73.3010025024414,-4.361000061035156 4.776000022888184,-42.983001708984375 23.46500015258789,-63.33300018310547"></path></g></g><g transform="matrix(0.9997624158859253,-0.021797433495521545,0.021797433495521545,0.9997624158859253,-37.10468292236328,10.767102241516113)" opacity="1" style="display: block;"><g opacity="1" transform="matrix(1,0,0,1,936.0020141601562,945.781982421875)"><path fill="rgb(255,255,255)" fill-opacity="1" d=" M-33.43199920654297,0 C-33.43199920654297,18.464000701904297 -18.464000701904297,33.43199920654297 0,33.43199920654297 C18.464000701904297,33.43199920654297 33.43199920654297,18.464000701904297 33.43199920654297,0 C33.43199920654297,-18.464000701904297 18.464000701904297,-33.43199920654297 0,-33.43199920654297 C-18.464000701904297,-33.43199920654297 -33.43199920654297,-18.464000701904297 -33.43199920654297,0z"></path><path stroke-linecap="round" stroke-linejoin="round" fill-opacity="0" stroke="rgb(32,40,112)" stroke-opacity="1" stroke-width="2" d=" M-33.43199920654297,0 C-33.43199920654297,18.464000701904297 -18.464000701904297,33.43199920654297 0,33.43199920654297 C18.464000701904297,33.43199920654297 33.43199920654297,18.464000701904297 33.43199920654297,0 C33.43199920654297,-18.464000701904297 18.464000701904297,-33.43199920654297 0,-33.43199920654297 C-18.464000701904297,-33.43199920654297 -33.43199920654297,-18.464000701904297 -33.43199920654297,0z"></path></g><g opacity="1" transform="matrix(1,0,0,1,954.8300170898438,927.4810180664062)"><path fill="rgb(255,255,255)" fill-opacity="1" d=" M-43.53799819946289,-4.333000183105469 C-43.53799819946289,-4.333000183105469 -7.4070000648498535,-46.27799987792969 26.23200035095215,-37.14099884033203 C59.87099838256836,-28.003999710083008 35.691001892089844,2.744999885559082 26.648000717163086,13.940999984741211 C17.927000045776367,24.73900032043457 7.544000148773193,38.44300079345703 7.544000148773193,38.44300079345703"></path><path stroke-linecap="round" stroke-linejoin="round" fill-opacity="0" stroke="rgb(32,40,112)" stroke-opacity="1" stroke-width="2" d=" M-43.53799819946289,-4.333000183105469 C-43.53799819946289,-4.333000183105469 -7.4070000648498535,-46.27799987792969 26.23200035095215,-37.14099884033203 C59.87099838256836,-28.003999710083008 35.691001892089844,2.744999885559082 26.648000717163086,13.940999984741211 C17.927000045776367,24.73900032043457 7.544000148773193,38.44300079345703 7.544000148773193,38.44300079345703"></path></g></g><g transform="matrix(0.9994770884513855,-0.0323353111743927,0.0323353111743927,0.9994770884513855,-46.80412673950195,20.900428771972656)" opacity="1" style="display: block;"><g opacity="1" transform="matrix(1,0,0,1,880.1439819335938,1025.72802734375)"><path fill="rgb(255,255,255)" fill-opacity="1" d=" M-35.715999603271484,0 C-35.715999603271484,19.725000381469727 -19.725000381469727,35.715999603271484 0,35.715999603271484 C19.725000381469727,35.715999603271484 35.715999603271484,19.725000381469727 35.715999603271484,0 C35.715999603271484,-19.725000381469727 19.725000381469727,-35.715999603271484 0,-35.715999603271484 C-19.725000381469727,-35.715999603271484 -35.715999603271484,-19.725000381469727 -35.715999603271484,0z"></path><path stroke-linecap="round" stroke-linejoin="round" fill-opacity="0" stroke="rgb(32,40,112)" stroke-opacity="1" stroke-width="2" d=" M-35.715999603271484,0 C-35.715999603271484,19.725000381469727 -19.725000381469727,35.715999603271484 0,35.715999603271484 C19.725000381469727,35.715999603271484 35.715999603271484,19.725000381469727 35.715999603271484,0 C35.715999603271484,-19.725000381469727 19.725000381469727,-35.715999603271484 0,-35.715999603271484 C-19.725000381469727,-35.715999603271484 -35.715999603271484,-19.725000381469727 -35.715999603271484,0z"></path></g><g opacity="1" transform="matrix(1,0,0,1,906.7760009765625,990.0120239257812)"><path fill="rgb(255,255,255)" fill-opacity="1" d=" M-0.052000001072883606,-59.803001403808594 C-0.052000001072883606,-59.803001403808594 -55.70199966430664,14.951000213623047 -55.70199966430664,14.951000213623047 C-55.70199966430664,14.951000213623047 -0.8830000162124634,59.803001403808594 -0.8830000162124634,59.803001403808594 C-0.8830000162124634,59.803001403808594 19.674999237060547,37.16899871826172 55.70199966430664,-23.775999069213867 C55.70199966430664,-23.775999069213867 -0.052000001072883606,-59.803001403808594 -0.052000001072883606,-59.803001403808594z"></path></g><g opacity="1" transform="matrix(1,0,0,1,934.1849975585938,1008.0250244140625)"><path stroke-linecap="round" stroke-linejoin="round" fill-opacity="0" stroke="rgb(32,40,112)" stroke-opacity="1" stroke-width="2" d=" M-28.29199981689453,41.790000915527344 C-28.29199981689453,41.790000915527344 -7.735000133514404,19.155000686645508 28.29199981689453,-41.790000915527344"></path></g><g opacity="1" transform="matrix(1,0,0,1,878.8980102539062,967.5850219726562)"><path stroke-linecap="round" stroke-linejoin="round" fill-opacity="0" stroke="rgb(32,40,112)" stroke-opacity="1" stroke-width="2" d=" M27.825000762939453,-37.37699890136719 C27.825000762939453,-37.37699890136719 -27.825000762939453,37.37699890136719 -27.825000762939453,37.37699890136719"></path></g></g><g transform="matrix(0.9994770884513855,-0.0323353111743927,0.0323353111743927,0.9994770884513855,-46.80412673950195,20.900428771972656)" opacity="1" style="display: block;"><g opacity="1" transform="matrix(1,0,0,1,791.27001953125,1080.9630126953125)"><path fill="rgb(255,255,255)" fill-opacity="1" d=" M-37.37699890136719,0 C-37.37699890136719,20.64299964904785 -20.64299964904785,37.37699890136719 0,37.37699890136719 C20.64299964904785,37.37699890136719 37.37699890136719,20.64299964904785 37.37699890136719,0 C37.37699890136719,-20.64299964904785 20.64299964904785,-37.37699890136719 0,-37.37699890136719 C-20.64299964904785,-37.37699890136719 -37.37699890136719,-20.64299964904785 -37.37699890136719,0z"></path><path stroke-linecap="round" stroke-linejoin="round" fill-opacity="0" stroke="rgb(32,40,112)" stroke-opacity="1" stroke-width="2" d=" M-37.37699890136719,0 C-37.37699890136719,20.64299964904785 -20.64299964904785,37.37699890136719 0,37.37699890136719 C20.64299964904785,37.37699890136719 37.37699890136719,20.64299964904785 37.37699890136719,0 C37.37699890136719,-20.64299964904785 20.64299964904785,-37.37699890136719 0,-37.37699890136719 C-20.64299964904785,-37.37699890136719 -37.37699890136719,-20.64299964904785 -37.37699890136719,0z"></path></g><g opacity="1" transform="matrix(1,0,0,1,843.458984375,1059.5050048828125)"><path fill="rgb(255,255,255)" fill-opacity="1" d=" M7.613999843597412,-54.542999267578125 C7.613999843597412,-54.542999267578125 -28.378000259399414,-26.856000900268555 -62.709999084472656,-14.119999885559082 C-62.709999084472656,-14.119999885559082 -33.91600036621094,54.542999267578125 -33.91600036621094,54.542999267578125 C-33.91600036621094,54.542999267578125 34.470001220703125,30.524999618530273 62.709999084472656,-9.89799976348877"></path><path stroke-linecap="round" stroke-linejoin="round" fill-opacity="0" stroke="rgb(32,40,112)" stroke-opacity="1" stroke-width="2" d=" M7.613999843597412,-54.542999267578125 C7.613999843597412,-54.542999267578125 -28.378000259399414,-26.856000900268555 -62.709999084472656,-14.119999885559082 C-62.709999084472656,-14.119999885559082 -33.91600036621094,54.542999267578125 -33.91600036621094,54.542999267578125 C-33.91600036621094,54.542999267578125 34.470001220703125,30.524999618530273 62.709999084472656,-9.89799976348877"></path></g></g><g transform="matrix(0.999843180179596,-0.017714165151119232,0.017714165151119232,0.999843180179596,-33.75337219238281,8.188918113708496)" opacity="1" style="display: block;"><g opacity="1" transform="matrix(1,0,0,1,883.7440185546875,925.2249755859375)"><path fill="rgb(255,255,255)" fill-opacity="1" d=" M-29.902000427246094,0 C-29.902000427246094,16.513999938964844 -16.513999938964844,29.902000427246094 0,29.902000427246094 C16.513999938964844,29.902000427246094 29.902000427246094,16.513999938964844 29.902000427246094,0 C29.902000427246094,-16.513999938964844 16.513999938964844,-29.902000427246094 0,-29.902000427246094 C-16.513999938964844,-29.902000427246094 -29.902000427246094,-16.513999938964844 -29.902000427246094,0z"></path><path stroke-linecap="round" stroke-linejoin="round" fill-opacity="0" stroke="rgb(32,40,112)" stroke-opacity="1" stroke-width="2" d=" M-29.902000427246094,0 C-29.902000427246094,16.513999938964844 -16.513999938964844,29.902000427246094 0,29.902000427246094 C16.513999938964844,29.902000427246094 29.902000427246094,16.513999938964844 29.902000427246094,0 C29.902000427246094,-16.513999938964844 16.513999938964844,-29.902000427246094 0,-29.902000427246094 C-16.513999938964844,-29.902000427246094 -29.902000427246094,-16.513999938964844 -29.902000427246094,0z"></path></g><g opacity="1" transform="matrix(1,0,0,1,897.6680297851562,914.0900268554688)"><path fill="rgb(255,255,255)" fill-opacity="1" d=" M-36.21500015258789,-8.817000389099121 C-36.21500015258789,-8.817000389099121 -13.369999885559082,-34.54899978637695 17.36199951171875,-26.658000946044922 C48.09400177001953,-18.767000198364258 33.558998107910156,-4.23199987411499 26.913999557495117,5.320000171661377 C20.268999099731445,14.871999740600586 14.869999885559082,22.76300048828125 11.131999969482422,28.16200065612793"></path><path stroke-linecap="round" stroke-linejoin="round" fill-opacity="0" stroke="rgb(32,40,112)" stroke-opacity="1" stroke-width="2" d=" M-36.21500015258789,-8.817000389099121 C-36.21500015258789,-8.817000389099121 -13.369999885559082,-34.54899978637695 17.36199951171875,-26.658000946044922 C48.09400177001953,-18.767000198364258 33.558998107910156,-4.23199987411499 26.913999557495117,5.320000171661377 C20.268999099731445,14.871999740600586 14.869999885559082,22.76300048828125 11.131999969482422,28.16200065612793"></path></g></g><g transform="matrix(0.9995484352111816,-0.030050044879317284,0.030050044879317284,0.9995484352111816,-44.9063835144043,19.363340377807617)" opacity="1" style="display: block;"><g opacity="1" transform="matrix(1,0,0,1,844.9819946289062,997.2100219726562)"><path fill="rgb(255,255,255)" fill-opacity="1" d=" M-39.314998626708984,0 C-39.314998626708984,21.71299934387207 -21.71299934387207,39.314998626708984 0,39.314998626708984 C21.71299934387207,39.314998626708984 39.314998626708984,21.71299934387207 39.314998626708984,0 C39.314998626708984,-21.71299934387207 21.71299934387207,-39.314998626708984 0,-39.314998626708984 C-21.71299934387207,-39.314998626708984 -39.314998626708984,-21.71299934387207 -39.314998626708984,0z"></path><path stroke-linecap="round" stroke-linejoin="round" fill-opacity="0" stroke="rgb(32,40,112)" stroke-opacity="1" stroke-width="2" d=" M-39.314998626708984,0 C-39.314998626708984,21.71299934387207 -21.71299934387207,39.314998626708984 0,39.314998626708984 C21.71299934387207,39.314998626708984 39.314998626708984,21.71299934387207 39.314998626708984,0 C39.314998626708984,-21.71299934387207 21.71299934387207,-39.314998626708984 0,-39.314998626708984 C-21.71299934387207,-39.314998626708984 -39.314998626708984,-21.71299934387207 -39.314998626708984,0z"></path></g><g opacity="1" transform="matrix(1,0,0,1,859.7949829101562,963.0170288085938)"><path fill="rgb(255,255,255)" fill-opacity="1" d=" M48.59000015258789,-19.93400001525879 C48.59000015258789,-19.93400001525879 20.350000381469727,52.74300003051758 20.350000381469727,52.74300003051758 C20.350000381469727,52.74300003051758 -48.59000015258789,13.289999961853027 -48.59000015258789,13.289999961853027 C-48.59000015258789,13.289999961853027 -13.289999961853027,-44.02199935913086 -2.0769999027252197,-52.74300003051758 C-2.0769999027252197,-52.74300003051758 48.59000015258789,-19.93400001525879 48.59000015258789,-19.93400001525879z"></path></g><g opacity="1" transform="matrix(1,0,0,1,834.4609985351562,943.2899780273438)"><path stroke-linecap="round" stroke-linejoin="round" fill-opacity="0" stroke="rgb(32,40,112)" stroke-opacity="1" stroke-width="2" d=" M-23.256999969482422,33.01599884033203 C-23.256999969482422,33.01599884033203 12.043999671936035,-24.295000076293945 23.256999969482422,-33.01599884033203"></path></g><g opacity="1" transform="matrix(1,0,0,1,894.2650146484375,979.4210205078125)"><path stroke-linecap="round" stroke-linejoin="round" fill-opacity="0" stroke="rgb(32,40,112)" stroke-opacity="1" stroke-width="2" d=" M14.119999885559082,-36.3390007019043 C14.119999885559082,-36.3390007019043 -14.119999885559082,36.3390007019043 -14.119999885559082,36.3390007019043"></path></g></g><g transform="matrix(0.9995484352111816,-0.030050044879317284,0.030050044879317284,0.9995484352111816,-44.9063835144043,19.363340377807617)" opacity="1" style="display: block;"><g opacity="1" transform="matrix(1,0,0,1,766.3519897460938,1039.2939453125)"><path fill="rgb(255,255,255)" fill-opacity="1" d=" M-40.42300033569336,0 C-40.42300033569336,22.325000762939453 -22.325000762939453,40.42300033569336 0,40.42300033569336 C22.325000762939453,40.42300033569336 40.42300033569336,22.325000762939453 40.42300033569336,0 C40.42300033569336,-22.325000762939453 22.325000762939453,-40.42300033569336 0,-40.42300033569336 C-22.325000762939453,-40.42300033569336 -40.42300033569336,-22.325000762939453 -40.42300033569336,0z"></path><path stroke-linecap="round" stroke-linejoin="round" fill-opacity="0" stroke="rgb(32,40,112)" stroke-opacity="1" stroke-width="2" d=" M-40.42300033569336,0 C-40.42300033569336,22.325000762939453 -22.325000762939453,40.42300033569336 0,40.42300033569336 C22.325000762939453,40.42300033569336 40.42300033569336,22.325000762939453 40.42300033569336,0 C40.42300033569336,-22.325000762939453 22.325000762939453,-40.42300033569336 0,-40.42300033569336 C-22.325000762939453,-40.42300033569336 -40.42300033569336,-22.325000762939453 -40.42300033569336,0z"></path></g><g opacity="1" transform="matrix(1,0,0,1,812.4500122070312,1022.405029296875)"><path fill="rgb(255,255,255)" fill-opacity="1" d=" M58.972999572753906,4.1529998779296875 C58.972999572753906,4.1529998779296875 1.6619999408721924,50.66699981689453 -36.54600143432617,56.48099899291992 C-36.54600143432617,56.48099899291992 -48.33700180053711,14.996999740600586 -48.33700180053711,14.996999740600586 C-48.33700180053711,14.996999740600586 -62.48400115966797,-21.000999450683594 -62.48400115966797,-21.000999450683594 C-62.48400115966797,-21.000999450683594 -7.889999866485596,-40.70000076293945 9.13700008392334,-56.48099899291992"></path><path stroke-linecap="round" stroke-linejoin="round" fill-opacity="0" stroke="rgb(32,40,112)" stroke-opacity="1" stroke-width="2" d=" M58.972999572753906,4.1529998779296875 C58.972999572753906,4.1529998779296875 1.6619999408721924,50.66699981689453 -36.54600143432617,56.48099899291992 C-36.54600143432617,56.48099899291992 -48.33700180053711,14.996999740600586 -48.33700180053711,14.996999740600586 C-48.33700180053711,14.996999740600586 -62.48400115966797,-21.000999450683594 -62.48400115966797,-21.000999450683594 C-62.48400115966797,-21.000999450683594 -7.889999866485596,-40.70000076293945 9.13700008392334,-56.48099899291992"></path></g></g><g transform="matrix(0.9991104006767273,-0.04217209666967392,0.04217209666967392,0.9991104006767273,-57.14713668823242,29.080341339111328)" opacity="1" style="display: block;"><g opacity="1" transform="matrix(1,0,0,1,712.2589721679688,1122.0059814453125)"><path fill="rgb(255,255,255)" fill-opacity="1" d=" M42.46500015258789,-122.85800170898438 C10.071999549865723,-112.05999755859375 -47.2400016784668,-117.04399871826172 -77.14199829101562,-141.13099670410156 C-77.14199829101562,-141.13099670410156 -148.98899841308594,-100.01599884033203 -148.98899841308594,-100.01599884033203 C-142.343994140625,-55.16299819946289 -137.83799743652344,-36.86800003051758 -138.9239959716797,7.197000026702881 C-138.9239959716797,7.197000026702881 79.21299743652344,141.13099670410156 79.21299743652344,141.13099670410156 C79.21299743652344,141.13099670410156 148.98899841308594,56.137001037597656 148.98899841308594,56.137001037597656 C148.98899841308594,56.137001037597656 42.1879997253418,-122.30400085449219 42.1879997253418,-122.30400085449219"></path></g><g opacity="1" transform="matrix(1,0,0,1,753.47802734375,999.97900390625)"><path stroke-linecap="round" stroke-linejoin="round" fill-opacity="0" stroke="rgb(32,40,112)" stroke-opacity="1" stroke-width="2" d=" M0,0"></path></g><g opacity="1" transform="matrix(1,0,0,1,826.6710205078125,1220.3289794921875)"><path stroke-linecap="round" stroke-linejoin="round" fill-opacity="0" stroke="rgb(32,40,112)" stroke-opacity="1" stroke-width="2" d=" M-35.20000076293945,42.808998107910156 C-35.20000076293945,42.808998107910156 35.20000076293945,-42.808998107910156 35.20000076293945,-42.808998107910156"></path></g><g opacity="1" transform="matrix(1,0,0,1,568.1699829101562,1075.3890380859375)"><path stroke-linecap="round" stroke-linejoin="round" fill-opacity="0" stroke="rgb(32,40,112)" stroke-opacity="1" stroke-width="2" d=" M-5.315999984741211,-53.81399917602539 C1.3289999961853027,-8.961000442504883 6.250999927520752,9.74899959564209 5.164999961853027,53.81399917602539"></path></g><g opacity="1" transform="matrix(1,0,0,1,694.989013671875,992.8740234375)"><path stroke-linecap="round" stroke-linejoin="round" fill-opacity="0" stroke="rgb(32,40,112)" stroke-opacity="1" stroke-width="2" d=" M59.87300109863281,6.689000129699707 C27.479999542236328,17.48699951171875 -29.97100067138672,12.088000297546387 -59.87300109863281,-11.99899959564209"></path></g></g><g transform="matrix(0.9993908405303955,-0.03489949554204941,0.03489949554204941,0.9993908405303955,-30.8386173248291,24.593643188476562)" opacity="1" style="display: block;"><g opacity="1" transform="matrix(1,0,0,1,0,0)"><g opacity="1" transform="matrix(1,0,0,1,541.0689697265625,824.3140258789062)"><path fill="rgb(255,255,255)" fill-opacity="1" d=" M-250.4029998779297,42.66699981689453 C-250.4029998779297,42.66699981689453 250.4029998779297,42.66699981689453 250.4029998779297,42.66699981689453 C250.4029998779297,42.66699981689453 250.4029998779297,-42.66699981689453 250.4029998779297,-42.66699981689453 C250.4029998779297,-42.66699981689453 -250.4029998779297,-42.66699981689453 -250.4029998779297,-42.66699981689453 C-250.4029998779297,-42.66699981689453 -238.23300170898438,-25.257999420166016 -238.23300170898438,1.6059999465942383 C-238.23300170898438,28.065000534057617 -250.4029998779297,42.66699981689453 -250.4029998779297,42.66699981689453z"></path><path stroke-linecap="round" stroke-linejoin="round" fill-opacity="0" stroke="rgb(32,40,112)" stroke-opacity="1" stroke-width="2" d=" M-250.4029998779297,42.66699981689453 C-250.4029998779297,42.66699981689453 250.4029998779297,42.66699981689453 250.4029998779297,42.66699981689453 C250.4029998779297,42.66699981689453 250.4029998779297,-42.66699981689453 250.4029998779297,-42.66699981689453 C250.4029998779297,-42.66699981689453 -250.4029998779297,-42.66699981689453 -250.4029998779297,-42.66699981689453 C-250.4029998779297,-42.66699981689453 -238.23300170898438,-25.257999420166016 -238.23300170898438,1.6059999465942383 C-238.23300170898438,28.065000534057617 -250.4029998779297,42.66699981689453 -250.4029998779297,42.66699981689453z"></path></g><g opacity="1" transform="matrix(1,0,0,1,604.510986328125,805.2479858398438)"><path stroke-linecap="round" stroke-linejoin="round" fill-opacity="0" stroke="rgb(32,40,112)" stroke-opacity="1" stroke-width="2" d=" M-135.26600646972656,0 C-135.26600646972656,0 135.26600646972656,0 135.26600646972656,0"></path></g><g opacity="1" transform="matrix(1,0,0,1,412.60699462890625,842.0440063476562)"><path stroke-linecap="round" stroke-linejoin="round" fill-opacity="0" stroke="rgb(32,40,112)" stroke-opacity="1" stroke-width="2" d=" M-111.36599731445312,0 C-111.36599731445312,0 111.36599731445312,0 111.36599731445312,0"></path></g></g><g opacity="1" transform="matrix(1,0,0,1,0,0)"><g opacity="1" transform="matrix(1,0,0,1,800,824.3140258789062)"><path fill="rgb(132,132,250)" fill-opacity="1" d=" M-530.6669921875,-69.85800170898438 C-530.6669921875,-69.85800170898438 -530.6669921875,-42.66699981689453 -530.6669921875,-42.66699981689453 C-530.6669921875,-42.66699981689453 -21.91900062561035,-42.66699981689453 -21.91900062561035,-42.66699981689453 C-14.52299976348877,-42.66699981689453 -8.527999877929688,-36.672000885009766 -8.527999877929688,-29.275999069213867 C-8.527999877929688,-29.275999069213867 -8.527999877929688,29.275999069213867 -8.527999877929688,29.275999069213867 C-8.527999877929688,36.672000885009766 -14.52299976348877,42.66699981689453 -21.91900062561035,42.66699981689453 C-21.91900062561035,42.66699981689453 -530.6669921875,42.66699981689453 -530.6669921875,42.66699981689453 C-530.6669921875,42.66699981689453 -530.6669921875,69.85800170898438 -530.6669921875,69.85800170898438 C-530.6669921875,69.85800170898438 511.6059875488281,69.85800170898438 511.6059875488281,69.85800170898438 C522.1329956054688,69.85800170898438 530.6669921875,61.32400131225586 530.6669921875,50.797000885009766 C530.6669921875,50.797000885009766 530.6669921875,-50.797000885009766 530.6669921875,-50.797000885009766 C530.6669921875,-61.32400131225586 522.1329956054688,-69.85800170898438 511.6059875488281,-69.85800170898438 C511.6059875488281,-69.85800170898438 -530.6669921875,-69.85800170898438 -530.6669921875,-69.85800170898438z"></path><path stroke-linecap="round" stroke-linejoin="round" fill-opacity="0" stroke="rgb(32,40,112)" stroke-opacity="1" stroke-width="2" d=" M-530.6669921875,-69.85800170898438 C-530.6669921875,-69.85800170898438 -530.6669921875,-42.66699981689453 -530.6669921875,-42.66699981689453 C-530.6669921875,-42.66699981689453 -21.91900062561035,-42.66699981689453 -21.91900062561035,-42.66699981689453 C-14.52299976348877,-42.66699981689453 -8.527999877929688,-36.672000885009766 -8.527999877929688,-29.275999069213867 C-8.527999877929688,-29.275999069213867 -8.527999877929688,29.275999069213867 -8.527999877929688,29.275999069213867 C-8.527999877929688,36.672000885009766 -14.52299976348877,42.66699981689453 -21.91900062561035,42.66699981689453 C-21.91900062561035,42.66699981689453 -530.6669921875,42.66699981689453 -530.6669921875,42.66699981689453 C-530.6669921875,42.66699981689453 -530.6669921875,69.85800170898438 -530.6669921875,69.85800170898438 C-530.6669921875,69.85800170898438 511.6059875488281,69.85800170898438 511.6059875488281,69.85800170898438 C522.1329956054688,69.85800170898438 530.6669921875,61.32400131225586 530.6669921875,50.797000885009766 C530.6669921875,50.797000885009766 530.6669921875,-50.797000885009766 530.6669921875,-50.797000885009766 C530.6669921875,-61.32400131225586 522.1329956054688,-69.85800170898438 511.6059875488281,-69.85800170898438 C511.6059875488281,-69.85800170898438 -530.6669921875,-69.85800170898438 -530.6669921875,-69.85800170898438z"></path></g><g opacity="1" transform="matrix(1,0,0,1,816.60302734375,824.3140258789062)"><path stroke-linecap="round" stroke-linejoin="round" fill-opacity="0" stroke="rgb(32,40,112)" stroke-opacity="1" stroke-width="2" d=" M-9.529999732971191,69.85800170898438 C0.996999979019165,69.85800170898438 9.529999732971191,61.32400131225586 9.529999732971191,50.797000885009766 C9.529999732971191,50.797000885009766 9.529999732971191,-50.797000885009766 9.529999732971191,-50.797000885009766 C9.529999732971191,-61.32400131225586 0.996999979019165,-69.85800170898438 -9.529999732971191,-69.85800170898438"></path></g></g></g><g transform="matrix(0.9993908405303955,-0.03489949554204941,0.03489949554204941,0.9993908405303955,-30.83861541748047,24.593704223632812)" opacity="1" style="display: block;"><g opacity="1" transform="matrix(1,0,0,1,0,0)"><g opacity="1" transform="matrix(1,0,0,1,1001.4600219726562,705.7789916992188)"><path fill="rgb(255,255,255)" fill-opacity="1" d=" M-190.72300720214844,-36.80799865722656 C-190.72300720214844,-36.80799865722656 190.72300720214844,-36.80799865722656 190.72300720214844,-36.80799865722656 C190.72300720214844,-36.80799865722656 183.96200561523438,-18.466999053955078 183.96200561523438,0.09300000220537186 C183.96200561523438,19.760000228881836 190.72300720214844,36.80799865722656 190.72300720214844,36.80799865722656 C190.72300720214844,36.80799865722656 -190.72300720214844,36.80799865722656 -190.72300720214844,36.80799865722656 C-190.72300720214844,36.80799865722656 -190.72300720214844,-36.80799865722656 -190.72300720214844,-36.80799865722656z"></path><path stroke-linecap="round" stroke-linejoin="round" fill-opacity="0" stroke="rgb(32,40,112)" stroke-opacity="1" stroke-width="2" d=" M-190.72300720214844,-36.80799865722656 C-190.72300720214844,-36.80799865722656 190.72300720214844,-36.80799865722656 190.72300720214844,-36.80799865722656 C190.72300720214844,-36.80799865722656 183.96200561523438,-18.466999053955078 183.96200561523438,0.09300000220537186 C183.96200561523438,19.760000228881836 190.72300720214844,36.80799865722656 190.72300720214844,36.80799865722656 C190.72300720214844,36.80799865722656 -190.72300720214844,36.80799865722656 -190.72300720214844,36.80799865722656 C-190.72300720214844,36.80799865722656 -190.72300720214844,-36.80799865722656 -190.72300720214844,-36.80799865722656z"></path></g><g opacity="1" transform="matrix(1,0,0,1,1061.5179443359375,690.8699951171875)"><path stroke-linecap="round" stroke-linejoin="round" fill-opacity="0" stroke="rgb(32,40,112)" stroke-opacity="1" stroke-width="2" d=" M-125.51499938964844,0 C-125.51499938964844,0 125.51499938964844,0 125.51499938964844,0"></path></g></g><g opacity="1" transform="matrix(1,0,0,1,0,0)"><g opacity="1" transform="matrix(1,0,0,1,816.6480102539062,705.7789916992188)"><path fill="rgb(249,74,130)" fill-opacity="1" d=" M0,14.940999984741211 C0,14.940999984741211 0,-14.940999984741211 0,-14.940999984741211 C0,-27.01799964904785 9.789999961853027,-36.80799865722656 21.867000579833984,-36.80799865722656 C21.867000579833984,-36.80799865722656 382.64801025390625,-36.80799865722656 382.64801025390625,-36.80799865722656 C382.64801025390625,-36.80799865722656 382.64801025390625,-48.678001403808594 382.64801025390625,-48.678001403808594 C382.64801025390625,-48.678001403808594 -360.781005859375,-48.678001403808594 -360.781005859375,-48.678001403808594 C-372.8580017089844,-48.678001403808594 -382.64801025390625,-38.88800048828125 -382.64801025390625,-26.81100082397461 C-382.64801025390625,-26.81100082397461 -382.64801025390625,26.81100082397461 -382.64801025390625,26.81100082397461 C-382.64801025390625,38.88800048828125 -372.8580017089844,48.678001403808594 -360.781005859375,48.678001403808594 C-360.781005859375,48.678001403808594 382.64801025390625,48.678001403808594 382.64801025390625,48.678001403808594 C382.64801025390625,48.678001403808594 382.64801025390625,36.80799865722656 382.64801025390625,36.80799865722656 C382.64801025390625,36.80799865722656 21.867000579833984,36.80799865722656 21.867000579833984,36.80799865722656 C9.789999961853027,36.80799865722656 0,27.01799964904785 0,14.940999984741211z"></path><path stroke-linecap="round" stroke-linejoin="round" fill-opacity="0" stroke="rgb(32,40,112)" stroke-opacity="1" stroke-width="2" d=" M0,14.940999984741211 C0,14.940999984741211 0,-14.940999984741211 0,-14.940999984741211 C0,-27.01799964904785 9.789999961853027,-36.80799865722656 21.867000579833984,-36.80799865722656 C21.867000579833984,-36.80799865722656 382.64801025390625,-36.80799865722656 382.64801025390625,-36.80799865722656 C382.64801025390625,-36.80799865722656 382.64801025390625,-48.678001403808594 382.64801025390625,-48.678001403808594 C382.64801025390625,-48.678001403808594 -360.781005859375,-48.678001403808594 -360.781005859375,-48.678001403808594 C-372.8580017089844,-48.678001403808594 -382.64801025390625,-38.88800048828125 -382.64801025390625,-26.81100082397461 C-382.64801025390625,-26.81100082397461 -382.64801025390625,26.81100082397461 -382.64801025390625,26.81100082397461 C-382.64801025390625,38.88800048828125 -372.8580017089844,48.678001403808594 -360.781005859375,48.678001403808594 C-360.781005859375,48.678001403808594 382.64801025390625,48.678001403808594 382.64801025390625,48.678001403808594 C382.64801025390625,48.678001403808594 382.64801025390625,36.80799865722656 382.64801025390625,36.80799865722656 C382.64801025390625,36.80799865722656 21.867000579833984,36.80799865722656 21.867000579833984,36.80799865722656 C9.789999961853027,36.80799865722656 0,27.01799964904785 0,14.940999984741211z"></path></g><g opacity="1" transform="matrix(1,0,0,1,805.6669921875,705.7789916992188)"><path stroke-linecap="round" stroke-linejoin="round" fill-opacity="0" stroke="rgb(32,40,112)" stroke-opacity="1" stroke-width="2" d=" M10.932999610900879,-48.678001403808594 C-1.1440000534057617,-48.678001403808594 -10.932999610900879,-38.88800048828125 -10.932999610900879,-26.81100082397461 C-10.932999610900879,-26.81100082397461 -10.932999610900879,26.81100082397461 -10.932999610900879,26.81100082397461 C-10.932999610900879,38.88800048828125 -1.1440000534057617,48.678001403808594 10.932999610900879,48.678001403808594"></path></g></g></g></g></svg>