<svg xmlns="http://www.w3.org/2000/svg" xmlns:xlink="http://www.w3.org/1999/xlink" viewBox="0 0 1600 1600" width="1600" height="1600" preserveAspectRatio="xMidYMid meet" style="width: 100%; height: 100%; transform: translate3d(0px, 0px, 0px); content-visibility: visible;"><defs><clipPath id="__lottie_element_2"><rect width="1600" height="1600" x="0" y="0"></rect></clipPath><clipPath id="__lottie_element_28"><path d="M0,0 L1600,0 L1600,1600 L0,1600z"></path></clipPath><clipPath id="__lottie_element_47"><path d="M0,0 L1600,0 L1600,1600 L0,1600z"></path></clipPath></defs><g clip-path="url(#__lottie_element_2)"><g clip-path="url(#__lottie_element_47)" transform="matrix(1,0,0,1,0,0)" opacity="1" style="display: block;"><g transform="matrix(0.9828774929046631,0.18426014482975006,-0.18426014482975006,0.9828774929046631,744.4134521484375,913.1433715820312)" opacity="1" style="display: block;"><g opacity="1" transform="matrix(1,0,0,1,0,0)"><path fill="rgb(254,52,86)" fill-opacity="1" d=" M-626.9970092773438,-254.8679962158203 C-626.9970092773438,-254.8679962158203 -641.6740112304688,-265.6610107421875 -641.6740112304688,-265.6610107421875 C-641.6740112304688,-265.6610107421875 -630.8809814453125,-280.3380126953125 -630.8809814453125,-280.3380126953125 C-630.8809814453125,-280.3380126953125 -616.2039794921875,-269.5450134277344 -616.2039794921875,-269.5450134277344 C-616.2039794921875,-269.5450134277344 -626.9970092773438,-254.8679962158203 -626.9970092773438,-254.8679962158203z"></path></g></g><g transform="matrix(0.994954526424408,0.10032698512077332,-0.10032698512077332,0.994954526424408,788.5458374023438,864.603515625)" opacity="1" style="display: block;"><g opacity="1" transform="matrix(1,0,0,1,0,0)"><path fill="rgb(255,192,68)" fill-opacity="1" d=" M-607.8309936523438,-38.944000244140625 C-607.8309936523438,-38.944000244140625 -633.0050048828125,-45.15399932861328 -633.0050048828125,-45.15399932861328 C-633.0050048828125,-45.15399932861328 -626.7949829101562,-70.3280029296875 -626.7949829101562,-70.3280029296875 C-626.7949829101562,-70.3280029296875 -601.6209716796875,-64.11799621582031 -601.6209716796875,-64.11799621582031 C-601.6209716796875,-64.11799621582031 -607.8309936523438,-38.944000244140625 -607.8309936523438,-38.944000244140625z"></path></g></g><g transform="matrix(0.9982646107673645,-0.05888822674751282,0.05888822674751282,0.9982646107673645,816.694580078125,772.7847290039062)" opacity="1" style="display: block;"><g opacity="1" transform="matrix(1,0,0,1,0,0)"><path fill="rgb(239,228,181)" fill-opacity="1" d=" M-369.4729919433594,-383.9840087890625 C-409.4289855957031,-382.86199951171875 -410.2080078125,-381.9519958496094 -411.1669921875,-335.2239990234375 C-412.1260070800781,-381.9519958496094 -412.90399169921875,-382.86199951171875 -452.8599853515625,-383.9840087890625 C-412.90399169921875,-385.1059875488281 -412.1260070800781,-386.0159912109375 -411.1669921875,-432.7439880371094 C-410.2080078125,-386.0159912109375 -409.4289855957031,-385.1059875488281 -369.4729919433594,-383.9840087890625z"></path></g></g><g transform="matrix(0.9900850653648376,0.1404692381620407,-0.1404692381620407,0.9900850653648376,802.8294067382812,743.7286987304688)" opacity="1" style="display: block;"><g opacity="1" transform="matrix(1,0,0,1,0,0)"><path fill="rgb(239,228,181)" fill-opacity="1" d=" M252.94200134277344,-50.12099838256836 C219.2100067138672,-49.17399978637695 218.5540008544922,-48.40599822998047 217.74400329589844,-8.956999778747559 C216.9340057373047,-48.40599822998047 216.2779998779297,-49.17399978637695 182.54600524902344,-50.12099838256836 C216.2779998779297,-51.06800079345703 216.9340057373047,-51.83599853515625 217.74400329589844,-91.28500366210938 C218.5540008544922,-51.83599853515625 219.2100067138672,-51.06800079345703 252.94200134277344,-50.12099838256836z"></path></g></g><g transform="matrix(0.9970768094062805,0.07640579342842102,-0.07640579342842102,0.9970768094062805,782.9692993164062,771.6891479492188)" opacity="1" style="display: block;"><g opacity="1" transform="matrix(1,0,0,1,0,0)"><path fill="rgb(239,228,181)" fill-opacity="1" d=" M392.0119934082031,-367.4949951171875 C358.2799987792969,-366.5480041503906 357.62298583984375,-365.7799987792969 356.81298828125,-326.33099365234375 C356.00299072265625,-365.7799987792969 355.34698486328125,-366.5480041503906 321.614990234375,-367.4949951171875 C355.34698486328125,-368.4419860839844 356.00299072265625,-369.2099914550781 356.81298828125,-408.65899658203125 C357.62298583984375,-369.2099914550781 358.2799987792969,-368.4419860839844 392.0119934082031,-367.4949951171875z"></path></g></g><g transform="matrix(0.9908093214035034,-0.13526597619056702,0.13526597619056702,0.9908093214035034,781.2131958007812,750.7667236328125)" opacity="1" style="display: block;"><g opacity="1" transform="matrix(1,0,0,1,0,0)"><path fill="rgb(70,131,236)" fill-opacity="1" d=" M-354.9010009765625,1.3029999732971191 C-380.52899169921875,2.0230000019073486 -381.02801513671875,2.6050000190734863 -381.64300537109375,32.57699966430664 C-382.25799560546875,2.6050000190734863 -382.7569885253906,2.0230000019073486 -408.385009765625,1.3029999732971191 C-382.7569885253906,0.5830000042915344 -382.25799560546875,0 -381.64300537109375,-29.972000122070312 C-381.02801513671875,0 -380.52899169921875,0.5830000042915344 -354.9010009765625,1.3029999732971191z"></path></g></g><g transform="matrix(0.8801130056381226,-0.47476422786712646,0.47476422786712646,0.8801130056381226,990.0548095703125,703.9368286132812)" opacity="1" style="display: block;"><g opacity="1" transform="matrix(1,0,0,1,0,0)"><path fill="rgb(70,131,236)" fill-opacity="1" d=" M-28.875999450683594,-454.5260009765625 C-54.50400161743164,-453.8059997558594 -55.00299835205078,-453.2229919433594 -55.61800003051758,-423.2510070800781 C-56.233001708984375,-453.2229919433594 -56.733001708984375,-453.8059997558594 -82.36100006103516,-454.5260009765625 C-56.733001708984375,-455.2460021972656 -56.233001708984375,-455.8290100097656 -55.61800003051758,-485.8009948730469 C-55.00299835205078,-455.8290100097656 -54.50400161743164,-455.2460021972656 -28.875999450683594,-454.5260009765625z"></path></g></g><g transform="matrix(0.9783394932746887,-0.2070067971944809,0.2070067971944809,0.9783394932746887,793.1258544921875,862.7036743164062)" opacity="1" style="display: block;"><g opacity="1" transform="matrix(1,0,0,1,0,0)"><path fill="rgb(70,131,236)" fill-opacity="1" d=" M457.4159851074219,1.3029999732971191 C431.7879943847656,2.0230000019073486 431.28900146484375,2.6050000190734863 430.67401123046875,32.57699966430664 C430.0589904785156,2.6050000190734863 429.55999755859375,2.0230000019073486 403.9320068359375,1.3029999732971191 C429.55999755859375,0.5830000042915344 430.0589904785156,0 430.67401123046875,-29.972000122070312 C431.28900146484375,0 431.7879943847656,0.5830000042915344 457.4159851074219,1.3029999732971191z"></path></g></g><g transform="matrix(0.980098307132721,0.1985127180814743,-0.1985127180814743,0.980098307132721,707.7666625976562,874.764892578125)" opacity="1" style="display: block;"><g opacity="1" transform="matrix(1,0,0,1,0,0)"><path fill="rgb(254,52,86)" fill-opacity="1" d=" M-324.0260009765625,-511.84100341796875 C-324.0260009765625,-511.84100341796875 -338.7030029296875,-522.6339721679688 -338.7030029296875,-522.6339721679688 C-338.7030029296875,-522.6339721679688 -327.90899658203125,-537.3109741210938 -327.90899658203125,-537.3109741210938 C-327.90899658203125,-537.3109741210938 -313.23199462890625,-526.5180053710938 -313.23199462890625,-526.5180053710938 C-313.23199462890625,-526.5180053710938 -324.0260009765625,-511.84100341796875 -324.0260009765625,-511.84100341796875z"></path></g></g><g transform="matrix(0.936800479888916,0.34986403584480286,-0.34986403584480286,0.936800479888916,855.1101684570312,774.8966064453125)" opacity="1" style="display: block;"><g opacity="1" transform="matrix(1,0,0,1,0,0)"><path fill="rgb(70,131,236)" fill-opacity="1" d=" M141.44200134277344,41.11899948120117 C141.44200134277344,41.11899948120117 134.10299682617188,35.72200012207031 134.10299682617188,35.72200012207031 C134.10299682617188,35.72200012207031 139.5,28.384000778198242 139.5,28.384000778198242 C139.5,28.384000778198242 146.83799743652344,33.78099822998047 146.83799743652344,33.78099822998047 C146.83799743652344,33.78099822998047 141.44200134277344,41.11899948120117 141.44200134277344,41.11899948120117z"></path></g></g><g transform="matrix(0.9925184845924377,-0.1220945417881012,0.1220945417881012,0.9925184845924377,777.5671997070312,732.3975830078125)" opacity="1" style="display: block;"><g opacity="1" transform="matrix(1,0,0,1,0,0)"><path fill="rgb(2,139,52)" fill-opacity="1" d=" M-397.093994140625,194.95199584960938 C-397.093994140625,194.95199584960938 -404.6839904785156,183.73699951171875 -404.6839904785156,183.73699951171875 C-404.6839904785156,183.73699951171875 -393.4679870605469,176.14700317382812 -393.4679870605469,176.14700317382812 C-393.4679870605469,176.14700317382812 -385.87799072265625,187.36199951171875 -385.87799072265625,187.36199951171875 C-385.87799072265625,187.36199951171875 -397.093994140625,194.95199584960938 -397.093994140625,194.95199584960938z"></path></g></g><g transform="matrix(0.9911391735076904,-0.1328272670507431,0.1328272670507431,0.9911391735076904,865.6577758789062,764.10791015625)" opacity="1" style="display: block;"><g opacity="1" transform="matrix(1,0,0,1,0,0)"><path fill="rgb(70,131,236)" fill-opacity="1" d=" M-46.106998443603516,-519.97802734375 C-46.106998443603516,-519.97802734375 -53.44599914550781,-525.375 -53.44599914550781,-525.375 C-53.44599914550781,-525.375 -48.04899978637695,-532.7130126953125 -48.04899978637695,-532.7130126953125 C-48.04899978637695,-532.7130126953125 -40.71099853515625,-527.3159790039062 -40.71099853515625,-527.3159790039062 C-40.71099853515625,-527.3159790039062 -46.106998443603516,-519.97802734375 -46.106998443603516,-519.97802734375z"></path></g></g><g transform="matrix(0.9876582622528076,0.15662407875061035,-0.15662407875061035,0.9876582622528076,796.7675170898438,691.0846557617188)" opacity="1" style="display: block;"><g opacity="1" transform="matrix(1,0,0,1,0,0)"><path fill="rgb(70,131,236)" fill-opacity="1" d=" M551.447021484375,-51.23099899291992 C551.447021484375,-51.23099899291992 538.780029296875,-60.547000885009766 538.780029296875,-60.547000885009766 C538.780029296875,-60.547000885009766 548.094970703125,-73.21499633789062 548.094970703125,-73.21499633789062 C548.094970703125,-73.21499633789062 560.7630004882812,-63.89899826049805 560.7630004882812,-63.89899826049805 C560.7630004882812,-63.89899826049805 551.447021484375,-51.23099899291992 551.447021484375,-51.23099899291992z"></path></g></g><g transform="matrix(0.9908682703971863,0.13483363389968872,-0.13483363389968872,0.9908682703971863,830.8582763671875,807.9803466796875)" opacity="1" style="display: block;"><g opacity="1" transform="matrix(1,0,0,1,0,0)"><path fill="rgb(255,192,68)" fill-opacity="1" d=" M-162.96499633789062,186.56900024414062 C-162.96499633789062,186.56900024414062 -183.34300231933594,193.2740020751953 -183.34300231933594,193.2740020751953 C-183.34300231933594,193.2740020751953 -190.04800415039062,172.89599609375 -190.04800415039062,172.89599609375 C-190.04800415039062,172.89599609375 -169.6699981689453,166.1909942626953 -169.6699981689453,166.1909942626953 C-169.6699981689453,166.1909942626953 -162.96499633789062,186.56900024414062 -162.96499633789062,186.56900024414062z"></path></g></g><g transform="matrix(0.9429615139961243,0.33290183544158936,-0.33290183544158936,0.9429615139961243,699.2824096679688,679.4110107421875)" opacity="1" style="display: block;"><g opacity="1" transform="matrix(1,0,0,1,0,0)"><path fill="rgb(2,139,52)" fill-opacity="1" d=" M277.81500244140625,-392.6679992675781 C277.81500244140625,-392.6679992675781 292.0400085449219,-397.3479919433594 292.0400085449219,-397.3479919433594 C292.0400085449219,-397.3479919433594 296.7200012207031,-383.12298583984375 296.7200012207031,-383.12298583984375 C296.7200012207031,-383.12298583984375 282.4949951171875,-378.4429931640625 282.4949951171875,-378.4429931640625 C282.4949951171875,-378.4429931640625 277.81500244140625,-392.6679992675781 277.81500244140625,-392.6679992675781z"></path></g></g><g transform="matrix(0.9715077877044678,0.23700770735740662,-0.23700770735740662,0.9715077877044678,769.7564697265625,671.0675048828125)" opacity="1" style="display: block;"><g opacity="1" transform="matrix(1,0,0,1,0,0)"><path fill="rgb(255,192,68)" fill-opacity="1" d=" M517.8569946289062,-247.53599548339844 C517.8569946289062,-247.53599548339844 496.2030029296875,-252.8780059814453 496.2030029296875,-252.8780059814453 C496.2030029296875,-252.8780059814453 501.5450134277344,-274.5320129394531 501.5450134277344,-274.5320129394531 C501.5450134277344,-274.5320129394531 523.198974609375,-269.19000244140625 523.198974609375,-269.19000244140625 C523.198974609375,-269.19000244140625 517.8569946289062,-247.53599548339844 517.8569946289062,-247.53599548339844z"></path></g></g><g transform="matrix(0.9999715685844421,0.007539751008152962,-0.007539751008152962,0.9999715685844421,796.0784912109375,819.9838256835938)" opacity="1" style="display: block;"><g opacity="1" transform="matrix(1,0,0,1,0,0)"><path fill="rgb(239,228,181)" fill-opacity="1" d=" M-71.44400024414062,84.29199981689453 C-71.44400024414062,84.29199981689453 -65.89600372314453,86.552001953125 -65.89600372314453,86.552001953125 C-65.89600372314453,86.552001953125 -84.98400115966797,133.406005859375 -84.98400115966797,133.406005859375 C-84.98400115966797,133.406005859375 -90.53199768066406,131.14500427246094 -90.53199768066406,131.14500427246094 C-90.53199768066406,131.14500427246094 -71.44400024414062,84.29199981689453 -71.44400024414062,84.29199981689453z"></path></g></g><g transform="matrix(0.9733192324638367,0.22945521771907806,-0.22945521771907806,0.9733192324638367,774.0166015625,750.6819458007812)" opacity="1" style="display: block;"><g opacity="1" transform="matrix(1,0,0,1,0,0)"><path fill="rgb(70,131,236)" fill-opacity="1" d=" M221.49600219726562,-106.08399963378906 C221.49600219726562,-106.08399963378906 222.61000061035156,-111.97100067138672 222.61000061035156,-111.97100067138672 C222.61000061035156,-111.97100067138672 272.3210144042969,-102.56800079345703 272.3210144042969,-102.56800079345703 C272.3210144042969,-102.56800079345703 271.2070007324219,-96.68099975585938 271.2070007324219,-96.68099975585938 C271.2070007324219,-96.68099975585938 221.49600219726562,-106.08399963378906 221.49600219726562,-106.08399963378906z"></path></g></g><g transform="matrix(0.9488484859466553,0.31573185324668884,-0.31573185324668884,0.9488484859466553,834.5358276367188,764.7252197265625)" opacity="1" style="display: block;"><g opacity="1" transform="matrix(1,0,0,1,0,0)"><path fill="rgb(255,192,68)" fill-opacity="1" d=" M25.91900062561035,75.11000061035156 C25.91900062561035,75.11000061035156 19.929000854492188,75.02999877929688 19.929000854492188,75.02999877929688 C19.929000854492188,75.02999877929688 20.60700035095215,24.441999435424805 20.60700035095215,24.441999435424805 C20.60700035095215,24.441999435424805 26.597000122070312,24.52199935913086 26.597000122070312,24.52199935913086 C26.597000122070312,24.52199935913086 25.91900062561035,75.11000061035156 25.91900062561035,75.11000061035156z"></path></g></g><g transform="matrix(0.9929344654083252,0.11866392195224762,-0.11866392195224762,0.9929344654083252,836.5287475585938,762.3388671875)" opacity="1" style="display: block;"><g opacity="1" transform="matrix(1,0,0,1,0,0)"><path fill="rgb(255,192,68)" fill-opacity="1" d=" M84.68800354003906,143.8769989013672 C84.68800354003906,143.8769989013672 89.70899963378906,154.05099487304688 89.70899963378906,154.05099487304688 C89.70899963378906,154.05099487304688 100.93699645996094,155.68299865722656 100.93699645996094,155.68299865722656 C103.00199890136719,155.98300170898438 103.8270034790039,158.52000427246094 102.33300018310547,159.9770050048828 C102.33300018310547,159.9770050048828 94.20800018310547,167.89700317382812 94.20800018310547,167.89700317382812 C94.20800018310547,167.89700317382812 96.1259994506836,179.0800018310547 96.1259994506836,179.0800018310547 C96.47899627685547,181.13699340820312 94.31999969482422,182.7050018310547 92.4729995727539,181.73399353027344 C92.4729995727539,181.73399353027344 82.43000030517578,176.45399475097656 82.43000030517578,176.45399475097656 C82.43000030517578,176.45399475097656 72.38700103759766,181.73399353027344 72.38700103759766,181.73399353027344 C70.54000091552734,182.7050018310547 68.38099670410156,181.13699340820312 68.73400115966797,179.0800018310547 C68.73400115966797,179.0800018310547 70.6520004272461,167.89700317382812 70.6520004272461,167.89700317382812 C70.6520004272461,167.89700317382812 62.52799987792969,159.9770050048828 62.52799987792969,159.9770050048828 C61.034000396728516,158.52000427246094 61.858001708984375,155.98300170898438 63.92300033569336,155.68299865722656 C63.92300033569336,155.68299865722656 75.1510009765625,154.05099487304688 75.1510009765625,154.05099487304688 C75.1510009765625,154.05099487304688 80.1719970703125,143.8769989013672 80.1719970703125,143.8769989013672 C81.09600067138672,142.00599670410156 83.76399993896484,142.00599670410156 84.68800354003906,143.8769989013672z"></path></g></g><g transform="matrix(0.924811840057373,-0.380424827337265,0.380424827337265,0.924811840057373,986.941650390625,890.5763549804688)" opacity="1" style="display: block;"><g opacity="1" transform="matrix(1,0,0,1,0,0)"><path fill="rgb(255,192,68)" fill-opacity="1" d=" M349.5379943847656,-468.97100830078125 C349.5379943847656,-468.97100830078125 354.5589904785156,-458.7969970703125 354.5589904785156,-458.7969970703125 C354.5589904785156,-458.7969970703125 365.7879943847656,-457.1650085449219 365.7879943847656,-457.1650085449219 C367.8529968261719,-456.864990234375 368.677001953125,-454.3280029296875 367.1830139160156,-452.8710021972656 C367.1830139160156,-452.8710021972656 359.0580139160156,-444.95098876953125 359.0580139160156,-444.95098876953125 C359.0580139160156,-444.95098876953125 360.97601318359375,-433.76800537109375 360.97601318359375,-433.76800537109375 C361.3290100097656,-431.71099853515625 359.1700134277344,-430.14300537109375 357.322998046875,-431.114013671875 C357.322998046875,-431.114013671875 347.2799987792969,-436.3940124511719 347.2799987792969,-436.3940124511719 C347.2799987792969,-436.3940124511719 337.2380065917969,-431.114013671875 337.2380065917969,-431.114013671875 C335.3909912109375,-430.14300537109375 333.23199462890625,-431.71099853515625 333.5849914550781,-433.76800537109375 C333.5849914550781,-433.76800537109375 335.50299072265625,-444.95098876953125 335.50299072265625,-444.95098876953125 C335.50299072265625,-444.95098876953125 327.37799072265625,-452.8710021972656 327.37799072265625,-452.8710021972656 C325.8840026855469,-454.3280029296875 326.7080078125,-456.864990234375 328.77301025390625,-457.1650085449219 C328.77301025390625,-457.1650085449219 340.0010070800781,-458.7969970703125 340.0010070800781,-458.7969970703125 C340.0010070800781,-458.7969970703125 345.02301025390625,-468.97100830078125 345.02301025390625,-468.97100830078125 C345.9469909667969,-470.8420104980469 348.614013671875,-470.8420104980469 349.5379943847656,-468.97100830078125z"></path></g></g></g><g clip-path="url(#__lottie_element_28)" transform="matrix(1,0,0,1,0,0)" opacity="1" style="display: block;"><g transform="matrix(0.9999715685844421,0.007539751008152962,-0.007539751008152962,0.9999715685844421,548.8839721679688,846.0130004882812)" opacity="1" style="display: block;"><g opacity="1" transform="matrix(1,0,0,1,0,0)"><path stroke-linecap="round" stroke-linejoin="round" fill-opacity="0" stroke="rgb(2,139,52)" stroke-opacity="1" stroke-width="1.7" d=" M-74.02300262451172,39.0369987487793 C-66.54299926757812,40.263999938964844 -57.435001373291016,51.12699890136719 -50.909000396728516,46.709999084472656 C-42.90399932861328,41.292999267578125 -54.792999267578125,23.725000381469727 -46.78799819946289,18.308000564575195 C-38.78300094604492,12.890000343322754 -26.89299964904785,30.458999633789062 -18.88800048828125,25.041000366210938 C-10.881999969482422,19.62299919128418 -22.770999908447266,2.053999900817871 -14.765000343322754,-3.364000082015991 C-6.761000156402588,-8.781000137329102 5.127999782562256,8.788000106811523 13.131999969482422,3.371000051498413 C21.138999938964844,-2.0480000972747803 9.25,-19.614999771118164 17.256999969482422,-25.034000396728516 C25.26099967956543,-30.451000213623047 37.1510009765625,-12.883000373840332 45.154998779296875,-18.299999237060547 C53.165000915527344,-23.72100067138672 41.275001525878906,-41.28799819946289 49.28499984741211,-46.70899963378906 C56.29399871826172,-51.45199966430664 66.27200317382812,-38.59400177001953 74.02300262451172,-38.9370002746582"></path></g></g><g transform="matrix(0.9733192324638367,0.22945521771907806,-0.22945521771907806,0.9733192324638367,566.9650268554688,376.25201416015625)" opacity="1" style="display: block;"><g opacity="1" transform="matrix(1,0,0,1,0,0)"><path stroke-linecap="round" stroke-linejoin="round" fill-opacity="0" stroke="rgb(254,52,86)" stroke-opacity="1" stroke-width="1.7" d=" M61.31700134277344,56.67599868774414 C59.965999603271484,49.21799850463867 67.14800262451172,36.994998931884766 60.79999923706055,32.32600021362305 C53.01300048828125,26.600000381469727 40.44599914550781,43.68899917602539 32.659000396728516,37.9630012512207 C24.871999740600586,32.236000061035156 37.43899917602539,15.147000312805176 29.652000427246094,9.420000076293945 C21.86400032043457,3.693000078201294 9.295999526977539,20.781999588012695 1.5080000162124634,15.055000305175781 C-6.2779998779296875,9.329000473022461 6.289999961853027,-7.760000228881836 -1.496000051498413,-13.486000061035156 C-9.28499984741211,-19.214000701904297 -21.851999282836914,-2.124000072479248 -29.641000747680664,-7.8520002365112305 C-37.426998138427734,-13.57800006866455 -24.860000610351562,-30.66699981689453 -32.645999908447266,-36.393001556396484 C-40.4379997253418,-42.12300109863281 -53.005001068115234,-25.034000396728516 -60.797000885009766,-30.763999938964844 C-67.61499786376953,-35.77799987792969 -58.84400177001953,-49.487998962402344 -61.76499938964844,-56.67599868774414"></path></g></g><g transform="matrix(0.9488484859466553,0.31573185324668884,-0.31573185324668884,0.9488484859466553,1171.779052734375,478.38299560546875)" opacity="1" style="display: block;"><g opacity="1" transform="matrix(1,0,0,1,0,0)"><path stroke-linecap="round" stroke-linejoin="round" fill-opacity="0" stroke="rgb(70,131,236)" stroke-opacity="1" stroke-width="1.7" d=" M-46.619998931884766,-5.804999828338623 C-40.78300094604492,-0.9700000286102295 -38.40399932861328,13.005999565124512 -30.541000366210938,12.48799991607666 C-20.895999908447266,11.852999687194824 -22.288999557495117,-9.314000129699707 -12.644000053405762,-9.949000358581543 C-2.999000072479248,-10.583999633789062 -1.6059999465942383,10.583999633789062 8.038999557495117,9.949000358581543 C17.684999465942383,9.314000129699707 16.292999267578125,-11.852999687194824 25.93899917602539,-12.48799991607666 C35.58300018310547,-13.123000144958496 36.97600173950195,8.045000076293945 46.619998931884766,7.409999847412109"></path></g></g><g transform="matrix(0.9929344654083252,0.11866392195224762,-0.11866392195224762,0.9929344654083252,889.9110107421875,315.54998779296875)" opacity="1" style="display: block;"><g opacity="1" transform="matrix(1,0,0,1,0,0)"><path stroke-linecap="round" stroke-linejoin="round" fill-opacity="0" stroke="rgb(255,192,68)" stroke-opacity="1" stroke-width="1.7" d=" M-45.930999755859375,10.29800033569336 C-38.757999420166016,12.746999740600586 -31.575000762939453,24.969999313354492 -24.406999588012695,21.695999145507812 C-15.614999771118164,17.68000030517578 -24.42799949645996,-1.6150000095367432 -15.63599967956543,-5.63100004196167 C-6.843999862670898,-9.647000312805176 1.9700000286102295,9.64799976348877 10.76200008392334,5.631999969482422 C19.55500030517578,1.6160000562667847 10.741999626159668,-17.68000030517578 19.53499984741211,-21.695999145507812 C28.326000213623047,-25.711000442504883 37.13999938964844,-6.416999816894531 45.930999755859375,-10.432000160217285"></path></g></g><g transform="matrix(0.924811840057373,-0.380424827337265,0.380424827337265,0.924811840057373,1220.300048828125,690.7769775390625)" opacity="1" style="display: block;"><g opacity="1" transform="matrix(1,0,0,1,0,0)"><path stroke-linecap="round" stroke-linejoin="round" fill-opacity="0" stroke="rgb(255,192,68)" stroke-opacity="1" stroke-width="1.7" d=" M-22.78700065612793,-17.020000457763672 C-19.033000946044922,-10.4350004196167 -21.743000030517578,3.4800000190734863 -14.204000473022461,5.771999835968018 C-4.955999851226807,8.583999633789062 1.2139999866485596,-11.711000442504883 10.461999893188477,-8.89900016784668 C19.709999084472656,-6.086999893188477 13.538999557495117,14.208000183105469 22.78700065612793,17.020000457763672"></path></g></g></g><g transform="matrix(1,0,0,1,800,800)" opacity="1" style="display: block;"><g opacity="1" transform="matrix(1,0,0,1,0,0)"><path fill="rgb(70,131,236)" fill-opacity="1" d=" M225.25900268554688,-46.415000915527344 C225.25900268554688,-46.415000915527344 -491.0360107421875,-46.415000915527344 -491.0360107421875,-46.415000915527344 C-491.0360107421875,-46.415000915527344 -491.0360107421875,-374.6080017089844 -491.0360107421875,-374.6080017089844 C-491.0360107421875,-374.6080017089844 225.25900268554688,-374.6080017089844 225.25900268554688,-374.6080017089844 C225.25900268554688,-374.6080017089844 225.25900268554688,-46.415000915527344 225.25900268554688,-46.415000915527344z"></path></g><g opacity="1" transform="matrix(1,0,0,1,0,0)"><path fill="rgb(255,255,255)" fill-opacity="1" d=" M201.52699279785156,-71.93900299072266 C201.52699279785156,-71.93900299072266 -467.30499267578125,-71.93900299072266 -467.30499267578125,-71.93900299072266 C-467.30499267578125,-71.93900299072266 -467.30499267578125,-349.0840148925781 -467.30499267578125,-349.0840148925781 C-467.30499267578125,-349.0840148925781 201.52699279785156,-349.0840148925781 201.52699279785156,-349.0840148925781 C201.52699279785156,-349.0840148925781 201.52699279785156,-71.93900299072266 201.52699279785156,-71.93900299072266z"></path></g><g opacity="1" transform="matrix(1,0,0,1,0,0)"><path fill="rgb(254,52,86)" fill-opacity="1" d=" M164.343994140625,-196.3699951171875 C164.343994140625,-196.3699951171875 16.48200035095215,-196.3699951171875 16.48200035095215,-196.3699951171875 C16.48200035095215,-196.3699951171875 16.48200035095215,-244.53799438476562 16.48200035095215,-244.53799438476562 C16.48200035095215,-244.53799438476562 164.343994140625,-244.53799438476562 164.343994140625,-244.53799438476562 C164.343994140625,-244.53799438476562 164.343994140625,-196.3699951171875 164.343994140625,-196.3699951171875z"></path></g><g opacity="1" transform="matrix(1,0,0,1,0,0)"><g opacity="1" transform="matrix(1,0,0,1,0,0)"><path stroke-linecap="round" stroke-linejoin="round" fill-opacity="0" stroke="rgb(2,2,2)" stroke-opacity="1" stroke-width="1.7" d=" M-325.4010009765625,-278.58099365234375 C-325.4010009765625,-246.2989959716797 -351.5710144042969,-220.1300048828125 -383.8529968261719,-220.1300048828125 C-416.135009765625,-220.1300048828125 -442.3039855957031,-246.2989959716797 -442.3039855957031,-278.58099365234375 C-442.3039855957031,-310.8630065917969 -416.135009765625,-337.0329895019531 -383.8529968261719,-337.0329895019531 C-351.5710144042969,-337.0329895019531 -325.4010009765625,-310.8630065917969 -325.4010009765625,-278.58099365234375z"></path></g><g opacity="1" transform="matrix(1,0,0,1,0,0)"><path fill="rgb(254,52,86)" fill-opacity="1" d=" M-339.4440002441406,-278.58099365234375 C-339.4440002441406,-254.05499267578125 -359.3269958496094,-234.17300415039062 -383.8529968261719,-234.17300415039062 C-408.3789978027344,-234.17300415039062 -428.260986328125,-254.05499267578125 -428.260986328125,-278.58099365234375 C-428.260986328125,-303.10699462890625 -408.3789978027344,-322.989990234375 -383.8529968261719,-322.989990234375 C-359.3269958496094,-322.989990234375 -339.4440002441406,-303.10699462890625 -339.4440002441406,-278.58099365234375z"></path></g><g opacity="1" transform="matrix(1,0,0,1,0,0)"><path stroke-linecap="round" stroke-linejoin="round" fill-opacity="0" stroke="rgb(2,2,2)" stroke-opacity="1" stroke-width="1.7" d=" M-409.9320068359375,-278.58099365234375 C-409.9320068359375,-278.58099365234375 -357.77301025390625,-278.58099365234375 -357.77301025390625,-278.58099365234375"></path></g></g><g opacity="1" transform="matrix(1,0,0,1,0,0)"><path stroke-linecap="round" stroke-linejoin="round" fill-opacity="0" stroke="rgb(2,2,2)" stroke-opacity="1" stroke-width="1.7" d=" M164.343994140625,-123.23899841308594 C164.343994140625,-123.23899841308594 -72.51599884033203,-123.23899841308594 -72.51599884033203,-123.23899841308594"></path></g><g opacity="1" transform="matrix(1,0,0,1,0,0)"><path stroke-linecap="round" stroke-linejoin="round" fill-opacity="0" stroke="rgb(2,2,2)" stroke-opacity="1" stroke-width="1.7" d=" M-51.93000030517578,-290.3630065917969 C-51.93000030517578,-290.3630065917969 164.343994140625,-290.3630065917969 164.343994140625,-290.3630065917969"></path></g><g opacity="1" transform="matrix(1,0,0,1,0,0)"><g opacity="1" transform="matrix(1,0,0,1,0,0)"><g opacity="1" transform="matrix(1,0,0,1,0,0)"><path fill="rgb(255,255,255)" fill-opacity="1" d=" M54.983001708984375,-208.28700256347656 C54.983001708984375,-208.28700256347656 39.03900146484375,-208.28700256347656 39.03900146484375,-208.28700256347656 C39.03900146484375,-208.28700256347656 39.03900146484375,-210.50999450683594 39.03900146484375,-210.50999450683594 C39.03900146484375,-210.50999450683594 47.46200180053711,-219.86900329589844 47.46200180053711,-219.86900329589844 C48.709999084472656,-221.28399658203125 49.57099914550781,-222.43499755859375 50.04399871826172,-223.3209991455078 C50.516998291015625,-224.20599365234375 50.755001068115234,-225.1219940185547 50.755001068115234,-226.07000732421875 C50.755001068115234,-227.33999633789062 50.369998931884766,-228.3820037841797 49.60100173950195,-229.19500732421875 C48.83300018310547,-230.00799560546875 47.80699920654297,-230.4149932861328 46.5260009765625,-230.4149932861328 C44.987998962402344,-230.4149932861328 43.792999267578125,-229.9770050048828 42.941001892089844,-229.10299682617188 C42.0890007019043,-228.22799682617188 41.66299819946289,-227.01100158691406 41.66299819946289,-225.4510040283203 C41.66299819946289,-225.4510040283203 38.57099914550781,-225.4510040283203 38.57099914550781,-225.4510040283203 C38.57099914550781,-227.6909942626953 39.29100036621094,-229.50100708007812 40.73500061035156,-230.88299560546875 C42.176998138427734,-232.26499938964844 44.108001708984375,-232.9550018310547 46.5260009765625,-232.9550018310547 C48.78799819946289,-232.9550018310547 50.57600021362305,-232.36199951171875 51.89099884033203,-231.1750030517578 C53.20600128173828,-229.98800659179688 53.862998962402344,-228.40899658203125 53.862998962402344,-226.43699645996094 C53.862998962402344,-224.04100036621094 52.33700180053711,-221.18899536132812 49.284000396728516,-217.8800048828125 C49.284000396728516,-217.8800048828125 42.76499938964844,-210.80999755859375 42.76499938964844,-210.80999755859375 C42.76499938964844,-210.80999755859375 54.983001708984375,-210.80999755859375 54.983001708984375,-210.80999755859375 C54.983001708984375,-210.80999755859375 54.983001708984375,-208.28700256347656 54.983001708984375,-208.28700256347656z"></path></g><g opacity="1" transform="matrix(1,0,0,1,0,0)"><path fill="rgb(255,255,255)" fill-opacity="1" d=" M58.643001556396484,-209.9080047607422 C58.643001556396484,-210.4429931640625 58.80099868774414,-210.88800048828125 59.11899948120117,-211.2449951171875 C59.4370002746582,-211.6009979248047 59.91400146484375,-211.77999877929688 60.54899978637695,-211.77999877929688 C61.183998107910156,-211.77999877929688 61.66400146484375,-211.6009979248047 61.99399948120117,-211.2449951171875 C62.321998596191406,-210.88800048828125 62.48699951171875,-210.4429931640625 62.48699951171875,-209.9080047607422 C62.48699951171875,-209.39500427246094 62.321998596191406,-208.96600341796875 61.99399948120117,-208.62100219726562 C61.66400146484375,-208.2760009765625 61.183998107910156,-208.10299682617188 60.54899978637695,-208.10299682617188 C59.91400146484375,-208.10299682617188 59.4370002746582,-208.2760009765625 59.11899948120117,-208.62100219726562 C58.80099868774414,-208.96600341796875 58.643001556396484,-209.39500427246094 58.643001556396484,-209.9080047607422z"></path></g><g opacity="1" transform="matrix(1,0,0,1,0,0)"><path fill="rgb(255,255,255)" fill-opacity="1" d=" M82.5270004272461,-218.66600036621094 C82.5270004272461,-215.0449981689453 81.90799713134766,-212.35400390625 80.6719970703125,-210.59300231933594 C79.43499755859375,-208.83200073242188 77.5009994506836,-207.95199584960938 74.87100219726562,-207.95199584960938 C72.2750015258789,-207.95199584960938 70.35399627685547,-208.81300354003906 69.10600280761719,-210.53399658203125 C67.85800170898438,-212.2550048828125 67.21199798583984,-214.8260040283203 67.16699981689453,-218.2480010986328 C67.16699981689453,-218.2480010986328 67.16699981689453,-222.37600708007812 67.16699981689453,-222.37600708007812 C67.16699981689453,-225.9530029296875 67.78600311279297,-228.61000061035156 69.02200317382812,-230.3489990234375 C70.25900268554688,-232.08700561523438 72.1969985961914,-232.9550018310547 74.83799743652344,-232.9550018310547 C77.45700073242188,-232.9550018310547 79.38400268554688,-232.11599731445312 80.62100219726562,-230.44000244140625 C81.85800170898438,-228.76300048828125 82.49299621582031,-226.1750030517578 82.5270004272461,-222.677001953125 C82.5270004272461,-222.677001953125 82.5270004272461,-218.66600036621094 82.5270004272461,-218.66600036621094z M79.43499755859375,-222.8939971923828 C79.43499755859375,-225.51300048828125 79.06600189208984,-227.4199981689453 78.33100128173828,-228.6179962158203 C77.59600067138672,-229.8159942626953 76.43099975585938,-230.4149932861328 74.83799743652344,-230.4149932861328 C73.25599670410156,-230.4149932861328 72.10199737548828,-229.8179931640625 71.37799835205078,-228.62600708007812 C70.65399932861328,-227.4340057373047 70.28199768066406,-225.6009979248047 70.25900268554688,-223.1280059814453 C70.25900268554688,-223.1280059814453 70.25900268554688,-218.18099975585938 70.25900268554688,-218.18099975585938 C70.25900268554688,-215.55099487304688 70.63999938964844,-213.60899353027344 71.40399932861328,-212.3560028076172 C72.16699981689453,-211.10299682617188 73.322998046875,-210.4759979248047 74.87100219726562,-210.4759979248047 C76.39800262451172,-210.4759979248047 77.53199768066406,-211.0659942626953 78.27300262451172,-212.2469940185547 C79.01399993896484,-213.42799377441406 79.4010009765625,-215.2899932861328 79.43499755859375,-217.8300018310547 C79.43499755859375,-217.8300018310547 79.43499755859375,-222.8939971923828 79.43499755859375,-222.8939971923828z"></path></g><g opacity="1" transform="matrix(1,0,0,1,0,0)"><path fill="rgb(255,255,255)" fill-opacity="1" d=" M101.74700164794922,-218.66600036621094 C101.74700164794922,-215.0449981689453 101.12899780273438,-212.35400390625 99.89299774169922,-210.59300231933594 C98.65599822998047,-208.83200073242188 96.72200012207031,-207.95199584960938 94.09200286865234,-207.95199584960938 C91.49600219726562,-207.95199584960938 89.57499694824219,-208.81300354003906 88.3270034790039,-210.53399658203125 C87.0790023803711,-212.2550048828125 86.43299865722656,-214.8260040283203 86.38800048828125,-218.2480010986328 C86.38800048828125,-218.2480010986328 86.38800048828125,-222.37600708007812 86.38800048828125,-222.37600708007812 C86.38800048828125,-225.9530029296875 87.00700378417969,-228.61000061035156 88.24299621582031,-230.3489990234375 C89.4800033569336,-232.08700561523438 91.41799926757812,-232.9550018310547 94.05899810791016,-232.9550018310547 C96.6780014038086,-232.9550018310547 98.6050033569336,-232.11599731445312 99.84200286865234,-230.44000244140625 C101.0790023803711,-228.76300048828125 101.71299743652344,-226.1750030517578 101.74700164794922,-222.677001953125 C101.74700164794922,-222.677001953125 101.74700164794922,-218.66600036621094 101.74700164794922,-218.66600036621094z M98.65599822998047,-222.8939971923828 C98.65599822998047,-225.51300048828125 98.28700256347656,-227.4199981689453 97.552001953125,-228.6179962158203 C96.81700134277344,-229.8159942626953 95.6520004272461,-230.4149932861328 94.05899810791016,-230.4149932861328 C92.47699737548828,-230.4149932861328 91.322998046875,-229.8179931640625 90.5989990234375,-228.62600708007812 C89.875,-227.4340057373047 89.50299835205078,-225.6009979248047 89.4800033569336,-223.1280059814453 C89.4800033569336,-223.1280059814453 89.4800033569336,-218.18099975585938 89.4800033569336,-218.18099975585938 C89.4800033569336,-215.55099487304688 89.86100006103516,-213.60899353027344 90.625,-212.3560028076172 C91.38800048828125,-211.10299682617188 92.54399871826172,-210.4759979248047 94.09200286865234,-210.4759979248047 C95.61900329589844,-210.4759979248047 96.75299835205078,-211.0659942626953 97.49400329589844,-212.2469940185547 C98.23500061035156,-213.42799377441406 98.62200164794922,-215.2899932861328 98.65599822998047,-217.8300018310547 C98.65599822998047,-217.8300018310547 98.65599822998047,-222.8939971923828 98.65599822998047,-222.8939971923828z"></path></g><g opacity="1" transform="matrix(1,0,0,1,0,0)"><path fill="rgb(255,255,255)" fill-opacity="1" d=" M120.96800231933594,-218.66600036621094 C120.96800231933594,-215.0449981689453 120.3489990234375,-212.35400390625 119.11299896240234,-210.59300231933594 C117.8759994506836,-208.83200073242188 115.94200134277344,-207.95199584960938 113.31199645996094,-207.95199584960938 C110.71600341796875,-207.95199584960938 108.79499816894531,-208.81300354003906 107.5469970703125,-210.53399658203125 C106.29900360107422,-212.2550048828125 105.65299987792969,-214.8260040283203 105.60800170898438,-218.2480010986328 C105.60800170898438,-218.2480010986328 105.60800170898438,-222.37600708007812 105.60800170898438,-222.37600708007812 C105.60800170898438,-225.9530029296875 106.22699737548828,-228.61000061035156 107.46299743652344,-230.3489990234375 C108.69999694824219,-232.08700561523438 110.63800048828125,-232.9550018310547 113.27899932861328,-232.9550018310547 C115.89800262451172,-232.9550018310547 117.82499694824219,-232.11599731445312 119.06199645996094,-230.44000244140625 C120.29900360107422,-228.76300048828125 120.93399810791016,-226.1750030517578 120.96800231933594,-222.677001953125 C120.96800231933594,-222.677001953125 120.96800231933594,-218.66600036621094 120.96800231933594,-218.66600036621094z M117.8759994506836,-222.8939971923828 C117.8759994506836,-225.51300048828125 117.50700378417969,-227.4199981689453 116.77200317382812,-228.6179962158203 C116.03700256347656,-229.8159942626953 114.87200164794922,-230.4149932861328 113.27899932861328,-230.4149932861328 C111.6969985961914,-230.4149932861328 110.54299926757812,-229.8179931640625 109.81900024414062,-228.62600708007812 C109.09500122070312,-227.4340057373047 108.7229995727539,-225.6009979248047 108.69999694824219,-223.1280059814453 C108.69999694824219,-223.1280059814453 108.69999694824219,-218.18099975585938 108.69999694824219,-218.18099975585938 C108.69999694824219,-215.55099487304688 109.08100128173828,-213.60899353027344 109.84500122070312,-212.3560028076172 C110.60800170898438,-211.10299682617188 111.76399993896484,-210.4759979248047 113.31199645996094,-210.4759979248047 C114.83899688720703,-210.4759979248047 115.9729995727539,-211.0659942626953 116.71399688720703,-212.2469940185547 C117.45500183105469,-213.42799377441406 117.84200286865234,-215.2899932861328 117.8759994506836,-217.8300018310547 C117.8759994506836,-217.8300018310547 117.8759994506836,-222.8939971923828 117.8759994506836,-222.8939971923828z"></path></g></g><g opacity="1" transform="matrix(1,0,0,1,0,0)"><g opacity="1" transform="matrix(1,0,0,1,0,0)"><path fill="rgb(255,255,255)" fill-opacity="1" d=" M139.27000427246094,-214.52999877929688 C139.27000427246094,-215.52000427246094 138.92300415039062,-216.35299682617188 138.22799682617188,-217.031005859375 C137.53399658203125,-217.70899963378906 136.36399841308594,-218.32400512695312 134.71800231933594,-218.8719940185547 C132.42599487304688,-219.57200622558594 130.7550048828125,-220.48300170898438 129.70599365234375,-221.60699462890625 C128.65699768066406,-222.7310028076172 128.1320037841797,-224.16000366210938 128.1320037841797,-225.89300537109375 C128.1320037841797,-227.65699768066406 128.64700317382812,-229.10499572753906 129.6739959716797,-230.23500061035156 C130.7010040283203,-231.36500549316406 132.11399841308594,-232.03799438476562 133.91099548339844,-232.2530059814453 C133.91099548339844,-232.2530059814453 133.91099548339844,-235.78799438476562 133.91099548339844,-235.78799438476562 C133.91099548339844,-235.78799438476562 136.3159942626953,-235.78799438476562 136.3159942626953,-235.78799438476562 C136.3159942626953,-235.78799438476562 136.3159942626953,-232.23699951171875 136.3159942626953,-232.23699951171875 C138.12399291992188,-231.99000549316406 139.52999877929688,-231.22999572753906 140.53599548339844,-229.9600067138672 C141.54200744628906,-228.6909942626953 142.04600524902344,-226.9530029296875 142.04600524902344,-224.7469940185547 C142.04600524902344,-224.7469940185547 139.0760040283203,-224.7469940185547 139.0760040283203,-224.7469940185547 C139.0760040283203,-226.27000427246094 138.71600341796875,-227.47900390625 137.9949951171875,-228.375 C137.2740020751953,-229.27000427246094 136.3000030517578,-229.718994140625 135.072998046875,-229.718994140625 C133.79200744628906,-229.718994140625 132.81300354003906,-229.38699340820312 132.13499450683594,-228.7239990234375 C131.45700073242188,-228.06100463867188 131.11900329589844,-227.13699340820312 131.11900329589844,-225.9510040283203 C131.11900329589844,-224.8509979248047 131.4759979248047,-223.97500610351562 132.19200134277344,-223.322998046875 C132.9080047607422,-222.67100524902344 134.08599853515625,-222.0780029296875 135.7270050048828,-221.54400634765625 C137.3679962158203,-221.00999450683594 138.6490020751953,-220.4239959716797 139.56900024414062,-219.78399658203125 C140.48899841308594,-219.1439971923828 141.16600036621094,-218.3990020751953 141.6020050048828,-217.5489959716797 C142.03799438476562,-216.697998046875 142.25599670410156,-215.7030029296875 142.25599670410156,-214.56199645996094 C142.25599670410156,-212.74400329589844 141.70899963378906,-211.27999877929688 140.6179962158203,-210.1719970703125 C139.5260009765625,-209.06300354003906 137.99400329589844,-208.40699768066406 136.02499389648438,-208.20199584960938 C136.02499389648438,-208.20199584960938 136.02499389648438,-205.1199951171875 136.02499389648438,-205.1199951171875 C136.02499389648438,-205.1199951171875 133.63699340820312,-205.1199951171875 133.63699340820312,-205.1199951171875 C133.63699340820312,-205.1199951171875 133.63699340820312,-208.20199584960938 133.63699340820312,-208.20199584960938 C131.63600158691406,-208.38499450683594 130.0659942626953,-209.0989990234375 128.93099975585938,-210.34100341796875 C127.7959976196289,-211.58399963378906 127.22799682617188,-213.27099609375 127.22799682617188,-215.40199279785156 C127.22799682617188,-215.40199279785156 130.21499633789062,-215.40199279785156 130.21499633789062,-215.40199279785156 C130.21499633789062,-213.906005859375 130.60699462890625,-212.7550048828125 131.39300537109375,-211.94700622558594 C132.17799377441406,-211.13999938964844 133.29200744628906,-210.73699951171875 134.73399353027344,-210.73699951171875 C136.14300537109375,-210.73699951171875 137.2519989013672,-211.0760040283203 138.0590057373047,-211.75399780273438 C138.86700439453125,-212.4320068359375 139.27000427246094,-213.35699462890625 139.27000427246094,-214.52999877929688z"></path></g></g></g></g><g transform="matrix(1,0,0,1,532.2050170898438,626.239013671875)" opacity="1" style="display: block;"><g opacity="1" transform="matrix(1,0,0,1,0,0)"><path stroke-linecap="round" stroke-linejoin="round" fill-opacity="0" stroke="rgb(2,2,2)" stroke-opacity="1" stroke-width="1.7" d=" M-157.572998046875,0 C-157.572998046875,0 157.572998046875,0 157.572998046875,0"></path></g></g><g transform="matrix(1,0,0,1,473.38299560546875,676.760986328125)" opacity="1" style="display: block;"><g opacity="1" transform="matrix(1,0,0,1,0,0)"><path stroke-linecap="round" stroke-linejoin="round" fill-opacity="0" stroke="rgb(2,2,2)" stroke-opacity="1" stroke-width="1.7" d=" M-96.88899993896484,0 C-96.88899993896484,0 96.88899993896484,0 96.88899993896484,0"></path></g></g><g style="display: none;"><g><path stroke-linecap="round" stroke-linejoin="round" fill-opacity="0"></path></g></g><g style="display: none;"><g><path stroke-linecap="round" stroke-linejoin="round" fill-opacity="0"></path></g></g><g transform="matrix(1,0,0,1,800,800)" opacity="1" style="display: block;"><g opacity="1" transform="matrix(1,0,0,1,0,0)"><path stroke-linecap="round" stroke-linejoin="round" fill-opacity="0" stroke="rgb(2,2,2)" stroke-opacity="1" stroke-width="1.7" d="M0 0"></path></g></g><g transform="matrix(1,0,0,1,800,920)" opacity="1" style="display: block;"><g opacity="1" transform="matrix(1,0,0,1,0,0)"><g opacity="1" transform="matrix(1,0,0,1,0,0)"><g opacity="1" transform="matrix(1,0,0,1,0,0)"><g opacity="1" transform="matrix(1,0,0,1,0,0)"><path fill="rgb(2,2,2)" fill-opacity="1" d=" M237.16600036621094,121.18900299072266 C237.81100463867188,128.0050048828125 239.91200256347656,155.52999877929688 260.031005859375,155.9040069580078 C275.7489929199219,156.1959991455078 284.4010009765625,136.7050018310547 291.9410095214844,111.60800170898438 C295.6419982910156,99.29100036621094 312.4800109863281,52.5359992980957 311.67401123046875,54.207000732421875 C311.67401123046875,54.207000732421875 243.33700561523438,40 243.33700561523438,40 C243.33700561523438,40 235.77499389648438,106.48600006103516 237.16600036621094,121.18900299072266z"></path></g><g opacity="1" transform="matrix(1,0,0,1,0,0)"><path fill="rgb(2,2,2)" fill-opacity="1" d=" M246.55099487304688,28.75 C254.95799255371094,11.317000389099121 275.906005859375,4 293.3389892578125,12.406999588012695 C310.7720031738281,20.81399917602539 318.0889892578125,41.762001037597656 309.6820068359375,59.19499969482422 C301.2749938964844,76.62799835205078 280.3269958496094,83.94499969482422 262.8940124511719,75.53800201416016 C245.46099853515625,67.13099670410156 238.1439971923828,46.18299865722656 246.55099487304688,28.75z"></path></g></g><g opacity="1" transform="matrix(1,0,0,1,0,0)"><g opacity="1" transform="matrix(1,0,0,1,0,0)"><path fill="rgb(2,2,2)" fill-opacity="1" d=" M391.7430114746094,56.15399932861328 C407.9259948730469,66.7699966430664 412.44000244140625,88.49500274658203 401.8240051269531,104.6780014038086 C391.2080078125,120.86100006103516 369.48199462890625,125.375 353.29901123046875,114.75900268554688 C337.1159973144531,104.14299774169922 332.6029968261719,82.41799926757812 343.218994140625,66.23500061035156 C353.8349914550781,50.051998138427734 375.55999755859375,45.53799819946289 391.7430114746094,56.15399932861328z"></path></g><g opacity="1" transform="matrix(1,0,0,1,0,0)"><path fill="rgb(2,2,2)" fill-opacity="1" d=" M263.5799865722656,75.90299987792969 C263.5799865722656,75.90299987792969 360.30499267578125,118.31099700927734 360.30499267578125,118.31099700927734 C360.30499267578125,118.31099700927734 388.4830017089844,54.25600051879883 388.4830017089844,54.25600051879883 C388.4830017089844,54.25600051879883 297.1310119628906,11.036999702453613 286.6059875488281,10.01200008392334 C286.6059875488281,10.01200008392334 263.5799865722656,75.90299987792969 263.5799865722656,75.90299987792969z"></path></g></g></g><g opacity="1" transform="matrix(1,0,0,1,0,0)"><g opacity="1" transform="matrix(1,0,0,1,0,0)"><g opacity="1" transform="matrix(1,0,0,1,0,0)"><path fill="rgb(255,124,81)" fill-opacity="1" d=" M173.21200561523438,97.23300170898438 C204.4199981689453,83.51599884033203 220.95399475097656,110.76899719238281 236.98199462890625,160.7779998779297 C239.02999877929688,167.16700744628906 241.2270050048828,172.70700073242188 243.1540069580078,178.4739990234375 C243.1540069580078,178.4739990234375 173.9550018310547,199.25799560546875 173.9550018310547,199.25799560546875 C160.89199829101562,155.7989959716797 151.48399353027344,106.78399658203125 173.21200561523438,97.23300170898438z"></path></g><g opacity="1" transform="matrix(1,0,0,1,0,0)"><path fill="rgb(255,124,81)" fill-opacity="1" d=" M180.43699645996094,212.0330047607422 C192.81399536132812,227.69000244140625 215.5399932861328,230.3489990234375 231.19700622558594,217.9720001220703 C246.85400390625,205.59500122070312 249.51300048828125,182.86900329589844 237.13600158691406,167.21200561523438 C224.75900268554688,151.55499267578125 202.0330047607422,148.89599609375 186.37600708007812,161.2729949951172 C170.718994140625,173.64999389648438 168.05999755859375,196.37600708007812 180.43699645996094,212.0330047607422z"></path></g></g><g opacity="1" transform="matrix(1,0,0,1,0,0)"><g opacity="1" transform="matrix(1,0,0,1,0,0)"><path fill="rgb(255,124,81)" fill-opacity="1" d=" M251.43499755859375,268.6369934082031 C270.1319885253906,275.6189880371094 290.9490051269531,266.12200927734375 297.9309997558594,247.4250030517578 C304.9129943847656,228.72799682617188 295.4159851074219,207.91099548339844 276.718994140625,200.9290008544922 C258.0220031738281,193.94700622558594 237.2050018310547,203.44400024414062 230.22300720214844,222.14100646972656 C223.24099731445312,240.83799743652344 232.73800659179688,261.6549987792969 251.43499755859375,268.6369934082031z"></path></g><g opacity="1" transform="matrix(1,0,0,1,0,0)"><path fill="rgb(255,124,81)" fill-opacity="1" d=" M184.20399475097656,216.03399658203125 C184.20399475097656,216.03399658203125 232.51300048828125,162.38800048828125 232.51300048828125,162.38800048828125 C264.1629943847656,189.2519989013672 285.1600036621094,205.3260040283203 285.1600036621094,205.3260040283203 C285.1600036621094,205.3260040283203 242.12899780273438,263.4259948730469 242.12899780273438,263.4259948730469 C242.12899780273438,263.4259948730469 213.2100067138672,242.218994140625 184.20399475097656,216.03399658203125z"></path></g></g></g><g opacity="1" transform="matrix(1,0,0,1,0,0)"><g opacity="1" transform="matrix(1,0,0,1,0,0)"><path fill="rgb(255,124,81)" fill-opacity="1" d=" M454.7699890136719,43.66999816894531 C428.8800048828125,19.06100082397461 409.9700012207031,27.722999572753906 409.9700012207031,27.722999572753906 C383.97900390625,17.364999771118164 360.7250061035156,34.9010009765625 360.7250061035156,34.9010009765625 C329.885009765625,16.02899932861328 312.97900390625,19.9060001373291 312.97900390625,19.9060001373291 C312.97900390625,19.9060001373291 291.4460144042969,129.0540008544922 291.4460144042969,129.0540008544922 C301.1029968261719,174.1739959716797 262.6679992675781,190.28500366210938 263.81201171875,191.0780029296875 C263.81201171875,191.0780029296875 243.0050048828125,263.9739990234375 243.0050048828125,263.9739990234375 C291.13299560546875,310.6839904785156 335.77899169921875,336.38800048828125 392.5159912109375,388.9100036621094 C392.5159912109375,388.9100036621094 527.5989990234375,292.5190124511719 527.5989990234375,292.5190124511719 C518.3400268554688,257.3160095214844 477.197998046875,64.98799896240234 454.7699890136719,43.66999816894531z"></path></g><g opacity="1" transform="matrix(1,0,0,1,0,0)"><path stroke-linecap="round" stroke-linejoin="round" fill-opacity="0" stroke="rgb(2,2,2)" stroke-opacity="1" stroke-width="1.7" d=" M259.8380126953125,184.4530029296875 C259.8380126953125,184.4530029296875 281.6780090332031,198.53599548339844 302.57501220703125,187.6529998779297"></path></g><g opacity="1" transform="matrix(1,0,0,1,0,0)"><path stroke-linecap="round" stroke-linejoin="round" fill-opacity="0" stroke="rgb(2,2,2)" stroke-opacity="1" stroke-width="1.7" d=" M362.010009765625,33.15599822998047 C362.010009765625,33.15599822998047 385.64300537109375,52.11800003051758 385.64300537109375,52.11800003051758"></path></g><g opacity="1" transform="matrix(1,0,0,1,0,0)"><path stroke-linecap="round" stroke-linejoin="round" fill-opacity="0" stroke="rgb(2,2,2)" stroke-opacity="1" stroke-width="1.7" d=" M409.9700012207031,27.722999572753906 C409.9700012207031,27.722999572753906 432.2879943847656,46.79999923706055 432.2879943847656,46.79999923706055"></path></g></g><g opacity="1" transform="matrix(1,0,0,1,0,0)"><path fill="rgb(255,124,81)" fill-opacity="1" d=" M361.4859924316406,290.82000732421875 C376.7900085449219,245.0959930419922 426.2619934082031,220.43699645996094 471.9859924316406,235.74099731445312 C517.7100219726562,251.0449981689453 542.3690185546875,300.51800537109375 527.0650024414062,346.24200439453125 C511.760986328125,391.96600341796875 462.2879943847656,416.625 416.5639953613281,401.3210144042969 C370.8399963378906,386.0169982910156 346.1820068359375,336.54400634765625 361.4859924316406,290.82000732421875z"></path></g><g opacity="1" transform="matrix(1,0,0,1,0,0)"><g opacity="1" transform="matrix(1,0,0,1,0,0)"><g opacity="1" transform="matrix(1,0,0,1,0,0)"><path fill="rgb(255,124,81)" fill-opacity="1" d=" M352.2919921875,98.43299865722656 C358.281005859375,116.83799743652344 348.2149963378906,136.61099243164062 329.80999755859375,142.60000610351562 C311.4049987792969,148.58900451660156 291.6300048828125,138.5240020751953 285.6419982910156,120.11900329589844 C279.65399169921875,101.71399688720703 289.718994140625,81.94000244140625 308.1239929199219,75.95099639892578 C326.52899169921875,69.96199798583984 346.3030090332031,80.02799987792969 352.2919921875,98.43299865722656z"></path></g><g opacity="1" transform="matrix(1,0,0,1,0,0)"><path fill="rgb(255,124,81)" fill-opacity="1" d=" M239.93600463867188,33.6870002746582 C239.93600463867188,33.6870002746582 288.8869934082031,127.27100372314453 288.8869934082031,127.27100372314453 C288.8869934082031,127.27100372314453 350.93499755859375,94.91200256347656 350.93499755859375,94.91200256347656 C350.93499755859375,94.91200256347656 306.6839904785156,4.057000160217285 299.11199951171875,-3.3259999752044678 C299.11199951171875,-3.3259999752044678 239.93600463867188,33.6870002746582 239.93600463867188,33.6870002746582z"></path></g><g opacity="1" transform="matrix(1,0,0,1,0,0)"><path stroke-linecap="round" stroke-linejoin="round" fill-opacity="0" stroke="rgb(2,2,2)" stroke-opacity="1" stroke-width="1.7" d=" M315.02099609375,18.881999969482422 C315.02099609375,18.881999969482422 341.385009765625,66.99700164794922 341.385009765625,66.99700164794922"></path></g></g><g opacity="1" transform="matrix(1,0,0,1,0,0)"><g opacity="1" transform="matrix(1,0,0,1,0,0)"><g opacity="1" transform="matrix(1,0,0,1,0,0)"><g opacity="1" transform="matrix(1,0,0,1,0,0)"><g opacity="1" transform="matrix(1,0,0,1,0,0)"><path fill="rgb(2,139,52)" fill-opacity="1" d=" M426.6570129394531,345.1839904785156 C411.9259948730469,356.2099914550781 391.2640075683594,353.23699951171875 380.239990234375,338.50799560546875 C380.239990234375,338.50799560546875 111.427001953125,-20.650999069213867 111.427001953125,-20.650999069213867 C111.427001953125,-20.650999069213867 164.3520050048828,-60.26300048828125 164.3520050048828,-60.26300048828125 C164.3520050048828,-60.26300048828125 433.1650085449219,298.89599609375 433.1650085449219,298.89599609375 C444.1889953613281,313.625 441.2170104980469,334.2869873046875 426.6570129394531,345.1839904785156z"></path></g><g opacity="1" transform="matrix(1,0,0,1,0,0)"><path fill="rgb(2,2,2)" fill-opacity="1" d=" M426.6570129394531,345.1839904785156 C411.9259948730469,356.2099914550781 391.2640075683594,353.23699951171875 380.239990234375,338.50799560546875 C380.239990234375,338.50799560546875 364.60198974609375,317.6130065917969 364.60198974609375,317.6130065917969 C364.60198974609375,317.6130065917969 417.5270080566406,278.00201416015625 417.5270080566406,278.00201416015625 C417.5270080566406,278.00201416015625 433.1650085449219,298.89599609375 433.1650085449219,298.89599609375 C444.1889953613281,313.625 441.2170104980469,334.2869873046875 426.6570129394531,345.1839904785156z"></path></g><g opacity="1" transform="matrix(1,0,0,1,0,0)"><path fill="rgb(2,2,2)" fill-opacity="1" d=" M164.3520050048828,-60.26300048828125 C164.3520050048828,-60.26300048828125 145.54299926757812,-46.18600082397461 145.54299926757812,-46.18600082397461 C145.54299926757812,-46.18600082397461 111.427001953125,-20.650999069213867 111.427001953125,-20.650999069213867 C111.427001953125,-20.650999069213867 89.4540023803711,-80.36100006103516 89.4540023803711,-80.36100006103516 C89.4540023803711,-80.36100006103516 71.70099639892578,-129.07000732421875 71.70099639892578,-129.07000732421875 C71.70099639892578,-129.07000732421875 113.25900268554688,-98.1780014038086 113.25900268554688,-98.1780014038086 C113.25900268554688,-98.1780014038086 164.3520050048828,-60.26300048828125 164.3520050048828,-60.26300048828125z"></path></g><g opacity="1" transform="matrix(1,0,0,1,0,0)"><path fill="rgb(2,139,52)" fill-opacity="1" d=" M113.25900268554688,-98.1780014038086 C113.25900268554688,-98.1780014038086 89.4540023803711,-80.36100006103516 89.4540023803711,-80.36100006103516 C89.4540023803711,-80.36100006103516 71.70099639892578,-129.07000732421875 71.70099639892578,-129.07000732421875 C71.70099639892578,-129.07000732421875 113.25900268554688,-98.1780014038086 113.25900268554688,-98.1780014038086z"></path></g><g opacity="1" transform="matrix(1,0,0,1,0,0)"><path stroke-linecap="round" stroke-linejoin="round" fill-opacity="0" stroke="rgb(2,2,2)" stroke-opacity="1" stroke-width="1.7" d=" M337.802001953125,281.8900146484375 C337.802001953125,281.8900146484375 374.0639953613281,254.74899291992188 374.0639953613281,254.74899291992188"></path></g></g></g></g></g></g></g><g opacity="1" transform="matrix(1,0,0,1,0,0)"><g opacity="1" transform="matrix(1,0,0,1,0,0)"><path fill="rgb(239,228,181)" fill-opacity="1" d=" M548.02099609375,311.0419921875 C548.02099609375,311.0419921875 385.302001953125,401.20001220703125 385.302001953125,401.20001220703125 C385.302001953125,401.20001220703125 416.99200439453125,470.531005859375 416.99200439453125,470.531005859375 C416.99200439453125,470.531005859375 583.7139892578125,370.29901123046875 583.7139892578125,370.29901123046875 C583.7139892578125,370.29901123046875 548.02099609375,311.0419921875 548.02099609375,311.0419921875z"></path></g><g opacity="1" transform="matrix(1,0,0,1,0,0)"><path stroke-linecap="round" stroke-linejoin="round" fill-opacity="0" stroke="rgb(2,2,2)" stroke-opacity="1" stroke-width="1.7" d=" M429.1390075683594,378.6210021972656 C429.1390075683594,378.6210021972656 467.22698974609375,438.875 467.22698974609375,438.875"></path></g></g><g opacity="1" transform="matrix(1,0,0,1,0,0)"><path fill="rgb(2,2,2)" fill-opacity="1" d=" M407.8919982910156,470.531005859375 C407.8919982910156,470.531005859375 594.260986328125,363.7860107421875 594.260986328125,363.7860107421875 C594.260986328125,363.7860107421875 641.6740112304688,405.8590087890625 641.6740112304688,405.8590087890625 C641.6740112304688,405.8590087890625 422.5690002441406,537.3109741210938 422.5690002441406,537.3109741210938 C422.5690002441406,537.3109741210938 407.8919982910156,470.531005859375 407.8919982910156,470.531005859375z"></path></g></g><g transform="matrix(1,0,0,1,800,920)" opacity="1" style="display: block;"><g opacity="1" transform="matrix(1,0,0,1,0,0)"><path fill="rgb(255,124,81)" fill-opacity="1" d=" M194.24600219726562,-23.486000061035156 C187.427001953125,-22.875999450683594 159.88999938964844,-20.917999267578125 159.41200256347656,-0.8009999990463257 C159.03799438476562,14.914999961853027 178.48399353027344,23.667999267578125 203.54200744628906,31.33799934387207 C215.83999633789062,35.10300064086914 262.50799560546875,52.18199920654297 260.84100341796875,51.36800003051758 C260.84100341796875,51.36800003051758 275.4020080566406,-16.893999099731445 275.4020080566406,-16.893999099731445 C275.4020080566406,-16.893999099731445 208.95599365234375,-24.801000595092773 194.24600219726562,-23.486000061035156z"></path></g><g opacity="1" transform="matrix(1,0,0,1,0,0)"><path fill="rgb(255,124,81)" fill-opacity="1" d=" M286.6340026855469,-13.621999740600586 C304.02301025390625,-5.125 311.23199462890625,15.861000061035156 302.7349853515625,33.25 C294.2380065917969,50.638999938964844 273.25201416015625,57.847999572753906 255.86300659179688,49.35100173950195 C238.4739990234375,40.854000091552734 231.26499938964844,19.867000579833984 239.76199340820312,2.4779999256134033 C248.25900268554688,-14.91100025177002 269.2449951171875,-22.118999481201172 286.6340026855469,-13.621999740600586z"></path></g></g></g></svg>